G04 #@! TF.GenerationSoftware,KiCad,Pcbnew,(5.1.10)-1*
G04 #@! TF.CreationDate,2021-11-16T23:33:15-08:00*
G04 #@! TF.ProjectId,LedBoard,4c656442-6f61-4726-942e-6b696361645f,rev?*
G04 #@! TF.SameCoordinates,Original*
G04 #@! TF.FileFunction,Legend,Bot*
G04 #@! TF.FilePolarity,Positive*
%FSLAX46Y46*%
G04 Gerber Fmt 4.6, Leading zero omitted, Abs format (unit mm)*
G04 Created by KiCad (PCBNEW (5.1.10)-1) date 2021-11-16 23:33:15*
%MOMM*%
%LPD*%
G01*
G04 APERTURE LIST*
%ADD10C,0.100000*%
%ADD11C,0.150000*%
%ADD12R,1.600000X0.700000*%
%ADD13C,3.500001*%
G04 APERTURE END LIST*
D10*
X145788100Y-67921000D02*
X145388100Y-67921000D01*
X145788100Y-68221000D02*
X145788100Y-67921000D01*
X149388100Y-68221000D02*
X145788100Y-68221000D01*
X149388100Y-68021000D02*
X149388100Y-68221000D01*
X145788100Y-64621000D02*
X145788100Y-64921000D01*
X149388100Y-64621000D02*
X145788100Y-64621000D01*
X149388100Y-64921000D02*
X149388100Y-64621000D01*
D11*
X148326195Y-69873380D02*
X148326195Y-68873380D01*
X148088100Y-68873380D01*
X147945242Y-68921000D01*
X147850004Y-69016238D01*
X147802385Y-69111476D01*
X147754766Y-69301952D01*
X147754766Y-69444809D01*
X147802385Y-69635285D01*
X147850004Y-69730523D01*
X147945242Y-69825761D01*
X148088100Y-69873380D01*
X148326195Y-69873380D01*
X146802385Y-69873380D02*
X147373814Y-69873380D01*
X147088100Y-69873380D02*
X147088100Y-68873380D01*
X147183338Y-69016238D01*
X147278576Y-69111476D01*
X147373814Y-69159095D01*
%LPC*%
D12*
X146088100Y-67471000D03*
X146088100Y-66421000D03*
X146088100Y-65371000D03*
X149088100Y-67471000D03*
X149088100Y-66421000D03*
X149088100Y-65371000D03*
D13*
X149860000Y-73596500D03*
X149860000Y-59563000D03*
M02*
