G04 #@! TF.GenerationSoftware,KiCad,Pcbnew,(5.1.10)-1*
G04 #@! TF.CreationDate,2021-11-16T23:33:14-08:00*
G04 #@! TF.ProjectId,LedBoard,4c656442-6f61-4726-942e-6b696361645f,rev?*
G04 #@! TF.SameCoordinates,Original*
G04 #@! TF.FileFunction,Copper,L2,Bot*
G04 #@! TF.FilePolarity,Positive*
%FSLAX46Y46*%
G04 Gerber Fmt 4.6, Leading zero omitted, Abs format (unit mm)*
G04 Created by KiCad (PCBNEW (5.1.10)-1) date 2021-11-16 23:33:14*
%MOMM*%
%LPD*%
G01*
G04 APERTURE LIST*
G04 #@! TA.AperFunction,SMDPad,CuDef*
%ADD10R,1.600000X0.700000*%
G04 #@! TD*
G04 #@! TA.AperFunction,ComponentPad*
%ADD11C,3.500001*%
G04 #@! TD*
G04 #@! TA.AperFunction,ViaPad*
%ADD12C,0.800000*%
G04 #@! TD*
G04 #@! TA.AperFunction,Conductor*
%ADD13C,0.250000*%
G04 #@! TD*
G04 #@! TA.AperFunction,Conductor*
%ADD14C,0.254000*%
G04 #@! TD*
G04 #@! TA.AperFunction,Conductor*
%ADD15C,0.100000*%
G04 #@! TD*
G04 APERTURE END LIST*
D10*
X146088100Y-67471000D03*
X146088100Y-66421000D03*
X146088100Y-65371000D03*
X149088100Y-67471000D03*
X149088100Y-66421000D03*
X149088100Y-65371000D03*
D11*
X149860000Y-73596500D03*
X149860000Y-59563000D03*
D12*
X142079855Y-68926760D03*
X142026507Y-67928182D03*
X141986000Y-66929000D03*
X150545800Y-67475100D03*
X150482300Y-66446400D03*
X149085300Y-63792100D03*
D13*
X143535615Y-67471000D02*
X146088100Y-67471000D01*
X142079855Y-68926760D02*
X143535615Y-67471000D01*
X143533689Y-66421000D02*
X146088100Y-66421000D01*
X142026507Y-67928182D02*
X143533689Y-66421000D01*
X143544000Y-65371000D02*
X146088100Y-65371000D01*
X141986000Y-66929000D02*
X143544000Y-65371000D01*
X150541700Y-67471000D02*
X150545800Y-67475100D01*
X149088100Y-67471000D02*
X150541700Y-67471000D01*
X149113500Y-66446400D02*
X149088100Y-66421000D01*
X150482300Y-66446400D02*
X149113500Y-66446400D01*
X149088100Y-63794900D02*
X149085300Y-63792100D01*
X149088100Y-65371000D02*
X149088100Y-63794900D01*
D14*
X149878347Y-57622667D02*
X150250390Y-57734994D01*
X150593522Y-57917440D01*
X150894685Y-58163063D01*
X151142406Y-58462506D01*
X151327244Y-58804356D01*
X151442165Y-59175605D01*
X151486001Y-59592682D01*
X151486001Y-66187107D01*
X151477526Y-66144502D01*
X151399505Y-65956144D01*
X151286237Y-65786626D01*
X151142074Y-65642463D01*
X150972556Y-65529195D01*
X150784198Y-65451174D01*
X150584239Y-65411400D01*
X150526172Y-65411400D01*
X150526172Y-65021000D01*
X150513912Y-64896518D01*
X150477602Y-64776820D01*
X150418637Y-64666506D01*
X150339285Y-64569815D01*
X150242594Y-64490463D01*
X150132280Y-64431498D01*
X150012582Y-64395188D01*
X149932390Y-64387290D01*
X150002505Y-64282356D01*
X150080526Y-64093998D01*
X150120300Y-63894039D01*
X150120300Y-63690161D01*
X150080526Y-63490202D01*
X150002505Y-63301844D01*
X149889237Y-63132326D01*
X149745074Y-62988163D01*
X149575556Y-62874895D01*
X149387198Y-62796874D01*
X149187239Y-62757100D01*
X148983361Y-62757100D01*
X148783402Y-62796874D01*
X148595044Y-62874895D01*
X148425526Y-62988163D01*
X148281363Y-63132326D01*
X148168095Y-63301844D01*
X148090074Y-63490202D01*
X148050300Y-63690161D01*
X148050300Y-63894039D01*
X148090074Y-64093998D01*
X148168095Y-64282356D01*
X148238555Y-64387808D01*
X148163618Y-64395188D01*
X148043920Y-64431498D01*
X147933606Y-64490463D01*
X147836915Y-64569815D01*
X147757563Y-64666506D01*
X147698598Y-64776820D01*
X147662288Y-64896518D01*
X147650028Y-65021000D01*
X147650028Y-65721000D01*
X147662288Y-65845482D01*
X147677612Y-65896000D01*
X147662288Y-65946518D01*
X147650028Y-66071000D01*
X147650028Y-66771000D01*
X147662288Y-66895482D01*
X147677612Y-66946000D01*
X147662288Y-66996518D01*
X147650028Y-67121000D01*
X147650028Y-67821000D01*
X147662288Y-67945482D01*
X147698598Y-68065180D01*
X147757563Y-68175494D01*
X147836915Y-68272185D01*
X147933606Y-68351537D01*
X148043920Y-68410502D01*
X148163618Y-68446812D01*
X148288100Y-68459072D01*
X149888100Y-68459072D01*
X150012582Y-68446812D01*
X150113343Y-68416246D01*
X150243902Y-68470326D01*
X150443861Y-68510100D01*
X150647739Y-68510100D01*
X150847698Y-68470326D01*
X151036056Y-68392305D01*
X151205574Y-68279037D01*
X151349737Y-68134874D01*
X151463005Y-67965356D01*
X151486000Y-67909841D01*
X151486000Y-73322722D01*
X151444912Y-73741768D01*
X151332586Y-74113809D01*
X151150139Y-74456944D01*
X150904516Y-74758106D01*
X150605075Y-75005826D01*
X150263223Y-75190665D01*
X149891973Y-75305586D01*
X149474155Y-75349500D01*
X135745505Y-75349500D01*
X135325653Y-75308333D01*
X134953612Y-75196007D01*
X134610477Y-75013560D01*
X134309315Y-74767937D01*
X134061595Y-74468496D01*
X133876756Y-74126644D01*
X133761835Y-73755394D01*
X133718000Y-73338328D01*
X133718000Y-66827061D01*
X140951000Y-66827061D01*
X140951000Y-67030939D01*
X140990774Y-67230898D01*
X141068795Y-67419256D01*
X141098574Y-67463824D01*
X141031281Y-67626284D01*
X140991507Y-67826243D01*
X140991507Y-68030121D01*
X141031281Y-68230080D01*
X141109302Y-68418438D01*
X141146854Y-68474639D01*
X141084629Y-68624862D01*
X141044855Y-68824821D01*
X141044855Y-69028699D01*
X141084629Y-69228658D01*
X141162650Y-69417016D01*
X141275918Y-69586534D01*
X141420081Y-69730697D01*
X141589599Y-69843965D01*
X141777957Y-69921986D01*
X141977916Y-69961760D01*
X142181794Y-69961760D01*
X142381753Y-69921986D01*
X142570111Y-69843965D01*
X142739629Y-69730697D01*
X142883792Y-69586534D01*
X142997060Y-69417016D01*
X143075081Y-69228658D01*
X143114855Y-69028699D01*
X143114855Y-68966561D01*
X143850417Y-68231000D01*
X144803115Y-68231000D01*
X144836915Y-68272185D01*
X144933606Y-68351537D01*
X145043920Y-68410502D01*
X145163618Y-68446812D01*
X145288100Y-68459072D01*
X146888100Y-68459072D01*
X147012582Y-68446812D01*
X147132280Y-68410502D01*
X147242594Y-68351537D01*
X147339285Y-68272185D01*
X147418637Y-68175494D01*
X147477602Y-68065180D01*
X147513912Y-67945482D01*
X147526172Y-67821000D01*
X147526172Y-67121000D01*
X147513912Y-66996518D01*
X147498588Y-66946000D01*
X147513912Y-66895482D01*
X147526172Y-66771000D01*
X147526172Y-66071000D01*
X147513912Y-65946518D01*
X147498588Y-65896000D01*
X147513912Y-65845482D01*
X147526172Y-65721000D01*
X147526172Y-65021000D01*
X147513912Y-64896518D01*
X147477602Y-64776820D01*
X147418637Y-64666506D01*
X147339285Y-64569815D01*
X147242594Y-64490463D01*
X147132280Y-64431498D01*
X147012582Y-64395188D01*
X146888100Y-64382928D01*
X145288100Y-64382928D01*
X145163618Y-64395188D01*
X145043920Y-64431498D01*
X144933606Y-64490463D01*
X144836915Y-64569815D01*
X144803115Y-64611000D01*
X143581325Y-64611000D01*
X143544000Y-64607324D01*
X143506675Y-64611000D01*
X143506667Y-64611000D01*
X143395014Y-64621997D01*
X143251753Y-64665454D01*
X143119724Y-64736026D01*
X143003999Y-64830999D01*
X142980201Y-64859997D01*
X141946199Y-65894000D01*
X141884061Y-65894000D01*
X141684102Y-65933774D01*
X141495744Y-66011795D01*
X141326226Y-66125063D01*
X141182063Y-66269226D01*
X141068795Y-66438744D01*
X140990774Y-66627102D01*
X140951000Y-66827061D01*
X133718000Y-66827061D01*
X133718000Y-59608279D01*
X133759088Y-59189232D01*
X133871415Y-58817189D01*
X134053861Y-58474057D01*
X134299484Y-58172894D01*
X134598927Y-57925173D01*
X134940777Y-57740335D01*
X135312026Y-57625414D01*
X135730796Y-57581400D01*
X149457475Y-57581400D01*
X149878347Y-57622667D01*
G04 #@! TA.AperFunction,Conductor*
D15*
G36*
X149878347Y-57622667D02*
G01*
X150250390Y-57734994D01*
X150593522Y-57917440D01*
X150894685Y-58163063D01*
X151142406Y-58462506D01*
X151327244Y-58804356D01*
X151442165Y-59175605D01*
X151486001Y-59592682D01*
X151486001Y-66187107D01*
X151477526Y-66144502D01*
X151399505Y-65956144D01*
X151286237Y-65786626D01*
X151142074Y-65642463D01*
X150972556Y-65529195D01*
X150784198Y-65451174D01*
X150584239Y-65411400D01*
X150526172Y-65411400D01*
X150526172Y-65021000D01*
X150513912Y-64896518D01*
X150477602Y-64776820D01*
X150418637Y-64666506D01*
X150339285Y-64569815D01*
X150242594Y-64490463D01*
X150132280Y-64431498D01*
X150012582Y-64395188D01*
X149932390Y-64387290D01*
X150002505Y-64282356D01*
X150080526Y-64093998D01*
X150120300Y-63894039D01*
X150120300Y-63690161D01*
X150080526Y-63490202D01*
X150002505Y-63301844D01*
X149889237Y-63132326D01*
X149745074Y-62988163D01*
X149575556Y-62874895D01*
X149387198Y-62796874D01*
X149187239Y-62757100D01*
X148983361Y-62757100D01*
X148783402Y-62796874D01*
X148595044Y-62874895D01*
X148425526Y-62988163D01*
X148281363Y-63132326D01*
X148168095Y-63301844D01*
X148090074Y-63490202D01*
X148050300Y-63690161D01*
X148050300Y-63894039D01*
X148090074Y-64093998D01*
X148168095Y-64282356D01*
X148238555Y-64387808D01*
X148163618Y-64395188D01*
X148043920Y-64431498D01*
X147933606Y-64490463D01*
X147836915Y-64569815D01*
X147757563Y-64666506D01*
X147698598Y-64776820D01*
X147662288Y-64896518D01*
X147650028Y-65021000D01*
X147650028Y-65721000D01*
X147662288Y-65845482D01*
X147677612Y-65896000D01*
X147662288Y-65946518D01*
X147650028Y-66071000D01*
X147650028Y-66771000D01*
X147662288Y-66895482D01*
X147677612Y-66946000D01*
X147662288Y-66996518D01*
X147650028Y-67121000D01*
X147650028Y-67821000D01*
X147662288Y-67945482D01*
X147698598Y-68065180D01*
X147757563Y-68175494D01*
X147836915Y-68272185D01*
X147933606Y-68351537D01*
X148043920Y-68410502D01*
X148163618Y-68446812D01*
X148288100Y-68459072D01*
X149888100Y-68459072D01*
X150012582Y-68446812D01*
X150113343Y-68416246D01*
X150243902Y-68470326D01*
X150443861Y-68510100D01*
X150647739Y-68510100D01*
X150847698Y-68470326D01*
X151036056Y-68392305D01*
X151205574Y-68279037D01*
X151349737Y-68134874D01*
X151463005Y-67965356D01*
X151486000Y-67909841D01*
X151486000Y-73322722D01*
X151444912Y-73741768D01*
X151332586Y-74113809D01*
X151150139Y-74456944D01*
X150904516Y-74758106D01*
X150605075Y-75005826D01*
X150263223Y-75190665D01*
X149891973Y-75305586D01*
X149474155Y-75349500D01*
X135745505Y-75349500D01*
X135325653Y-75308333D01*
X134953612Y-75196007D01*
X134610477Y-75013560D01*
X134309315Y-74767937D01*
X134061595Y-74468496D01*
X133876756Y-74126644D01*
X133761835Y-73755394D01*
X133718000Y-73338328D01*
X133718000Y-66827061D01*
X140951000Y-66827061D01*
X140951000Y-67030939D01*
X140990774Y-67230898D01*
X141068795Y-67419256D01*
X141098574Y-67463824D01*
X141031281Y-67626284D01*
X140991507Y-67826243D01*
X140991507Y-68030121D01*
X141031281Y-68230080D01*
X141109302Y-68418438D01*
X141146854Y-68474639D01*
X141084629Y-68624862D01*
X141044855Y-68824821D01*
X141044855Y-69028699D01*
X141084629Y-69228658D01*
X141162650Y-69417016D01*
X141275918Y-69586534D01*
X141420081Y-69730697D01*
X141589599Y-69843965D01*
X141777957Y-69921986D01*
X141977916Y-69961760D01*
X142181794Y-69961760D01*
X142381753Y-69921986D01*
X142570111Y-69843965D01*
X142739629Y-69730697D01*
X142883792Y-69586534D01*
X142997060Y-69417016D01*
X143075081Y-69228658D01*
X143114855Y-69028699D01*
X143114855Y-68966561D01*
X143850417Y-68231000D01*
X144803115Y-68231000D01*
X144836915Y-68272185D01*
X144933606Y-68351537D01*
X145043920Y-68410502D01*
X145163618Y-68446812D01*
X145288100Y-68459072D01*
X146888100Y-68459072D01*
X147012582Y-68446812D01*
X147132280Y-68410502D01*
X147242594Y-68351537D01*
X147339285Y-68272185D01*
X147418637Y-68175494D01*
X147477602Y-68065180D01*
X147513912Y-67945482D01*
X147526172Y-67821000D01*
X147526172Y-67121000D01*
X147513912Y-66996518D01*
X147498588Y-66946000D01*
X147513912Y-66895482D01*
X147526172Y-66771000D01*
X147526172Y-66071000D01*
X147513912Y-65946518D01*
X147498588Y-65896000D01*
X147513912Y-65845482D01*
X147526172Y-65721000D01*
X147526172Y-65021000D01*
X147513912Y-64896518D01*
X147477602Y-64776820D01*
X147418637Y-64666506D01*
X147339285Y-64569815D01*
X147242594Y-64490463D01*
X147132280Y-64431498D01*
X147012582Y-64395188D01*
X146888100Y-64382928D01*
X145288100Y-64382928D01*
X145163618Y-64395188D01*
X145043920Y-64431498D01*
X144933606Y-64490463D01*
X144836915Y-64569815D01*
X144803115Y-64611000D01*
X143581325Y-64611000D01*
X143544000Y-64607324D01*
X143506675Y-64611000D01*
X143506667Y-64611000D01*
X143395014Y-64621997D01*
X143251753Y-64665454D01*
X143119724Y-64736026D01*
X143003999Y-64830999D01*
X142980201Y-64859997D01*
X141946199Y-65894000D01*
X141884061Y-65894000D01*
X141684102Y-65933774D01*
X141495744Y-66011795D01*
X141326226Y-66125063D01*
X141182063Y-66269226D01*
X141068795Y-66438744D01*
X140990774Y-66627102D01*
X140951000Y-66827061D01*
X133718000Y-66827061D01*
X133718000Y-59608279D01*
X133759088Y-59189232D01*
X133871415Y-58817189D01*
X134053861Y-58474057D01*
X134299484Y-58172894D01*
X134598927Y-57925173D01*
X134940777Y-57740335D01*
X135312026Y-57625414D01*
X135730796Y-57581400D01*
X149457475Y-57581400D01*
X149878347Y-57622667D01*
G37*
G04 #@! TD.AperFunction*
M02*
