G04 #@! TF.GenerationSoftware,KiCad,Pcbnew,(5.1.10)-1*
G04 #@! TF.CreationDate,2021-11-16T23:33:15-08:00*
G04 #@! TF.ProjectId,LedBoard,4c656442-6f61-4726-942e-6b696361645f,rev?*
G04 #@! TF.SameCoordinates,Original*
G04 #@! TF.FileFunction,Legend,Top*
G04 #@! TF.FilePolarity,Positive*
%FSLAX46Y46*%
G04 Gerber Fmt 4.6, Leading zero omitted, Abs format (unit mm)*
G04 Created by KiCad (PCBNEW (5.1.10)-1) date 2021-11-16 23:33:15*
%MOMM*%
%LPD*%
G01*
G04 APERTURE LIST*
%ADD10C,0.150000*%
%ADD11C,0.010000*%
%ADD12R,2.799999X2.100000*%
%ADD13R,1.900000X0.600000*%
%ADD14C,3.500001*%
G04 APERTURE END LIST*
D10*
X139379300Y-60664300D02*
X139929300Y-60664300D01*
X139929300Y-60664300D02*
X139929300Y-63114300D01*
X138779300Y-63914300D02*
X138779300Y-68914300D01*
X139929300Y-69714300D02*
X139929300Y-72164300D01*
X139929300Y-72164300D02*
X139379300Y-72164300D01*
X135879300Y-72164300D02*
X133179300Y-72164300D01*
X133179300Y-72164300D02*
X133179300Y-60664300D01*
X133179300Y-60664300D02*
X135879300Y-60664300D01*
X141279300Y-62714300D02*
G75*
G03*
X141279300Y-62714300I-350000J0D01*
G01*
D11*
G36*
X143553765Y-66110995D02*
G01*
X143552457Y-66115222D01*
X143550811Y-66119620D01*
X143547970Y-66126975D01*
X143544618Y-66135933D01*
X143541841Y-66143554D01*
X143539212Y-66150481D01*
X143536840Y-66156011D01*
X143535198Y-66159051D01*
X143535084Y-66159185D01*
X143534868Y-66158368D01*
X143535812Y-66154572D01*
X143537726Y-66148485D01*
X143539187Y-66144231D01*
X143543456Y-66132464D01*
X143547265Y-66122636D01*
X143550419Y-66115209D01*
X143552723Y-66110645D01*
X143553864Y-66109362D01*
X143553765Y-66110995D01*
G37*
X143553765Y-66110995D02*
X143552457Y-66115222D01*
X143550811Y-66119620D01*
X143547970Y-66126975D01*
X143544618Y-66135933D01*
X143541841Y-66143554D01*
X143539212Y-66150481D01*
X143536840Y-66156011D01*
X143535198Y-66159051D01*
X143535084Y-66159185D01*
X143534868Y-66158368D01*
X143535812Y-66154572D01*
X143537726Y-66148485D01*
X143539187Y-66144231D01*
X143543456Y-66132464D01*
X143547265Y-66122636D01*
X143550419Y-66115209D01*
X143552723Y-66110645D01*
X143553864Y-66109362D01*
X143553765Y-66110995D01*
G36*
X147702954Y-62876460D02*
G01*
X147702954Y-62876472D01*
X147702135Y-62878421D01*
X147699810Y-62883471D01*
X147696176Y-62891207D01*
X147691429Y-62901214D01*
X147685766Y-62913075D01*
X147679385Y-62926376D01*
X147674403Y-62936719D01*
X147629281Y-63031551D01*
X147583768Y-63129746D01*
X147538090Y-63230808D01*
X147492470Y-63334239D01*
X147447132Y-63439545D01*
X147442615Y-63450177D01*
X147431569Y-63476287D01*
X147421815Y-63499541D01*
X147413067Y-63520657D01*
X147405037Y-63540356D01*
X147397440Y-63559355D01*
X147389990Y-63578373D01*
X147382400Y-63598130D01*
X147374383Y-63619344D01*
X147365654Y-63642734D01*
X147362069Y-63652400D01*
X147352422Y-63677601D01*
X147342180Y-63702626D01*
X147331109Y-63727961D01*
X147318978Y-63754096D01*
X147305553Y-63781516D01*
X147290603Y-63810711D01*
X147273895Y-63842167D01*
X147255878Y-63875139D01*
X147207922Y-63958029D01*
X147156384Y-64039729D01*
X147101487Y-64119927D01*
X147043457Y-64198310D01*
X146982519Y-64274565D01*
X146918897Y-64348380D01*
X146901051Y-64368111D01*
X146891334Y-64378892D01*
X146883964Y-64387466D01*
X146878522Y-64394382D01*
X146874588Y-64400193D01*
X146871743Y-64405450D01*
X146870531Y-64408203D01*
X146862151Y-64424871D01*
X146851583Y-64438822D01*
X146838322Y-64450590D01*
X146821860Y-64460711D01*
X146819816Y-64461754D01*
X146814652Y-64464552D01*
X146809421Y-64467896D01*
X146803665Y-64472162D01*
X146796922Y-64477728D01*
X146788736Y-64484970D01*
X146778645Y-64494266D01*
X146767880Y-64504394D01*
X146756806Y-64514725D01*
X146745636Y-64524874D01*
X146734991Y-64534298D01*
X146725488Y-64542454D01*
X146717746Y-64548800D01*
X146713781Y-64551822D01*
X146706330Y-64557611D01*
X146697146Y-64565369D01*
X146687199Y-64574243D01*
X146677461Y-64583378D01*
X146673564Y-64587190D01*
X146664498Y-64595917D01*
X146655084Y-64604508D01*
X146646199Y-64612197D01*
X146638717Y-64618213D01*
X146635832Y-64620315D01*
X146629026Y-64625095D01*
X146620083Y-64631492D01*
X146609999Y-64638786D01*
X146599770Y-64646259D01*
X146596100Y-64648961D01*
X146570651Y-64667399D01*
X146545950Y-64684619D01*
X146522850Y-64700032D01*
X146512765Y-64706500D01*
X146493440Y-64718984D01*
X146476685Y-64730377D01*
X146462767Y-64740488D01*
X146451955Y-64749126D01*
X146448239Y-64752422D01*
X146437142Y-64762696D01*
X146444329Y-64763902D01*
X146453338Y-64765360D01*
X146465612Y-64767270D01*
X146480546Y-64769541D01*
X146497536Y-64772087D01*
X146515977Y-64774818D01*
X146535262Y-64777646D01*
X146554788Y-64780483D01*
X146573950Y-64783240D01*
X146592141Y-64785829D01*
X146608759Y-64788161D01*
X146623196Y-64790148D01*
X146632247Y-64791362D01*
X146668553Y-64796020D01*
X146701847Y-64799996D01*
X146732948Y-64803358D01*
X146762679Y-64806171D01*
X146791861Y-64808504D01*
X146821315Y-64810423D01*
X146851864Y-64811996D01*
X146884328Y-64813289D01*
X146910670Y-64814123D01*
X146931823Y-64814774D01*
X146949776Y-64815434D01*
X146965232Y-64816152D01*
X146978899Y-64816974D01*
X146991481Y-64817947D01*
X147003685Y-64819119D01*
X147016217Y-64820537D01*
X147026923Y-64821875D01*
X147120591Y-64833394D01*
X147211443Y-64843381D01*
X147300239Y-64851883D01*
X147387735Y-64858951D01*
X147474691Y-64864634D01*
X147561863Y-64868980D01*
X147650011Y-64872040D01*
X147739892Y-64873862D01*
X147832264Y-64874495D01*
X147837770Y-64874496D01*
X147906264Y-64874207D01*
X147971721Y-64873333D01*
X148034976Y-64871842D01*
X148096859Y-64869702D01*
X148158204Y-64866880D01*
X148219843Y-64863342D01*
X148282609Y-64859057D01*
X148336000Y-64854922D01*
X148376893Y-64851429D01*
X148418835Y-64847525D01*
X148461483Y-64843257D01*
X148504491Y-64838670D01*
X148547515Y-64833811D01*
X148590208Y-64828724D01*
X148632227Y-64823457D01*
X148673225Y-64818054D01*
X148712859Y-64812563D01*
X148750782Y-64807027D01*
X148786650Y-64801494D01*
X148820118Y-64796010D01*
X148850841Y-64790619D01*
X148878474Y-64785369D01*
X148902671Y-64780305D01*
X148910185Y-64778603D01*
X148943742Y-64771078D01*
X148978086Y-64763845D01*
X149012115Y-64757121D01*
X149044726Y-64751122D01*
X149074818Y-64746065D01*
X149077485Y-64745645D01*
X149091490Y-64743407D01*
X149106134Y-64740987D01*
X149120245Y-64738585D01*
X149132655Y-64736399D01*
X149140985Y-64734861D01*
X149153504Y-64732712D01*
X149163406Y-64731520D01*
X149170217Y-64731338D01*
X149171950Y-64731555D01*
X149178492Y-64732916D01*
X149169019Y-64739619D01*
X149158114Y-64747478D01*
X149144782Y-64757319D01*
X149129637Y-64768672D01*
X149113297Y-64781067D01*
X149096376Y-64794035D01*
X149079491Y-64807105D01*
X149063257Y-64819808D01*
X149048290Y-64831675D01*
X149047200Y-64832547D01*
X148969485Y-64896991D01*
X148894103Y-64964085D01*
X148820829Y-65034051D01*
X148749433Y-65107112D01*
X148679689Y-65183491D01*
X148631011Y-65239900D01*
X148611291Y-65262779D01*
X148589143Y-65287579D01*
X148565135Y-65313709D01*
X148539833Y-65340578D01*
X148513803Y-65367598D01*
X148487613Y-65394176D01*
X148461829Y-65419723D01*
X148437018Y-65443648D01*
X148420993Y-65458689D01*
X148346160Y-65525872D01*
X148270663Y-65589333D01*
X148194529Y-65649054D01*
X148117783Y-65705020D01*
X148040455Y-65757212D01*
X147962570Y-65805613D01*
X147884156Y-65850207D01*
X147805240Y-65890976D01*
X147725849Y-65927903D01*
X147646010Y-65960971D01*
X147596400Y-65979491D01*
X147557009Y-65993097D01*
X147515594Y-66006501D01*
X147473306Y-66019360D01*
X147431302Y-66031332D01*
X147390733Y-66042075D01*
X147362008Y-66049103D01*
X147350347Y-66052010D01*
X147336015Y-66055846D01*
X147320052Y-66060317D01*
X147303498Y-66065128D01*
X147287393Y-66069987D01*
X147279947Y-66072306D01*
X147190789Y-66099020D01*
X147102671Y-66122568D01*
X147015000Y-66143058D01*
X146927183Y-66160599D01*
X146838629Y-66175301D01*
X146748745Y-66187270D01*
X146656938Y-66196618D01*
X146567770Y-66203146D01*
X146550032Y-66204041D01*
X146529082Y-66204813D01*
X146505614Y-66205456D01*
X146480322Y-66205964D01*
X146453899Y-66206331D01*
X146427040Y-66206551D01*
X146400439Y-66206619D01*
X146374788Y-66206528D01*
X146350783Y-66206274D01*
X146329117Y-66205849D01*
X146311816Y-66205301D01*
X146223676Y-66200675D01*
X146138024Y-66193811D01*
X146054094Y-66184634D01*
X145971121Y-66173071D01*
X145958254Y-66171053D01*
X145918116Y-66164666D01*
X145895271Y-66169119D01*
X145851331Y-66179228D01*
X145807485Y-66192310D01*
X145764336Y-66208103D01*
X145722490Y-66226348D01*
X145682552Y-66246785D01*
X145645129Y-66269151D01*
X145616036Y-66289272D01*
X145602468Y-66299330D01*
X145606566Y-66305458D01*
X145614760Y-66320604D01*
X145620623Y-66337525D01*
X145623704Y-66354750D01*
X145624062Y-66362381D01*
X145624441Y-66368871D01*
X145625718Y-66376079D01*
X145628105Y-66384883D01*
X145631811Y-66396156D01*
X145633010Y-66399582D01*
X145652387Y-66459234D01*
X145669321Y-66521373D01*
X145683702Y-66585351D01*
X145695422Y-66650519D01*
X145704369Y-66716230D01*
X145710435Y-66781836D01*
X145713510Y-66846689D01*
X145713891Y-66877223D01*
X145712131Y-66947961D01*
X145706805Y-67019531D01*
X145698008Y-67091398D01*
X145685834Y-67163023D01*
X145670378Y-67233868D01*
X145651732Y-67303397D01*
X145629992Y-67371071D01*
X145624961Y-67385223D01*
X145620376Y-67397865D01*
X145616260Y-67409040D01*
X145612428Y-67419096D01*
X145608694Y-67428380D01*
X145604873Y-67437241D01*
X145600781Y-67446024D01*
X145596233Y-67455077D01*
X145591043Y-67464748D01*
X145585027Y-67475384D01*
X145577999Y-67487332D01*
X145569775Y-67500939D01*
X145560170Y-67516552D01*
X145548998Y-67534520D01*
X145536075Y-67555189D01*
X145525046Y-67572793D01*
X145498857Y-67614615D01*
X145474660Y-67653325D01*
X145452346Y-67689105D01*
X145431807Y-67722137D01*
X145412935Y-67752604D01*
X145395620Y-67780689D01*
X145379755Y-67806573D01*
X145365231Y-67830441D01*
X145351939Y-67852473D01*
X145339770Y-67872853D01*
X145328617Y-67891763D01*
X145318371Y-67909385D01*
X145308922Y-67925903D01*
X145300164Y-67941499D01*
X145291986Y-67956354D01*
X145284282Y-67970653D01*
X145276941Y-67984577D01*
X145269856Y-67998309D01*
X145262918Y-68012031D01*
X145257869Y-68022177D01*
X145247567Y-68043222D01*
X145238725Y-68061825D01*
X145230914Y-68078968D01*
X145223706Y-68095629D01*
X145216671Y-68112790D01*
X145209382Y-68131430D01*
X145204598Y-68144025D01*
X145185445Y-68199673D01*
X145168911Y-68257731D01*
X145155082Y-68317632D01*
X145144046Y-68378807D01*
X145135891Y-68440688D01*
X145130706Y-68502708D01*
X145128579Y-68564298D01*
X145129597Y-68624891D01*
X145129709Y-68627380D01*
X145130409Y-68642650D01*
X145131125Y-68658371D01*
X145131812Y-68673558D01*
X145132427Y-68687225D01*
X145132923Y-68698389D01*
X145133086Y-68702109D01*
X145132836Y-68740424D01*
X145128731Y-68778588D01*
X145120763Y-68816616D01*
X145108926Y-68854522D01*
X145093214Y-68892321D01*
X145073621Y-68930029D01*
X145050140Y-68967660D01*
X145022765Y-69005229D01*
X144991490Y-69042750D01*
X144985986Y-69048903D01*
X144943584Y-69094692D01*
X144902006Y-69137179D01*
X144860796Y-69176754D01*
X144819502Y-69213807D01*
X144777668Y-69248728D01*
X144734840Y-69281908D01*
X144690563Y-69313737D01*
X144644383Y-69344605D01*
X144633462Y-69351599D01*
X144618607Y-69361103D01*
X144604954Y-69369998D01*
X144591921Y-69378688D01*
X144578927Y-69387577D01*
X144565393Y-69397071D01*
X144550736Y-69407573D01*
X144534377Y-69419488D01*
X144515735Y-69433220D01*
X144507502Y-69439317D01*
X144487058Y-69454483D01*
X144469439Y-69467573D01*
X144454325Y-69478829D01*
X144441397Y-69488494D01*
X144430333Y-69496811D01*
X144420814Y-69504022D01*
X144412521Y-69510370D01*
X144405131Y-69516097D01*
X144398327Y-69521445D01*
X144391786Y-69526659D01*
X144385190Y-69531979D01*
X144384725Y-69532356D01*
X144370789Y-69543645D01*
X144359504Y-69552750D01*
X144350495Y-69559963D01*
X144343384Y-69565571D01*
X144337796Y-69569864D01*
X144333355Y-69573131D01*
X144329686Y-69575662D01*
X144326413Y-69577746D01*
X144323539Y-69579453D01*
X144316779Y-69583218D01*
X144312910Y-69584931D01*
X144311567Y-69584700D01*
X144312279Y-69582812D01*
X144314476Y-69579736D01*
X144318822Y-69574198D01*
X144324908Y-69566691D01*
X144332325Y-69557705D01*
X144340663Y-69547734D01*
X144349515Y-69537269D01*
X144358469Y-69526803D01*
X144367118Y-69516826D01*
X144367935Y-69515893D01*
X144377656Y-69505078D01*
X144389600Y-69492260D01*
X144403188Y-69478021D01*
X144417843Y-69462943D01*
X144432988Y-69447609D01*
X144448046Y-69432603D01*
X144462439Y-69418505D01*
X144475590Y-69405900D01*
X144486922Y-69395370D01*
X144490831Y-69391855D01*
X144503888Y-69379835D01*
X144519014Y-69365170D01*
X144535838Y-69348265D01*
X144553990Y-69329527D01*
X144573098Y-69309362D01*
X144592791Y-69288177D01*
X144612699Y-69266378D01*
X144632450Y-69244372D01*
X144651673Y-69222564D01*
X144669998Y-69201362D01*
X144687054Y-69181171D01*
X144702469Y-69162399D01*
X144715873Y-69145451D01*
X144716481Y-69144662D01*
X144750315Y-69097966D01*
X144782468Y-69048057D01*
X144812748Y-68995336D01*
X144840960Y-68940204D01*
X144866911Y-68883061D01*
X144890407Y-68824309D01*
X144911255Y-68764348D01*
X144929130Y-68704070D01*
X144932629Y-68690939D01*
X144936151Y-68677329D01*
X144939555Y-68663821D01*
X144942700Y-68651000D01*
X144945446Y-68639450D01*
X144947653Y-68629754D01*
X144949180Y-68622497D01*
X144949886Y-68618261D01*
X144949917Y-68617675D01*
X144949310Y-68618394D01*
X144947706Y-68622198D01*
X144945348Y-68628470D01*
X144942481Y-68636590D01*
X144942456Y-68636662D01*
X144926654Y-68677440D01*
X144908119Y-68715691D01*
X144886702Y-68751613D01*
X144862254Y-68785403D01*
X144834625Y-68817257D01*
X144803666Y-68847374D01*
X144769226Y-68875951D01*
X144750693Y-68889697D01*
X144733530Y-68901559D01*
X144715772Y-68912955D01*
X144696772Y-68924259D01*
X144675883Y-68935847D01*
X144652456Y-68948094D01*
X144632485Y-68958107D01*
X144568697Y-68991532D01*
X144504850Y-69028814D01*
X144441016Y-69069906D01*
X144377267Y-69114757D01*
X144313675Y-69163321D01*
X144250310Y-69215549D01*
X144247736Y-69217752D01*
X144233579Y-69229853D01*
X144218017Y-69243094D01*
X144201941Y-69256722D01*
X144186240Y-69269984D01*
X144171807Y-69282125D01*
X144160631Y-69291474D01*
X144147430Y-69302518D01*
X144135737Y-69312410D01*
X144124974Y-69321664D01*
X144114563Y-69330792D01*
X144103927Y-69340311D01*
X144092490Y-69350733D01*
X144079673Y-69362572D01*
X144064900Y-69376344D01*
X144056605Y-69384109D01*
X144045389Y-69394499D01*
X144034284Y-69404561D01*
X144023672Y-69413972D01*
X144013933Y-69422408D01*
X144005448Y-69429544D01*
X143998596Y-69435057D01*
X143993760Y-69438622D01*
X143991319Y-69439914D01*
X143991144Y-69439865D01*
X143991879Y-69437943D01*
X143994873Y-69433355D01*
X143999869Y-69426424D01*
X144006608Y-69417472D01*
X144014833Y-69406821D01*
X144024285Y-69394794D01*
X144034706Y-69381713D01*
X144045839Y-69367902D01*
X144057426Y-69353682D01*
X144069207Y-69339377D01*
X144080926Y-69325308D01*
X144092324Y-69311798D01*
X144103144Y-69299170D01*
X144110048Y-69291241D01*
X144125923Y-69273426D01*
X144144612Y-69252957D01*
X144166120Y-69229831D01*
X144190448Y-69204044D01*
X144217601Y-69175594D01*
X144247580Y-69144477D01*
X144280390Y-69110690D01*
X144316032Y-69074231D01*
X144354511Y-69035095D01*
X144392966Y-68996170D01*
X144404351Y-68984663D01*
X144414829Y-68974043D01*
X144424567Y-68964117D01*
X144433733Y-68954694D01*
X144442493Y-68945579D01*
X144451015Y-68936582D01*
X144459466Y-68927509D01*
X144468014Y-68918169D01*
X144476826Y-68908368D01*
X144486068Y-68897915D01*
X144495909Y-68886617D01*
X144506515Y-68874282D01*
X144518053Y-68860717D01*
X144530692Y-68845730D01*
X144544598Y-68829129D01*
X144559938Y-68810720D01*
X144576880Y-68790313D01*
X144595591Y-68767713D01*
X144616238Y-68742730D01*
X144638988Y-68715170D01*
X144664009Y-68684842D01*
X144671518Y-68675739D01*
X144687876Y-68654822D01*
X144705424Y-68630303D01*
X144718220Y-68611099D01*
X144950139Y-68611099D01*
X144950498Y-68613633D01*
X144951165Y-68613663D01*
X144951632Y-68611048D01*
X144951320Y-68609919D01*
X144950452Y-68609179D01*
X144950139Y-68611099D01*
X144718220Y-68611099D01*
X144723319Y-68603447D01*
X144951939Y-68603447D01*
X144952916Y-68604423D01*
X144953893Y-68603447D01*
X144952916Y-68602470D01*
X144951939Y-68603447D01*
X144723319Y-68603447D01*
X144724097Y-68602280D01*
X144743828Y-68570850D01*
X144753061Y-68555577D01*
X144793222Y-68485317D01*
X144829772Y-68414937D01*
X144862682Y-68344519D01*
X144891923Y-68274147D01*
X144917466Y-68203904D01*
X144939283Y-68133873D01*
X144957345Y-68064137D01*
X144971624Y-67994779D01*
X144982089Y-67925883D01*
X144987080Y-67878570D01*
X144987702Y-67869871D01*
X144988350Y-67858146D01*
X144988988Y-67844278D01*
X144989576Y-67829148D01*
X144990076Y-67813638D01*
X144990323Y-67804323D01*
X144990111Y-67733058D01*
X144986100Y-67661365D01*
X144978335Y-67589512D01*
X144966862Y-67517766D01*
X144951728Y-67446393D01*
X144932978Y-67375660D01*
X144910657Y-67305834D01*
X144898749Y-67272877D01*
X144890807Y-67253173D01*
X144880803Y-67230778D01*
X144868981Y-67206156D01*
X144855584Y-67179769D01*
X144840859Y-67152081D01*
X144825049Y-67123556D01*
X144808398Y-67094655D01*
X144791152Y-67065843D01*
X144779679Y-67047288D01*
X144768969Y-67030382D01*
X144758974Y-67015065D01*
X144749296Y-67000809D01*
X144739537Y-66987086D01*
X144729299Y-66973370D01*
X144718185Y-66959133D01*
X144705796Y-66943847D01*
X144691735Y-66926985D01*
X144675603Y-66908020D01*
X144667428Y-66898502D01*
X144657850Y-66887379D01*
X144646340Y-66874014D01*
X144633515Y-66859124D01*
X144619994Y-66843426D01*
X144606394Y-66827638D01*
X144593335Y-66812479D01*
X144587490Y-66805694D01*
X144564465Y-66778840D01*
X144543801Y-66754453D01*
X144525184Y-66732150D01*
X144508303Y-66711549D01*
X144492842Y-66692267D01*
X144478491Y-66673920D01*
X144464935Y-66656127D01*
X144461564Y-66651627D01*
X144432733Y-66611956D01*
X144406950Y-66574175D01*
X144384063Y-66537934D01*
X144363919Y-66502883D01*
X144346365Y-66468672D01*
X144331247Y-66434951D01*
X144318414Y-66401371D01*
X144307710Y-66367581D01*
X144298985Y-66333231D01*
X144292084Y-66297973D01*
X144286854Y-66261454D01*
X144285468Y-66249062D01*
X144284511Y-66236902D01*
X144283804Y-66221738D01*
X144283348Y-66204466D01*
X144283142Y-66185984D01*
X144283188Y-66167187D01*
X144283483Y-66148970D01*
X144284030Y-66132231D01*
X144284827Y-66117865D01*
X144285468Y-66110339D01*
X144293732Y-66048608D01*
X144305874Y-65987285D01*
X144321880Y-65926437D01*
X144332743Y-65891945D01*
X144336861Y-65880086D01*
X144342057Y-65865850D01*
X144347987Y-65850113D01*
X144354310Y-65833751D01*
X144360684Y-65817641D01*
X144366765Y-65802659D01*
X144372212Y-65789680D01*
X144376376Y-65780246D01*
X144379489Y-65772992D01*
X144381687Y-65766955D01*
X144382637Y-65763092D01*
X144382594Y-65762375D01*
X144380504Y-65760753D01*
X144375533Y-65758160D01*
X144368464Y-65754976D01*
X144361524Y-65752142D01*
X144325094Y-65739699D01*
X144287503Y-65730294D01*
X144249495Y-65724054D01*
X144211815Y-65721108D01*
X144181647Y-65721241D01*
X144163433Y-65722405D01*
X144144986Y-65724242D01*
X144126962Y-65726640D01*
X144110015Y-65729483D01*
X144094800Y-65732658D01*
X144081971Y-65736052D01*
X144072183Y-65739551D01*
X144069777Y-65740686D01*
X144063187Y-65743606D01*
X144055198Y-65746525D01*
X144051195Y-65747766D01*
X144046102Y-65749461D01*
X144041714Y-65751700D01*
X144037213Y-65755096D01*
X144031779Y-65760263D01*
X144024944Y-65767439D01*
X144003709Y-65788936D01*
X143981120Y-65809461D01*
X143957938Y-65828395D01*
X143934923Y-65845120D01*
X143912836Y-65859017D01*
X143911150Y-65859978D01*
X143902045Y-65864985D01*
X143892618Y-65869857D01*
X143882411Y-65874794D01*
X143870967Y-65879997D01*
X143857828Y-65885666D01*
X143842535Y-65892003D01*
X143824632Y-65899209D01*
X143803660Y-65907484D01*
X143796239Y-65910386D01*
X143771654Y-65920132D01*
X143750353Y-65928921D01*
X143731892Y-65936963D01*
X143715824Y-65944466D01*
X143701705Y-65951640D01*
X143689089Y-65958693D01*
X143677531Y-65965834D01*
X143676077Y-65966783D01*
X143651508Y-65984297D01*
X143629697Y-66002899D01*
X143610060Y-66023221D01*
X143592014Y-66045894D01*
X143574976Y-66071551D01*
X143567328Y-66084506D01*
X143562705Y-66092520D01*
X143558866Y-66099007D01*
X143556168Y-66103376D01*
X143554968Y-66105036D01*
X143554939Y-66105004D01*
X143555685Y-66102643D01*
X143557768Y-66097252D01*
X143560956Y-66089380D01*
X143565018Y-66079576D01*
X143569722Y-66068389D01*
X143574835Y-66056367D01*
X143580125Y-66044059D01*
X143585361Y-66032014D01*
X143590311Y-66020781D01*
X143594151Y-66012214D01*
X143627587Y-65942391D01*
X143664353Y-65873119D01*
X143704103Y-65804948D01*
X143746492Y-65738430D01*
X143791172Y-65674116D01*
X143837800Y-65612557D01*
X143868127Y-65575310D01*
X143887501Y-65552188D01*
X143889420Y-65537827D01*
X143890345Y-65527362D01*
X143889889Y-65517975D01*
X143888395Y-65509171D01*
X143883156Y-65474649D01*
X143881384Y-65439376D01*
X143883028Y-65403981D01*
X143888040Y-65369093D01*
X143896369Y-65335340D01*
X143903974Y-65313170D01*
X143918899Y-65279821D01*
X143937070Y-65248555D01*
X143958315Y-65219557D01*
X143982461Y-65193016D01*
X144009337Y-65169118D01*
X144038771Y-65148051D01*
X144070590Y-65130001D01*
X144073685Y-65128472D01*
X144101227Y-65116268D01*
X144128379Y-65106872D01*
X144156149Y-65100027D01*
X144185547Y-65095476D01*
X144211349Y-65093287D01*
X144224009Y-65092545D01*
X144237335Y-65091754D01*
X144249911Y-65090999D01*
X144260322Y-65090364D01*
X144262231Y-65090246D01*
X144291657Y-65090019D01*
X144322705Y-65092757D01*
X144354651Y-65098302D01*
X144386770Y-65106494D01*
X144418338Y-65117173D01*
X144448632Y-65130180D01*
X144452823Y-65132224D01*
X144478236Y-65145951D01*
X144499947Y-65160144D01*
X144518149Y-65174937D01*
X144527636Y-65184339D01*
X144536249Y-65194289D01*
X144544013Y-65204877D01*
X144551386Y-65216856D01*
X144558824Y-65230977D01*
X144566786Y-65247994D01*
X144568086Y-65250915D01*
X144577366Y-65271270D01*
X144585862Y-65288378D01*
X144593938Y-65302727D01*
X144601961Y-65314805D01*
X144610295Y-65325101D01*
X144619307Y-65334102D01*
X144629361Y-65342295D01*
X144640823Y-65350169D01*
X144643905Y-65352116D01*
X144657885Y-65360824D01*
X144672539Y-65359169D01*
X144682321Y-65357598D01*
X144692936Y-65355187D01*
X144700626Y-65352927D01*
X144706778Y-65350662D01*
X144711599Y-65348274D01*
X144715998Y-65345078D01*
X144720883Y-65340390D01*
X144727164Y-65333524D01*
X144728755Y-65331731D01*
X144757484Y-65296665D01*
X144783029Y-65260091D01*
X144805305Y-65222236D01*
X144824225Y-65183328D01*
X144839703Y-65143593D01*
X144851655Y-65103258D01*
X144859993Y-65062550D01*
X144864632Y-65021696D01*
X144865487Y-64980922D01*
X144865123Y-64971247D01*
X144864399Y-64957823D01*
X144863556Y-64945189D01*
X144862524Y-64932703D01*
X144861233Y-64919725D01*
X144859614Y-64905612D01*
X144857595Y-64889724D01*
X144855108Y-64871419D01*
X144852081Y-64850056D01*
X144851244Y-64844247D01*
X144847659Y-64819019D01*
X144844686Y-64797098D01*
X144842274Y-64777939D01*
X144840371Y-64760997D01*
X144838927Y-64745728D01*
X144837889Y-64731586D01*
X144837206Y-64718028D01*
X144836827Y-64704510D01*
X144836701Y-64690485D01*
X144836700Y-64690304D01*
X144836881Y-64669747D01*
X144837546Y-64651879D01*
X144838811Y-64635499D01*
X144840789Y-64619404D01*
X144843594Y-64602395D01*
X144846513Y-64587316D01*
X144857466Y-64542349D01*
X144871845Y-64498001D01*
X144889451Y-64454540D01*
X144910082Y-64412234D01*
X144933536Y-64371351D01*
X144959613Y-64332160D01*
X144988111Y-64294929D01*
X145018830Y-64259926D01*
X145051568Y-64227418D01*
X145086124Y-64197675D01*
X145122297Y-64170965D01*
X145159886Y-64147555D01*
X145187061Y-64133212D01*
X145208409Y-64123164D01*
X145227897Y-64114911D01*
X145246835Y-64107961D01*
X145266530Y-64101821D01*
X145280851Y-64097903D01*
X145294042Y-64094582D01*
X145306981Y-64091612D01*
X145320074Y-64088939D01*
X145333727Y-64086512D01*
X145348348Y-64084278D01*
X145364340Y-64082185D01*
X145382112Y-64080181D01*
X145402069Y-64078214D01*
X145424616Y-64076231D01*
X145450161Y-64074180D01*
X145479110Y-64072009D01*
X145486316Y-64071486D01*
X145514829Y-64069392D01*
X145539909Y-64067455D01*
X145562024Y-64065605D01*
X145581643Y-64063770D01*
X145599232Y-64061881D01*
X145615261Y-64059867D01*
X145630197Y-64057657D01*
X145644508Y-64055182D01*
X145658663Y-64052369D01*
X145673129Y-64049150D01*
X145688374Y-64045453D01*
X145704867Y-64041208D01*
X145723076Y-64036344D01*
X145727437Y-64035163D01*
X145751328Y-64028476D01*
X145778409Y-64020536D01*
X145808220Y-64011491D01*
X145840304Y-64001493D01*
X145874204Y-63990691D01*
X145909462Y-63979235D01*
X145945618Y-63967276D01*
X145982217Y-63954964D01*
X146018800Y-63942448D01*
X146054908Y-63929879D01*
X146090085Y-63917406D01*
X146123270Y-63905401D01*
X146207979Y-63872859D01*
X146293962Y-63836748D01*
X146381095Y-63797148D01*
X146469252Y-63754141D01*
X146558308Y-63707807D01*
X146648138Y-63658225D01*
X146738619Y-63605476D01*
X146829624Y-63549640D01*
X146921028Y-63490799D01*
X147012708Y-63429031D01*
X147104539Y-63364417D01*
X147196394Y-63297039D01*
X147288150Y-63226975D01*
X147379682Y-63154306D01*
X147470864Y-63079113D01*
X147561572Y-63001475D01*
X147648125Y-62924687D01*
X147662188Y-62911994D01*
X147673623Y-62901685D01*
X147682701Y-62893521D01*
X147689692Y-62887264D01*
X147694866Y-62882677D01*
X147698494Y-62879521D01*
X147700846Y-62877560D01*
X147702193Y-62876554D01*
X147702806Y-62876267D01*
X147702954Y-62876460D01*
G37*
X147702954Y-62876460D02*
X147702954Y-62876472D01*
X147702135Y-62878421D01*
X147699810Y-62883471D01*
X147696176Y-62891207D01*
X147691429Y-62901214D01*
X147685766Y-62913075D01*
X147679385Y-62926376D01*
X147674403Y-62936719D01*
X147629281Y-63031551D01*
X147583768Y-63129746D01*
X147538090Y-63230808D01*
X147492470Y-63334239D01*
X147447132Y-63439545D01*
X147442615Y-63450177D01*
X147431569Y-63476287D01*
X147421815Y-63499541D01*
X147413067Y-63520657D01*
X147405037Y-63540356D01*
X147397440Y-63559355D01*
X147389990Y-63578373D01*
X147382400Y-63598130D01*
X147374383Y-63619344D01*
X147365654Y-63642734D01*
X147362069Y-63652400D01*
X147352422Y-63677601D01*
X147342180Y-63702626D01*
X147331109Y-63727961D01*
X147318978Y-63754096D01*
X147305553Y-63781516D01*
X147290603Y-63810711D01*
X147273895Y-63842167D01*
X147255878Y-63875139D01*
X147207922Y-63958029D01*
X147156384Y-64039729D01*
X147101487Y-64119927D01*
X147043457Y-64198310D01*
X146982519Y-64274565D01*
X146918897Y-64348380D01*
X146901051Y-64368111D01*
X146891334Y-64378892D01*
X146883964Y-64387466D01*
X146878522Y-64394382D01*
X146874588Y-64400193D01*
X146871743Y-64405450D01*
X146870531Y-64408203D01*
X146862151Y-64424871D01*
X146851583Y-64438822D01*
X146838322Y-64450590D01*
X146821860Y-64460711D01*
X146819816Y-64461754D01*
X146814652Y-64464552D01*
X146809421Y-64467896D01*
X146803665Y-64472162D01*
X146796922Y-64477728D01*
X146788736Y-64484970D01*
X146778645Y-64494266D01*
X146767880Y-64504394D01*
X146756806Y-64514725D01*
X146745636Y-64524874D01*
X146734991Y-64534298D01*
X146725488Y-64542454D01*
X146717746Y-64548800D01*
X146713781Y-64551822D01*
X146706330Y-64557611D01*
X146697146Y-64565369D01*
X146687199Y-64574243D01*
X146677461Y-64583378D01*
X146673564Y-64587190D01*
X146664498Y-64595917D01*
X146655084Y-64604508D01*
X146646199Y-64612197D01*
X146638717Y-64618213D01*
X146635832Y-64620315D01*
X146629026Y-64625095D01*
X146620083Y-64631492D01*
X146609999Y-64638786D01*
X146599770Y-64646259D01*
X146596100Y-64648961D01*
X146570651Y-64667399D01*
X146545950Y-64684619D01*
X146522850Y-64700032D01*
X146512765Y-64706500D01*
X146493440Y-64718984D01*
X146476685Y-64730377D01*
X146462767Y-64740488D01*
X146451955Y-64749126D01*
X146448239Y-64752422D01*
X146437142Y-64762696D01*
X146444329Y-64763902D01*
X146453338Y-64765360D01*
X146465612Y-64767270D01*
X146480546Y-64769541D01*
X146497536Y-64772087D01*
X146515977Y-64774818D01*
X146535262Y-64777646D01*
X146554788Y-64780483D01*
X146573950Y-64783240D01*
X146592141Y-64785829D01*
X146608759Y-64788161D01*
X146623196Y-64790148D01*
X146632247Y-64791362D01*
X146668553Y-64796020D01*
X146701847Y-64799996D01*
X146732948Y-64803358D01*
X146762679Y-64806171D01*
X146791861Y-64808504D01*
X146821315Y-64810423D01*
X146851864Y-64811996D01*
X146884328Y-64813289D01*
X146910670Y-64814123D01*
X146931823Y-64814774D01*
X146949776Y-64815434D01*
X146965232Y-64816152D01*
X146978899Y-64816974D01*
X146991481Y-64817947D01*
X147003685Y-64819119D01*
X147016217Y-64820537D01*
X147026923Y-64821875D01*
X147120591Y-64833394D01*
X147211443Y-64843381D01*
X147300239Y-64851883D01*
X147387735Y-64858951D01*
X147474691Y-64864634D01*
X147561863Y-64868980D01*
X147650011Y-64872040D01*
X147739892Y-64873862D01*
X147832264Y-64874495D01*
X147837770Y-64874496D01*
X147906264Y-64874207D01*
X147971721Y-64873333D01*
X148034976Y-64871842D01*
X148096859Y-64869702D01*
X148158204Y-64866880D01*
X148219843Y-64863342D01*
X148282609Y-64859057D01*
X148336000Y-64854922D01*
X148376893Y-64851429D01*
X148418835Y-64847525D01*
X148461483Y-64843257D01*
X148504491Y-64838670D01*
X148547515Y-64833811D01*
X148590208Y-64828724D01*
X148632227Y-64823457D01*
X148673225Y-64818054D01*
X148712859Y-64812563D01*
X148750782Y-64807027D01*
X148786650Y-64801494D01*
X148820118Y-64796010D01*
X148850841Y-64790619D01*
X148878474Y-64785369D01*
X148902671Y-64780305D01*
X148910185Y-64778603D01*
X148943742Y-64771078D01*
X148978086Y-64763845D01*
X149012115Y-64757121D01*
X149044726Y-64751122D01*
X149074818Y-64746065D01*
X149077485Y-64745645D01*
X149091490Y-64743407D01*
X149106134Y-64740987D01*
X149120245Y-64738585D01*
X149132655Y-64736399D01*
X149140985Y-64734861D01*
X149153504Y-64732712D01*
X149163406Y-64731520D01*
X149170217Y-64731338D01*
X149171950Y-64731555D01*
X149178492Y-64732916D01*
X149169019Y-64739619D01*
X149158114Y-64747478D01*
X149144782Y-64757319D01*
X149129637Y-64768672D01*
X149113297Y-64781067D01*
X149096376Y-64794035D01*
X149079491Y-64807105D01*
X149063257Y-64819808D01*
X149048290Y-64831675D01*
X149047200Y-64832547D01*
X148969485Y-64896991D01*
X148894103Y-64964085D01*
X148820829Y-65034051D01*
X148749433Y-65107112D01*
X148679689Y-65183491D01*
X148631011Y-65239900D01*
X148611291Y-65262779D01*
X148589143Y-65287579D01*
X148565135Y-65313709D01*
X148539833Y-65340578D01*
X148513803Y-65367598D01*
X148487613Y-65394176D01*
X148461829Y-65419723D01*
X148437018Y-65443648D01*
X148420993Y-65458689D01*
X148346160Y-65525872D01*
X148270663Y-65589333D01*
X148194529Y-65649054D01*
X148117783Y-65705020D01*
X148040455Y-65757212D01*
X147962570Y-65805613D01*
X147884156Y-65850207D01*
X147805240Y-65890976D01*
X147725849Y-65927903D01*
X147646010Y-65960971D01*
X147596400Y-65979491D01*
X147557009Y-65993097D01*
X147515594Y-66006501D01*
X147473306Y-66019360D01*
X147431302Y-66031332D01*
X147390733Y-66042075D01*
X147362008Y-66049103D01*
X147350347Y-66052010D01*
X147336015Y-66055846D01*
X147320052Y-66060317D01*
X147303498Y-66065128D01*
X147287393Y-66069987D01*
X147279947Y-66072306D01*
X147190789Y-66099020D01*
X147102671Y-66122568D01*
X147015000Y-66143058D01*
X146927183Y-66160599D01*
X146838629Y-66175301D01*
X146748745Y-66187270D01*
X146656938Y-66196618D01*
X146567770Y-66203146D01*
X146550032Y-66204041D01*
X146529082Y-66204813D01*
X146505614Y-66205456D01*
X146480322Y-66205964D01*
X146453899Y-66206331D01*
X146427040Y-66206551D01*
X146400439Y-66206619D01*
X146374788Y-66206528D01*
X146350783Y-66206274D01*
X146329117Y-66205849D01*
X146311816Y-66205301D01*
X146223676Y-66200675D01*
X146138024Y-66193811D01*
X146054094Y-66184634D01*
X145971121Y-66173071D01*
X145958254Y-66171053D01*
X145918116Y-66164666D01*
X145895271Y-66169119D01*
X145851331Y-66179228D01*
X145807485Y-66192310D01*
X145764336Y-66208103D01*
X145722490Y-66226348D01*
X145682552Y-66246785D01*
X145645129Y-66269151D01*
X145616036Y-66289272D01*
X145602468Y-66299330D01*
X145606566Y-66305458D01*
X145614760Y-66320604D01*
X145620623Y-66337525D01*
X145623704Y-66354750D01*
X145624062Y-66362381D01*
X145624441Y-66368871D01*
X145625718Y-66376079D01*
X145628105Y-66384883D01*
X145631811Y-66396156D01*
X145633010Y-66399582D01*
X145652387Y-66459234D01*
X145669321Y-66521373D01*
X145683702Y-66585351D01*
X145695422Y-66650519D01*
X145704369Y-66716230D01*
X145710435Y-66781836D01*
X145713510Y-66846689D01*
X145713891Y-66877223D01*
X145712131Y-66947961D01*
X145706805Y-67019531D01*
X145698008Y-67091398D01*
X145685834Y-67163023D01*
X145670378Y-67233868D01*
X145651732Y-67303397D01*
X145629992Y-67371071D01*
X145624961Y-67385223D01*
X145620376Y-67397865D01*
X145616260Y-67409040D01*
X145612428Y-67419096D01*
X145608694Y-67428380D01*
X145604873Y-67437241D01*
X145600781Y-67446024D01*
X145596233Y-67455077D01*
X145591043Y-67464748D01*
X145585027Y-67475384D01*
X145577999Y-67487332D01*
X145569775Y-67500939D01*
X145560170Y-67516552D01*
X145548998Y-67534520D01*
X145536075Y-67555189D01*
X145525046Y-67572793D01*
X145498857Y-67614615D01*
X145474660Y-67653325D01*
X145452346Y-67689105D01*
X145431807Y-67722137D01*
X145412935Y-67752604D01*
X145395620Y-67780689D01*
X145379755Y-67806573D01*
X145365231Y-67830441D01*
X145351939Y-67852473D01*
X145339770Y-67872853D01*
X145328617Y-67891763D01*
X145318371Y-67909385D01*
X145308922Y-67925903D01*
X145300164Y-67941499D01*
X145291986Y-67956354D01*
X145284282Y-67970653D01*
X145276941Y-67984577D01*
X145269856Y-67998309D01*
X145262918Y-68012031D01*
X145257869Y-68022177D01*
X145247567Y-68043222D01*
X145238725Y-68061825D01*
X145230914Y-68078968D01*
X145223706Y-68095629D01*
X145216671Y-68112790D01*
X145209382Y-68131430D01*
X145204598Y-68144025D01*
X145185445Y-68199673D01*
X145168911Y-68257731D01*
X145155082Y-68317632D01*
X145144046Y-68378807D01*
X145135891Y-68440688D01*
X145130706Y-68502708D01*
X145128579Y-68564298D01*
X145129597Y-68624891D01*
X145129709Y-68627380D01*
X145130409Y-68642650D01*
X145131125Y-68658371D01*
X145131812Y-68673558D01*
X145132427Y-68687225D01*
X145132923Y-68698389D01*
X145133086Y-68702109D01*
X145132836Y-68740424D01*
X145128731Y-68778588D01*
X145120763Y-68816616D01*
X145108926Y-68854522D01*
X145093214Y-68892321D01*
X145073621Y-68930029D01*
X145050140Y-68967660D01*
X145022765Y-69005229D01*
X144991490Y-69042750D01*
X144985986Y-69048903D01*
X144943584Y-69094692D01*
X144902006Y-69137179D01*
X144860796Y-69176754D01*
X144819502Y-69213807D01*
X144777668Y-69248728D01*
X144734840Y-69281908D01*
X144690563Y-69313737D01*
X144644383Y-69344605D01*
X144633462Y-69351599D01*
X144618607Y-69361103D01*
X144604954Y-69369998D01*
X144591921Y-69378688D01*
X144578927Y-69387577D01*
X144565393Y-69397071D01*
X144550736Y-69407573D01*
X144534377Y-69419488D01*
X144515735Y-69433220D01*
X144507502Y-69439317D01*
X144487058Y-69454483D01*
X144469439Y-69467573D01*
X144454325Y-69478829D01*
X144441397Y-69488494D01*
X144430333Y-69496811D01*
X144420814Y-69504022D01*
X144412521Y-69510370D01*
X144405131Y-69516097D01*
X144398327Y-69521445D01*
X144391786Y-69526659D01*
X144385190Y-69531979D01*
X144384725Y-69532356D01*
X144370789Y-69543645D01*
X144359504Y-69552750D01*
X144350495Y-69559963D01*
X144343384Y-69565571D01*
X144337796Y-69569864D01*
X144333355Y-69573131D01*
X144329686Y-69575662D01*
X144326413Y-69577746D01*
X144323539Y-69579453D01*
X144316779Y-69583218D01*
X144312910Y-69584931D01*
X144311567Y-69584700D01*
X144312279Y-69582812D01*
X144314476Y-69579736D01*
X144318822Y-69574198D01*
X144324908Y-69566691D01*
X144332325Y-69557705D01*
X144340663Y-69547734D01*
X144349515Y-69537269D01*
X144358469Y-69526803D01*
X144367118Y-69516826D01*
X144367935Y-69515893D01*
X144377656Y-69505078D01*
X144389600Y-69492260D01*
X144403188Y-69478021D01*
X144417843Y-69462943D01*
X144432988Y-69447609D01*
X144448046Y-69432603D01*
X144462439Y-69418505D01*
X144475590Y-69405900D01*
X144486922Y-69395370D01*
X144490831Y-69391855D01*
X144503888Y-69379835D01*
X144519014Y-69365170D01*
X144535838Y-69348265D01*
X144553990Y-69329527D01*
X144573098Y-69309362D01*
X144592791Y-69288177D01*
X144612699Y-69266378D01*
X144632450Y-69244372D01*
X144651673Y-69222564D01*
X144669998Y-69201362D01*
X144687054Y-69181171D01*
X144702469Y-69162399D01*
X144715873Y-69145451D01*
X144716481Y-69144662D01*
X144750315Y-69097966D01*
X144782468Y-69048057D01*
X144812748Y-68995336D01*
X144840960Y-68940204D01*
X144866911Y-68883061D01*
X144890407Y-68824309D01*
X144911255Y-68764348D01*
X144929130Y-68704070D01*
X144932629Y-68690939D01*
X144936151Y-68677329D01*
X144939555Y-68663821D01*
X144942700Y-68651000D01*
X144945446Y-68639450D01*
X144947653Y-68629754D01*
X144949180Y-68622497D01*
X144949886Y-68618261D01*
X144949917Y-68617675D01*
X144949310Y-68618394D01*
X144947706Y-68622198D01*
X144945348Y-68628470D01*
X144942481Y-68636590D01*
X144942456Y-68636662D01*
X144926654Y-68677440D01*
X144908119Y-68715691D01*
X144886702Y-68751613D01*
X144862254Y-68785403D01*
X144834625Y-68817257D01*
X144803666Y-68847374D01*
X144769226Y-68875951D01*
X144750693Y-68889697D01*
X144733530Y-68901559D01*
X144715772Y-68912955D01*
X144696772Y-68924259D01*
X144675883Y-68935847D01*
X144652456Y-68948094D01*
X144632485Y-68958107D01*
X144568697Y-68991532D01*
X144504850Y-69028814D01*
X144441016Y-69069906D01*
X144377267Y-69114757D01*
X144313675Y-69163321D01*
X144250310Y-69215549D01*
X144247736Y-69217752D01*
X144233579Y-69229853D01*
X144218017Y-69243094D01*
X144201941Y-69256722D01*
X144186240Y-69269984D01*
X144171807Y-69282125D01*
X144160631Y-69291474D01*
X144147430Y-69302518D01*
X144135737Y-69312410D01*
X144124974Y-69321664D01*
X144114563Y-69330792D01*
X144103927Y-69340311D01*
X144092490Y-69350733D01*
X144079673Y-69362572D01*
X144064900Y-69376344D01*
X144056605Y-69384109D01*
X144045389Y-69394499D01*
X144034284Y-69404561D01*
X144023672Y-69413972D01*
X144013933Y-69422408D01*
X144005448Y-69429544D01*
X143998596Y-69435057D01*
X143993760Y-69438622D01*
X143991319Y-69439914D01*
X143991144Y-69439865D01*
X143991879Y-69437943D01*
X143994873Y-69433355D01*
X143999869Y-69426424D01*
X144006608Y-69417472D01*
X144014833Y-69406821D01*
X144024285Y-69394794D01*
X144034706Y-69381713D01*
X144045839Y-69367902D01*
X144057426Y-69353682D01*
X144069207Y-69339377D01*
X144080926Y-69325308D01*
X144092324Y-69311798D01*
X144103144Y-69299170D01*
X144110048Y-69291241D01*
X144125923Y-69273426D01*
X144144612Y-69252957D01*
X144166120Y-69229831D01*
X144190448Y-69204044D01*
X144217601Y-69175594D01*
X144247580Y-69144477D01*
X144280390Y-69110690D01*
X144316032Y-69074231D01*
X144354511Y-69035095D01*
X144392966Y-68996170D01*
X144404351Y-68984663D01*
X144414829Y-68974043D01*
X144424567Y-68964117D01*
X144433733Y-68954694D01*
X144442493Y-68945579D01*
X144451015Y-68936582D01*
X144459466Y-68927509D01*
X144468014Y-68918169D01*
X144476826Y-68908368D01*
X144486068Y-68897915D01*
X144495909Y-68886617D01*
X144506515Y-68874282D01*
X144518053Y-68860717D01*
X144530692Y-68845730D01*
X144544598Y-68829129D01*
X144559938Y-68810720D01*
X144576880Y-68790313D01*
X144595591Y-68767713D01*
X144616238Y-68742730D01*
X144638988Y-68715170D01*
X144664009Y-68684842D01*
X144671518Y-68675739D01*
X144687876Y-68654822D01*
X144705424Y-68630303D01*
X144718220Y-68611099D01*
X144950139Y-68611099D01*
X144950498Y-68613633D01*
X144951165Y-68613663D01*
X144951632Y-68611048D01*
X144951320Y-68609919D01*
X144950452Y-68609179D01*
X144950139Y-68611099D01*
X144718220Y-68611099D01*
X144723319Y-68603447D01*
X144951939Y-68603447D01*
X144952916Y-68604423D01*
X144953893Y-68603447D01*
X144952916Y-68602470D01*
X144951939Y-68603447D01*
X144723319Y-68603447D01*
X144724097Y-68602280D01*
X144743828Y-68570850D01*
X144753061Y-68555577D01*
X144793222Y-68485317D01*
X144829772Y-68414937D01*
X144862682Y-68344519D01*
X144891923Y-68274147D01*
X144917466Y-68203904D01*
X144939283Y-68133873D01*
X144957345Y-68064137D01*
X144971624Y-67994779D01*
X144982089Y-67925883D01*
X144987080Y-67878570D01*
X144987702Y-67869871D01*
X144988350Y-67858146D01*
X144988988Y-67844278D01*
X144989576Y-67829148D01*
X144990076Y-67813638D01*
X144990323Y-67804323D01*
X144990111Y-67733058D01*
X144986100Y-67661365D01*
X144978335Y-67589512D01*
X144966862Y-67517766D01*
X144951728Y-67446393D01*
X144932978Y-67375660D01*
X144910657Y-67305834D01*
X144898749Y-67272877D01*
X144890807Y-67253173D01*
X144880803Y-67230778D01*
X144868981Y-67206156D01*
X144855584Y-67179769D01*
X144840859Y-67152081D01*
X144825049Y-67123556D01*
X144808398Y-67094655D01*
X144791152Y-67065843D01*
X144779679Y-67047288D01*
X144768969Y-67030382D01*
X144758974Y-67015065D01*
X144749296Y-67000809D01*
X144739537Y-66987086D01*
X144729299Y-66973370D01*
X144718185Y-66959133D01*
X144705796Y-66943847D01*
X144691735Y-66926985D01*
X144675603Y-66908020D01*
X144667428Y-66898502D01*
X144657850Y-66887379D01*
X144646340Y-66874014D01*
X144633515Y-66859124D01*
X144619994Y-66843426D01*
X144606394Y-66827638D01*
X144593335Y-66812479D01*
X144587490Y-66805694D01*
X144564465Y-66778840D01*
X144543801Y-66754453D01*
X144525184Y-66732150D01*
X144508303Y-66711549D01*
X144492842Y-66692267D01*
X144478491Y-66673920D01*
X144464935Y-66656127D01*
X144461564Y-66651627D01*
X144432733Y-66611956D01*
X144406950Y-66574175D01*
X144384063Y-66537934D01*
X144363919Y-66502883D01*
X144346365Y-66468672D01*
X144331247Y-66434951D01*
X144318414Y-66401371D01*
X144307710Y-66367581D01*
X144298985Y-66333231D01*
X144292084Y-66297973D01*
X144286854Y-66261454D01*
X144285468Y-66249062D01*
X144284511Y-66236902D01*
X144283804Y-66221738D01*
X144283348Y-66204466D01*
X144283142Y-66185984D01*
X144283188Y-66167187D01*
X144283483Y-66148970D01*
X144284030Y-66132231D01*
X144284827Y-66117865D01*
X144285468Y-66110339D01*
X144293732Y-66048608D01*
X144305874Y-65987285D01*
X144321880Y-65926437D01*
X144332743Y-65891945D01*
X144336861Y-65880086D01*
X144342057Y-65865850D01*
X144347987Y-65850113D01*
X144354310Y-65833751D01*
X144360684Y-65817641D01*
X144366765Y-65802659D01*
X144372212Y-65789680D01*
X144376376Y-65780246D01*
X144379489Y-65772992D01*
X144381687Y-65766955D01*
X144382637Y-65763092D01*
X144382594Y-65762375D01*
X144380504Y-65760753D01*
X144375533Y-65758160D01*
X144368464Y-65754976D01*
X144361524Y-65752142D01*
X144325094Y-65739699D01*
X144287503Y-65730294D01*
X144249495Y-65724054D01*
X144211815Y-65721108D01*
X144181647Y-65721241D01*
X144163433Y-65722405D01*
X144144986Y-65724242D01*
X144126962Y-65726640D01*
X144110015Y-65729483D01*
X144094800Y-65732658D01*
X144081971Y-65736052D01*
X144072183Y-65739551D01*
X144069777Y-65740686D01*
X144063187Y-65743606D01*
X144055198Y-65746525D01*
X144051195Y-65747766D01*
X144046102Y-65749461D01*
X144041714Y-65751700D01*
X144037213Y-65755096D01*
X144031779Y-65760263D01*
X144024944Y-65767439D01*
X144003709Y-65788936D01*
X143981120Y-65809461D01*
X143957938Y-65828395D01*
X143934923Y-65845120D01*
X143912836Y-65859017D01*
X143911150Y-65859978D01*
X143902045Y-65864985D01*
X143892618Y-65869857D01*
X143882411Y-65874794D01*
X143870967Y-65879997D01*
X143857828Y-65885666D01*
X143842535Y-65892003D01*
X143824632Y-65899209D01*
X143803660Y-65907484D01*
X143796239Y-65910386D01*
X143771654Y-65920132D01*
X143750353Y-65928921D01*
X143731892Y-65936963D01*
X143715824Y-65944466D01*
X143701705Y-65951640D01*
X143689089Y-65958693D01*
X143677531Y-65965834D01*
X143676077Y-65966783D01*
X143651508Y-65984297D01*
X143629697Y-66002899D01*
X143610060Y-66023221D01*
X143592014Y-66045894D01*
X143574976Y-66071551D01*
X143567328Y-66084506D01*
X143562705Y-66092520D01*
X143558866Y-66099007D01*
X143556168Y-66103376D01*
X143554968Y-66105036D01*
X143554939Y-66105004D01*
X143555685Y-66102643D01*
X143557768Y-66097252D01*
X143560956Y-66089380D01*
X143565018Y-66079576D01*
X143569722Y-66068389D01*
X143574835Y-66056367D01*
X143580125Y-66044059D01*
X143585361Y-66032014D01*
X143590311Y-66020781D01*
X143594151Y-66012214D01*
X143627587Y-65942391D01*
X143664353Y-65873119D01*
X143704103Y-65804948D01*
X143746492Y-65738430D01*
X143791172Y-65674116D01*
X143837800Y-65612557D01*
X143868127Y-65575310D01*
X143887501Y-65552188D01*
X143889420Y-65537827D01*
X143890345Y-65527362D01*
X143889889Y-65517975D01*
X143888395Y-65509171D01*
X143883156Y-65474649D01*
X143881384Y-65439376D01*
X143883028Y-65403981D01*
X143888040Y-65369093D01*
X143896369Y-65335340D01*
X143903974Y-65313170D01*
X143918899Y-65279821D01*
X143937070Y-65248555D01*
X143958315Y-65219557D01*
X143982461Y-65193016D01*
X144009337Y-65169118D01*
X144038771Y-65148051D01*
X144070590Y-65130001D01*
X144073685Y-65128472D01*
X144101227Y-65116268D01*
X144128379Y-65106872D01*
X144156149Y-65100027D01*
X144185547Y-65095476D01*
X144211349Y-65093287D01*
X144224009Y-65092545D01*
X144237335Y-65091754D01*
X144249911Y-65090999D01*
X144260322Y-65090364D01*
X144262231Y-65090246D01*
X144291657Y-65090019D01*
X144322705Y-65092757D01*
X144354651Y-65098302D01*
X144386770Y-65106494D01*
X144418338Y-65117173D01*
X144448632Y-65130180D01*
X144452823Y-65132224D01*
X144478236Y-65145951D01*
X144499947Y-65160144D01*
X144518149Y-65174937D01*
X144527636Y-65184339D01*
X144536249Y-65194289D01*
X144544013Y-65204877D01*
X144551386Y-65216856D01*
X144558824Y-65230977D01*
X144566786Y-65247994D01*
X144568086Y-65250915D01*
X144577366Y-65271270D01*
X144585862Y-65288378D01*
X144593938Y-65302727D01*
X144601961Y-65314805D01*
X144610295Y-65325101D01*
X144619307Y-65334102D01*
X144629361Y-65342295D01*
X144640823Y-65350169D01*
X144643905Y-65352116D01*
X144657885Y-65360824D01*
X144672539Y-65359169D01*
X144682321Y-65357598D01*
X144692936Y-65355187D01*
X144700626Y-65352927D01*
X144706778Y-65350662D01*
X144711599Y-65348274D01*
X144715998Y-65345078D01*
X144720883Y-65340390D01*
X144727164Y-65333524D01*
X144728755Y-65331731D01*
X144757484Y-65296665D01*
X144783029Y-65260091D01*
X144805305Y-65222236D01*
X144824225Y-65183328D01*
X144839703Y-65143593D01*
X144851655Y-65103258D01*
X144859993Y-65062550D01*
X144864632Y-65021696D01*
X144865487Y-64980922D01*
X144865123Y-64971247D01*
X144864399Y-64957823D01*
X144863556Y-64945189D01*
X144862524Y-64932703D01*
X144861233Y-64919725D01*
X144859614Y-64905612D01*
X144857595Y-64889724D01*
X144855108Y-64871419D01*
X144852081Y-64850056D01*
X144851244Y-64844247D01*
X144847659Y-64819019D01*
X144844686Y-64797098D01*
X144842274Y-64777939D01*
X144840371Y-64760997D01*
X144838927Y-64745728D01*
X144837889Y-64731586D01*
X144837206Y-64718028D01*
X144836827Y-64704510D01*
X144836701Y-64690485D01*
X144836700Y-64690304D01*
X144836881Y-64669747D01*
X144837546Y-64651879D01*
X144838811Y-64635499D01*
X144840789Y-64619404D01*
X144843594Y-64602395D01*
X144846513Y-64587316D01*
X144857466Y-64542349D01*
X144871845Y-64498001D01*
X144889451Y-64454540D01*
X144910082Y-64412234D01*
X144933536Y-64371351D01*
X144959613Y-64332160D01*
X144988111Y-64294929D01*
X145018830Y-64259926D01*
X145051568Y-64227418D01*
X145086124Y-64197675D01*
X145122297Y-64170965D01*
X145159886Y-64147555D01*
X145187061Y-64133212D01*
X145208409Y-64123164D01*
X145227897Y-64114911D01*
X145246835Y-64107961D01*
X145266530Y-64101821D01*
X145280851Y-64097903D01*
X145294042Y-64094582D01*
X145306981Y-64091612D01*
X145320074Y-64088939D01*
X145333727Y-64086512D01*
X145348348Y-64084278D01*
X145364340Y-64082185D01*
X145382112Y-64080181D01*
X145402069Y-64078214D01*
X145424616Y-64076231D01*
X145450161Y-64074180D01*
X145479110Y-64072009D01*
X145486316Y-64071486D01*
X145514829Y-64069392D01*
X145539909Y-64067455D01*
X145562024Y-64065605D01*
X145581643Y-64063770D01*
X145599232Y-64061881D01*
X145615261Y-64059867D01*
X145630197Y-64057657D01*
X145644508Y-64055182D01*
X145658663Y-64052369D01*
X145673129Y-64049150D01*
X145688374Y-64045453D01*
X145704867Y-64041208D01*
X145723076Y-64036344D01*
X145727437Y-64035163D01*
X145751328Y-64028476D01*
X145778409Y-64020536D01*
X145808220Y-64011491D01*
X145840304Y-64001493D01*
X145874204Y-63990691D01*
X145909462Y-63979235D01*
X145945618Y-63967276D01*
X145982217Y-63954964D01*
X146018800Y-63942448D01*
X146054908Y-63929879D01*
X146090085Y-63917406D01*
X146123270Y-63905401D01*
X146207979Y-63872859D01*
X146293962Y-63836748D01*
X146381095Y-63797148D01*
X146469252Y-63754141D01*
X146558308Y-63707807D01*
X146648138Y-63658225D01*
X146738619Y-63605476D01*
X146829624Y-63549640D01*
X146921028Y-63490799D01*
X147012708Y-63429031D01*
X147104539Y-63364417D01*
X147196394Y-63297039D01*
X147288150Y-63226975D01*
X147379682Y-63154306D01*
X147470864Y-63079113D01*
X147561572Y-63001475D01*
X147648125Y-62924687D01*
X147662188Y-62911994D01*
X147673623Y-62901685D01*
X147682701Y-62893521D01*
X147689692Y-62887264D01*
X147694866Y-62882677D01*
X147698494Y-62879521D01*
X147700846Y-62877560D01*
X147702193Y-62876554D01*
X147702806Y-62876267D01*
X147702954Y-62876460D01*
D10*
X140131680Y-71997633D02*
X140845966Y-71997633D01*
X140988823Y-72045252D01*
X141084061Y-72140490D01*
X141131680Y-72283347D01*
X141131680Y-72378585D01*
X141131680Y-70997633D02*
X141131680Y-71569061D01*
X141131680Y-71283347D02*
X140131680Y-71283347D01*
X140274538Y-71378585D01*
X140369776Y-71473823D01*
X140417395Y-71569061D01*
%LPC*%
D12*
X137779300Y-72064300D03*
X137779300Y-60764300D03*
D13*
X140129300Y-63914300D03*
X140129300Y-68914300D03*
X140129300Y-67914300D03*
X140129300Y-66914300D03*
X140129300Y-65914300D03*
X140129300Y-64914300D03*
D14*
X149860000Y-73596500D03*
X149860000Y-59563000D03*
M02*
