G04 #@! TF.GenerationSoftware,KiCad,Pcbnew,(5.1.10)-1*
G04 #@! TF.CreationDate,2021-11-16T23:33:14-08:00*
G04 #@! TF.ProjectId,LedBoard,4c656442-6f61-4726-942e-6b696361645f,rev?*
G04 #@! TF.SameCoordinates,Original*
G04 #@! TF.FileFunction,Copper,L1,Top*
G04 #@! TF.FilePolarity,Positive*
%FSLAX46Y46*%
G04 Gerber Fmt 4.6, Leading zero omitted, Abs format (unit mm)*
G04 Created by KiCad (PCBNEW (5.1.10)-1) date 2021-11-16 23:33:14*
%MOMM*%
%LPD*%
G01*
G04 APERTURE LIST*
G04 #@! TA.AperFunction,SMDPad,CuDef*
%ADD10R,2.799999X2.100000*%
G04 #@! TD*
G04 #@! TA.AperFunction,SMDPad,CuDef*
%ADD11R,1.900000X0.600000*%
G04 #@! TD*
G04 #@! TA.AperFunction,ComponentPad*
%ADD12C,3.500001*%
G04 #@! TD*
G04 #@! TA.AperFunction,ViaPad*
%ADD13C,0.800000*%
G04 #@! TD*
G04 #@! TA.AperFunction,Conductor*
%ADD14C,0.250000*%
G04 #@! TD*
G04 #@! TA.AperFunction,Conductor*
%ADD15C,0.254000*%
G04 #@! TD*
G04 #@! TA.AperFunction,Conductor*
%ADD16C,0.100000*%
G04 #@! TD*
G04 APERTURE END LIST*
D10*
X137779300Y-72064300D03*
X137779300Y-60764300D03*
D11*
X140129300Y-63914300D03*
X140129300Y-68914300D03*
X140129300Y-67914300D03*
X140129300Y-66914300D03*
X140129300Y-65914300D03*
X140129300Y-64914300D03*
D12*
X149860000Y-73596500D03*
X149860000Y-59563000D03*
D13*
X142079855Y-68926760D03*
X142026507Y-67928182D03*
X141986000Y-66929000D03*
X150545800Y-67475100D03*
X150482300Y-66446400D03*
X149085300Y-63792100D03*
D14*
X142067395Y-68914300D02*
X142079855Y-68926760D01*
X140129300Y-68914300D02*
X142067395Y-68914300D01*
X142012625Y-67914300D02*
X142026507Y-67928182D01*
X140129300Y-67914300D02*
X142012625Y-67914300D01*
X141971300Y-66914300D02*
X141986000Y-66929000D01*
X140129300Y-66914300D02*
X141971300Y-66914300D01*
X149702399Y-62617089D02*
X143793190Y-62617090D01*
X151207301Y-64121991D02*
X149702399Y-62617089D01*
X151207301Y-66813599D02*
X151207301Y-64121991D01*
X150545800Y-67475100D02*
X151207301Y-66813599D01*
X142495980Y-63914300D02*
X140129300Y-63914300D01*
X143793190Y-62617090D02*
X142495980Y-63914300D01*
X142132390Y-64914300D02*
X143704600Y-63342090D01*
X140129300Y-64914300D02*
X142132390Y-64914300D01*
X143979591Y-63067099D02*
X149515999Y-63067099D01*
X143704600Y-63342090D02*
X143979591Y-63067099D01*
X150482300Y-64033400D02*
X150482300Y-66446400D01*
X149515999Y-63067099D02*
X150482300Y-64033400D01*
X149085300Y-63792100D02*
X143891000Y-63792100D01*
X141768800Y-65914300D02*
X140129300Y-65914300D01*
X143891000Y-63792100D02*
X141768800Y-65914300D01*
D15*
X149878347Y-57622667D02*
X150250390Y-57734994D01*
X150593522Y-57917440D01*
X150894685Y-58163063D01*
X151142406Y-58462506D01*
X151327244Y-58804356D01*
X151442165Y-59175605D01*
X151486001Y-59592682D01*
X151486001Y-63325889D01*
X150266197Y-62106086D01*
X150242399Y-62077088D01*
X150210315Y-62050757D01*
X150126675Y-61982115D01*
X149994645Y-61911543D01*
X149851384Y-61868086D01*
X149739731Y-61857089D01*
X149739721Y-61857089D01*
X149702399Y-61853413D01*
X149665076Y-61857089D01*
X143830523Y-61857091D01*
X143793190Y-61853414D01*
X143644204Y-61868088D01*
X143500943Y-61911544D01*
X143368913Y-61982116D01*
X143282187Y-62053291D01*
X143282182Y-62053296D01*
X143253189Y-62077090D01*
X143229395Y-62106083D01*
X142181179Y-63154300D01*
X141519744Y-63154300D01*
X141433794Y-63083763D01*
X141323480Y-63024798D01*
X141203782Y-62988488D01*
X141079300Y-62976228D01*
X139179300Y-62976228D01*
X139054818Y-62988488D01*
X138935120Y-63024798D01*
X138824806Y-63083763D01*
X138728115Y-63163115D01*
X138648763Y-63259806D01*
X138589798Y-63370120D01*
X138553488Y-63489818D01*
X138541228Y-63614300D01*
X138541228Y-64214300D01*
X138553488Y-64338782D01*
X138576396Y-64414300D01*
X138553488Y-64489818D01*
X138541228Y-64614300D01*
X138541228Y-65214300D01*
X138553488Y-65338782D01*
X138576396Y-65414300D01*
X138553488Y-65489818D01*
X138541228Y-65614300D01*
X138541228Y-66214300D01*
X138553488Y-66338782D01*
X138576396Y-66414300D01*
X138553488Y-66489818D01*
X138541228Y-66614300D01*
X138541228Y-67214300D01*
X138553488Y-67338782D01*
X138576396Y-67414300D01*
X138553488Y-67489818D01*
X138541228Y-67614300D01*
X138541228Y-68214300D01*
X138553488Y-68338782D01*
X138576396Y-68414300D01*
X138553488Y-68489818D01*
X138541228Y-68614300D01*
X138541228Y-69214300D01*
X138553488Y-69338782D01*
X138589798Y-69458480D01*
X138648763Y-69568794D01*
X138728115Y-69665485D01*
X138824806Y-69744837D01*
X138935120Y-69803802D01*
X139054818Y-69840112D01*
X139179300Y-69852372D01*
X141079300Y-69852372D01*
X141203782Y-69840112D01*
X141323480Y-69803802D01*
X141433794Y-69744837D01*
X141437137Y-69742093D01*
X141589599Y-69843965D01*
X141777957Y-69921986D01*
X141977916Y-69961760D01*
X142181794Y-69961760D01*
X142381753Y-69921986D01*
X142570111Y-69843965D01*
X142739629Y-69730697D01*
X142883792Y-69586534D01*
X142997060Y-69417016D01*
X143075081Y-69228658D01*
X143114855Y-69028699D01*
X143114855Y-68824821D01*
X143075081Y-68624862D01*
X142997060Y-68436504D01*
X142959508Y-68380303D01*
X143021733Y-68230080D01*
X143061507Y-68030121D01*
X143061507Y-67826243D01*
X143021733Y-67626284D01*
X142943712Y-67437926D01*
X142913933Y-67393358D01*
X142981226Y-67230898D01*
X143021000Y-67030939D01*
X143021000Y-66827061D01*
X142981226Y-66627102D01*
X142903205Y-66438744D01*
X142789937Y-66269226D01*
X142645774Y-66125063D01*
X142638020Y-66119882D01*
X144205802Y-64552100D01*
X148381589Y-64552100D01*
X148425526Y-64596037D01*
X148595044Y-64709305D01*
X148783402Y-64787326D01*
X148983361Y-64827100D01*
X149187239Y-64827100D01*
X149387198Y-64787326D01*
X149575556Y-64709305D01*
X149722300Y-64611254D01*
X149722301Y-65742688D01*
X149678363Y-65786626D01*
X149565095Y-65956144D01*
X149487074Y-66144502D01*
X149447300Y-66344461D01*
X149447300Y-66548339D01*
X149487074Y-66748298D01*
X149565095Y-66936656D01*
X149616616Y-67013763D01*
X149550574Y-67173202D01*
X149510800Y-67373161D01*
X149510800Y-67577039D01*
X149550574Y-67776998D01*
X149628595Y-67965356D01*
X149741863Y-68134874D01*
X149886026Y-68279037D01*
X150055544Y-68392305D01*
X150243902Y-68470326D01*
X150443861Y-68510100D01*
X150647739Y-68510100D01*
X150847698Y-68470326D01*
X151036056Y-68392305D01*
X151205574Y-68279037D01*
X151349737Y-68134874D01*
X151463005Y-67965356D01*
X151486000Y-67909841D01*
X151486000Y-73322722D01*
X151444912Y-73741768D01*
X151332586Y-74113809D01*
X151150139Y-74456944D01*
X150904516Y-74758106D01*
X150605075Y-75005826D01*
X150263223Y-75190665D01*
X149891973Y-75305586D01*
X149474155Y-75349500D01*
X135745505Y-75349500D01*
X135325653Y-75308333D01*
X134953612Y-75196007D01*
X134610477Y-75013560D01*
X134309315Y-74767937D01*
X134061595Y-74468496D01*
X133876756Y-74126644D01*
X133761835Y-73755394D01*
X133718000Y-73338328D01*
X133718000Y-73114300D01*
X135741229Y-73114300D01*
X135753489Y-73238782D01*
X135789799Y-73358480D01*
X135848764Y-73468794D01*
X135928116Y-73565485D01*
X136024807Y-73644837D01*
X136135121Y-73703802D01*
X136254819Y-73740112D01*
X136379301Y-73752372D01*
X137493550Y-73749300D01*
X137652300Y-73590550D01*
X137652300Y-72191300D01*
X137906300Y-72191300D01*
X137906300Y-73590550D01*
X138065050Y-73749300D01*
X139179299Y-73752372D01*
X139303781Y-73740112D01*
X139423479Y-73703802D01*
X139533793Y-73644837D01*
X139630484Y-73565485D01*
X139709836Y-73468794D01*
X139768801Y-73358480D01*
X139805111Y-73238782D01*
X139817371Y-73114300D01*
X139814299Y-72350050D01*
X139655549Y-72191300D01*
X137906300Y-72191300D01*
X137652300Y-72191300D01*
X135903051Y-72191300D01*
X135744301Y-72350050D01*
X135741229Y-73114300D01*
X133718000Y-73114300D01*
X133718000Y-71014300D01*
X135741229Y-71014300D01*
X135744301Y-71778550D01*
X135903051Y-71937300D01*
X137652300Y-71937300D01*
X137652300Y-70538050D01*
X137906300Y-70538050D01*
X137906300Y-71937300D01*
X139655549Y-71937300D01*
X139814299Y-71778550D01*
X139817371Y-71014300D01*
X139805111Y-70889818D01*
X139768801Y-70770120D01*
X139709836Y-70659806D01*
X139630484Y-70563115D01*
X139533793Y-70483763D01*
X139423479Y-70424798D01*
X139303781Y-70388488D01*
X139179299Y-70376228D01*
X138065050Y-70379300D01*
X137906300Y-70538050D01*
X137652300Y-70538050D01*
X137493550Y-70379300D01*
X136379301Y-70376228D01*
X136254819Y-70388488D01*
X136135121Y-70424798D01*
X136024807Y-70483763D01*
X135928116Y-70563115D01*
X135848764Y-70659806D01*
X135789799Y-70770120D01*
X135753489Y-70889818D01*
X135741229Y-71014300D01*
X133718000Y-71014300D01*
X133718000Y-61814300D01*
X135741229Y-61814300D01*
X135753489Y-61938782D01*
X135789799Y-62058480D01*
X135848764Y-62168794D01*
X135928116Y-62265485D01*
X136024807Y-62344837D01*
X136135121Y-62403802D01*
X136254819Y-62440112D01*
X136379301Y-62452372D01*
X137493550Y-62449300D01*
X137652300Y-62290550D01*
X137652300Y-60891300D01*
X137906300Y-60891300D01*
X137906300Y-62290550D01*
X138065050Y-62449300D01*
X139179299Y-62452372D01*
X139303781Y-62440112D01*
X139423479Y-62403802D01*
X139533793Y-62344837D01*
X139630484Y-62265485D01*
X139709836Y-62168794D01*
X139768801Y-62058480D01*
X139805111Y-61938782D01*
X139817371Y-61814300D01*
X139814299Y-61050050D01*
X139655549Y-60891300D01*
X137906300Y-60891300D01*
X137652300Y-60891300D01*
X135903051Y-60891300D01*
X135744301Y-61050050D01*
X135741229Y-61814300D01*
X133718000Y-61814300D01*
X133718000Y-59714300D01*
X135741229Y-59714300D01*
X135744301Y-60478550D01*
X135903051Y-60637300D01*
X137652300Y-60637300D01*
X137652300Y-59238050D01*
X137906300Y-59238050D01*
X137906300Y-60637300D01*
X139655549Y-60637300D01*
X139814299Y-60478550D01*
X139817371Y-59714300D01*
X139805111Y-59589818D01*
X139768801Y-59470120D01*
X139709836Y-59359806D01*
X139630484Y-59263115D01*
X139533793Y-59183763D01*
X139423479Y-59124798D01*
X139303781Y-59088488D01*
X139179299Y-59076228D01*
X138065050Y-59079300D01*
X137906300Y-59238050D01*
X137652300Y-59238050D01*
X137493550Y-59079300D01*
X136379301Y-59076228D01*
X136254819Y-59088488D01*
X136135121Y-59124798D01*
X136024807Y-59183763D01*
X135928116Y-59263115D01*
X135848764Y-59359806D01*
X135789799Y-59470120D01*
X135753489Y-59589818D01*
X135741229Y-59714300D01*
X133718000Y-59714300D01*
X133718000Y-59608279D01*
X133759088Y-59189232D01*
X133871415Y-58817189D01*
X134053861Y-58474057D01*
X134299484Y-58172894D01*
X134598927Y-57925173D01*
X134940777Y-57740335D01*
X135312026Y-57625414D01*
X135730796Y-57581400D01*
X149457475Y-57581400D01*
X149878347Y-57622667D01*
G04 #@! TA.AperFunction,Conductor*
D16*
G36*
X149878347Y-57622667D02*
G01*
X150250390Y-57734994D01*
X150593522Y-57917440D01*
X150894685Y-58163063D01*
X151142406Y-58462506D01*
X151327244Y-58804356D01*
X151442165Y-59175605D01*
X151486001Y-59592682D01*
X151486001Y-63325889D01*
X150266197Y-62106086D01*
X150242399Y-62077088D01*
X150210315Y-62050757D01*
X150126675Y-61982115D01*
X149994645Y-61911543D01*
X149851384Y-61868086D01*
X149739731Y-61857089D01*
X149739721Y-61857089D01*
X149702399Y-61853413D01*
X149665076Y-61857089D01*
X143830523Y-61857091D01*
X143793190Y-61853414D01*
X143644204Y-61868088D01*
X143500943Y-61911544D01*
X143368913Y-61982116D01*
X143282187Y-62053291D01*
X143282182Y-62053296D01*
X143253189Y-62077090D01*
X143229395Y-62106083D01*
X142181179Y-63154300D01*
X141519744Y-63154300D01*
X141433794Y-63083763D01*
X141323480Y-63024798D01*
X141203782Y-62988488D01*
X141079300Y-62976228D01*
X139179300Y-62976228D01*
X139054818Y-62988488D01*
X138935120Y-63024798D01*
X138824806Y-63083763D01*
X138728115Y-63163115D01*
X138648763Y-63259806D01*
X138589798Y-63370120D01*
X138553488Y-63489818D01*
X138541228Y-63614300D01*
X138541228Y-64214300D01*
X138553488Y-64338782D01*
X138576396Y-64414300D01*
X138553488Y-64489818D01*
X138541228Y-64614300D01*
X138541228Y-65214300D01*
X138553488Y-65338782D01*
X138576396Y-65414300D01*
X138553488Y-65489818D01*
X138541228Y-65614300D01*
X138541228Y-66214300D01*
X138553488Y-66338782D01*
X138576396Y-66414300D01*
X138553488Y-66489818D01*
X138541228Y-66614300D01*
X138541228Y-67214300D01*
X138553488Y-67338782D01*
X138576396Y-67414300D01*
X138553488Y-67489818D01*
X138541228Y-67614300D01*
X138541228Y-68214300D01*
X138553488Y-68338782D01*
X138576396Y-68414300D01*
X138553488Y-68489818D01*
X138541228Y-68614300D01*
X138541228Y-69214300D01*
X138553488Y-69338782D01*
X138589798Y-69458480D01*
X138648763Y-69568794D01*
X138728115Y-69665485D01*
X138824806Y-69744837D01*
X138935120Y-69803802D01*
X139054818Y-69840112D01*
X139179300Y-69852372D01*
X141079300Y-69852372D01*
X141203782Y-69840112D01*
X141323480Y-69803802D01*
X141433794Y-69744837D01*
X141437137Y-69742093D01*
X141589599Y-69843965D01*
X141777957Y-69921986D01*
X141977916Y-69961760D01*
X142181794Y-69961760D01*
X142381753Y-69921986D01*
X142570111Y-69843965D01*
X142739629Y-69730697D01*
X142883792Y-69586534D01*
X142997060Y-69417016D01*
X143075081Y-69228658D01*
X143114855Y-69028699D01*
X143114855Y-68824821D01*
X143075081Y-68624862D01*
X142997060Y-68436504D01*
X142959508Y-68380303D01*
X143021733Y-68230080D01*
X143061507Y-68030121D01*
X143061507Y-67826243D01*
X143021733Y-67626284D01*
X142943712Y-67437926D01*
X142913933Y-67393358D01*
X142981226Y-67230898D01*
X143021000Y-67030939D01*
X143021000Y-66827061D01*
X142981226Y-66627102D01*
X142903205Y-66438744D01*
X142789937Y-66269226D01*
X142645774Y-66125063D01*
X142638020Y-66119882D01*
X144205802Y-64552100D01*
X148381589Y-64552100D01*
X148425526Y-64596037D01*
X148595044Y-64709305D01*
X148783402Y-64787326D01*
X148983361Y-64827100D01*
X149187239Y-64827100D01*
X149387198Y-64787326D01*
X149575556Y-64709305D01*
X149722300Y-64611254D01*
X149722301Y-65742688D01*
X149678363Y-65786626D01*
X149565095Y-65956144D01*
X149487074Y-66144502D01*
X149447300Y-66344461D01*
X149447300Y-66548339D01*
X149487074Y-66748298D01*
X149565095Y-66936656D01*
X149616616Y-67013763D01*
X149550574Y-67173202D01*
X149510800Y-67373161D01*
X149510800Y-67577039D01*
X149550574Y-67776998D01*
X149628595Y-67965356D01*
X149741863Y-68134874D01*
X149886026Y-68279037D01*
X150055544Y-68392305D01*
X150243902Y-68470326D01*
X150443861Y-68510100D01*
X150647739Y-68510100D01*
X150847698Y-68470326D01*
X151036056Y-68392305D01*
X151205574Y-68279037D01*
X151349737Y-68134874D01*
X151463005Y-67965356D01*
X151486000Y-67909841D01*
X151486000Y-73322722D01*
X151444912Y-73741768D01*
X151332586Y-74113809D01*
X151150139Y-74456944D01*
X150904516Y-74758106D01*
X150605075Y-75005826D01*
X150263223Y-75190665D01*
X149891973Y-75305586D01*
X149474155Y-75349500D01*
X135745505Y-75349500D01*
X135325653Y-75308333D01*
X134953612Y-75196007D01*
X134610477Y-75013560D01*
X134309315Y-74767937D01*
X134061595Y-74468496D01*
X133876756Y-74126644D01*
X133761835Y-73755394D01*
X133718000Y-73338328D01*
X133718000Y-73114300D01*
X135741229Y-73114300D01*
X135753489Y-73238782D01*
X135789799Y-73358480D01*
X135848764Y-73468794D01*
X135928116Y-73565485D01*
X136024807Y-73644837D01*
X136135121Y-73703802D01*
X136254819Y-73740112D01*
X136379301Y-73752372D01*
X137493550Y-73749300D01*
X137652300Y-73590550D01*
X137652300Y-72191300D01*
X137906300Y-72191300D01*
X137906300Y-73590550D01*
X138065050Y-73749300D01*
X139179299Y-73752372D01*
X139303781Y-73740112D01*
X139423479Y-73703802D01*
X139533793Y-73644837D01*
X139630484Y-73565485D01*
X139709836Y-73468794D01*
X139768801Y-73358480D01*
X139805111Y-73238782D01*
X139817371Y-73114300D01*
X139814299Y-72350050D01*
X139655549Y-72191300D01*
X137906300Y-72191300D01*
X137652300Y-72191300D01*
X135903051Y-72191300D01*
X135744301Y-72350050D01*
X135741229Y-73114300D01*
X133718000Y-73114300D01*
X133718000Y-71014300D01*
X135741229Y-71014300D01*
X135744301Y-71778550D01*
X135903051Y-71937300D01*
X137652300Y-71937300D01*
X137652300Y-70538050D01*
X137906300Y-70538050D01*
X137906300Y-71937300D01*
X139655549Y-71937300D01*
X139814299Y-71778550D01*
X139817371Y-71014300D01*
X139805111Y-70889818D01*
X139768801Y-70770120D01*
X139709836Y-70659806D01*
X139630484Y-70563115D01*
X139533793Y-70483763D01*
X139423479Y-70424798D01*
X139303781Y-70388488D01*
X139179299Y-70376228D01*
X138065050Y-70379300D01*
X137906300Y-70538050D01*
X137652300Y-70538050D01*
X137493550Y-70379300D01*
X136379301Y-70376228D01*
X136254819Y-70388488D01*
X136135121Y-70424798D01*
X136024807Y-70483763D01*
X135928116Y-70563115D01*
X135848764Y-70659806D01*
X135789799Y-70770120D01*
X135753489Y-70889818D01*
X135741229Y-71014300D01*
X133718000Y-71014300D01*
X133718000Y-61814300D01*
X135741229Y-61814300D01*
X135753489Y-61938782D01*
X135789799Y-62058480D01*
X135848764Y-62168794D01*
X135928116Y-62265485D01*
X136024807Y-62344837D01*
X136135121Y-62403802D01*
X136254819Y-62440112D01*
X136379301Y-62452372D01*
X137493550Y-62449300D01*
X137652300Y-62290550D01*
X137652300Y-60891300D01*
X137906300Y-60891300D01*
X137906300Y-62290550D01*
X138065050Y-62449300D01*
X139179299Y-62452372D01*
X139303781Y-62440112D01*
X139423479Y-62403802D01*
X139533793Y-62344837D01*
X139630484Y-62265485D01*
X139709836Y-62168794D01*
X139768801Y-62058480D01*
X139805111Y-61938782D01*
X139817371Y-61814300D01*
X139814299Y-61050050D01*
X139655549Y-60891300D01*
X137906300Y-60891300D01*
X137652300Y-60891300D01*
X135903051Y-60891300D01*
X135744301Y-61050050D01*
X135741229Y-61814300D01*
X133718000Y-61814300D01*
X133718000Y-59714300D01*
X135741229Y-59714300D01*
X135744301Y-60478550D01*
X135903051Y-60637300D01*
X137652300Y-60637300D01*
X137652300Y-59238050D01*
X137906300Y-59238050D01*
X137906300Y-60637300D01*
X139655549Y-60637300D01*
X139814299Y-60478550D01*
X139817371Y-59714300D01*
X139805111Y-59589818D01*
X139768801Y-59470120D01*
X139709836Y-59359806D01*
X139630484Y-59263115D01*
X139533793Y-59183763D01*
X139423479Y-59124798D01*
X139303781Y-59088488D01*
X139179299Y-59076228D01*
X138065050Y-59079300D01*
X137906300Y-59238050D01*
X137652300Y-59238050D01*
X137493550Y-59079300D01*
X136379301Y-59076228D01*
X136254819Y-59088488D01*
X136135121Y-59124798D01*
X136024807Y-59183763D01*
X135928116Y-59263115D01*
X135848764Y-59359806D01*
X135789799Y-59470120D01*
X135753489Y-59589818D01*
X135741229Y-59714300D01*
X133718000Y-59714300D01*
X133718000Y-59608279D01*
X133759088Y-59189232D01*
X133871415Y-58817189D01*
X134053861Y-58474057D01*
X134299484Y-58172894D01*
X134598927Y-57925173D01*
X134940777Y-57740335D01*
X135312026Y-57625414D01*
X135730796Y-57581400D01*
X149457475Y-57581400D01*
X149878347Y-57622667D01*
G37*
G04 #@! TD.AperFunction*
M02*
