%TF.GenerationSoftware,KiCad,Pcbnew,(5.1.10)-1*%
%TF.CreationDate,2021-11-16T23:39:41-08:00*%
%TF.ProjectId,ProgrammingAdapterBoard,50726f67-7261-46d6-9d69-6e6741646170,rev?*%
%TF.SameCoordinates,Original*%
%TF.FileFunction,Paste,Top*%
%TF.FilePolarity,Positive*%
%FSLAX46Y46*%
G04 Gerber Fmt 4.6, Leading zero omitted, Abs format (unit mm)*
G04 Created by KiCad (PCBNEW (5.1.10)-1) date 2021-11-16 23:39:41*
%MOMM*%
%LPD*%
G01*
G04 APERTURE LIST*
%ADD10C,0.010000*%
%ADD11R,2.790000X0.740000*%
G04 APERTURE END LIST*
D10*
G36*
X74572400Y-95083200D02*
G01*
X74572400Y-95823200D01*
X71782400Y-95823200D01*
X71782400Y-95083200D01*
X74572400Y-95083200D01*
G37*
X74572400Y-95083200D02*
X74572400Y-95823200D01*
X71782400Y-95823200D01*
X71782400Y-95083200D01*
X74572400Y-95083200D01*
G36*
X70508400Y-95083200D02*
G01*
X70508400Y-95823200D01*
X67718400Y-95823200D01*
X67718400Y-95083200D01*
X70508400Y-95083200D01*
G37*
X70508400Y-95083200D02*
X70508400Y-95823200D01*
X67718400Y-95823200D01*
X67718400Y-95083200D01*
X70508400Y-95083200D01*
G36*
X74572400Y-93813200D02*
G01*
X74572400Y-94553200D01*
X71782400Y-94553200D01*
X71782400Y-93813200D01*
X74572400Y-93813200D01*
G37*
X74572400Y-93813200D02*
X74572400Y-94553200D01*
X71782400Y-94553200D01*
X71782400Y-93813200D01*
X74572400Y-93813200D01*
G36*
X70508400Y-93813200D02*
G01*
X70508400Y-94553200D01*
X67718400Y-94553200D01*
X67718400Y-93813200D01*
X70508400Y-93813200D01*
G37*
X70508400Y-93813200D02*
X70508400Y-94553200D01*
X67718400Y-94553200D01*
X67718400Y-93813200D01*
X70508400Y-93813200D01*
G36*
X74572400Y-92543200D02*
G01*
X74572400Y-93283200D01*
X71782400Y-93283200D01*
X71782400Y-92543200D01*
X74572400Y-92543200D01*
G37*
X74572400Y-92543200D02*
X74572400Y-93283200D01*
X71782400Y-93283200D01*
X71782400Y-92543200D01*
X74572400Y-92543200D01*
G36*
X70508400Y-92543200D02*
G01*
X70508400Y-93283200D01*
X67718400Y-93283200D01*
X67718400Y-92543200D01*
X70508400Y-92543200D01*
G37*
X70508400Y-92543200D02*
X70508400Y-93283200D01*
X67718400Y-93283200D01*
X67718400Y-92543200D01*
X70508400Y-92543200D01*
G36*
X74572400Y-91273200D02*
G01*
X74572400Y-92013200D01*
X71782400Y-92013200D01*
X71782400Y-91273200D01*
X74572400Y-91273200D01*
G37*
X74572400Y-91273200D02*
X74572400Y-92013200D01*
X71782400Y-92013200D01*
X71782400Y-91273200D01*
X74572400Y-91273200D01*
G36*
X70508400Y-91273200D02*
G01*
X70508400Y-92013200D01*
X67718400Y-92013200D01*
X67718400Y-91273200D01*
X70508400Y-91273200D01*
G37*
X70508400Y-91273200D02*
X70508400Y-92013200D01*
X67718400Y-92013200D01*
X67718400Y-91273200D01*
X70508400Y-91273200D01*
G36*
X74572400Y-90003200D02*
G01*
X74572400Y-90743200D01*
X71782400Y-90743200D01*
X71782400Y-90003200D01*
X74572400Y-90003200D01*
G37*
X74572400Y-90003200D02*
X74572400Y-90743200D01*
X71782400Y-90743200D01*
X71782400Y-90003200D01*
X74572400Y-90003200D01*
G36*
X70508400Y-90003200D02*
G01*
X70508400Y-90743200D01*
X67718400Y-90743200D01*
X67718400Y-90003200D01*
X70508400Y-90003200D01*
G37*
X70508400Y-90003200D02*
X70508400Y-90743200D01*
X67718400Y-90743200D01*
X67718400Y-90003200D01*
X70508400Y-90003200D01*
D11*
X73180400Y-89103200D03*
X69110400Y-89103200D03*
X73180400Y-87833200D03*
X69110400Y-87833200D03*
X73180400Y-95453200D03*
X69110400Y-95453200D03*
X73180400Y-94183200D03*
X69110400Y-94183200D03*
X73180400Y-92913200D03*
X69110400Y-92913200D03*
X73180400Y-91643200D03*
X69110400Y-91643200D03*
X73180400Y-90373200D03*
X69110400Y-90373200D03*
M02*
