%TF.GenerationSoftware,KiCad,Pcbnew,(5.1.10)-1*%
%TF.CreationDate,2021-11-16T23:39:41-08:00*%
%TF.ProjectId,ProgrammingAdapterBoard,50726f67-7261-46d6-9d69-6e6741646170,rev?*%
%TF.SameCoordinates,Original*%
%TF.FileFunction,Legend,Bot*%
%TF.FilePolarity,Positive*%
%FSLAX46Y46*%
G04 Gerber Fmt 4.6, Leading zero omitted, Abs format (unit mm)*
G04 Created by KiCad (PCBNEW (5.1.10)-1) date 2021-11-16 23:39:41*
%MOMM*%
%LPD*%
G01*
G04 APERTURE LIST*
%ADD10C,0.010000*%
%ADD11C,0.100000*%
%ADD12C,1.020000*%
%ADD13C,1.000000*%
%ADD14R,1.000000X1.000000*%
G04 APERTURE END LIST*
D10*
G36*
X74390935Y-92082495D02*
G01*
X74392243Y-92086722D01*
X74393889Y-92091120D01*
X74396730Y-92098475D01*
X74400082Y-92107433D01*
X74402859Y-92115054D01*
X74405488Y-92121981D01*
X74407860Y-92127511D01*
X74409502Y-92130551D01*
X74409616Y-92130685D01*
X74409832Y-92129868D01*
X74408888Y-92126072D01*
X74406974Y-92119985D01*
X74405513Y-92115731D01*
X74401244Y-92103964D01*
X74397435Y-92094136D01*
X74394281Y-92086709D01*
X74391977Y-92082145D01*
X74390836Y-92080862D01*
X74390935Y-92082495D01*
G37*
X74390935Y-92082495D02*
X74392243Y-92086722D01*
X74393889Y-92091120D01*
X74396730Y-92098475D01*
X74400082Y-92107433D01*
X74402859Y-92115054D01*
X74405488Y-92121981D01*
X74407860Y-92127511D01*
X74409502Y-92130551D01*
X74409616Y-92130685D01*
X74409832Y-92129868D01*
X74408888Y-92126072D01*
X74406974Y-92119985D01*
X74405513Y-92115731D01*
X74401244Y-92103964D01*
X74397435Y-92094136D01*
X74394281Y-92086709D01*
X74391977Y-92082145D01*
X74390836Y-92080862D01*
X74390935Y-92082495D01*
G36*
X70241746Y-88847960D02*
G01*
X70241746Y-88847972D01*
X70242565Y-88849921D01*
X70244890Y-88854971D01*
X70248524Y-88862707D01*
X70253271Y-88872714D01*
X70258934Y-88884575D01*
X70265315Y-88897876D01*
X70270297Y-88908219D01*
X70315419Y-89003051D01*
X70360932Y-89101246D01*
X70406610Y-89202308D01*
X70452230Y-89305739D01*
X70497568Y-89411045D01*
X70502085Y-89421677D01*
X70513131Y-89447787D01*
X70522885Y-89471041D01*
X70531633Y-89492157D01*
X70539663Y-89511856D01*
X70547260Y-89530855D01*
X70554710Y-89549873D01*
X70562300Y-89569630D01*
X70570317Y-89590844D01*
X70579046Y-89614234D01*
X70582631Y-89623900D01*
X70592278Y-89649101D01*
X70602520Y-89674126D01*
X70613591Y-89699461D01*
X70625722Y-89725596D01*
X70639147Y-89753016D01*
X70654097Y-89782211D01*
X70670805Y-89813667D01*
X70688822Y-89846639D01*
X70736778Y-89929529D01*
X70788316Y-90011229D01*
X70843213Y-90091427D01*
X70901243Y-90169810D01*
X70962181Y-90246065D01*
X71025803Y-90319880D01*
X71043649Y-90339611D01*
X71053366Y-90350392D01*
X71060736Y-90358966D01*
X71066178Y-90365882D01*
X71070112Y-90371693D01*
X71072957Y-90376950D01*
X71074169Y-90379703D01*
X71082549Y-90396371D01*
X71093117Y-90410322D01*
X71106378Y-90422090D01*
X71122840Y-90432211D01*
X71124884Y-90433254D01*
X71130048Y-90436052D01*
X71135279Y-90439396D01*
X71141035Y-90443662D01*
X71147778Y-90449228D01*
X71155964Y-90456470D01*
X71166055Y-90465766D01*
X71176820Y-90475894D01*
X71187894Y-90486225D01*
X71199064Y-90496374D01*
X71209709Y-90505798D01*
X71219212Y-90513954D01*
X71226954Y-90520300D01*
X71230919Y-90523322D01*
X71238370Y-90529111D01*
X71247554Y-90536869D01*
X71257501Y-90545743D01*
X71267239Y-90554878D01*
X71271136Y-90558690D01*
X71280202Y-90567417D01*
X71289616Y-90576008D01*
X71298501Y-90583697D01*
X71305983Y-90589713D01*
X71308868Y-90591815D01*
X71315674Y-90596595D01*
X71324617Y-90602992D01*
X71334701Y-90610286D01*
X71344930Y-90617759D01*
X71348600Y-90620461D01*
X71374049Y-90638899D01*
X71398750Y-90656119D01*
X71421850Y-90671532D01*
X71431935Y-90678000D01*
X71451260Y-90690484D01*
X71468015Y-90701877D01*
X71481933Y-90711988D01*
X71492745Y-90720626D01*
X71496461Y-90723922D01*
X71507558Y-90734196D01*
X71500371Y-90735402D01*
X71491362Y-90736860D01*
X71479088Y-90738770D01*
X71464154Y-90741041D01*
X71447164Y-90743587D01*
X71428723Y-90746318D01*
X71409438Y-90749146D01*
X71389912Y-90751983D01*
X71370750Y-90754740D01*
X71352559Y-90757329D01*
X71335941Y-90759661D01*
X71321504Y-90761648D01*
X71312453Y-90762862D01*
X71276147Y-90767520D01*
X71242853Y-90771496D01*
X71211752Y-90774858D01*
X71182021Y-90777671D01*
X71152839Y-90780004D01*
X71123385Y-90781923D01*
X71092836Y-90783496D01*
X71060372Y-90784789D01*
X71034030Y-90785623D01*
X71012877Y-90786274D01*
X70994924Y-90786934D01*
X70979468Y-90787652D01*
X70965801Y-90788474D01*
X70953219Y-90789447D01*
X70941015Y-90790619D01*
X70928483Y-90792037D01*
X70917777Y-90793375D01*
X70824109Y-90804894D01*
X70733257Y-90814881D01*
X70644461Y-90823383D01*
X70556965Y-90830451D01*
X70470009Y-90836134D01*
X70382837Y-90840480D01*
X70294689Y-90843540D01*
X70204808Y-90845362D01*
X70112436Y-90845995D01*
X70106930Y-90845996D01*
X70038436Y-90845707D01*
X69972979Y-90844833D01*
X69909724Y-90843342D01*
X69847841Y-90841202D01*
X69786496Y-90838380D01*
X69724857Y-90834842D01*
X69662091Y-90830557D01*
X69608700Y-90826422D01*
X69567807Y-90822929D01*
X69525865Y-90819025D01*
X69483217Y-90814757D01*
X69440209Y-90810170D01*
X69397185Y-90805311D01*
X69354492Y-90800224D01*
X69312473Y-90794957D01*
X69271475Y-90789554D01*
X69231841Y-90784063D01*
X69193918Y-90778527D01*
X69158050Y-90772994D01*
X69124582Y-90767510D01*
X69093859Y-90762119D01*
X69066226Y-90756869D01*
X69042029Y-90751805D01*
X69034515Y-90750103D01*
X69000958Y-90742578D01*
X68966614Y-90735345D01*
X68932585Y-90728621D01*
X68899974Y-90722622D01*
X68869882Y-90717565D01*
X68867215Y-90717145D01*
X68853210Y-90714907D01*
X68838566Y-90712487D01*
X68824455Y-90710085D01*
X68812045Y-90707899D01*
X68803715Y-90706361D01*
X68791196Y-90704212D01*
X68781294Y-90703020D01*
X68774483Y-90702838D01*
X68772750Y-90703055D01*
X68766208Y-90704416D01*
X68775681Y-90711119D01*
X68786586Y-90718978D01*
X68799918Y-90728819D01*
X68815063Y-90740172D01*
X68831403Y-90752567D01*
X68848324Y-90765535D01*
X68865209Y-90778605D01*
X68881443Y-90791308D01*
X68896410Y-90803175D01*
X68897500Y-90804047D01*
X68975215Y-90868491D01*
X69050597Y-90935585D01*
X69123871Y-91005551D01*
X69195267Y-91078612D01*
X69265011Y-91154991D01*
X69313689Y-91211400D01*
X69333409Y-91234279D01*
X69355557Y-91259079D01*
X69379565Y-91285209D01*
X69404867Y-91312078D01*
X69430897Y-91339098D01*
X69457087Y-91365676D01*
X69482871Y-91391223D01*
X69507682Y-91415148D01*
X69523707Y-91430189D01*
X69598540Y-91497372D01*
X69674037Y-91560833D01*
X69750171Y-91620554D01*
X69826917Y-91676520D01*
X69904245Y-91728712D01*
X69982130Y-91777113D01*
X70060544Y-91821707D01*
X70139460Y-91862476D01*
X70218851Y-91899403D01*
X70298690Y-91932471D01*
X70348300Y-91950991D01*
X70387691Y-91964597D01*
X70429106Y-91978001D01*
X70471394Y-91990860D01*
X70513398Y-92002832D01*
X70553967Y-92013575D01*
X70582692Y-92020603D01*
X70594353Y-92023510D01*
X70608685Y-92027346D01*
X70624648Y-92031817D01*
X70641202Y-92036628D01*
X70657307Y-92041487D01*
X70664753Y-92043806D01*
X70753911Y-92070520D01*
X70842029Y-92094068D01*
X70929700Y-92114558D01*
X71017517Y-92132099D01*
X71106071Y-92146801D01*
X71195955Y-92158770D01*
X71287762Y-92168118D01*
X71376930Y-92174646D01*
X71394668Y-92175541D01*
X71415618Y-92176313D01*
X71439086Y-92176956D01*
X71464378Y-92177464D01*
X71490801Y-92177831D01*
X71517660Y-92178051D01*
X71544261Y-92178119D01*
X71569912Y-92178028D01*
X71593917Y-92177774D01*
X71615583Y-92177349D01*
X71632884Y-92176801D01*
X71721024Y-92172175D01*
X71806676Y-92165311D01*
X71890606Y-92156134D01*
X71973579Y-92144571D01*
X71986446Y-92142553D01*
X72026584Y-92136166D01*
X72049429Y-92140619D01*
X72093369Y-92150728D01*
X72137215Y-92163810D01*
X72180364Y-92179603D01*
X72222210Y-92197848D01*
X72262148Y-92218285D01*
X72299571Y-92240651D01*
X72328664Y-92260772D01*
X72342232Y-92270830D01*
X72338134Y-92276958D01*
X72329940Y-92292104D01*
X72324077Y-92309025D01*
X72320996Y-92326250D01*
X72320638Y-92333881D01*
X72320259Y-92340371D01*
X72318982Y-92347579D01*
X72316595Y-92356383D01*
X72312889Y-92367656D01*
X72311690Y-92371082D01*
X72292313Y-92430734D01*
X72275379Y-92492873D01*
X72260998Y-92556851D01*
X72249278Y-92622019D01*
X72240331Y-92687730D01*
X72234265Y-92753336D01*
X72231190Y-92818189D01*
X72230809Y-92848723D01*
X72232569Y-92919461D01*
X72237895Y-92991031D01*
X72246692Y-93062898D01*
X72258866Y-93134523D01*
X72274322Y-93205368D01*
X72292968Y-93274897D01*
X72314708Y-93342571D01*
X72319739Y-93356723D01*
X72324324Y-93369365D01*
X72328440Y-93380540D01*
X72332272Y-93390596D01*
X72336006Y-93399880D01*
X72339827Y-93408741D01*
X72343919Y-93417524D01*
X72348467Y-93426577D01*
X72353657Y-93436248D01*
X72359673Y-93446884D01*
X72366701Y-93458832D01*
X72374925Y-93472439D01*
X72384530Y-93488052D01*
X72395702Y-93506020D01*
X72408625Y-93526689D01*
X72419654Y-93544293D01*
X72445843Y-93586115D01*
X72470040Y-93624825D01*
X72492354Y-93660605D01*
X72512893Y-93693637D01*
X72531765Y-93724104D01*
X72549080Y-93752189D01*
X72564945Y-93778073D01*
X72579469Y-93801941D01*
X72592761Y-93823973D01*
X72604930Y-93844353D01*
X72616083Y-93863263D01*
X72626329Y-93880885D01*
X72635778Y-93897403D01*
X72644536Y-93912999D01*
X72652714Y-93927854D01*
X72660418Y-93942153D01*
X72667759Y-93956077D01*
X72674844Y-93969809D01*
X72681782Y-93983531D01*
X72686831Y-93993677D01*
X72697133Y-94014722D01*
X72705975Y-94033325D01*
X72713786Y-94050468D01*
X72720994Y-94067129D01*
X72728029Y-94084290D01*
X72735318Y-94102930D01*
X72740102Y-94115525D01*
X72759255Y-94171173D01*
X72775789Y-94229231D01*
X72789618Y-94289132D01*
X72800654Y-94350307D01*
X72808809Y-94412188D01*
X72813994Y-94474208D01*
X72816121Y-94535798D01*
X72815103Y-94596391D01*
X72814991Y-94598880D01*
X72814291Y-94614150D01*
X72813575Y-94629871D01*
X72812888Y-94645058D01*
X72812273Y-94658725D01*
X72811777Y-94669889D01*
X72811614Y-94673609D01*
X72811864Y-94711924D01*
X72815969Y-94750088D01*
X72823937Y-94788116D01*
X72835774Y-94826022D01*
X72851486Y-94863821D01*
X72871079Y-94901529D01*
X72894560Y-94939160D01*
X72921935Y-94976729D01*
X72953210Y-95014250D01*
X72958714Y-95020403D01*
X73001116Y-95066192D01*
X73042694Y-95108679D01*
X73083904Y-95148254D01*
X73125198Y-95185307D01*
X73167032Y-95220228D01*
X73209860Y-95253408D01*
X73254137Y-95285237D01*
X73300317Y-95316105D01*
X73311238Y-95323099D01*
X73326093Y-95332603D01*
X73339746Y-95341498D01*
X73352779Y-95350188D01*
X73365773Y-95359077D01*
X73379307Y-95368571D01*
X73393964Y-95379073D01*
X73410323Y-95390988D01*
X73428965Y-95404720D01*
X73437198Y-95410817D01*
X73457642Y-95425983D01*
X73475261Y-95439073D01*
X73490375Y-95450329D01*
X73503303Y-95459994D01*
X73514367Y-95468311D01*
X73523886Y-95475522D01*
X73532179Y-95481870D01*
X73539569Y-95487597D01*
X73546373Y-95492945D01*
X73552914Y-95498159D01*
X73559510Y-95503479D01*
X73559975Y-95503856D01*
X73573911Y-95515145D01*
X73585196Y-95524250D01*
X73594205Y-95531463D01*
X73601316Y-95537071D01*
X73606904Y-95541364D01*
X73611345Y-95544631D01*
X73615014Y-95547162D01*
X73618287Y-95549246D01*
X73621161Y-95550953D01*
X73627921Y-95554718D01*
X73631790Y-95556431D01*
X73633133Y-95556200D01*
X73632421Y-95554312D01*
X73630224Y-95551236D01*
X73625878Y-95545698D01*
X73619792Y-95538191D01*
X73612375Y-95529205D01*
X73604037Y-95519234D01*
X73595185Y-95508769D01*
X73586231Y-95498303D01*
X73577582Y-95488326D01*
X73576765Y-95487393D01*
X73567044Y-95476578D01*
X73555100Y-95463760D01*
X73541512Y-95449521D01*
X73526857Y-95434443D01*
X73511712Y-95419109D01*
X73496654Y-95404103D01*
X73482261Y-95390005D01*
X73469110Y-95377400D01*
X73457778Y-95366870D01*
X73453869Y-95363355D01*
X73440812Y-95351335D01*
X73425686Y-95336670D01*
X73408862Y-95319765D01*
X73390710Y-95301027D01*
X73371602Y-95280862D01*
X73351909Y-95259677D01*
X73332001Y-95237878D01*
X73312250Y-95215872D01*
X73293027Y-95194064D01*
X73274702Y-95172862D01*
X73257646Y-95152671D01*
X73242231Y-95133899D01*
X73228827Y-95116951D01*
X73228219Y-95116162D01*
X73194385Y-95069466D01*
X73162232Y-95019557D01*
X73131952Y-94966836D01*
X73103740Y-94911704D01*
X73077789Y-94854561D01*
X73054293Y-94795809D01*
X73033445Y-94735848D01*
X73015570Y-94675570D01*
X73012071Y-94662439D01*
X73008549Y-94648829D01*
X73005145Y-94635321D01*
X73002000Y-94622500D01*
X72999254Y-94610950D01*
X72997047Y-94601254D01*
X72995520Y-94593997D01*
X72994814Y-94589761D01*
X72994783Y-94589175D01*
X72995390Y-94589894D01*
X72996994Y-94593698D01*
X72999352Y-94599970D01*
X73002219Y-94608090D01*
X73002244Y-94608162D01*
X73018046Y-94648940D01*
X73036581Y-94687191D01*
X73057998Y-94723113D01*
X73082446Y-94756903D01*
X73110075Y-94788757D01*
X73141034Y-94818874D01*
X73175474Y-94847451D01*
X73194007Y-94861197D01*
X73211170Y-94873059D01*
X73228928Y-94884455D01*
X73247928Y-94895759D01*
X73268817Y-94907347D01*
X73292244Y-94919594D01*
X73312215Y-94929607D01*
X73376003Y-94963032D01*
X73439850Y-95000314D01*
X73503684Y-95041406D01*
X73567433Y-95086257D01*
X73631025Y-95134821D01*
X73694390Y-95187049D01*
X73696964Y-95189252D01*
X73711121Y-95201353D01*
X73726683Y-95214594D01*
X73742759Y-95228222D01*
X73758460Y-95241484D01*
X73772893Y-95253625D01*
X73784069Y-95262974D01*
X73797270Y-95274018D01*
X73808963Y-95283910D01*
X73819726Y-95293164D01*
X73830137Y-95302292D01*
X73840773Y-95311811D01*
X73852210Y-95322233D01*
X73865027Y-95334072D01*
X73879800Y-95347844D01*
X73888095Y-95355609D01*
X73899311Y-95365999D01*
X73910416Y-95376061D01*
X73921028Y-95385472D01*
X73930767Y-95393908D01*
X73939252Y-95401044D01*
X73946104Y-95406557D01*
X73950940Y-95410122D01*
X73953381Y-95411414D01*
X73953556Y-95411365D01*
X73952821Y-95409443D01*
X73949827Y-95404855D01*
X73944831Y-95397924D01*
X73938092Y-95388972D01*
X73929867Y-95378321D01*
X73920415Y-95366294D01*
X73909994Y-95353213D01*
X73898861Y-95339402D01*
X73887274Y-95325182D01*
X73875493Y-95310877D01*
X73863774Y-95296808D01*
X73852376Y-95283298D01*
X73841556Y-95270670D01*
X73834652Y-95262741D01*
X73818777Y-95244926D01*
X73800088Y-95224457D01*
X73778580Y-95201331D01*
X73754252Y-95175544D01*
X73727099Y-95147094D01*
X73697120Y-95115977D01*
X73664310Y-95082190D01*
X73628668Y-95045731D01*
X73590189Y-95006595D01*
X73551734Y-94967670D01*
X73540349Y-94956163D01*
X73529871Y-94945543D01*
X73520133Y-94935617D01*
X73510967Y-94926194D01*
X73502207Y-94917079D01*
X73493685Y-94908082D01*
X73485234Y-94899009D01*
X73476686Y-94889669D01*
X73467874Y-94879868D01*
X73458632Y-94869415D01*
X73448791Y-94858117D01*
X73438185Y-94845782D01*
X73426647Y-94832217D01*
X73414008Y-94817230D01*
X73400102Y-94800629D01*
X73384762Y-94782220D01*
X73367820Y-94761813D01*
X73349109Y-94739213D01*
X73328462Y-94714230D01*
X73305712Y-94686670D01*
X73280691Y-94656342D01*
X73273182Y-94647239D01*
X73256824Y-94626322D01*
X73239276Y-94601803D01*
X73226480Y-94582599D01*
X72994561Y-94582599D01*
X72994202Y-94585133D01*
X72993535Y-94585163D01*
X72993068Y-94582548D01*
X72993380Y-94581419D01*
X72994248Y-94580679D01*
X72994561Y-94582599D01*
X73226480Y-94582599D01*
X73221381Y-94574947D01*
X72992761Y-94574947D01*
X72991784Y-94575923D01*
X72990807Y-94574947D01*
X72991784Y-94573970D01*
X72992761Y-94574947D01*
X73221381Y-94574947D01*
X73220603Y-94573780D01*
X73200872Y-94542350D01*
X73191639Y-94527077D01*
X73151478Y-94456817D01*
X73114928Y-94386437D01*
X73082018Y-94316019D01*
X73052777Y-94245647D01*
X73027234Y-94175404D01*
X73005417Y-94105373D01*
X72987355Y-94035637D01*
X72973076Y-93966279D01*
X72962611Y-93897383D01*
X72957620Y-93850070D01*
X72956998Y-93841371D01*
X72956350Y-93829646D01*
X72955712Y-93815778D01*
X72955124Y-93800648D01*
X72954624Y-93785138D01*
X72954377Y-93775823D01*
X72954589Y-93704558D01*
X72958600Y-93632865D01*
X72966365Y-93561012D01*
X72977838Y-93489266D01*
X72992972Y-93417893D01*
X73011722Y-93347160D01*
X73034043Y-93277334D01*
X73045951Y-93244377D01*
X73053893Y-93224673D01*
X73063897Y-93202278D01*
X73075719Y-93177656D01*
X73089116Y-93151269D01*
X73103841Y-93123581D01*
X73119651Y-93095056D01*
X73136302Y-93066155D01*
X73153548Y-93037343D01*
X73165021Y-93018788D01*
X73175731Y-93001882D01*
X73185726Y-92986565D01*
X73195404Y-92972309D01*
X73205163Y-92958586D01*
X73215401Y-92944870D01*
X73226515Y-92930633D01*
X73238904Y-92915347D01*
X73252965Y-92898485D01*
X73269097Y-92879520D01*
X73277272Y-92870002D01*
X73286850Y-92858879D01*
X73298360Y-92845514D01*
X73311185Y-92830624D01*
X73324706Y-92814926D01*
X73338306Y-92799138D01*
X73351365Y-92783979D01*
X73357210Y-92777194D01*
X73380235Y-92750340D01*
X73400899Y-92725953D01*
X73419516Y-92703650D01*
X73436397Y-92683049D01*
X73451858Y-92663767D01*
X73466209Y-92645420D01*
X73479765Y-92627627D01*
X73483136Y-92623127D01*
X73511967Y-92583456D01*
X73537750Y-92545675D01*
X73560637Y-92509434D01*
X73580781Y-92474383D01*
X73598335Y-92440172D01*
X73613453Y-92406451D01*
X73626286Y-92372871D01*
X73636990Y-92339081D01*
X73645715Y-92304731D01*
X73652616Y-92269473D01*
X73657846Y-92232954D01*
X73659232Y-92220562D01*
X73660189Y-92208402D01*
X73660896Y-92193238D01*
X73661352Y-92175966D01*
X73661558Y-92157484D01*
X73661512Y-92138687D01*
X73661217Y-92120470D01*
X73660670Y-92103731D01*
X73659873Y-92089365D01*
X73659232Y-92081839D01*
X73650968Y-92020108D01*
X73638826Y-91958785D01*
X73622820Y-91897937D01*
X73611957Y-91863445D01*
X73607839Y-91851586D01*
X73602643Y-91837350D01*
X73596713Y-91821613D01*
X73590390Y-91805251D01*
X73584016Y-91789141D01*
X73577935Y-91774159D01*
X73572488Y-91761180D01*
X73568324Y-91751746D01*
X73565211Y-91744492D01*
X73563013Y-91738455D01*
X73562063Y-91734592D01*
X73562106Y-91733875D01*
X73564196Y-91732253D01*
X73569167Y-91729660D01*
X73576236Y-91726476D01*
X73583176Y-91723642D01*
X73619606Y-91711199D01*
X73657197Y-91701794D01*
X73695205Y-91695554D01*
X73732885Y-91692608D01*
X73763053Y-91692741D01*
X73781267Y-91693905D01*
X73799714Y-91695742D01*
X73817738Y-91698140D01*
X73834685Y-91700983D01*
X73849900Y-91704158D01*
X73862729Y-91707552D01*
X73872517Y-91711051D01*
X73874923Y-91712186D01*
X73881513Y-91715106D01*
X73889502Y-91718025D01*
X73893505Y-91719266D01*
X73898598Y-91720961D01*
X73902986Y-91723200D01*
X73907487Y-91726596D01*
X73912921Y-91731763D01*
X73919756Y-91738939D01*
X73940991Y-91760436D01*
X73963580Y-91780961D01*
X73986762Y-91799895D01*
X74009777Y-91816620D01*
X74031864Y-91830517D01*
X74033550Y-91831478D01*
X74042655Y-91836485D01*
X74052082Y-91841357D01*
X74062289Y-91846294D01*
X74073733Y-91851497D01*
X74086872Y-91857166D01*
X74102165Y-91863503D01*
X74120068Y-91870709D01*
X74141040Y-91878984D01*
X74148461Y-91881886D01*
X74173046Y-91891632D01*
X74194347Y-91900421D01*
X74212808Y-91908463D01*
X74228876Y-91915966D01*
X74242995Y-91923140D01*
X74255611Y-91930193D01*
X74267169Y-91937334D01*
X74268623Y-91938283D01*
X74293192Y-91955797D01*
X74315003Y-91974399D01*
X74334640Y-91994721D01*
X74352686Y-92017394D01*
X74369724Y-92043051D01*
X74377372Y-92056006D01*
X74381995Y-92064020D01*
X74385834Y-92070507D01*
X74388532Y-92074876D01*
X74389732Y-92076536D01*
X74389761Y-92076504D01*
X74389015Y-92074143D01*
X74386932Y-92068752D01*
X74383744Y-92060880D01*
X74379682Y-92051076D01*
X74374978Y-92039889D01*
X74369865Y-92027867D01*
X74364575Y-92015559D01*
X74359339Y-92003514D01*
X74354389Y-91992281D01*
X74350549Y-91983714D01*
X74317113Y-91913891D01*
X74280347Y-91844619D01*
X74240597Y-91776448D01*
X74198208Y-91709930D01*
X74153528Y-91645616D01*
X74106900Y-91584057D01*
X74076573Y-91546810D01*
X74057199Y-91523688D01*
X74055280Y-91509327D01*
X74054355Y-91498862D01*
X74054811Y-91489475D01*
X74056305Y-91480671D01*
X74061544Y-91446149D01*
X74063316Y-91410876D01*
X74061672Y-91375481D01*
X74056660Y-91340593D01*
X74048331Y-91306840D01*
X74040726Y-91284670D01*
X74025801Y-91251321D01*
X74007630Y-91220055D01*
X73986385Y-91191057D01*
X73962239Y-91164516D01*
X73935363Y-91140618D01*
X73905929Y-91119551D01*
X73874110Y-91101501D01*
X73871015Y-91099972D01*
X73843473Y-91087768D01*
X73816321Y-91078372D01*
X73788551Y-91071527D01*
X73759153Y-91066976D01*
X73733351Y-91064787D01*
X73720691Y-91064045D01*
X73707365Y-91063254D01*
X73694789Y-91062499D01*
X73684378Y-91061864D01*
X73682469Y-91061746D01*
X73653043Y-91061519D01*
X73621995Y-91064257D01*
X73590049Y-91069802D01*
X73557930Y-91077994D01*
X73526362Y-91088673D01*
X73496068Y-91101680D01*
X73491877Y-91103724D01*
X73466464Y-91117451D01*
X73444753Y-91131644D01*
X73426551Y-91146437D01*
X73417064Y-91155839D01*
X73408451Y-91165789D01*
X73400687Y-91176377D01*
X73393314Y-91188356D01*
X73385876Y-91202477D01*
X73377914Y-91219494D01*
X73376614Y-91222415D01*
X73367334Y-91242770D01*
X73358838Y-91259878D01*
X73350762Y-91274227D01*
X73342739Y-91286305D01*
X73334405Y-91296601D01*
X73325393Y-91305602D01*
X73315339Y-91313795D01*
X73303877Y-91321669D01*
X73300795Y-91323616D01*
X73286815Y-91332324D01*
X73272161Y-91330669D01*
X73262379Y-91329098D01*
X73251764Y-91326687D01*
X73244074Y-91324427D01*
X73237922Y-91322162D01*
X73233101Y-91319774D01*
X73228702Y-91316578D01*
X73223817Y-91311890D01*
X73217536Y-91305024D01*
X73215945Y-91303231D01*
X73187216Y-91268165D01*
X73161671Y-91231591D01*
X73139395Y-91193736D01*
X73120475Y-91154828D01*
X73104997Y-91115093D01*
X73093045Y-91074758D01*
X73084707Y-91034050D01*
X73080068Y-90993196D01*
X73079213Y-90952422D01*
X73079577Y-90942747D01*
X73080301Y-90929323D01*
X73081144Y-90916689D01*
X73082176Y-90904203D01*
X73083467Y-90891225D01*
X73085086Y-90877112D01*
X73087105Y-90861224D01*
X73089592Y-90842919D01*
X73092619Y-90821556D01*
X73093456Y-90815747D01*
X73097041Y-90790519D01*
X73100014Y-90768598D01*
X73102426Y-90749439D01*
X73104329Y-90732497D01*
X73105773Y-90717228D01*
X73106811Y-90703086D01*
X73107494Y-90689528D01*
X73107873Y-90676010D01*
X73107999Y-90661985D01*
X73108000Y-90661804D01*
X73107819Y-90641247D01*
X73107154Y-90623379D01*
X73105889Y-90606999D01*
X73103911Y-90590904D01*
X73101106Y-90573895D01*
X73098187Y-90558816D01*
X73087234Y-90513849D01*
X73072855Y-90469501D01*
X73055249Y-90426040D01*
X73034618Y-90383734D01*
X73011164Y-90342851D01*
X72985087Y-90303660D01*
X72956589Y-90266429D01*
X72925870Y-90231426D01*
X72893132Y-90198918D01*
X72858576Y-90169175D01*
X72822403Y-90142465D01*
X72784814Y-90119055D01*
X72757639Y-90104712D01*
X72736291Y-90094664D01*
X72716803Y-90086411D01*
X72697865Y-90079461D01*
X72678170Y-90073321D01*
X72663849Y-90069403D01*
X72650658Y-90066082D01*
X72637719Y-90063112D01*
X72624626Y-90060439D01*
X72610973Y-90058012D01*
X72596352Y-90055778D01*
X72580360Y-90053685D01*
X72562588Y-90051681D01*
X72542631Y-90049714D01*
X72520084Y-90047731D01*
X72494539Y-90045680D01*
X72465590Y-90043509D01*
X72458384Y-90042986D01*
X72429871Y-90040892D01*
X72404791Y-90038955D01*
X72382676Y-90037105D01*
X72363057Y-90035270D01*
X72345468Y-90033381D01*
X72329439Y-90031367D01*
X72314503Y-90029157D01*
X72300192Y-90026682D01*
X72286037Y-90023869D01*
X72271571Y-90020650D01*
X72256326Y-90016953D01*
X72239833Y-90012708D01*
X72221624Y-90007844D01*
X72217263Y-90006663D01*
X72193372Y-89999976D01*
X72166291Y-89992036D01*
X72136480Y-89982991D01*
X72104396Y-89972993D01*
X72070496Y-89962191D01*
X72035238Y-89950735D01*
X71999082Y-89938776D01*
X71962483Y-89926464D01*
X71925900Y-89913948D01*
X71889792Y-89901379D01*
X71854615Y-89888906D01*
X71821430Y-89876901D01*
X71736721Y-89844359D01*
X71650738Y-89808248D01*
X71563605Y-89768648D01*
X71475448Y-89725641D01*
X71386392Y-89679307D01*
X71296562Y-89629725D01*
X71206081Y-89576976D01*
X71115076Y-89521140D01*
X71023672Y-89462299D01*
X70931992Y-89400531D01*
X70840161Y-89335917D01*
X70748306Y-89268539D01*
X70656550Y-89198475D01*
X70565018Y-89125806D01*
X70473836Y-89050613D01*
X70383128Y-88972975D01*
X70296575Y-88896187D01*
X70282512Y-88883494D01*
X70271077Y-88873185D01*
X70261999Y-88865021D01*
X70255008Y-88858764D01*
X70249834Y-88854177D01*
X70246206Y-88851021D01*
X70243854Y-88849060D01*
X70242507Y-88848054D01*
X70241894Y-88847767D01*
X70241746Y-88847960D01*
G37*
X70241746Y-88847960D02*
X70241746Y-88847972D01*
X70242565Y-88849921D01*
X70244890Y-88854971D01*
X70248524Y-88862707D01*
X70253271Y-88872714D01*
X70258934Y-88884575D01*
X70265315Y-88897876D01*
X70270297Y-88908219D01*
X70315419Y-89003051D01*
X70360932Y-89101246D01*
X70406610Y-89202308D01*
X70452230Y-89305739D01*
X70497568Y-89411045D01*
X70502085Y-89421677D01*
X70513131Y-89447787D01*
X70522885Y-89471041D01*
X70531633Y-89492157D01*
X70539663Y-89511856D01*
X70547260Y-89530855D01*
X70554710Y-89549873D01*
X70562300Y-89569630D01*
X70570317Y-89590844D01*
X70579046Y-89614234D01*
X70582631Y-89623900D01*
X70592278Y-89649101D01*
X70602520Y-89674126D01*
X70613591Y-89699461D01*
X70625722Y-89725596D01*
X70639147Y-89753016D01*
X70654097Y-89782211D01*
X70670805Y-89813667D01*
X70688822Y-89846639D01*
X70736778Y-89929529D01*
X70788316Y-90011229D01*
X70843213Y-90091427D01*
X70901243Y-90169810D01*
X70962181Y-90246065D01*
X71025803Y-90319880D01*
X71043649Y-90339611D01*
X71053366Y-90350392D01*
X71060736Y-90358966D01*
X71066178Y-90365882D01*
X71070112Y-90371693D01*
X71072957Y-90376950D01*
X71074169Y-90379703D01*
X71082549Y-90396371D01*
X71093117Y-90410322D01*
X71106378Y-90422090D01*
X71122840Y-90432211D01*
X71124884Y-90433254D01*
X71130048Y-90436052D01*
X71135279Y-90439396D01*
X71141035Y-90443662D01*
X71147778Y-90449228D01*
X71155964Y-90456470D01*
X71166055Y-90465766D01*
X71176820Y-90475894D01*
X71187894Y-90486225D01*
X71199064Y-90496374D01*
X71209709Y-90505798D01*
X71219212Y-90513954D01*
X71226954Y-90520300D01*
X71230919Y-90523322D01*
X71238370Y-90529111D01*
X71247554Y-90536869D01*
X71257501Y-90545743D01*
X71267239Y-90554878D01*
X71271136Y-90558690D01*
X71280202Y-90567417D01*
X71289616Y-90576008D01*
X71298501Y-90583697D01*
X71305983Y-90589713D01*
X71308868Y-90591815D01*
X71315674Y-90596595D01*
X71324617Y-90602992D01*
X71334701Y-90610286D01*
X71344930Y-90617759D01*
X71348600Y-90620461D01*
X71374049Y-90638899D01*
X71398750Y-90656119D01*
X71421850Y-90671532D01*
X71431935Y-90678000D01*
X71451260Y-90690484D01*
X71468015Y-90701877D01*
X71481933Y-90711988D01*
X71492745Y-90720626D01*
X71496461Y-90723922D01*
X71507558Y-90734196D01*
X71500371Y-90735402D01*
X71491362Y-90736860D01*
X71479088Y-90738770D01*
X71464154Y-90741041D01*
X71447164Y-90743587D01*
X71428723Y-90746318D01*
X71409438Y-90749146D01*
X71389912Y-90751983D01*
X71370750Y-90754740D01*
X71352559Y-90757329D01*
X71335941Y-90759661D01*
X71321504Y-90761648D01*
X71312453Y-90762862D01*
X71276147Y-90767520D01*
X71242853Y-90771496D01*
X71211752Y-90774858D01*
X71182021Y-90777671D01*
X71152839Y-90780004D01*
X71123385Y-90781923D01*
X71092836Y-90783496D01*
X71060372Y-90784789D01*
X71034030Y-90785623D01*
X71012877Y-90786274D01*
X70994924Y-90786934D01*
X70979468Y-90787652D01*
X70965801Y-90788474D01*
X70953219Y-90789447D01*
X70941015Y-90790619D01*
X70928483Y-90792037D01*
X70917777Y-90793375D01*
X70824109Y-90804894D01*
X70733257Y-90814881D01*
X70644461Y-90823383D01*
X70556965Y-90830451D01*
X70470009Y-90836134D01*
X70382837Y-90840480D01*
X70294689Y-90843540D01*
X70204808Y-90845362D01*
X70112436Y-90845995D01*
X70106930Y-90845996D01*
X70038436Y-90845707D01*
X69972979Y-90844833D01*
X69909724Y-90843342D01*
X69847841Y-90841202D01*
X69786496Y-90838380D01*
X69724857Y-90834842D01*
X69662091Y-90830557D01*
X69608700Y-90826422D01*
X69567807Y-90822929D01*
X69525865Y-90819025D01*
X69483217Y-90814757D01*
X69440209Y-90810170D01*
X69397185Y-90805311D01*
X69354492Y-90800224D01*
X69312473Y-90794957D01*
X69271475Y-90789554D01*
X69231841Y-90784063D01*
X69193918Y-90778527D01*
X69158050Y-90772994D01*
X69124582Y-90767510D01*
X69093859Y-90762119D01*
X69066226Y-90756869D01*
X69042029Y-90751805D01*
X69034515Y-90750103D01*
X69000958Y-90742578D01*
X68966614Y-90735345D01*
X68932585Y-90728621D01*
X68899974Y-90722622D01*
X68869882Y-90717565D01*
X68867215Y-90717145D01*
X68853210Y-90714907D01*
X68838566Y-90712487D01*
X68824455Y-90710085D01*
X68812045Y-90707899D01*
X68803715Y-90706361D01*
X68791196Y-90704212D01*
X68781294Y-90703020D01*
X68774483Y-90702838D01*
X68772750Y-90703055D01*
X68766208Y-90704416D01*
X68775681Y-90711119D01*
X68786586Y-90718978D01*
X68799918Y-90728819D01*
X68815063Y-90740172D01*
X68831403Y-90752567D01*
X68848324Y-90765535D01*
X68865209Y-90778605D01*
X68881443Y-90791308D01*
X68896410Y-90803175D01*
X68897500Y-90804047D01*
X68975215Y-90868491D01*
X69050597Y-90935585D01*
X69123871Y-91005551D01*
X69195267Y-91078612D01*
X69265011Y-91154991D01*
X69313689Y-91211400D01*
X69333409Y-91234279D01*
X69355557Y-91259079D01*
X69379565Y-91285209D01*
X69404867Y-91312078D01*
X69430897Y-91339098D01*
X69457087Y-91365676D01*
X69482871Y-91391223D01*
X69507682Y-91415148D01*
X69523707Y-91430189D01*
X69598540Y-91497372D01*
X69674037Y-91560833D01*
X69750171Y-91620554D01*
X69826917Y-91676520D01*
X69904245Y-91728712D01*
X69982130Y-91777113D01*
X70060544Y-91821707D01*
X70139460Y-91862476D01*
X70218851Y-91899403D01*
X70298690Y-91932471D01*
X70348300Y-91950991D01*
X70387691Y-91964597D01*
X70429106Y-91978001D01*
X70471394Y-91990860D01*
X70513398Y-92002832D01*
X70553967Y-92013575D01*
X70582692Y-92020603D01*
X70594353Y-92023510D01*
X70608685Y-92027346D01*
X70624648Y-92031817D01*
X70641202Y-92036628D01*
X70657307Y-92041487D01*
X70664753Y-92043806D01*
X70753911Y-92070520D01*
X70842029Y-92094068D01*
X70929700Y-92114558D01*
X71017517Y-92132099D01*
X71106071Y-92146801D01*
X71195955Y-92158770D01*
X71287762Y-92168118D01*
X71376930Y-92174646D01*
X71394668Y-92175541D01*
X71415618Y-92176313D01*
X71439086Y-92176956D01*
X71464378Y-92177464D01*
X71490801Y-92177831D01*
X71517660Y-92178051D01*
X71544261Y-92178119D01*
X71569912Y-92178028D01*
X71593917Y-92177774D01*
X71615583Y-92177349D01*
X71632884Y-92176801D01*
X71721024Y-92172175D01*
X71806676Y-92165311D01*
X71890606Y-92156134D01*
X71973579Y-92144571D01*
X71986446Y-92142553D01*
X72026584Y-92136166D01*
X72049429Y-92140619D01*
X72093369Y-92150728D01*
X72137215Y-92163810D01*
X72180364Y-92179603D01*
X72222210Y-92197848D01*
X72262148Y-92218285D01*
X72299571Y-92240651D01*
X72328664Y-92260772D01*
X72342232Y-92270830D01*
X72338134Y-92276958D01*
X72329940Y-92292104D01*
X72324077Y-92309025D01*
X72320996Y-92326250D01*
X72320638Y-92333881D01*
X72320259Y-92340371D01*
X72318982Y-92347579D01*
X72316595Y-92356383D01*
X72312889Y-92367656D01*
X72311690Y-92371082D01*
X72292313Y-92430734D01*
X72275379Y-92492873D01*
X72260998Y-92556851D01*
X72249278Y-92622019D01*
X72240331Y-92687730D01*
X72234265Y-92753336D01*
X72231190Y-92818189D01*
X72230809Y-92848723D01*
X72232569Y-92919461D01*
X72237895Y-92991031D01*
X72246692Y-93062898D01*
X72258866Y-93134523D01*
X72274322Y-93205368D01*
X72292968Y-93274897D01*
X72314708Y-93342571D01*
X72319739Y-93356723D01*
X72324324Y-93369365D01*
X72328440Y-93380540D01*
X72332272Y-93390596D01*
X72336006Y-93399880D01*
X72339827Y-93408741D01*
X72343919Y-93417524D01*
X72348467Y-93426577D01*
X72353657Y-93436248D01*
X72359673Y-93446884D01*
X72366701Y-93458832D01*
X72374925Y-93472439D01*
X72384530Y-93488052D01*
X72395702Y-93506020D01*
X72408625Y-93526689D01*
X72419654Y-93544293D01*
X72445843Y-93586115D01*
X72470040Y-93624825D01*
X72492354Y-93660605D01*
X72512893Y-93693637D01*
X72531765Y-93724104D01*
X72549080Y-93752189D01*
X72564945Y-93778073D01*
X72579469Y-93801941D01*
X72592761Y-93823973D01*
X72604930Y-93844353D01*
X72616083Y-93863263D01*
X72626329Y-93880885D01*
X72635778Y-93897403D01*
X72644536Y-93912999D01*
X72652714Y-93927854D01*
X72660418Y-93942153D01*
X72667759Y-93956077D01*
X72674844Y-93969809D01*
X72681782Y-93983531D01*
X72686831Y-93993677D01*
X72697133Y-94014722D01*
X72705975Y-94033325D01*
X72713786Y-94050468D01*
X72720994Y-94067129D01*
X72728029Y-94084290D01*
X72735318Y-94102930D01*
X72740102Y-94115525D01*
X72759255Y-94171173D01*
X72775789Y-94229231D01*
X72789618Y-94289132D01*
X72800654Y-94350307D01*
X72808809Y-94412188D01*
X72813994Y-94474208D01*
X72816121Y-94535798D01*
X72815103Y-94596391D01*
X72814991Y-94598880D01*
X72814291Y-94614150D01*
X72813575Y-94629871D01*
X72812888Y-94645058D01*
X72812273Y-94658725D01*
X72811777Y-94669889D01*
X72811614Y-94673609D01*
X72811864Y-94711924D01*
X72815969Y-94750088D01*
X72823937Y-94788116D01*
X72835774Y-94826022D01*
X72851486Y-94863821D01*
X72871079Y-94901529D01*
X72894560Y-94939160D01*
X72921935Y-94976729D01*
X72953210Y-95014250D01*
X72958714Y-95020403D01*
X73001116Y-95066192D01*
X73042694Y-95108679D01*
X73083904Y-95148254D01*
X73125198Y-95185307D01*
X73167032Y-95220228D01*
X73209860Y-95253408D01*
X73254137Y-95285237D01*
X73300317Y-95316105D01*
X73311238Y-95323099D01*
X73326093Y-95332603D01*
X73339746Y-95341498D01*
X73352779Y-95350188D01*
X73365773Y-95359077D01*
X73379307Y-95368571D01*
X73393964Y-95379073D01*
X73410323Y-95390988D01*
X73428965Y-95404720D01*
X73437198Y-95410817D01*
X73457642Y-95425983D01*
X73475261Y-95439073D01*
X73490375Y-95450329D01*
X73503303Y-95459994D01*
X73514367Y-95468311D01*
X73523886Y-95475522D01*
X73532179Y-95481870D01*
X73539569Y-95487597D01*
X73546373Y-95492945D01*
X73552914Y-95498159D01*
X73559510Y-95503479D01*
X73559975Y-95503856D01*
X73573911Y-95515145D01*
X73585196Y-95524250D01*
X73594205Y-95531463D01*
X73601316Y-95537071D01*
X73606904Y-95541364D01*
X73611345Y-95544631D01*
X73615014Y-95547162D01*
X73618287Y-95549246D01*
X73621161Y-95550953D01*
X73627921Y-95554718D01*
X73631790Y-95556431D01*
X73633133Y-95556200D01*
X73632421Y-95554312D01*
X73630224Y-95551236D01*
X73625878Y-95545698D01*
X73619792Y-95538191D01*
X73612375Y-95529205D01*
X73604037Y-95519234D01*
X73595185Y-95508769D01*
X73586231Y-95498303D01*
X73577582Y-95488326D01*
X73576765Y-95487393D01*
X73567044Y-95476578D01*
X73555100Y-95463760D01*
X73541512Y-95449521D01*
X73526857Y-95434443D01*
X73511712Y-95419109D01*
X73496654Y-95404103D01*
X73482261Y-95390005D01*
X73469110Y-95377400D01*
X73457778Y-95366870D01*
X73453869Y-95363355D01*
X73440812Y-95351335D01*
X73425686Y-95336670D01*
X73408862Y-95319765D01*
X73390710Y-95301027D01*
X73371602Y-95280862D01*
X73351909Y-95259677D01*
X73332001Y-95237878D01*
X73312250Y-95215872D01*
X73293027Y-95194064D01*
X73274702Y-95172862D01*
X73257646Y-95152671D01*
X73242231Y-95133899D01*
X73228827Y-95116951D01*
X73228219Y-95116162D01*
X73194385Y-95069466D01*
X73162232Y-95019557D01*
X73131952Y-94966836D01*
X73103740Y-94911704D01*
X73077789Y-94854561D01*
X73054293Y-94795809D01*
X73033445Y-94735848D01*
X73015570Y-94675570D01*
X73012071Y-94662439D01*
X73008549Y-94648829D01*
X73005145Y-94635321D01*
X73002000Y-94622500D01*
X72999254Y-94610950D01*
X72997047Y-94601254D01*
X72995520Y-94593997D01*
X72994814Y-94589761D01*
X72994783Y-94589175D01*
X72995390Y-94589894D01*
X72996994Y-94593698D01*
X72999352Y-94599970D01*
X73002219Y-94608090D01*
X73002244Y-94608162D01*
X73018046Y-94648940D01*
X73036581Y-94687191D01*
X73057998Y-94723113D01*
X73082446Y-94756903D01*
X73110075Y-94788757D01*
X73141034Y-94818874D01*
X73175474Y-94847451D01*
X73194007Y-94861197D01*
X73211170Y-94873059D01*
X73228928Y-94884455D01*
X73247928Y-94895759D01*
X73268817Y-94907347D01*
X73292244Y-94919594D01*
X73312215Y-94929607D01*
X73376003Y-94963032D01*
X73439850Y-95000314D01*
X73503684Y-95041406D01*
X73567433Y-95086257D01*
X73631025Y-95134821D01*
X73694390Y-95187049D01*
X73696964Y-95189252D01*
X73711121Y-95201353D01*
X73726683Y-95214594D01*
X73742759Y-95228222D01*
X73758460Y-95241484D01*
X73772893Y-95253625D01*
X73784069Y-95262974D01*
X73797270Y-95274018D01*
X73808963Y-95283910D01*
X73819726Y-95293164D01*
X73830137Y-95302292D01*
X73840773Y-95311811D01*
X73852210Y-95322233D01*
X73865027Y-95334072D01*
X73879800Y-95347844D01*
X73888095Y-95355609D01*
X73899311Y-95365999D01*
X73910416Y-95376061D01*
X73921028Y-95385472D01*
X73930767Y-95393908D01*
X73939252Y-95401044D01*
X73946104Y-95406557D01*
X73950940Y-95410122D01*
X73953381Y-95411414D01*
X73953556Y-95411365D01*
X73952821Y-95409443D01*
X73949827Y-95404855D01*
X73944831Y-95397924D01*
X73938092Y-95388972D01*
X73929867Y-95378321D01*
X73920415Y-95366294D01*
X73909994Y-95353213D01*
X73898861Y-95339402D01*
X73887274Y-95325182D01*
X73875493Y-95310877D01*
X73863774Y-95296808D01*
X73852376Y-95283298D01*
X73841556Y-95270670D01*
X73834652Y-95262741D01*
X73818777Y-95244926D01*
X73800088Y-95224457D01*
X73778580Y-95201331D01*
X73754252Y-95175544D01*
X73727099Y-95147094D01*
X73697120Y-95115977D01*
X73664310Y-95082190D01*
X73628668Y-95045731D01*
X73590189Y-95006595D01*
X73551734Y-94967670D01*
X73540349Y-94956163D01*
X73529871Y-94945543D01*
X73520133Y-94935617D01*
X73510967Y-94926194D01*
X73502207Y-94917079D01*
X73493685Y-94908082D01*
X73485234Y-94899009D01*
X73476686Y-94889669D01*
X73467874Y-94879868D01*
X73458632Y-94869415D01*
X73448791Y-94858117D01*
X73438185Y-94845782D01*
X73426647Y-94832217D01*
X73414008Y-94817230D01*
X73400102Y-94800629D01*
X73384762Y-94782220D01*
X73367820Y-94761813D01*
X73349109Y-94739213D01*
X73328462Y-94714230D01*
X73305712Y-94686670D01*
X73280691Y-94656342D01*
X73273182Y-94647239D01*
X73256824Y-94626322D01*
X73239276Y-94601803D01*
X73226480Y-94582599D01*
X72994561Y-94582599D01*
X72994202Y-94585133D01*
X72993535Y-94585163D01*
X72993068Y-94582548D01*
X72993380Y-94581419D01*
X72994248Y-94580679D01*
X72994561Y-94582599D01*
X73226480Y-94582599D01*
X73221381Y-94574947D01*
X72992761Y-94574947D01*
X72991784Y-94575923D01*
X72990807Y-94574947D01*
X72991784Y-94573970D01*
X72992761Y-94574947D01*
X73221381Y-94574947D01*
X73220603Y-94573780D01*
X73200872Y-94542350D01*
X73191639Y-94527077D01*
X73151478Y-94456817D01*
X73114928Y-94386437D01*
X73082018Y-94316019D01*
X73052777Y-94245647D01*
X73027234Y-94175404D01*
X73005417Y-94105373D01*
X72987355Y-94035637D01*
X72973076Y-93966279D01*
X72962611Y-93897383D01*
X72957620Y-93850070D01*
X72956998Y-93841371D01*
X72956350Y-93829646D01*
X72955712Y-93815778D01*
X72955124Y-93800648D01*
X72954624Y-93785138D01*
X72954377Y-93775823D01*
X72954589Y-93704558D01*
X72958600Y-93632865D01*
X72966365Y-93561012D01*
X72977838Y-93489266D01*
X72992972Y-93417893D01*
X73011722Y-93347160D01*
X73034043Y-93277334D01*
X73045951Y-93244377D01*
X73053893Y-93224673D01*
X73063897Y-93202278D01*
X73075719Y-93177656D01*
X73089116Y-93151269D01*
X73103841Y-93123581D01*
X73119651Y-93095056D01*
X73136302Y-93066155D01*
X73153548Y-93037343D01*
X73165021Y-93018788D01*
X73175731Y-93001882D01*
X73185726Y-92986565D01*
X73195404Y-92972309D01*
X73205163Y-92958586D01*
X73215401Y-92944870D01*
X73226515Y-92930633D01*
X73238904Y-92915347D01*
X73252965Y-92898485D01*
X73269097Y-92879520D01*
X73277272Y-92870002D01*
X73286850Y-92858879D01*
X73298360Y-92845514D01*
X73311185Y-92830624D01*
X73324706Y-92814926D01*
X73338306Y-92799138D01*
X73351365Y-92783979D01*
X73357210Y-92777194D01*
X73380235Y-92750340D01*
X73400899Y-92725953D01*
X73419516Y-92703650D01*
X73436397Y-92683049D01*
X73451858Y-92663767D01*
X73466209Y-92645420D01*
X73479765Y-92627627D01*
X73483136Y-92623127D01*
X73511967Y-92583456D01*
X73537750Y-92545675D01*
X73560637Y-92509434D01*
X73580781Y-92474383D01*
X73598335Y-92440172D01*
X73613453Y-92406451D01*
X73626286Y-92372871D01*
X73636990Y-92339081D01*
X73645715Y-92304731D01*
X73652616Y-92269473D01*
X73657846Y-92232954D01*
X73659232Y-92220562D01*
X73660189Y-92208402D01*
X73660896Y-92193238D01*
X73661352Y-92175966D01*
X73661558Y-92157484D01*
X73661512Y-92138687D01*
X73661217Y-92120470D01*
X73660670Y-92103731D01*
X73659873Y-92089365D01*
X73659232Y-92081839D01*
X73650968Y-92020108D01*
X73638826Y-91958785D01*
X73622820Y-91897937D01*
X73611957Y-91863445D01*
X73607839Y-91851586D01*
X73602643Y-91837350D01*
X73596713Y-91821613D01*
X73590390Y-91805251D01*
X73584016Y-91789141D01*
X73577935Y-91774159D01*
X73572488Y-91761180D01*
X73568324Y-91751746D01*
X73565211Y-91744492D01*
X73563013Y-91738455D01*
X73562063Y-91734592D01*
X73562106Y-91733875D01*
X73564196Y-91732253D01*
X73569167Y-91729660D01*
X73576236Y-91726476D01*
X73583176Y-91723642D01*
X73619606Y-91711199D01*
X73657197Y-91701794D01*
X73695205Y-91695554D01*
X73732885Y-91692608D01*
X73763053Y-91692741D01*
X73781267Y-91693905D01*
X73799714Y-91695742D01*
X73817738Y-91698140D01*
X73834685Y-91700983D01*
X73849900Y-91704158D01*
X73862729Y-91707552D01*
X73872517Y-91711051D01*
X73874923Y-91712186D01*
X73881513Y-91715106D01*
X73889502Y-91718025D01*
X73893505Y-91719266D01*
X73898598Y-91720961D01*
X73902986Y-91723200D01*
X73907487Y-91726596D01*
X73912921Y-91731763D01*
X73919756Y-91738939D01*
X73940991Y-91760436D01*
X73963580Y-91780961D01*
X73986762Y-91799895D01*
X74009777Y-91816620D01*
X74031864Y-91830517D01*
X74033550Y-91831478D01*
X74042655Y-91836485D01*
X74052082Y-91841357D01*
X74062289Y-91846294D01*
X74073733Y-91851497D01*
X74086872Y-91857166D01*
X74102165Y-91863503D01*
X74120068Y-91870709D01*
X74141040Y-91878984D01*
X74148461Y-91881886D01*
X74173046Y-91891632D01*
X74194347Y-91900421D01*
X74212808Y-91908463D01*
X74228876Y-91915966D01*
X74242995Y-91923140D01*
X74255611Y-91930193D01*
X74267169Y-91937334D01*
X74268623Y-91938283D01*
X74293192Y-91955797D01*
X74315003Y-91974399D01*
X74334640Y-91994721D01*
X74352686Y-92017394D01*
X74369724Y-92043051D01*
X74377372Y-92056006D01*
X74381995Y-92064020D01*
X74385834Y-92070507D01*
X74388532Y-92074876D01*
X74389732Y-92076536D01*
X74389761Y-92076504D01*
X74389015Y-92074143D01*
X74386932Y-92068752D01*
X74383744Y-92060880D01*
X74379682Y-92051076D01*
X74374978Y-92039889D01*
X74369865Y-92027867D01*
X74364575Y-92015559D01*
X74359339Y-92003514D01*
X74354389Y-91992281D01*
X74350549Y-91983714D01*
X74317113Y-91913891D01*
X74280347Y-91844619D01*
X74240597Y-91776448D01*
X74198208Y-91709930D01*
X74153528Y-91645616D01*
X74106900Y-91584057D01*
X74076573Y-91546810D01*
X74057199Y-91523688D01*
X74055280Y-91509327D01*
X74054355Y-91498862D01*
X74054811Y-91489475D01*
X74056305Y-91480671D01*
X74061544Y-91446149D01*
X74063316Y-91410876D01*
X74061672Y-91375481D01*
X74056660Y-91340593D01*
X74048331Y-91306840D01*
X74040726Y-91284670D01*
X74025801Y-91251321D01*
X74007630Y-91220055D01*
X73986385Y-91191057D01*
X73962239Y-91164516D01*
X73935363Y-91140618D01*
X73905929Y-91119551D01*
X73874110Y-91101501D01*
X73871015Y-91099972D01*
X73843473Y-91087768D01*
X73816321Y-91078372D01*
X73788551Y-91071527D01*
X73759153Y-91066976D01*
X73733351Y-91064787D01*
X73720691Y-91064045D01*
X73707365Y-91063254D01*
X73694789Y-91062499D01*
X73684378Y-91061864D01*
X73682469Y-91061746D01*
X73653043Y-91061519D01*
X73621995Y-91064257D01*
X73590049Y-91069802D01*
X73557930Y-91077994D01*
X73526362Y-91088673D01*
X73496068Y-91101680D01*
X73491877Y-91103724D01*
X73466464Y-91117451D01*
X73444753Y-91131644D01*
X73426551Y-91146437D01*
X73417064Y-91155839D01*
X73408451Y-91165789D01*
X73400687Y-91176377D01*
X73393314Y-91188356D01*
X73385876Y-91202477D01*
X73377914Y-91219494D01*
X73376614Y-91222415D01*
X73367334Y-91242770D01*
X73358838Y-91259878D01*
X73350762Y-91274227D01*
X73342739Y-91286305D01*
X73334405Y-91296601D01*
X73325393Y-91305602D01*
X73315339Y-91313795D01*
X73303877Y-91321669D01*
X73300795Y-91323616D01*
X73286815Y-91332324D01*
X73272161Y-91330669D01*
X73262379Y-91329098D01*
X73251764Y-91326687D01*
X73244074Y-91324427D01*
X73237922Y-91322162D01*
X73233101Y-91319774D01*
X73228702Y-91316578D01*
X73223817Y-91311890D01*
X73217536Y-91305024D01*
X73215945Y-91303231D01*
X73187216Y-91268165D01*
X73161671Y-91231591D01*
X73139395Y-91193736D01*
X73120475Y-91154828D01*
X73104997Y-91115093D01*
X73093045Y-91074758D01*
X73084707Y-91034050D01*
X73080068Y-90993196D01*
X73079213Y-90952422D01*
X73079577Y-90942747D01*
X73080301Y-90929323D01*
X73081144Y-90916689D01*
X73082176Y-90904203D01*
X73083467Y-90891225D01*
X73085086Y-90877112D01*
X73087105Y-90861224D01*
X73089592Y-90842919D01*
X73092619Y-90821556D01*
X73093456Y-90815747D01*
X73097041Y-90790519D01*
X73100014Y-90768598D01*
X73102426Y-90749439D01*
X73104329Y-90732497D01*
X73105773Y-90717228D01*
X73106811Y-90703086D01*
X73107494Y-90689528D01*
X73107873Y-90676010D01*
X73107999Y-90661985D01*
X73108000Y-90661804D01*
X73107819Y-90641247D01*
X73107154Y-90623379D01*
X73105889Y-90606999D01*
X73103911Y-90590904D01*
X73101106Y-90573895D01*
X73098187Y-90558816D01*
X73087234Y-90513849D01*
X73072855Y-90469501D01*
X73055249Y-90426040D01*
X73034618Y-90383734D01*
X73011164Y-90342851D01*
X72985087Y-90303660D01*
X72956589Y-90266429D01*
X72925870Y-90231426D01*
X72893132Y-90198918D01*
X72858576Y-90169175D01*
X72822403Y-90142465D01*
X72784814Y-90119055D01*
X72757639Y-90104712D01*
X72736291Y-90094664D01*
X72716803Y-90086411D01*
X72697865Y-90079461D01*
X72678170Y-90073321D01*
X72663849Y-90069403D01*
X72650658Y-90066082D01*
X72637719Y-90063112D01*
X72624626Y-90060439D01*
X72610973Y-90058012D01*
X72596352Y-90055778D01*
X72580360Y-90053685D01*
X72562588Y-90051681D01*
X72542631Y-90049714D01*
X72520084Y-90047731D01*
X72494539Y-90045680D01*
X72465590Y-90043509D01*
X72458384Y-90042986D01*
X72429871Y-90040892D01*
X72404791Y-90038955D01*
X72382676Y-90037105D01*
X72363057Y-90035270D01*
X72345468Y-90033381D01*
X72329439Y-90031367D01*
X72314503Y-90029157D01*
X72300192Y-90026682D01*
X72286037Y-90023869D01*
X72271571Y-90020650D01*
X72256326Y-90016953D01*
X72239833Y-90012708D01*
X72221624Y-90007844D01*
X72217263Y-90006663D01*
X72193372Y-89999976D01*
X72166291Y-89992036D01*
X72136480Y-89982991D01*
X72104396Y-89972993D01*
X72070496Y-89962191D01*
X72035238Y-89950735D01*
X71999082Y-89938776D01*
X71962483Y-89926464D01*
X71925900Y-89913948D01*
X71889792Y-89901379D01*
X71854615Y-89888906D01*
X71821430Y-89876901D01*
X71736721Y-89844359D01*
X71650738Y-89808248D01*
X71563605Y-89768648D01*
X71475448Y-89725641D01*
X71386392Y-89679307D01*
X71296562Y-89629725D01*
X71206081Y-89576976D01*
X71115076Y-89521140D01*
X71023672Y-89462299D01*
X70931992Y-89400531D01*
X70840161Y-89335917D01*
X70748306Y-89268539D01*
X70656550Y-89198475D01*
X70565018Y-89125806D01*
X70473836Y-89050613D01*
X70383128Y-88972975D01*
X70296575Y-88896187D01*
X70282512Y-88883494D01*
X70271077Y-88873185D01*
X70261999Y-88865021D01*
X70255008Y-88858764D01*
X70249834Y-88854177D01*
X70246206Y-88851021D01*
X70243854Y-88849060D01*
X70242507Y-88848054D01*
X70241894Y-88847767D01*
X70241746Y-88847960D01*
%LPC*%
D11*
X71706400Y-88468200D02*
G75*
G03*
X71706400Y-88468200I-561000J0D01*
G01*
X71706400Y-94818200D02*
G75*
G03*
X71706400Y-94818200I-561000J0D01*
G01*
D12*
X71145400Y-88468200D03*
X71145400Y-94818200D03*
D13*
X81508600Y-87823040D03*
X81508600Y-89093040D03*
X81508600Y-90363040D03*
X81508600Y-91633040D03*
X81508600Y-92903040D03*
X81508600Y-94173040D03*
D14*
X81508600Y-95443040D03*
M02*
