M48
; DRILL file {KiCad (5.1.10)-1} date 11/16/21 23:39:49
; FORMAT={-:-/ absolute / metric / decimal}
; #@! TF.CreationDate,2021-11-16T23:39:49-08:00
; #@! TF.GenerationSoftware,Kicad,Pcbnew,(5.1.10)-1
; #@! TF.FileFunction,Plated,1,2,PTH
FMAT,2
METRIC
T1C0.400
T2C0.650
%
G90
G05
T1
X66.865Y-89.103
X66.878Y-91.605
X66.954Y-94.158
X71.095Y-91.618
X71.133Y-90.361
X75.374Y-89.103
X75.413Y-90.399
X75.794Y-87.224
X77.533Y-94.272
X77.762Y-90.919
X79.337Y-96.355
X79.604Y-87.224
X80.073Y-94.297
T2
X81.509Y-87.823
X81.509Y-89.093
X81.509Y-90.363
X81.509Y-91.633
X81.509Y-92.903
X81.509Y-94.173
X81.509Y-95.443
T0
M30
