G04 #@! TF.GenerationSoftware,KiCad,Pcbnew,(5.1.10)-1*
G04 #@! TF.CreationDate,2021-11-16T23:48:59-08:00*
G04 #@! TF.ProjectId,DigitalFadingLED,44696769-7461-46c4-9661-64696e674c45,rev?*
G04 #@! TF.SameCoordinates,Original*
G04 #@! TF.FileFunction,Legend,Top*
G04 #@! TF.FilePolarity,Positive*
%FSLAX46Y46*%
G04 Gerber Fmt 4.6, Leading zero omitted, Abs format (unit mm)*
G04 Created by KiCad (PCBNEW (5.1.10)-1) date 2021-11-16 23:48:59*
%MOMM*%
%LPD*%
G01*
G04 APERTURE LIST*
%ADD10C,0.300000*%
%ADD11C,0.500000*%
%ADD12C,0.150000*%
%ADD13C,0.120000*%
%ADD14C,0.200000*%
%ADD15C,0.127000*%
%ADD16C,0.121920*%
%ADD17C,0.000100*%
%ADD18R,2.799999X2.100000*%
%ADD19R,1.900000X0.600000*%
%ADD20C,1.000000*%
%ADD21R,1.000000X1.000000*%
%ADD22C,0.100000*%
%ADD23C,0.800000*%
%ADD24R,0.700000X1.100000*%
%ADD25R,1.400000X1.100000*%
%ADD26C,4.399999*%
%ADD27R,0.800000X0.750000*%
%ADD28R,0.800000X0.800000*%
%ADD29O,1.550000X0.775000*%
%ADD30R,1.550000X1.500000*%
%ADD31O,0.650000X1.300000*%
%ADD32R,1.350000X0.400000*%
%ADD33R,0.500000X0.900000*%
%ADD34R,0.900000X0.500000*%
%ADD35R,1.200000X0.500000*%
%ADD36R,0.500000X1.200000*%
%ADD37R,1.500000X0.450000*%
G04 APERTURE END LIST*
D10*
X61059428Y-65046942D02*
X61273714Y-65118371D01*
X61630857Y-65118371D01*
X61773714Y-65046942D01*
X61845142Y-64975514D01*
X61916571Y-64832657D01*
X61916571Y-64689800D01*
X61845142Y-64546942D01*
X61773714Y-64475514D01*
X61630857Y-64404085D01*
X61345142Y-64332657D01*
X61202285Y-64261228D01*
X61130857Y-64189800D01*
X61059428Y-64046942D01*
X61059428Y-63904085D01*
X61130857Y-63761228D01*
X61202285Y-63689800D01*
X61345142Y-63618371D01*
X61702285Y-63618371D01*
X61916571Y-63689800D01*
X62559428Y-64332657D02*
X63059428Y-64332657D01*
X63273714Y-65118371D02*
X62559428Y-65118371D01*
X62559428Y-63618371D01*
X63273714Y-63618371D01*
X63702285Y-63618371D02*
X64559428Y-63618371D01*
X64130857Y-65118371D02*
X64130857Y-63618371D01*
X61802271Y-41763071D02*
X61302271Y-41048785D01*
X60945128Y-41763071D02*
X60945128Y-40263071D01*
X61516557Y-40263071D01*
X61659414Y-40334500D01*
X61730842Y-40405928D01*
X61802271Y-40548785D01*
X61802271Y-40763071D01*
X61730842Y-40905928D01*
X61659414Y-40977357D01*
X61516557Y-41048785D01*
X60945128Y-41048785D01*
X62373700Y-41691642D02*
X62587985Y-41763071D01*
X62945128Y-41763071D01*
X63087985Y-41691642D01*
X63159414Y-41620214D01*
X63230842Y-41477357D01*
X63230842Y-41334500D01*
X63159414Y-41191642D01*
X63087985Y-41120214D01*
X62945128Y-41048785D01*
X62659414Y-40977357D01*
X62516557Y-40905928D01*
X62445128Y-40834500D01*
X62373700Y-40691642D01*
X62373700Y-40548785D01*
X62445128Y-40405928D01*
X62516557Y-40334500D01*
X62659414Y-40263071D01*
X63016557Y-40263071D01*
X63230842Y-40334500D01*
X63659414Y-40263071D02*
X64516557Y-40263071D01*
X64087985Y-41763071D02*
X64087985Y-40263071D01*
D11*
X81089600Y-56399000D02*
G75*
G03*
X81089600Y-56399000I0J0D01*
G01*
D12*
X88839600Y-58449000D02*
X86139600Y-58449000D01*
X88839600Y-46949000D02*
X88839600Y-58449000D01*
X86139600Y-46949000D02*
X88839600Y-46949000D01*
X82089600Y-46949000D02*
X82639600Y-46949000D01*
X82089600Y-49399000D02*
X82089600Y-46949000D01*
X83239600Y-55199000D02*
X83239600Y-50199000D01*
X82089600Y-58449000D02*
X82089600Y-55999000D01*
X82639600Y-58449000D02*
X82089600Y-58449000D01*
X76154280Y-61092080D02*
X76154280Y-62113160D01*
X71254620Y-61092080D02*
X76154280Y-61092080D01*
X71254620Y-62113160D02*
X71254620Y-61092080D01*
X76154280Y-62113160D02*
X71254620Y-62113160D01*
D11*
X75603100Y-59354720D02*
G75*
G03*
X75603100Y-59354720I0J0D01*
G01*
D12*
X59957100Y-41682300D02*
X59957100Y-41872300D01*
X56457100Y-41682300D02*
X56457100Y-41872300D01*
X59047100Y-42332300D02*
X59107100Y-42332300D01*
X57277100Y-42332300D02*
X57337100Y-42332300D01*
X57207100Y-40582300D02*
X59227100Y-40582300D01*
X56454100Y-63727700D02*
X56454100Y-63537700D01*
X59954100Y-63727700D02*
X59954100Y-63537700D01*
X57364100Y-63077700D02*
X57304100Y-63077700D01*
X59134100Y-63077700D02*
X59074100Y-63077700D01*
X59204100Y-64827700D02*
X57184100Y-64827700D01*
D13*
X62083200Y-47088500D02*
X62783200Y-47088500D01*
X62783200Y-48288500D02*
X62083200Y-48288500D01*
X59886900Y-48288500D02*
X59186900Y-48288500D01*
X59186900Y-47088500D02*
X59886900Y-47088500D01*
X62225300Y-59046800D02*
X63225300Y-59046800D01*
X63225300Y-59046800D02*
X63225300Y-56946800D01*
X62225300Y-59046800D02*
X62225300Y-56946800D01*
X59063000Y-59072200D02*
X59063000Y-56972200D01*
X60063000Y-59072200D02*
X60063000Y-56972200D01*
X59063000Y-59072200D02*
X60063000Y-59072200D01*
D14*
X56562100Y-51355000D02*
G75*
G03*
X56562100Y-51355000I-100000J0D01*
G01*
D15*
X50912100Y-49005000D02*
X50912100Y-56405000D01*
X51182100Y-56405000D02*
X50912100Y-56405000D01*
X50912100Y-49005000D02*
X51182100Y-49005000D01*
X55212100Y-56405000D02*
X55212100Y-56225000D01*
X55212100Y-49005000D02*
X55212100Y-49185000D01*
X55212100Y-56405000D02*
X53457100Y-56405000D01*
X55212100Y-49005000D02*
X53457100Y-49005000D01*
D13*
X59049600Y-48469000D02*
X60049600Y-48469000D01*
X60049600Y-49829000D02*
X59049600Y-49829000D01*
X61933900Y-48481700D02*
X62933900Y-48481700D01*
X62933900Y-49841700D02*
X61933900Y-49841700D01*
X63505800Y-58068400D02*
X63505800Y-57068400D01*
X64865800Y-57068400D02*
X64865800Y-58068400D01*
X58757100Y-57069100D02*
X58757100Y-58069100D01*
X57397100Y-58069100D02*
X57397100Y-57069100D01*
D12*
X68413100Y-56245100D02*
X68413100Y-56725100D01*
X68413100Y-56725100D02*
X68883100Y-56725100D01*
D11*
X68623100Y-57315100D02*
G75*
G03*
X68623100Y-57315100I0J0D01*
G01*
D12*
X68873100Y-49405100D02*
X68383100Y-49405100D01*
X68383100Y-49405100D02*
X68383100Y-49875100D01*
X75693100Y-49885100D02*
X75693100Y-49395100D01*
X75693100Y-49395100D02*
X75223100Y-49395100D01*
X75733100Y-56725100D02*
X75733100Y-56255100D01*
X75243100Y-56725100D02*
X75733100Y-56725100D01*
X63408800Y-49894800D02*
X58908800Y-49894800D01*
X63258800Y-55394800D02*
X58908800Y-55394800D01*
D11*
X64058800Y-55494800D02*
G75*
G03*
X64058800Y-55494800I0J0D01*
G01*
D12*
X63258800Y-55394800D02*
X63408800Y-55244800D01*
X63408800Y-50044800D02*
X63408800Y-49894800D01*
X58908800Y-50044800D02*
X58908800Y-49894800D01*
X58908800Y-55294800D02*
X58908800Y-55394800D01*
D11*
X69888100Y-47609760D02*
G75*
G03*
X69888100Y-47609760I0J0D01*
G01*
D12*
X69253100Y-42672000D02*
X69253100Y-45212000D01*
X78143100Y-42672000D02*
X69253100Y-42672000D01*
X78143100Y-45212000D02*
X78143100Y-42672000D01*
X69253100Y-45212000D02*
X78143100Y-45212000D01*
X80791980Y-47782333D02*
X81506266Y-47782333D01*
X81649123Y-47829952D01*
X81744361Y-47925190D01*
X81791980Y-48068047D01*
X81791980Y-48163285D01*
X80887219Y-47353761D02*
X80839600Y-47306142D01*
X80791980Y-47210904D01*
X80791980Y-46972809D01*
X80839600Y-46877571D01*
X80887219Y-46829952D01*
X80982457Y-46782333D01*
X81077695Y-46782333D01*
X81220552Y-46829952D01*
X81791980Y-47401380D01*
X81791980Y-46782333D01*
X72653566Y-58139080D02*
X72653566Y-58853366D01*
X72605947Y-58996223D01*
X72510709Y-59091461D01*
X72367852Y-59139080D01*
X72272614Y-59139080D01*
X73558328Y-58472414D02*
X73558328Y-59139080D01*
X73320233Y-58091461D02*
X73082138Y-58805747D01*
X73701185Y-58805747D01*
X56858066Y-44549961D02*
X57000923Y-44597580D01*
X57239019Y-44597580D01*
X57334257Y-44549961D01*
X57381876Y-44502342D01*
X57429495Y-44407104D01*
X57429495Y-44311866D01*
X57381876Y-44216628D01*
X57334257Y-44169009D01*
X57239019Y-44121390D01*
X57048542Y-44073771D01*
X56953304Y-44026152D01*
X56905685Y-43978533D01*
X56858066Y-43883295D01*
X56858066Y-43788057D01*
X56905685Y-43692819D01*
X56953304Y-43645200D01*
X57048542Y-43597580D01*
X57286638Y-43597580D01*
X57429495Y-43645200D01*
X57762828Y-43597580D02*
X58000923Y-44597580D01*
X58191400Y-43883295D01*
X58381876Y-44597580D01*
X58619971Y-43597580D01*
X59524733Y-44597580D02*
X58953304Y-44597580D01*
X59239019Y-44597580D02*
X59239019Y-43597580D01*
X59143780Y-43740438D01*
X59048542Y-43835676D01*
X58953304Y-43883295D01*
X56832666Y-61809261D02*
X56975523Y-61856880D01*
X57213619Y-61856880D01*
X57308857Y-61809261D01*
X57356476Y-61761642D01*
X57404095Y-61666404D01*
X57404095Y-61571166D01*
X57356476Y-61475928D01*
X57308857Y-61428309D01*
X57213619Y-61380690D01*
X57023142Y-61333071D01*
X56927904Y-61285452D01*
X56880285Y-61237833D01*
X56832666Y-61142595D01*
X56832666Y-61047357D01*
X56880285Y-60952119D01*
X56927904Y-60904500D01*
X57023142Y-60856880D01*
X57261238Y-60856880D01*
X57404095Y-60904500D01*
X57737428Y-60856880D02*
X57975523Y-61856880D01*
X58166000Y-61142595D01*
X58356476Y-61856880D01*
X58594571Y-60856880D01*
X58927904Y-60952119D02*
X58975523Y-60904500D01*
X59070761Y-60856880D01*
X59308857Y-60856880D01*
X59404095Y-60904500D01*
X59451714Y-60952119D01*
X59499333Y-61047357D01*
X59499333Y-61142595D01*
X59451714Y-61285452D01*
X58880285Y-61856880D01*
X59499333Y-61856880D01*
X61764942Y-46762942D02*
X61717323Y-46810561D01*
X61574466Y-46858180D01*
X61479228Y-46858180D01*
X61336371Y-46810561D01*
X61241133Y-46715323D01*
X61193514Y-46620085D01*
X61145895Y-46429609D01*
X61145895Y-46286752D01*
X61193514Y-46096276D01*
X61241133Y-46001038D01*
X61336371Y-45905800D01*
X61479228Y-45858180D01*
X61574466Y-45858180D01*
X61717323Y-45905800D01*
X61764942Y-45953419D01*
X62717323Y-46858180D02*
X62145895Y-46858180D01*
X62431609Y-46858180D02*
X62431609Y-45858180D01*
X62336371Y-46001038D01*
X62241133Y-46096276D01*
X62145895Y-46143895D01*
X63669704Y-46858180D02*
X63098276Y-46858180D01*
X63383990Y-46858180D02*
X63383990Y-45858180D01*
X63288752Y-46001038D01*
X63193514Y-46096276D01*
X63098276Y-46143895D01*
X58869342Y-46762942D02*
X58821723Y-46810561D01*
X58678866Y-46858180D01*
X58583628Y-46858180D01*
X58440771Y-46810561D01*
X58345533Y-46715323D01*
X58297914Y-46620085D01*
X58250295Y-46429609D01*
X58250295Y-46286752D01*
X58297914Y-46096276D01*
X58345533Y-46001038D01*
X58440771Y-45905800D01*
X58583628Y-45858180D01*
X58678866Y-45858180D01*
X58821723Y-45905800D01*
X58869342Y-45953419D01*
X59821723Y-46858180D02*
X59250295Y-46858180D01*
X59536009Y-46858180D02*
X59536009Y-45858180D01*
X59440771Y-46001038D01*
X59345533Y-46096276D01*
X59250295Y-46143895D01*
X60202676Y-45953419D02*
X60250295Y-45905800D01*
X60345533Y-45858180D01*
X60583628Y-45858180D01*
X60678866Y-45905800D01*
X60726485Y-45953419D01*
X60774104Y-46048657D01*
X60774104Y-46143895D01*
X60726485Y-46286752D01*
X60155057Y-46858180D01*
X60774104Y-46858180D01*
X62025304Y-60307480D02*
X62025304Y-59307480D01*
X62263400Y-59307480D01*
X62406257Y-59355100D01*
X62501495Y-59450338D01*
X62549114Y-59545576D01*
X62596733Y-59736052D01*
X62596733Y-59878909D01*
X62549114Y-60069385D01*
X62501495Y-60164623D01*
X62406257Y-60259861D01*
X62263400Y-60307480D01*
X62025304Y-60307480D01*
X63549114Y-60307480D02*
X62977685Y-60307480D01*
X63263400Y-60307480D02*
X63263400Y-59307480D01*
X63168161Y-59450338D01*
X63072923Y-59545576D01*
X62977685Y-59593195D01*
X58850304Y-60345580D02*
X58850304Y-59345580D01*
X59088400Y-59345580D01*
X59231257Y-59393200D01*
X59326495Y-59488438D01*
X59374114Y-59583676D01*
X59421733Y-59774152D01*
X59421733Y-59917009D01*
X59374114Y-60107485D01*
X59326495Y-60202723D01*
X59231257Y-60297961D01*
X59088400Y-60345580D01*
X58850304Y-60345580D01*
X59802685Y-59440819D02*
X59850304Y-59393200D01*
X59945542Y-59345580D01*
X60183638Y-59345580D01*
X60278876Y-59393200D01*
X60326495Y-59440819D01*
X60374114Y-59536057D01*
X60374114Y-59631295D01*
X60326495Y-59774152D01*
X59755066Y-60345580D01*
X60374114Y-60345580D01*
D16*
X52117349Y-57020959D02*
X52117349Y-57735925D01*
X52069684Y-57878918D01*
X51974355Y-57974247D01*
X51831362Y-58021912D01*
X51736033Y-58021912D01*
X53118302Y-58021912D02*
X52546328Y-58021912D01*
X52832315Y-58021912D02*
X52832315Y-57020959D01*
X52736986Y-57163952D01*
X52641657Y-57259281D01*
X52546328Y-57306945D01*
D12*
X56240442Y-49601380D02*
X55907109Y-49125190D01*
X55669014Y-49601380D02*
X55669014Y-48601380D01*
X56049966Y-48601380D01*
X56145204Y-48649000D01*
X56192823Y-48696619D01*
X56240442Y-48791857D01*
X56240442Y-48934714D01*
X56192823Y-49029952D01*
X56145204Y-49077571D01*
X56049966Y-49125190D01*
X55669014Y-49125190D01*
X57192823Y-49601380D02*
X56621395Y-49601380D01*
X56907109Y-49601380D02*
X56907109Y-48601380D01*
X56811871Y-48744238D01*
X56716633Y-48839476D01*
X56621395Y-48887095D01*
X57526157Y-48601380D02*
X58145204Y-48601380D01*
X57811871Y-48982333D01*
X57954728Y-48982333D01*
X58049966Y-49029952D01*
X58097585Y-49077571D01*
X58145204Y-49172809D01*
X58145204Y-49410904D01*
X58097585Y-49506142D01*
X58049966Y-49553761D01*
X57954728Y-49601380D01*
X57669014Y-49601380D01*
X57573776Y-49553761D01*
X57526157Y-49506142D01*
X64457342Y-49626780D02*
X64124009Y-49150590D01*
X63885914Y-49626780D02*
X63885914Y-48626780D01*
X64266866Y-48626780D01*
X64362104Y-48674400D01*
X64409723Y-48722019D01*
X64457342Y-48817257D01*
X64457342Y-48960114D01*
X64409723Y-49055352D01*
X64362104Y-49102971D01*
X64266866Y-49150590D01*
X63885914Y-49150590D01*
X65409723Y-49626780D02*
X64838295Y-49626780D01*
X65124009Y-49626780D02*
X65124009Y-48626780D01*
X65028771Y-48769638D01*
X64933533Y-48864876D01*
X64838295Y-48912495D01*
X66266866Y-48960114D02*
X66266866Y-49626780D01*
X66028771Y-48579161D02*
X65790676Y-49293447D01*
X66409723Y-49293447D01*
X66047880Y-58262757D02*
X65571690Y-58596090D01*
X66047880Y-58834185D02*
X65047880Y-58834185D01*
X65047880Y-58453233D01*
X65095500Y-58357995D01*
X65143119Y-58310376D01*
X65238357Y-58262757D01*
X65381214Y-58262757D01*
X65476452Y-58310376D01*
X65524071Y-58357995D01*
X65571690Y-58453233D01*
X65571690Y-58834185D01*
X66047880Y-57310376D02*
X66047880Y-57881804D01*
X66047880Y-57596090D02*
X65047880Y-57596090D01*
X65190738Y-57691328D01*
X65285976Y-57786566D01*
X65333595Y-57881804D01*
X65047880Y-56405614D02*
X65047880Y-56881804D01*
X65524071Y-56929423D01*
X65476452Y-56881804D01*
X65428833Y-56786566D01*
X65428833Y-56548471D01*
X65476452Y-56453233D01*
X65524071Y-56405614D01*
X65619309Y-56357995D01*
X65857404Y-56357995D01*
X65952642Y-56405614D01*
X66000261Y-56453233D01*
X66047880Y-56548471D01*
X66047880Y-56786566D01*
X66000261Y-56881804D01*
X65952642Y-56929423D01*
X57157880Y-58275457D02*
X56681690Y-58608790D01*
X57157880Y-58846885D02*
X56157880Y-58846885D01*
X56157880Y-58465933D01*
X56205500Y-58370695D01*
X56253119Y-58323076D01*
X56348357Y-58275457D01*
X56491214Y-58275457D01*
X56586452Y-58323076D01*
X56634071Y-58370695D01*
X56681690Y-58465933D01*
X56681690Y-58846885D01*
X57157880Y-57323076D02*
X57157880Y-57894504D01*
X57157880Y-57608790D02*
X56157880Y-57608790D01*
X56300738Y-57704028D01*
X56395976Y-57799266D01*
X56443595Y-57894504D01*
X56157880Y-56465933D02*
X56157880Y-56656409D01*
X56205500Y-56751647D01*
X56253119Y-56799266D01*
X56395976Y-56894504D01*
X56586452Y-56942123D01*
X56967404Y-56942123D01*
X57062642Y-56894504D01*
X57110261Y-56846885D01*
X57157880Y-56751647D01*
X57157880Y-56561171D01*
X57110261Y-56465933D01*
X57062642Y-56418314D01*
X56967404Y-56370695D01*
X56729309Y-56370695D01*
X56634071Y-56418314D01*
X56586452Y-56465933D01*
X56538833Y-56561171D01*
X56538833Y-56751647D01*
X56586452Y-56846885D01*
X56634071Y-56894504D01*
X56729309Y-56942123D01*
X75895295Y-48321980D02*
X75895295Y-49131504D01*
X75942914Y-49226742D01*
X75990533Y-49274361D01*
X76085771Y-49321980D01*
X76276247Y-49321980D01*
X76371485Y-49274361D01*
X76419104Y-49226742D01*
X76466723Y-49131504D01*
X76466723Y-48321980D01*
X76895295Y-48417219D02*
X76942914Y-48369600D01*
X77038152Y-48321980D01*
X77276247Y-48321980D01*
X77371485Y-48369600D01*
X77419104Y-48417219D01*
X77466723Y-48512457D01*
X77466723Y-48607695D01*
X77419104Y-48750552D01*
X76847676Y-49321980D01*
X77466723Y-49321980D01*
X59896895Y-48447180D02*
X59896895Y-49256704D01*
X59944514Y-49351942D01*
X59992133Y-49399561D01*
X60087371Y-49447180D01*
X60277847Y-49447180D01*
X60373085Y-49399561D01*
X60420704Y-49351942D01*
X60468323Y-49256704D01*
X60468323Y-48447180D01*
X61420704Y-48447180D02*
X60944514Y-48447180D01*
X60896895Y-48923371D01*
X60944514Y-48875752D01*
X61039752Y-48828133D01*
X61277847Y-48828133D01*
X61373085Y-48875752D01*
X61420704Y-48923371D01*
X61468323Y-49018609D01*
X61468323Y-49256704D01*
X61420704Y-49351942D01*
X61373085Y-49399561D01*
X61277847Y-49447180D01*
X61039752Y-49447180D01*
X60944514Y-49399561D01*
X60896895Y-49351942D01*
X67891066Y-43559480D02*
X67891066Y-44273766D01*
X67843447Y-44416623D01*
X67748209Y-44511861D01*
X67605352Y-44559480D01*
X67510114Y-44559480D01*
X68272019Y-43559480D02*
X68891066Y-43559480D01*
X68557733Y-43940433D01*
X68700590Y-43940433D01*
X68795828Y-43988052D01*
X68843447Y-44035671D01*
X68891066Y-44130909D01*
X68891066Y-44369004D01*
X68843447Y-44464242D01*
X68795828Y-44511861D01*
X68700590Y-44559480D01*
X68414876Y-44559480D01*
X68319638Y-44511861D01*
X68272019Y-44464242D01*
%LPC*%
D17*
G36*
X51487100Y-56305000D02*
G01*
X51487100Y-54905000D01*
X53237100Y-54905000D01*
X53237100Y-56305000D01*
X53236415Y-56331168D01*
X53234361Y-56357264D01*
X53230944Y-56383217D01*
X53226174Y-56408956D01*
X53220063Y-56434410D01*
X53212628Y-56459508D01*
X53203890Y-56484184D01*
X53193873Y-56508368D01*
X53182603Y-56531995D01*
X53170113Y-56555000D01*
X53156435Y-56577320D01*
X53141608Y-56598893D01*
X53125673Y-56619660D01*
X53108672Y-56639565D01*
X53090653Y-56658553D01*
X53071665Y-56676572D01*
X53051760Y-56693573D01*
X53030993Y-56709508D01*
X53009420Y-56724335D01*
X52987100Y-56738013D01*
X52964095Y-56750503D01*
X52940468Y-56761773D01*
X52916284Y-56771790D01*
X52891608Y-56780528D01*
X52866510Y-56787963D01*
X52841056Y-56794074D01*
X52815317Y-56798844D01*
X52789364Y-56802261D01*
X52763268Y-56804315D01*
X52737100Y-56805000D01*
X51987100Y-56805000D01*
X51960932Y-56804315D01*
X51934836Y-56802261D01*
X51908883Y-56798844D01*
X51883144Y-56794074D01*
X51857690Y-56787963D01*
X51832592Y-56780528D01*
X51807916Y-56771790D01*
X51783732Y-56761773D01*
X51760105Y-56750503D01*
X51737100Y-56738013D01*
X51714780Y-56724335D01*
X51693207Y-56709508D01*
X51672440Y-56693573D01*
X51652535Y-56676572D01*
X51633547Y-56658553D01*
X51615528Y-56639565D01*
X51598527Y-56619660D01*
X51582592Y-56598893D01*
X51567765Y-56577320D01*
X51554087Y-56555000D01*
X51541597Y-56531995D01*
X51530327Y-56508368D01*
X51520310Y-56484184D01*
X51511572Y-56459508D01*
X51504137Y-56434410D01*
X51498026Y-56408956D01*
X51493256Y-56383217D01*
X51489839Y-56357264D01*
X51487785Y-56331168D01*
X51487100Y-56305000D01*
G37*
X51487100Y-56305000D02*
X51487100Y-54905000D01*
X53237100Y-54905000D01*
X53237100Y-56305000D01*
X53236415Y-56331168D01*
X53234361Y-56357264D01*
X53230944Y-56383217D01*
X53226174Y-56408956D01*
X53220063Y-56434410D01*
X53212628Y-56459508D01*
X53203890Y-56484184D01*
X53193873Y-56508368D01*
X53182603Y-56531995D01*
X53170113Y-56555000D01*
X53156435Y-56577320D01*
X53141608Y-56598893D01*
X53125673Y-56619660D01*
X53108672Y-56639565D01*
X53090653Y-56658553D01*
X53071665Y-56676572D01*
X53051760Y-56693573D01*
X53030993Y-56709508D01*
X53009420Y-56724335D01*
X52987100Y-56738013D01*
X52964095Y-56750503D01*
X52940468Y-56761773D01*
X52916284Y-56771790D01*
X52891608Y-56780528D01*
X52866510Y-56787963D01*
X52841056Y-56794074D01*
X52815317Y-56798844D01*
X52789364Y-56802261D01*
X52763268Y-56804315D01*
X52737100Y-56805000D01*
X51987100Y-56805000D01*
X51960932Y-56804315D01*
X51934836Y-56802261D01*
X51908883Y-56798844D01*
X51883144Y-56794074D01*
X51857690Y-56787963D01*
X51832592Y-56780528D01*
X51807916Y-56771790D01*
X51783732Y-56761773D01*
X51760105Y-56750503D01*
X51737100Y-56738013D01*
X51714780Y-56724335D01*
X51693207Y-56709508D01*
X51672440Y-56693573D01*
X51652535Y-56676572D01*
X51633547Y-56658553D01*
X51615528Y-56639565D01*
X51598527Y-56619660D01*
X51582592Y-56598893D01*
X51567765Y-56577320D01*
X51554087Y-56555000D01*
X51541597Y-56531995D01*
X51530327Y-56508368D01*
X51520310Y-56484184D01*
X51511572Y-56459508D01*
X51504137Y-56434410D01*
X51498026Y-56408956D01*
X51493256Y-56383217D01*
X51489839Y-56357264D01*
X51487785Y-56331168D01*
X51487100Y-56305000D01*
G36*
X53237100Y-49105000D02*
G01*
X53237100Y-50505000D01*
X51487100Y-50505000D01*
X51487100Y-49105000D01*
X51487785Y-49078832D01*
X51489839Y-49052736D01*
X51493256Y-49026783D01*
X51498026Y-49001044D01*
X51504137Y-48975590D01*
X51511572Y-48950492D01*
X51520310Y-48925816D01*
X51530327Y-48901632D01*
X51541597Y-48878005D01*
X51554087Y-48855000D01*
X51567765Y-48832680D01*
X51582592Y-48811107D01*
X51598527Y-48790340D01*
X51615528Y-48770435D01*
X51633547Y-48751447D01*
X51652535Y-48733428D01*
X51672440Y-48716427D01*
X51693207Y-48700492D01*
X51714780Y-48685665D01*
X51737100Y-48671987D01*
X51760105Y-48659497D01*
X51783732Y-48648227D01*
X51807916Y-48638210D01*
X51832592Y-48629472D01*
X51857690Y-48622037D01*
X51883144Y-48615926D01*
X51908883Y-48611156D01*
X51934836Y-48607739D01*
X51960932Y-48605685D01*
X51987100Y-48605000D01*
X52737100Y-48605000D01*
X52763268Y-48605685D01*
X52789364Y-48607739D01*
X52815317Y-48611156D01*
X52841056Y-48615926D01*
X52866510Y-48622037D01*
X52891608Y-48629472D01*
X52916284Y-48638210D01*
X52940468Y-48648227D01*
X52964095Y-48659497D01*
X52987100Y-48671987D01*
X53009420Y-48685665D01*
X53030993Y-48700492D01*
X53051760Y-48716427D01*
X53071665Y-48733428D01*
X53090653Y-48751447D01*
X53108672Y-48770435D01*
X53125673Y-48790340D01*
X53141608Y-48811107D01*
X53156435Y-48832680D01*
X53170113Y-48855000D01*
X53182603Y-48878005D01*
X53193873Y-48901632D01*
X53203890Y-48925816D01*
X53212628Y-48950492D01*
X53220063Y-48975590D01*
X53226174Y-49001044D01*
X53230944Y-49026783D01*
X53234361Y-49052736D01*
X53236415Y-49078832D01*
X53237100Y-49105000D01*
G37*
X53237100Y-49105000D02*
X53237100Y-50505000D01*
X51487100Y-50505000D01*
X51487100Y-49105000D01*
X51487785Y-49078832D01*
X51489839Y-49052736D01*
X51493256Y-49026783D01*
X51498026Y-49001044D01*
X51504137Y-48975590D01*
X51511572Y-48950492D01*
X51520310Y-48925816D01*
X51530327Y-48901632D01*
X51541597Y-48878005D01*
X51554087Y-48855000D01*
X51567765Y-48832680D01*
X51582592Y-48811107D01*
X51598527Y-48790340D01*
X51615528Y-48770435D01*
X51633547Y-48751447D01*
X51652535Y-48733428D01*
X51672440Y-48716427D01*
X51693207Y-48700492D01*
X51714780Y-48685665D01*
X51737100Y-48671987D01*
X51760105Y-48659497D01*
X51783732Y-48648227D01*
X51807916Y-48638210D01*
X51832592Y-48629472D01*
X51857690Y-48622037D01*
X51883144Y-48615926D01*
X51908883Y-48611156D01*
X51934836Y-48607739D01*
X51960932Y-48605685D01*
X51987100Y-48605000D01*
X52737100Y-48605000D01*
X52763268Y-48605685D01*
X52789364Y-48607739D01*
X52815317Y-48611156D01*
X52841056Y-48615926D01*
X52866510Y-48622037D01*
X52891608Y-48629472D01*
X52916284Y-48638210D01*
X52940468Y-48648227D01*
X52964095Y-48659497D01*
X52987100Y-48671987D01*
X53009420Y-48685665D01*
X53030993Y-48700492D01*
X53051760Y-48716427D01*
X53071665Y-48733428D01*
X53090653Y-48751447D01*
X53108672Y-48770435D01*
X53125673Y-48790340D01*
X53141608Y-48811107D01*
X53156435Y-48832680D01*
X53170113Y-48855000D01*
X53182603Y-48878005D01*
X53193873Y-48901632D01*
X53203890Y-48925816D01*
X53212628Y-48950492D01*
X53220063Y-48975590D01*
X53226174Y-49001044D01*
X53230944Y-49026783D01*
X53234361Y-49052736D01*
X53236415Y-49078832D01*
X53237100Y-49105000D01*
D18*
X84239600Y-47049000D03*
X84239600Y-58349000D03*
D19*
X81889600Y-55199000D03*
X81889600Y-50199000D03*
X81889600Y-51199000D03*
X81889600Y-52199000D03*
X81889600Y-53199000D03*
X81889600Y-54199000D03*
D20*
X71793100Y-60358020D03*
X73063100Y-60358020D03*
X74333100Y-60358020D03*
D21*
X75603100Y-60358020D03*
D22*
G36*
X60537100Y-41587300D02*
G01*
X60002100Y-41587300D01*
X60002100Y-41585304D01*
X59978408Y-41582971D01*
X59939908Y-41575313D01*
X59902344Y-41563918D01*
X59866078Y-41548896D01*
X59831459Y-41530391D01*
X59798820Y-41508583D01*
X59768476Y-41483680D01*
X59740720Y-41455924D01*
X59715817Y-41425580D01*
X59694009Y-41392941D01*
X59675504Y-41358322D01*
X59660482Y-41322056D01*
X59649087Y-41284492D01*
X59641429Y-41245992D01*
X59637582Y-41206927D01*
X59637582Y-41187300D01*
X59637100Y-41187300D01*
X59637100Y-40887300D01*
X59387100Y-40887300D01*
X59387100Y-40237300D01*
X60537100Y-40237300D01*
X60537100Y-41587300D01*
G37*
G36*
X57027100Y-40887300D02*
G01*
X56777100Y-40887300D01*
X56777100Y-41187300D01*
X56776618Y-41187300D01*
X56776618Y-41206927D01*
X56772771Y-41245992D01*
X56765113Y-41284492D01*
X56753718Y-41322056D01*
X56738696Y-41358322D01*
X56720191Y-41392941D01*
X56698383Y-41425580D01*
X56673480Y-41455924D01*
X56645724Y-41483680D01*
X56615380Y-41508583D01*
X56582741Y-41530391D01*
X56548122Y-41548896D01*
X56511856Y-41563918D01*
X56474292Y-41575313D01*
X56435792Y-41582971D01*
X56412100Y-41585304D01*
X56412100Y-41587300D01*
X55877100Y-41587300D01*
X55877100Y-40237300D01*
X57027100Y-40237300D01*
X57027100Y-40887300D01*
G37*
D23*
X60037100Y-41182300D03*
X56377100Y-41182300D03*
D24*
X59607100Y-42532300D03*
D25*
X58207100Y-42682300D03*
D24*
X56807100Y-42532300D03*
D22*
G36*
X55874100Y-63822700D02*
G01*
X56409100Y-63822700D01*
X56409100Y-63824696D01*
X56432792Y-63827029D01*
X56471292Y-63834687D01*
X56508856Y-63846082D01*
X56545122Y-63861104D01*
X56579741Y-63879609D01*
X56612380Y-63901417D01*
X56642724Y-63926320D01*
X56670480Y-63954076D01*
X56695383Y-63984420D01*
X56717191Y-64017059D01*
X56735696Y-64051678D01*
X56750718Y-64087944D01*
X56762113Y-64125508D01*
X56769771Y-64164008D01*
X56773618Y-64203073D01*
X56773618Y-64222700D01*
X56774100Y-64222700D01*
X56774100Y-64522700D01*
X57024100Y-64522700D01*
X57024100Y-65172700D01*
X55874100Y-65172700D01*
X55874100Y-63822700D01*
G37*
G36*
X59384100Y-64522700D02*
G01*
X59634100Y-64522700D01*
X59634100Y-64222700D01*
X59634582Y-64222700D01*
X59634582Y-64203073D01*
X59638429Y-64164008D01*
X59646087Y-64125508D01*
X59657482Y-64087944D01*
X59672504Y-64051678D01*
X59691009Y-64017059D01*
X59712817Y-63984420D01*
X59737720Y-63954076D01*
X59765476Y-63926320D01*
X59795820Y-63901417D01*
X59828459Y-63879609D01*
X59863078Y-63861104D01*
X59899344Y-63846082D01*
X59936908Y-63834687D01*
X59975408Y-63827029D01*
X59999100Y-63824696D01*
X59999100Y-63822700D01*
X60534100Y-63822700D01*
X60534100Y-65172700D01*
X59384100Y-65172700D01*
X59384100Y-64522700D01*
G37*
D23*
X56374100Y-64227700D03*
X60034100Y-64227700D03*
D24*
X56804100Y-62877700D03*
D25*
X58204100Y-62727700D03*
D24*
X59604100Y-62877700D03*
D26*
X86448900Y-42506900D03*
X86448900Y-62903100D03*
X53340000Y-62903100D03*
X53340000Y-42506900D03*
D27*
X61683200Y-47688500D03*
X63183200Y-47688500D03*
X60286900Y-47688500D03*
X58786900Y-47688500D03*
D28*
X62725300Y-56946800D03*
X62725300Y-58546800D03*
X59563000Y-58572200D03*
X59563000Y-56972200D03*
D29*
X52362100Y-56205000D03*
D30*
X52362100Y-53705000D03*
X52362100Y-51705000D03*
D29*
X52362100Y-49205000D03*
D31*
X55062100Y-55205000D03*
X55062100Y-50205000D03*
D32*
X55062100Y-54005000D03*
X55062100Y-53355000D03*
X55062100Y-52705000D03*
X55062100Y-52055000D03*
X55062100Y-51405000D03*
D33*
X60299600Y-49149000D03*
X58799600Y-49149000D03*
X63183900Y-49161700D03*
X61683900Y-49161700D03*
D34*
X64185800Y-56818400D03*
X64185800Y-58318400D03*
X58077100Y-58319100D03*
X58077100Y-56819100D03*
D35*
X67803100Y-50265100D03*
X67803100Y-51065100D03*
X67803100Y-51865100D03*
X67803100Y-52665100D03*
X67803100Y-53465100D03*
X67803100Y-54265100D03*
X67803100Y-55065100D03*
X67803100Y-55865100D03*
D36*
X69253100Y-48815100D03*
X70053100Y-48815100D03*
X70853100Y-48815100D03*
X71653100Y-48815100D03*
X72453100Y-48815100D03*
X73253100Y-48815100D03*
X74053100Y-48815100D03*
X74853100Y-48815100D03*
X74853100Y-57315100D03*
X74053100Y-57315100D03*
X73253100Y-57315100D03*
X72453100Y-57315100D03*
X71653100Y-57315100D03*
X70853100Y-57315100D03*
X70053100Y-57315100D03*
X69253100Y-57315100D03*
D35*
X76303100Y-53465100D03*
X76303100Y-50265100D03*
X76303100Y-51865100D03*
X76303100Y-52665100D03*
X76303100Y-51065100D03*
X76303100Y-55865100D03*
X76303100Y-55065100D03*
X76303100Y-54265100D03*
D37*
X64058800Y-54914800D03*
X64058800Y-54264800D03*
X64058800Y-53614800D03*
X64058800Y-52964800D03*
X64058800Y-52314800D03*
X64058800Y-51664800D03*
X64058800Y-51014800D03*
X64058800Y-50374800D03*
X58258800Y-50374800D03*
X58258800Y-51034800D03*
X58258800Y-51694800D03*
X58258800Y-52354800D03*
X58258800Y-53004800D03*
X58258800Y-53654800D03*
X58258800Y-54314800D03*
X58258800Y-54964800D03*
D21*
X69888100Y-46736000D03*
D20*
X71158100Y-46736000D03*
X72428100Y-46736000D03*
X73698100Y-46736000D03*
X74968100Y-46736000D03*
X76238100Y-46736000D03*
X77508100Y-46736000D03*
M02*
