G04 #@! TF.GenerationSoftware,KiCad,Pcbnew,(5.1.10)-1*
G04 #@! TF.CreationDate,2021-11-16T23:48:59-08:00*
G04 #@! TF.ProjectId,DigitalFadingLED,44696769-7461-46c4-9661-64696e674c45,rev?*
G04 #@! TF.SameCoordinates,Original*
G04 #@! TF.FileFunction,Copper,L3,Inr*
G04 #@! TF.FilePolarity,Positive*
%FSLAX46Y46*%
G04 Gerber Fmt 4.6, Leading zero omitted, Abs format (unit mm)*
G04 Created by KiCad (PCBNEW (5.1.10)-1) date 2021-11-16 23:48:59*
%MOMM*%
%LPD*%
G01*
G04 APERTURE LIST*
G04 #@! TA.AperFunction,ComponentPad*
%ADD10C,1.000000*%
G04 #@! TD*
G04 #@! TA.AperFunction,ComponentPad*
%ADD11R,1.000000X1.000000*%
G04 #@! TD*
G04 #@! TA.AperFunction,ComponentPad*
%ADD12C,0.800000*%
G04 #@! TD*
G04 #@! TA.AperFunction,ComponentPad*
%ADD13C,4.399999*%
G04 #@! TD*
G04 #@! TA.AperFunction,ComponentPad*
%ADD14O,1.550000X0.775000*%
G04 #@! TD*
G04 #@! TA.AperFunction,ComponentPad*
%ADD15O,0.650000X1.300000*%
G04 #@! TD*
G04 #@! TA.AperFunction,ViaPad*
%ADD16C,0.800000*%
G04 #@! TD*
G04 #@! TA.AperFunction,Conductor*
%ADD17C,0.508000*%
G04 #@! TD*
G04 #@! TA.AperFunction,Conductor*
%ADD18C,0.250000*%
G04 #@! TD*
G04 #@! TA.AperFunction,Conductor*
%ADD19C,0.254000*%
G04 #@! TD*
G04 #@! TA.AperFunction,Conductor*
%ADD20C,0.100000*%
G04 #@! TD*
G04 APERTURE END LIST*
D10*
X71793100Y-60358020D03*
X73063100Y-60358020D03*
X74333100Y-60358020D03*
D11*
X75603100Y-60358020D03*
D12*
X60037100Y-41182300D03*
X56377100Y-41182300D03*
X56374100Y-64227700D03*
X60034100Y-64227700D03*
D13*
X86448900Y-42506900D03*
X86448900Y-62903100D03*
X53340000Y-62903100D03*
X53340000Y-42506900D03*
D14*
X52362100Y-56205000D03*
X52362100Y-49205000D03*
D15*
X55062100Y-55205000D03*
X55062100Y-50205000D03*
D11*
X69888100Y-46736000D03*
D10*
X71158100Y-46736000D03*
X72428100Y-46736000D03*
X73698100Y-46736000D03*
X74968100Y-46736000D03*
X76238100Y-46736000D03*
X77508100Y-46736000D03*
D16*
X57658000Y-47612300D03*
X64262000Y-47688500D03*
X56172100Y-54368700D03*
X56908700Y-53022500D03*
X60985246Y-52476554D03*
X60820300Y-55740300D03*
X61644092Y-51069902D03*
X56451500Y-49745900D03*
X60528200Y-50969800D03*
X67818000Y-56476900D03*
X55651400Y-58521600D03*
X53987700Y-58559700D03*
X63576200Y-59728100D03*
X56121300Y-61556900D03*
X56108600Y-43713400D03*
X52806600Y-45999400D03*
X84467700Y-48920400D03*
X79629000Y-58039000D03*
X79527400Y-48348900D03*
X78714600Y-50330100D03*
X74892356Y-51037915D03*
X78663800Y-46736000D03*
X64450334Y-43521671D03*
X68313300Y-41579800D03*
X69773800Y-43314771D03*
X74714100Y-55676800D03*
X83553300Y-40970200D03*
X77393800Y-40970200D03*
X62166500Y-41008300D03*
X55448200Y-45173900D03*
X58140600Y-45212000D03*
X61925200Y-45770800D03*
X60020200Y-45173900D03*
X56730900Y-45135800D03*
X64566800Y-48996600D03*
X51866800Y-58610500D03*
X51904900Y-60299600D03*
X62369700Y-64401700D03*
X65443100Y-64427100D03*
X68465700Y-64439800D03*
X81064100Y-64363600D03*
X87909400Y-60286900D03*
X87922100Y-55587900D03*
X87934800Y-48171100D03*
X87909400Y-45415200D03*
X55994300Y-51079400D03*
X59829700Y-52419800D03*
X55486300Y-60629800D03*
X82143600Y-56578500D03*
X69227700Y-56159400D03*
X72440800Y-56210200D03*
X74879200Y-50038000D03*
X58153300Y-41173400D03*
X66153099Y-46926500D03*
X60744100Y-42519600D03*
X71666100Y-54940200D03*
X60680600Y-62890400D03*
X57035700Y-51701700D03*
X61125100Y-57645300D03*
X87134700Y-51904900D03*
X87134700Y-50266600D03*
X83413600Y-52222400D03*
X81927700Y-58013600D03*
X83464814Y-51223710D03*
X81889600Y-49187100D03*
X87198200Y-53555900D03*
X73328100Y-50015092D03*
X66153099Y-50050700D03*
X65354200Y-54927500D03*
X72487103Y-51007006D03*
X62636400Y-51193700D03*
X62649100Y-54254400D03*
X71628000Y-50495200D03*
X70778096Y-51022140D03*
X69011800Y-55016400D03*
X77673200Y-54495700D03*
X65259939Y-50995371D03*
X65341500Y-56921400D03*
X70408800Y-54279800D03*
X63423800Y-43522900D03*
X70967600Y-41794600D03*
X70876688Y-53396011D03*
X66751200Y-44335700D03*
X72529700Y-41795700D03*
X77774800Y-53467000D03*
X80632300Y-46482000D03*
X78435200Y-52666900D03*
D17*
X55486300Y-60629800D02*
X66027300Y-60629800D01*
X66027300Y-60629800D02*
X69494400Y-57162700D01*
X81559400Y-57162700D02*
X82143600Y-56578500D01*
X69494400Y-57162700D02*
X81559400Y-57162700D01*
D18*
X69888100Y-46736000D02*
X69888100Y-48169900D01*
D17*
X68157799Y-48931200D02*
X66153099Y-46926500D01*
X68157799Y-55426321D02*
X68157799Y-48931200D01*
X68890878Y-56159400D02*
X68157799Y-55426321D01*
X69227700Y-56159400D02*
X68890878Y-56159400D01*
X58153300Y-41173400D02*
X60353501Y-43373601D01*
X61166301Y-43373601D02*
X61388859Y-43373601D01*
X60353501Y-43373601D02*
X61166301Y-43373601D01*
X61388859Y-43373601D02*
X64072967Y-46057710D01*
X65284309Y-46057710D02*
X66153099Y-46926500D01*
X64072967Y-46057710D02*
X65284309Y-46057710D01*
D18*
X74154199Y-48819901D02*
X74154199Y-52261601D01*
X76238100Y-46736000D02*
X74154199Y-48819901D01*
X71666100Y-54749700D02*
X71666100Y-54940200D01*
X74154199Y-52261601D02*
X71666100Y-54749700D01*
X57633701Y-54153901D02*
X61125100Y-57645300D01*
X57633701Y-52299701D02*
X57633701Y-54153901D01*
X57035700Y-51701700D02*
X57633701Y-52299701D01*
D17*
X83413600Y-56527700D02*
X81927700Y-58013600D01*
X83413600Y-52222400D02*
X83413600Y-56527700D01*
D18*
X64629199Y-51626111D02*
X65259939Y-50995371D01*
X64629199Y-56209099D02*
X64629199Y-51626111D01*
X65341500Y-56921400D02*
X64629199Y-56209099D01*
X63423800Y-43522900D02*
X63423800Y-44589700D01*
X63423800Y-44589700D02*
X64312800Y-45478700D01*
X64312800Y-45478700D02*
X65924080Y-45478700D01*
X69603085Y-49157705D02*
X69603085Y-53474085D01*
X69603085Y-53474085D02*
X70408800Y-54279800D01*
X65924080Y-45478700D02*
X69603085Y-49157705D01*
X64150030Y-42796670D02*
X63423800Y-43522900D01*
X69171502Y-41794600D02*
X68169432Y-42796670D01*
X68169432Y-42796670D02*
X64150030Y-42796670D01*
X70967600Y-41794600D02*
X69171502Y-41794600D01*
X70876688Y-53396011D02*
X70053095Y-52572418D01*
X66751200Y-45669410D02*
X66751200Y-44335700D01*
X70053095Y-48971305D02*
X66751200Y-45669410D01*
X70053095Y-52572418D02*
X70053095Y-48971305D01*
X69989700Y-44335700D02*
X66751200Y-44335700D01*
X72529700Y-41795700D02*
X69989700Y-44335700D01*
D19*
X86793345Y-40703183D02*
X87136890Y-40806906D01*
X87453738Y-40975376D01*
X87731835Y-41202187D01*
X87960582Y-41478695D01*
X88131260Y-41794359D01*
X88237380Y-42137176D01*
X88278100Y-42524600D01*
X88278101Y-62870812D01*
X88239917Y-63260244D01*
X88136194Y-63603790D01*
X87967724Y-63920637D01*
X87740910Y-64198738D01*
X87464411Y-64427478D01*
X87148743Y-64598160D01*
X86805924Y-64704280D01*
X86418500Y-64745000D01*
X78790800Y-64745000D01*
X78790800Y-58214141D01*
X78778599Y-58090259D01*
X78766902Y-58051700D01*
X80892700Y-58051700D01*
X80892700Y-58115539D01*
X80932474Y-58315498D01*
X81010495Y-58503856D01*
X81123763Y-58673374D01*
X81267926Y-58817537D01*
X81437444Y-58930805D01*
X81625802Y-59008826D01*
X81825761Y-59048600D01*
X82029639Y-59048600D01*
X82229598Y-59008826D01*
X82417956Y-58930805D01*
X82587474Y-58817537D01*
X82731637Y-58673374D01*
X82844905Y-58503856D01*
X82922926Y-58315498D01*
X82932830Y-58265705D01*
X84011341Y-57187194D01*
X84045259Y-57159359D01*
X84156353Y-57023991D01*
X84238903Y-56869551D01*
X84275441Y-56749100D01*
X84289736Y-56701975D01*
X84293239Y-56666409D01*
X84302600Y-56571367D01*
X84302600Y-56571360D01*
X84306900Y-56527700D01*
X84302600Y-56484040D01*
X84302600Y-52754868D01*
X84330805Y-52712656D01*
X84408826Y-52524298D01*
X84448600Y-52324339D01*
X84448600Y-52120461D01*
X84408826Y-51920502D01*
X84345756Y-51768238D01*
X84382019Y-51713966D01*
X84460040Y-51525608D01*
X84499814Y-51325649D01*
X84499814Y-51121771D01*
X84460040Y-50921812D01*
X84382019Y-50733454D01*
X84268751Y-50563936D01*
X84124588Y-50419773D01*
X83955070Y-50306505D01*
X83766712Y-50228484D01*
X83566753Y-50188710D01*
X83362875Y-50188710D01*
X83162916Y-50228484D01*
X82974558Y-50306505D01*
X82805040Y-50419773D01*
X82660877Y-50563936D01*
X82547609Y-50733454D01*
X82469588Y-50921812D01*
X82429814Y-51121771D01*
X82429814Y-51325649D01*
X82469588Y-51525608D01*
X82532658Y-51677872D01*
X82496395Y-51732144D01*
X82418374Y-51920502D01*
X82378600Y-52120461D01*
X82378600Y-52324339D01*
X82418374Y-52524298D01*
X82496395Y-52712656D01*
X82524600Y-52754868D01*
X82524601Y-55616040D01*
X82445498Y-55583274D01*
X82245539Y-55543500D01*
X82041661Y-55543500D01*
X81841702Y-55583274D01*
X81653344Y-55661295D01*
X81483826Y-55774563D01*
X81339663Y-55918726D01*
X81226395Y-56088244D01*
X81149576Y-56273700D01*
X73475800Y-56273700D01*
X73475800Y-56108261D01*
X73436026Y-55908302D01*
X73358005Y-55719944D01*
X73244737Y-55550426D01*
X73100574Y-55406263D01*
X72931056Y-55292995D01*
X72742698Y-55214974D01*
X72669613Y-55200437D01*
X72701100Y-55042139D01*
X72701100Y-54838261D01*
X72693010Y-54797591D01*
X73096840Y-54393761D01*
X76638200Y-54393761D01*
X76638200Y-54597639D01*
X76677974Y-54797598D01*
X76755995Y-54985956D01*
X76869263Y-55155474D01*
X77013426Y-55299637D01*
X77182944Y-55412905D01*
X77371302Y-55490926D01*
X77571261Y-55530700D01*
X77775139Y-55530700D01*
X77975098Y-55490926D01*
X78163456Y-55412905D01*
X78332974Y-55299637D01*
X78477137Y-55155474D01*
X78590405Y-54985956D01*
X78668426Y-54797598D01*
X78708200Y-54597639D01*
X78708200Y-54393761D01*
X78668426Y-54193802D01*
X78616964Y-54069563D01*
X78692005Y-53957256D01*
X78770026Y-53768898D01*
X78796128Y-53637675D01*
X78925456Y-53584105D01*
X79094974Y-53470837D01*
X79239137Y-53326674D01*
X79352405Y-53157156D01*
X79430426Y-52968798D01*
X79470200Y-52768839D01*
X79470200Y-52564961D01*
X79430426Y-52365002D01*
X79352405Y-52176644D01*
X79239137Y-52007126D01*
X79094974Y-51862963D01*
X78925456Y-51749695D01*
X78737098Y-51671674D01*
X78537139Y-51631900D01*
X78333261Y-51631900D01*
X78133302Y-51671674D01*
X77944944Y-51749695D01*
X77775426Y-51862963D01*
X77631263Y-52007126D01*
X77517995Y-52176644D01*
X77439974Y-52365002D01*
X77413872Y-52496225D01*
X77284544Y-52549795D01*
X77115026Y-52663063D01*
X76970863Y-52807226D01*
X76857595Y-52976744D01*
X76779574Y-53165102D01*
X76739800Y-53365061D01*
X76739800Y-53568939D01*
X76779574Y-53768898D01*
X76831036Y-53893137D01*
X76755995Y-54005444D01*
X76677974Y-54193802D01*
X76638200Y-54393761D01*
X73096840Y-54393761D01*
X74665202Y-52825400D01*
X74694200Y-52801602D01*
X74789173Y-52685877D01*
X74859745Y-52553848D01*
X74903202Y-52410587D01*
X74914199Y-52298934D01*
X74914199Y-52298925D01*
X74917875Y-52261602D01*
X74914199Y-52224279D01*
X74914199Y-51073000D01*
X74981139Y-51073000D01*
X75181098Y-51033226D01*
X75369456Y-50955205D01*
X75538974Y-50841937D01*
X75683137Y-50697774D01*
X75796405Y-50528256D01*
X75874426Y-50339898D01*
X75914200Y-50139939D01*
X75914200Y-49936061D01*
X75874426Y-49736102D01*
X75796405Y-49547744D01*
X75683137Y-49378226D01*
X75538974Y-49234063D01*
X75369456Y-49120795D01*
X75283429Y-49085161D01*
X80854600Y-49085161D01*
X80854600Y-49289039D01*
X80894374Y-49488998D01*
X80972395Y-49677356D01*
X81085663Y-49846874D01*
X81229826Y-49991037D01*
X81399344Y-50104305D01*
X81587702Y-50182326D01*
X81787661Y-50222100D01*
X81991539Y-50222100D01*
X82191498Y-50182326D01*
X82234144Y-50164661D01*
X86099700Y-50164661D01*
X86099700Y-50368539D01*
X86139474Y-50568498D01*
X86217495Y-50756856D01*
X86330763Y-50926374D01*
X86474926Y-51070537D01*
X86497694Y-51085750D01*
X86474926Y-51100963D01*
X86330763Y-51245126D01*
X86217495Y-51414644D01*
X86139474Y-51603002D01*
X86099700Y-51802961D01*
X86099700Y-52006839D01*
X86139474Y-52206798D01*
X86217495Y-52395156D01*
X86330763Y-52564674D01*
X86474926Y-52708837D01*
X86538947Y-52751615D01*
X86538426Y-52751963D01*
X86394263Y-52896126D01*
X86280995Y-53065644D01*
X86202974Y-53254002D01*
X86163200Y-53453961D01*
X86163200Y-53657839D01*
X86202974Y-53857798D01*
X86280995Y-54046156D01*
X86394263Y-54215674D01*
X86538426Y-54359837D01*
X86707944Y-54473105D01*
X86896302Y-54551126D01*
X87096261Y-54590900D01*
X87300139Y-54590900D01*
X87500098Y-54551126D01*
X87688456Y-54473105D01*
X87857974Y-54359837D01*
X88002137Y-54215674D01*
X88115405Y-54046156D01*
X88193426Y-53857798D01*
X88233200Y-53657839D01*
X88233200Y-53453961D01*
X88193426Y-53254002D01*
X88115405Y-53065644D01*
X88002137Y-52896126D01*
X87857974Y-52751963D01*
X87793953Y-52709185D01*
X87794474Y-52708837D01*
X87938637Y-52564674D01*
X88051905Y-52395156D01*
X88129926Y-52206798D01*
X88169700Y-52006839D01*
X88169700Y-51802961D01*
X88129926Y-51603002D01*
X88051905Y-51414644D01*
X87938637Y-51245126D01*
X87794474Y-51100963D01*
X87771706Y-51085750D01*
X87794474Y-51070537D01*
X87938637Y-50926374D01*
X88051905Y-50756856D01*
X88129926Y-50568498D01*
X88169700Y-50368539D01*
X88169700Y-50164661D01*
X88129926Y-49964702D01*
X88051905Y-49776344D01*
X87938637Y-49606826D01*
X87794474Y-49462663D01*
X87624956Y-49349395D01*
X87436598Y-49271374D01*
X87236639Y-49231600D01*
X87032761Y-49231600D01*
X86832802Y-49271374D01*
X86644444Y-49349395D01*
X86474926Y-49462663D01*
X86330763Y-49606826D01*
X86217495Y-49776344D01*
X86139474Y-49964702D01*
X86099700Y-50164661D01*
X82234144Y-50164661D01*
X82379856Y-50104305D01*
X82549374Y-49991037D01*
X82693537Y-49846874D01*
X82806805Y-49677356D01*
X82884826Y-49488998D01*
X82924600Y-49289039D01*
X82924600Y-49085161D01*
X82884826Y-48885202D01*
X82806805Y-48696844D01*
X82693537Y-48527326D01*
X82549374Y-48383163D01*
X82379856Y-48269895D01*
X82191498Y-48191874D01*
X81991539Y-48152100D01*
X81787661Y-48152100D01*
X81587702Y-48191874D01*
X81399344Y-48269895D01*
X81229826Y-48383163D01*
X81085663Y-48527326D01*
X80972395Y-48696844D01*
X80894374Y-48885202D01*
X80854600Y-49085161D01*
X75283429Y-49085161D01*
X75181098Y-49042774D01*
X75035157Y-49013745D01*
X76177902Y-47871000D01*
X76349888Y-47871000D01*
X76569167Y-47827383D01*
X76775724Y-47741824D01*
X76930030Y-47638720D01*
X76944650Y-47727588D01*
X77148926Y-47818458D01*
X77367005Y-47867731D01*
X77590506Y-47873511D01*
X77810840Y-47835577D01*
X78019540Y-47755387D01*
X78071550Y-47727588D01*
X78106661Y-47514166D01*
X77508100Y-46915605D01*
X77493958Y-46929748D01*
X77373100Y-46808890D01*
X77373100Y-46736000D01*
X77687705Y-46736000D01*
X78286266Y-47334561D01*
X78499688Y-47299450D01*
X78590558Y-47095174D01*
X78639831Y-46877095D01*
X78645611Y-46653594D01*
X78607677Y-46433260D01*
X78587237Y-46380061D01*
X79597300Y-46380061D01*
X79597300Y-46583939D01*
X79637074Y-46783898D01*
X79715095Y-46972256D01*
X79828363Y-47141774D01*
X79972526Y-47285937D01*
X80142044Y-47399205D01*
X80330402Y-47477226D01*
X80530361Y-47517000D01*
X80734239Y-47517000D01*
X80934198Y-47477226D01*
X81122556Y-47399205D01*
X81292074Y-47285937D01*
X81436237Y-47141774D01*
X81549505Y-46972256D01*
X81627526Y-46783898D01*
X81667300Y-46583939D01*
X81667300Y-46380061D01*
X81627526Y-46180102D01*
X81549505Y-45991744D01*
X81436237Y-45822226D01*
X81292074Y-45678063D01*
X81122556Y-45564795D01*
X80934198Y-45486774D01*
X80734239Y-45447000D01*
X80530361Y-45447000D01*
X80330402Y-45486774D01*
X80142044Y-45564795D01*
X79972526Y-45678063D01*
X79828363Y-45822226D01*
X79715095Y-45991744D01*
X79637074Y-46180102D01*
X79597300Y-46380061D01*
X78587237Y-46380061D01*
X78527487Y-46224560D01*
X78499688Y-46172550D01*
X78286266Y-46137439D01*
X77687705Y-46736000D01*
X77373100Y-46736000D01*
X77373100Y-46663110D01*
X77493958Y-46542253D01*
X77508100Y-46556395D01*
X78106661Y-45957834D01*
X78071550Y-45744412D01*
X77867274Y-45653542D01*
X77649195Y-45604269D01*
X77425694Y-45598489D01*
X77205360Y-45636423D01*
X76996660Y-45716613D01*
X76944650Y-45744412D01*
X76930030Y-45833280D01*
X76775724Y-45730176D01*
X76569167Y-45644617D01*
X76349888Y-45601000D01*
X76126312Y-45601000D01*
X75907033Y-45644617D01*
X75700476Y-45730176D01*
X75603100Y-45795241D01*
X75505724Y-45730176D01*
X75299167Y-45644617D01*
X75079888Y-45601000D01*
X74856312Y-45601000D01*
X74637033Y-45644617D01*
X74430476Y-45730176D01*
X74333100Y-45795241D01*
X74235724Y-45730176D01*
X74029167Y-45644617D01*
X73809888Y-45601000D01*
X73586312Y-45601000D01*
X73367033Y-45644617D01*
X73160476Y-45730176D01*
X73063100Y-45795241D01*
X72965724Y-45730176D01*
X72759167Y-45644617D01*
X72539888Y-45601000D01*
X72316312Y-45601000D01*
X72097033Y-45644617D01*
X71890476Y-45730176D01*
X71793100Y-45795241D01*
X71695724Y-45730176D01*
X71489167Y-45644617D01*
X71269888Y-45601000D01*
X71046312Y-45601000D01*
X70827033Y-45644617D01*
X70715326Y-45690888D01*
X70632280Y-45646498D01*
X70512582Y-45610188D01*
X70388100Y-45597928D01*
X69388100Y-45597928D01*
X69263618Y-45610188D01*
X69143920Y-45646498D01*
X69033606Y-45705463D01*
X68936915Y-45784815D01*
X68857563Y-45881506D01*
X68798598Y-45991820D01*
X68762288Y-46111518D01*
X68750028Y-46236000D01*
X68750028Y-46593437D01*
X67511200Y-45354609D01*
X67511200Y-45095700D01*
X69952378Y-45095700D01*
X69989700Y-45099376D01*
X70027022Y-45095700D01*
X70027033Y-45095700D01*
X70138686Y-45084703D01*
X70281947Y-45041246D01*
X70413976Y-44970674D01*
X70529701Y-44875701D01*
X70553504Y-44846697D01*
X72569503Y-42830700D01*
X72631639Y-42830700D01*
X72831598Y-42790926D01*
X73019956Y-42712905D01*
X73189474Y-42599637D01*
X73333637Y-42455474D01*
X73446905Y-42285956D01*
X73524926Y-42097598D01*
X73564700Y-41897639D01*
X73564700Y-41693761D01*
X73524926Y-41493802D01*
X73446905Y-41305444D01*
X73333637Y-41135926D01*
X73189474Y-40991763D01*
X73019956Y-40878495D01*
X72831598Y-40800474D01*
X72631639Y-40760700D01*
X72427761Y-40760700D01*
X72227802Y-40800474D01*
X72039444Y-40878495D01*
X71869926Y-40991763D01*
X71749200Y-41112489D01*
X71627374Y-40990663D01*
X71457856Y-40877395D01*
X71269498Y-40799374D01*
X71069539Y-40759600D01*
X70865661Y-40759600D01*
X70665702Y-40799374D01*
X70477344Y-40877395D01*
X70307826Y-40990663D01*
X70263889Y-41034600D01*
X69208824Y-41034600D01*
X69171502Y-41030924D01*
X69134179Y-41034600D01*
X69134169Y-41034600D01*
X69022516Y-41045597D01*
X68879255Y-41089054D01*
X68747225Y-41159626D01*
X68669440Y-41223463D01*
X68631501Y-41254599D01*
X68607703Y-41283597D01*
X67854631Y-42036670D01*
X64187352Y-42036670D01*
X64150029Y-42032994D01*
X64112706Y-42036670D01*
X64112697Y-42036670D01*
X64001044Y-42047667D01*
X63857783Y-42091124D01*
X63725754Y-42161696D01*
X63610029Y-42256669D01*
X63586231Y-42285668D01*
X63383998Y-42487900D01*
X63321861Y-42487900D01*
X63121902Y-42527674D01*
X62933544Y-42605695D01*
X62764026Y-42718963D01*
X62619863Y-42863126D01*
X62506595Y-43032644D01*
X62447589Y-43175096D01*
X62048358Y-42775865D01*
X62020518Y-42741942D01*
X61885150Y-42630848D01*
X61779100Y-42574163D01*
X61779100Y-42417661D01*
X61739326Y-42217702D01*
X61661305Y-42029344D01*
X61548037Y-41859826D01*
X61403874Y-41715663D01*
X61234356Y-41602395D01*
X61045998Y-41524374D01*
X61017992Y-41518803D01*
X61032326Y-41484198D01*
X61072100Y-41284239D01*
X61072100Y-41080361D01*
X61032326Y-40880402D01*
X60954305Y-40692044D01*
X60936235Y-40665000D01*
X86403922Y-40665000D01*
X86793345Y-40703183D01*
G04 #@! TA.AperFunction,Conductor*
D20*
G36*
X86793345Y-40703183D02*
G01*
X87136890Y-40806906D01*
X87453738Y-40975376D01*
X87731835Y-41202187D01*
X87960582Y-41478695D01*
X88131260Y-41794359D01*
X88237380Y-42137176D01*
X88278100Y-42524600D01*
X88278101Y-62870812D01*
X88239917Y-63260244D01*
X88136194Y-63603790D01*
X87967724Y-63920637D01*
X87740910Y-64198738D01*
X87464411Y-64427478D01*
X87148743Y-64598160D01*
X86805924Y-64704280D01*
X86418500Y-64745000D01*
X78790800Y-64745000D01*
X78790800Y-58214141D01*
X78778599Y-58090259D01*
X78766902Y-58051700D01*
X80892700Y-58051700D01*
X80892700Y-58115539D01*
X80932474Y-58315498D01*
X81010495Y-58503856D01*
X81123763Y-58673374D01*
X81267926Y-58817537D01*
X81437444Y-58930805D01*
X81625802Y-59008826D01*
X81825761Y-59048600D01*
X82029639Y-59048600D01*
X82229598Y-59008826D01*
X82417956Y-58930805D01*
X82587474Y-58817537D01*
X82731637Y-58673374D01*
X82844905Y-58503856D01*
X82922926Y-58315498D01*
X82932830Y-58265705D01*
X84011341Y-57187194D01*
X84045259Y-57159359D01*
X84156353Y-57023991D01*
X84238903Y-56869551D01*
X84275441Y-56749100D01*
X84289736Y-56701975D01*
X84293239Y-56666409D01*
X84302600Y-56571367D01*
X84302600Y-56571360D01*
X84306900Y-56527700D01*
X84302600Y-56484040D01*
X84302600Y-52754868D01*
X84330805Y-52712656D01*
X84408826Y-52524298D01*
X84448600Y-52324339D01*
X84448600Y-52120461D01*
X84408826Y-51920502D01*
X84345756Y-51768238D01*
X84382019Y-51713966D01*
X84460040Y-51525608D01*
X84499814Y-51325649D01*
X84499814Y-51121771D01*
X84460040Y-50921812D01*
X84382019Y-50733454D01*
X84268751Y-50563936D01*
X84124588Y-50419773D01*
X83955070Y-50306505D01*
X83766712Y-50228484D01*
X83566753Y-50188710D01*
X83362875Y-50188710D01*
X83162916Y-50228484D01*
X82974558Y-50306505D01*
X82805040Y-50419773D01*
X82660877Y-50563936D01*
X82547609Y-50733454D01*
X82469588Y-50921812D01*
X82429814Y-51121771D01*
X82429814Y-51325649D01*
X82469588Y-51525608D01*
X82532658Y-51677872D01*
X82496395Y-51732144D01*
X82418374Y-51920502D01*
X82378600Y-52120461D01*
X82378600Y-52324339D01*
X82418374Y-52524298D01*
X82496395Y-52712656D01*
X82524600Y-52754868D01*
X82524601Y-55616040D01*
X82445498Y-55583274D01*
X82245539Y-55543500D01*
X82041661Y-55543500D01*
X81841702Y-55583274D01*
X81653344Y-55661295D01*
X81483826Y-55774563D01*
X81339663Y-55918726D01*
X81226395Y-56088244D01*
X81149576Y-56273700D01*
X73475800Y-56273700D01*
X73475800Y-56108261D01*
X73436026Y-55908302D01*
X73358005Y-55719944D01*
X73244737Y-55550426D01*
X73100574Y-55406263D01*
X72931056Y-55292995D01*
X72742698Y-55214974D01*
X72669613Y-55200437D01*
X72701100Y-55042139D01*
X72701100Y-54838261D01*
X72693010Y-54797591D01*
X73096840Y-54393761D01*
X76638200Y-54393761D01*
X76638200Y-54597639D01*
X76677974Y-54797598D01*
X76755995Y-54985956D01*
X76869263Y-55155474D01*
X77013426Y-55299637D01*
X77182944Y-55412905D01*
X77371302Y-55490926D01*
X77571261Y-55530700D01*
X77775139Y-55530700D01*
X77975098Y-55490926D01*
X78163456Y-55412905D01*
X78332974Y-55299637D01*
X78477137Y-55155474D01*
X78590405Y-54985956D01*
X78668426Y-54797598D01*
X78708200Y-54597639D01*
X78708200Y-54393761D01*
X78668426Y-54193802D01*
X78616964Y-54069563D01*
X78692005Y-53957256D01*
X78770026Y-53768898D01*
X78796128Y-53637675D01*
X78925456Y-53584105D01*
X79094974Y-53470837D01*
X79239137Y-53326674D01*
X79352405Y-53157156D01*
X79430426Y-52968798D01*
X79470200Y-52768839D01*
X79470200Y-52564961D01*
X79430426Y-52365002D01*
X79352405Y-52176644D01*
X79239137Y-52007126D01*
X79094974Y-51862963D01*
X78925456Y-51749695D01*
X78737098Y-51671674D01*
X78537139Y-51631900D01*
X78333261Y-51631900D01*
X78133302Y-51671674D01*
X77944944Y-51749695D01*
X77775426Y-51862963D01*
X77631263Y-52007126D01*
X77517995Y-52176644D01*
X77439974Y-52365002D01*
X77413872Y-52496225D01*
X77284544Y-52549795D01*
X77115026Y-52663063D01*
X76970863Y-52807226D01*
X76857595Y-52976744D01*
X76779574Y-53165102D01*
X76739800Y-53365061D01*
X76739800Y-53568939D01*
X76779574Y-53768898D01*
X76831036Y-53893137D01*
X76755995Y-54005444D01*
X76677974Y-54193802D01*
X76638200Y-54393761D01*
X73096840Y-54393761D01*
X74665202Y-52825400D01*
X74694200Y-52801602D01*
X74789173Y-52685877D01*
X74859745Y-52553848D01*
X74903202Y-52410587D01*
X74914199Y-52298934D01*
X74914199Y-52298925D01*
X74917875Y-52261602D01*
X74914199Y-52224279D01*
X74914199Y-51073000D01*
X74981139Y-51073000D01*
X75181098Y-51033226D01*
X75369456Y-50955205D01*
X75538974Y-50841937D01*
X75683137Y-50697774D01*
X75796405Y-50528256D01*
X75874426Y-50339898D01*
X75914200Y-50139939D01*
X75914200Y-49936061D01*
X75874426Y-49736102D01*
X75796405Y-49547744D01*
X75683137Y-49378226D01*
X75538974Y-49234063D01*
X75369456Y-49120795D01*
X75283429Y-49085161D01*
X80854600Y-49085161D01*
X80854600Y-49289039D01*
X80894374Y-49488998D01*
X80972395Y-49677356D01*
X81085663Y-49846874D01*
X81229826Y-49991037D01*
X81399344Y-50104305D01*
X81587702Y-50182326D01*
X81787661Y-50222100D01*
X81991539Y-50222100D01*
X82191498Y-50182326D01*
X82234144Y-50164661D01*
X86099700Y-50164661D01*
X86099700Y-50368539D01*
X86139474Y-50568498D01*
X86217495Y-50756856D01*
X86330763Y-50926374D01*
X86474926Y-51070537D01*
X86497694Y-51085750D01*
X86474926Y-51100963D01*
X86330763Y-51245126D01*
X86217495Y-51414644D01*
X86139474Y-51603002D01*
X86099700Y-51802961D01*
X86099700Y-52006839D01*
X86139474Y-52206798D01*
X86217495Y-52395156D01*
X86330763Y-52564674D01*
X86474926Y-52708837D01*
X86538947Y-52751615D01*
X86538426Y-52751963D01*
X86394263Y-52896126D01*
X86280995Y-53065644D01*
X86202974Y-53254002D01*
X86163200Y-53453961D01*
X86163200Y-53657839D01*
X86202974Y-53857798D01*
X86280995Y-54046156D01*
X86394263Y-54215674D01*
X86538426Y-54359837D01*
X86707944Y-54473105D01*
X86896302Y-54551126D01*
X87096261Y-54590900D01*
X87300139Y-54590900D01*
X87500098Y-54551126D01*
X87688456Y-54473105D01*
X87857974Y-54359837D01*
X88002137Y-54215674D01*
X88115405Y-54046156D01*
X88193426Y-53857798D01*
X88233200Y-53657839D01*
X88233200Y-53453961D01*
X88193426Y-53254002D01*
X88115405Y-53065644D01*
X88002137Y-52896126D01*
X87857974Y-52751963D01*
X87793953Y-52709185D01*
X87794474Y-52708837D01*
X87938637Y-52564674D01*
X88051905Y-52395156D01*
X88129926Y-52206798D01*
X88169700Y-52006839D01*
X88169700Y-51802961D01*
X88129926Y-51603002D01*
X88051905Y-51414644D01*
X87938637Y-51245126D01*
X87794474Y-51100963D01*
X87771706Y-51085750D01*
X87794474Y-51070537D01*
X87938637Y-50926374D01*
X88051905Y-50756856D01*
X88129926Y-50568498D01*
X88169700Y-50368539D01*
X88169700Y-50164661D01*
X88129926Y-49964702D01*
X88051905Y-49776344D01*
X87938637Y-49606826D01*
X87794474Y-49462663D01*
X87624956Y-49349395D01*
X87436598Y-49271374D01*
X87236639Y-49231600D01*
X87032761Y-49231600D01*
X86832802Y-49271374D01*
X86644444Y-49349395D01*
X86474926Y-49462663D01*
X86330763Y-49606826D01*
X86217495Y-49776344D01*
X86139474Y-49964702D01*
X86099700Y-50164661D01*
X82234144Y-50164661D01*
X82379856Y-50104305D01*
X82549374Y-49991037D01*
X82693537Y-49846874D01*
X82806805Y-49677356D01*
X82884826Y-49488998D01*
X82924600Y-49289039D01*
X82924600Y-49085161D01*
X82884826Y-48885202D01*
X82806805Y-48696844D01*
X82693537Y-48527326D01*
X82549374Y-48383163D01*
X82379856Y-48269895D01*
X82191498Y-48191874D01*
X81991539Y-48152100D01*
X81787661Y-48152100D01*
X81587702Y-48191874D01*
X81399344Y-48269895D01*
X81229826Y-48383163D01*
X81085663Y-48527326D01*
X80972395Y-48696844D01*
X80894374Y-48885202D01*
X80854600Y-49085161D01*
X75283429Y-49085161D01*
X75181098Y-49042774D01*
X75035157Y-49013745D01*
X76177902Y-47871000D01*
X76349888Y-47871000D01*
X76569167Y-47827383D01*
X76775724Y-47741824D01*
X76930030Y-47638720D01*
X76944650Y-47727588D01*
X77148926Y-47818458D01*
X77367005Y-47867731D01*
X77590506Y-47873511D01*
X77810840Y-47835577D01*
X78019540Y-47755387D01*
X78071550Y-47727588D01*
X78106661Y-47514166D01*
X77508100Y-46915605D01*
X77493958Y-46929748D01*
X77373100Y-46808890D01*
X77373100Y-46736000D01*
X77687705Y-46736000D01*
X78286266Y-47334561D01*
X78499688Y-47299450D01*
X78590558Y-47095174D01*
X78639831Y-46877095D01*
X78645611Y-46653594D01*
X78607677Y-46433260D01*
X78587237Y-46380061D01*
X79597300Y-46380061D01*
X79597300Y-46583939D01*
X79637074Y-46783898D01*
X79715095Y-46972256D01*
X79828363Y-47141774D01*
X79972526Y-47285937D01*
X80142044Y-47399205D01*
X80330402Y-47477226D01*
X80530361Y-47517000D01*
X80734239Y-47517000D01*
X80934198Y-47477226D01*
X81122556Y-47399205D01*
X81292074Y-47285937D01*
X81436237Y-47141774D01*
X81549505Y-46972256D01*
X81627526Y-46783898D01*
X81667300Y-46583939D01*
X81667300Y-46380061D01*
X81627526Y-46180102D01*
X81549505Y-45991744D01*
X81436237Y-45822226D01*
X81292074Y-45678063D01*
X81122556Y-45564795D01*
X80934198Y-45486774D01*
X80734239Y-45447000D01*
X80530361Y-45447000D01*
X80330402Y-45486774D01*
X80142044Y-45564795D01*
X79972526Y-45678063D01*
X79828363Y-45822226D01*
X79715095Y-45991744D01*
X79637074Y-46180102D01*
X79597300Y-46380061D01*
X78587237Y-46380061D01*
X78527487Y-46224560D01*
X78499688Y-46172550D01*
X78286266Y-46137439D01*
X77687705Y-46736000D01*
X77373100Y-46736000D01*
X77373100Y-46663110D01*
X77493958Y-46542253D01*
X77508100Y-46556395D01*
X78106661Y-45957834D01*
X78071550Y-45744412D01*
X77867274Y-45653542D01*
X77649195Y-45604269D01*
X77425694Y-45598489D01*
X77205360Y-45636423D01*
X76996660Y-45716613D01*
X76944650Y-45744412D01*
X76930030Y-45833280D01*
X76775724Y-45730176D01*
X76569167Y-45644617D01*
X76349888Y-45601000D01*
X76126312Y-45601000D01*
X75907033Y-45644617D01*
X75700476Y-45730176D01*
X75603100Y-45795241D01*
X75505724Y-45730176D01*
X75299167Y-45644617D01*
X75079888Y-45601000D01*
X74856312Y-45601000D01*
X74637033Y-45644617D01*
X74430476Y-45730176D01*
X74333100Y-45795241D01*
X74235724Y-45730176D01*
X74029167Y-45644617D01*
X73809888Y-45601000D01*
X73586312Y-45601000D01*
X73367033Y-45644617D01*
X73160476Y-45730176D01*
X73063100Y-45795241D01*
X72965724Y-45730176D01*
X72759167Y-45644617D01*
X72539888Y-45601000D01*
X72316312Y-45601000D01*
X72097033Y-45644617D01*
X71890476Y-45730176D01*
X71793100Y-45795241D01*
X71695724Y-45730176D01*
X71489167Y-45644617D01*
X71269888Y-45601000D01*
X71046312Y-45601000D01*
X70827033Y-45644617D01*
X70715326Y-45690888D01*
X70632280Y-45646498D01*
X70512582Y-45610188D01*
X70388100Y-45597928D01*
X69388100Y-45597928D01*
X69263618Y-45610188D01*
X69143920Y-45646498D01*
X69033606Y-45705463D01*
X68936915Y-45784815D01*
X68857563Y-45881506D01*
X68798598Y-45991820D01*
X68762288Y-46111518D01*
X68750028Y-46236000D01*
X68750028Y-46593437D01*
X67511200Y-45354609D01*
X67511200Y-45095700D01*
X69952378Y-45095700D01*
X69989700Y-45099376D01*
X70027022Y-45095700D01*
X70027033Y-45095700D01*
X70138686Y-45084703D01*
X70281947Y-45041246D01*
X70413976Y-44970674D01*
X70529701Y-44875701D01*
X70553504Y-44846697D01*
X72569503Y-42830700D01*
X72631639Y-42830700D01*
X72831598Y-42790926D01*
X73019956Y-42712905D01*
X73189474Y-42599637D01*
X73333637Y-42455474D01*
X73446905Y-42285956D01*
X73524926Y-42097598D01*
X73564700Y-41897639D01*
X73564700Y-41693761D01*
X73524926Y-41493802D01*
X73446905Y-41305444D01*
X73333637Y-41135926D01*
X73189474Y-40991763D01*
X73019956Y-40878495D01*
X72831598Y-40800474D01*
X72631639Y-40760700D01*
X72427761Y-40760700D01*
X72227802Y-40800474D01*
X72039444Y-40878495D01*
X71869926Y-40991763D01*
X71749200Y-41112489D01*
X71627374Y-40990663D01*
X71457856Y-40877395D01*
X71269498Y-40799374D01*
X71069539Y-40759600D01*
X70865661Y-40759600D01*
X70665702Y-40799374D01*
X70477344Y-40877395D01*
X70307826Y-40990663D01*
X70263889Y-41034600D01*
X69208824Y-41034600D01*
X69171502Y-41030924D01*
X69134179Y-41034600D01*
X69134169Y-41034600D01*
X69022516Y-41045597D01*
X68879255Y-41089054D01*
X68747225Y-41159626D01*
X68669440Y-41223463D01*
X68631501Y-41254599D01*
X68607703Y-41283597D01*
X67854631Y-42036670D01*
X64187352Y-42036670D01*
X64150029Y-42032994D01*
X64112706Y-42036670D01*
X64112697Y-42036670D01*
X64001044Y-42047667D01*
X63857783Y-42091124D01*
X63725754Y-42161696D01*
X63610029Y-42256669D01*
X63586231Y-42285668D01*
X63383998Y-42487900D01*
X63321861Y-42487900D01*
X63121902Y-42527674D01*
X62933544Y-42605695D01*
X62764026Y-42718963D01*
X62619863Y-42863126D01*
X62506595Y-43032644D01*
X62447589Y-43175096D01*
X62048358Y-42775865D01*
X62020518Y-42741942D01*
X61885150Y-42630848D01*
X61779100Y-42574163D01*
X61779100Y-42417661D01*
X61739326Y-42217702D01*
X61661305Y-42029344D01*
X61548037Y-41859826D01*
X61403874Y-41715663D01*
X61234356Y-41602395D01*
X61045998Y-41524374D01*
X61017992Y-41518803D01*
X61032326Y-41484198D01*
X61072100Y-41284239D01*
X61072100Y-41080361D01*
X61032326Y-40880402D01*
X60954305Y-40692044D01*
X60936235Y-40665000D01*
X86403922Y-40665000D01*
X86793345Y-40703183D01*
G37*
G04 #@! TD.AperFunction*
D19*
X55459895Y-40692044D02*
X55381874Y-40880402D01*
X55342100Y-41080361D01*
X55342100Y-41284239D01*
X55381874Y-41484198D01*
X55459895Y-41672556D01*
X55573163Y-41842074D01*
X55717326Y-41986237D01*
X55886844Y-42099505D01*
X56075202Y-42177526D01*
X56275161Y-42217300D01*
X56479039Y-42217300D01*
X56678998Y-42177526D01*
X56867356Y-42099505D01*
X57036874Y-41986237D01*
X57181037Y-41842074D01*
X57268173Y-41711665D01*
X57349363Y-41833174D01*
X57493526Y-41977337D01*
X57663044Y-42090605D01*
X57851402Y-42168626D01*
X57901195Y-42178530D01*
X59694005Y-43971341D01*
X59721842Y-44005260D01*
X59857210Y-44116354D01*
X60011650Y-44198904D01*
X60077559Y-44218897D01*
X60179225Y-44249737D01*
X60212425Y-44253007D01*
X60309834Y-44262601D01*
X60309840Y-44262601D01*
X60353500Y-44266901D01*
X60397160Y-44262601D01*
X61020624Y-44262601D01*
X63413471Y-46655450D01*
X63441308Y-46689369D01*
X63576676Y-46800463D01*
X63731116Y-46883013D01*
X63825725Y-46911712D01*
X63898692Y-46933846D01*
X63915292Y-46935481D01*
X64029300Y-46946710D01*
X64029307Y-46946710D01*
X64072967Y-46951010D01*
X64116627Y-46946710D01*
X64916074Y-46946710D01*
X65147969Y-47178605D01*
X65157873Y-47228398D01*
X65235894Y-47416756D01*
X65349162Y-47586274D01*
X65493325Y-47730437D01*
X65662843Y-47843705D01*
X65851201Y-47921726D01*
X65900994Y-47931630D01*
X67268800Y-49299437D01*
X67268799Y-55382661D01*
X67264499Y-55426321D01*
X67268799Y-55469981D01*
X67268799Y-55469987D01*
X67281663Y-55600594D01*
X67325206Y-55744137D01*
X67332497Y-55768173D01*
X67343157Y-55788116D01*
X67415046Y-55922611D01*
X67526140Y-56057980D01*
X67560063Y-56085820D01*
X68231379Y-56757136D01*
X68259219Y-56791059D01*
X68394587Y-56902153D01*
X68461790Y-56938074D01*
X65659065Y-59740800D01*
X56018768Y-59740800D01*
X55976556Y-59712595D01*
X55788198Y-59634574D01*
X55588239Y-59594800D01*
X55384361Y-59594800D01*
X55184402Y-59634574D01*
X54996044Y-59712595D01*
X54826526Y-59825863D01*
X54682363Y-59970026D01*
X54569095Y-60139544D01*
X54491074Y-60327902D01*
X54451300Y-60527861D01*
X54451300Y-60731739D01*
X54491074Y-60931698D01*
X54569095Y-61120056D01*
X54682363Y-61289574D01*
X54826526Y-61433737D01*
X54996044Y-61547005D01*
X55184402Y-61625026D01*
X55384361Y-61664800D01*
X55588239Y-61664800D01*
X55788198Y-61625026D01*
X55976556Y-61547005D01*
X56018768Y-61518800D01*
X65983640Y-61518800D01*
X66027300Y-61523100D01*
X66070960Y-61518800D01*
X66070967Y-61518800D01*
X66201574Y-61505936D01*
X66369151Y-61455103D01*
X66523591Y-61372553D01*
X66658959Y-61261459D01*
X66686799Y-61227536D01*
X69862636Y-58051700D01*
X72645015Y-58051700D01*
X72622274Y-58074441D01*
X71462900Y-58074441D01*
X71339018Y-58086642D01*
X71219896Y-58122777D01*
X71110113Y-58181458D01*
X71013887Y-58260428D01*
X69908987Y-59365328D01*
X69830017Y-59461554D01*
X69771336Y-59571337D01*
X69735201Y-59690459D01*
X69723000Y-59814341D01*
X69723000Y-64745000D01*
X60933235Y-64745000D01*
X60951305Y-64717956D01*
X61029326Y-64529598D01*
X61069100Y-64329639D01*
X61069100Y-64125761D01*
X61029326Y-63925802D01*
X61008264Y-63874953D01*
X61170856Y-63807605D01*
X61340374Y-63694337D01*
X61484537Y-63550174D01*
X61597805Y-63380656D01*
X61675826Y-63192298D01*
X61715600Y-62992339D01*
X61715600Y-62788461D01*
X61675826Y-62588502D01*
X61597805Y-62400144D01*
X61484537Y-62230626D01*
X61340374Y-62086463D01*
X61170856Y-61973195D01*
X60982498Y-61895174D01*
X60782539Y-61855400D01*
X60578661Y-61855400D01*
X60378702Y-61895174D01*
X60190344Y-61973195D01*
X60020826Y-62086463D01*
X59876663Y-62230626D01*
X59763395Y-62400144D01*
X59685374Y-62588502D01*
X59645600Y-62788461D01*
X59645600Y-62992339D01*
X59685374Y-63192298D01*
X59706436Y-63243147D01*
X59543844Y-63310495D01*
X59374326Y-63423763D01*
X59230163Y-63567926D01*
X59116895Y-63737444D01*
X59038874Y-63925802D01*
X58999100Y-64125761D01*
X58999100Y-64329639D01*
X59038874Y-64529598D01*
X59116895Y-64717956D01*
X59134965Y-64745000D01*
X57273235Y-64745000D01*
X57291305Y-64717956D01*
X57369326Y-64529598D01*
X57409100Y-64329639D01*
X57409100Y-64125761D01*
X57369326Y-63925802D01*
X57291305Y-63737444D01*
X57178037Y-63567926D01*
X57033874Y-63423763D01*
X56864356Y-63310495D01*
X56675998Y-63232474D01*
X56476039Y-63192700D01*
X56272161Y-63192700D01*
X56072202Y-63232474D01*
X55883844Y-63310495D01*
X55714326Y-63423763D01*
X55570163Y-63567926D01*
X55456895Y-63737444D01*
X55378874Y-63925802D01*
X55339100Y-64125761D01*
X55339100Y-64329639D01*
X55378874Y-64529598D01*
X55456895Y-64717956D01*
X55474965Y-64745000D01*
X53372278Y-64745000D01*
X52982856Y-64706817D01*
X52639310Y-64603094D01*
X52322463Y-64434624D01*
X52044362Y-64207810D01*
X51815622Y-63931311D01*
X51644940Y-63615643D01*
X51538820Y-63272824D01*
X51498100Y-62885400D01*
X51498100Y-57109705D01*
X51581413Y-57154237D01*
X51774155Y-57212705D01*
X51924372Y-57227500D01*
X52799828Y-57227500D01*
X52950045Y-57212705D01*
X53142787Y-57154237D01*
X53320419Y-57059291D01*
X53476115Y-56931515D01*
X53603891Y-56775819D01*
X53698837Y-56598187D01*
X53757305Y-56405445D01*
X53777047Y-56205000D01*
X53757305Y-56004555D01*
X53698837Y-55811813D01*
X53603891Y-55634181D01*
X53476115Y-55478485D01*
X53320419Y-55350709D01*
X53142787Y-55255763D01*
X52950045Y-55197295D01*
X52799828Y-55182500D01*
X51924372Y-55182500D01*
X51774155Y-55197295D01*
X51581413Y-55255763D01*
X51498100Y-55300295D01*
X51498100Y-54832838D01*
X54102100Y-54832838D01*
X54102100Y-55577161D01*
X54115990Y-55718192D01*
X54170884Y-55899153D01*
X54260027Y-56065928D01*
X54379993Y-56212107D01*
X54526172Y-56332073D01*
X54692946Y-56421216D01*
X54873907Y-56476110D01*
X55062100Y-56494645D01*
X55250292Y-56476110D01*
X55431253Y-56421216D01*
X55598028Y-56332073D01*
X55744207Y-56212107D01*
X55864173Y-56065928D01*
X55953316Y-55899154D01*
X56008210Y-55718193D01*
X56022100Y-55577162D01*
X56022100Y-54832839D01*
X56008210Y-54691807D01*
X55953316Y-54510846D01*
X55864173Y-54344072D01*
X55744207Y-54197893D01*
X55598028Y-54077927D01*
X55431254Y-53988784D01*
X55250293Y-53933890D01*
X55062100Y-53915355D01*
X54873908Y-53933890D01*
X54692947Y-53988784D01*
X54526173Y-54077927D01*
X54379994Y-54197893D01*
X54260028Y-54344072D01*
X54170885Y-54510846D01*
X54115990Y-54691807D01*
X54102100Y-54832838D01*
X51498100Y-54832838D01*
X51498100Y-50109705D01*
X51581413Y-50154237D01*
X51774155Y-50212705D01*
X51924372Y-50227500D01*
X52799828Y-50227500D01*
X52950045Y-50212705D01*
X53142787Y-50154237D01*
X53320419Y-50059291D01*
X53476115Y-49931515D01*
X53557096Y-49832838D01*
X54102100Y-49832838D01*
X54102100Y-50577161D01*
X54115990Y-50718192D01*
X54170884Y-50899153D01*
X54260027Y-51065928D01*
X54379993Y-51212107D01*
X54526172Y-51332073D01*
X54692946Y-51421216D01*
X54873907Y-51476110D01*
X55045340Y-51492994D01*
X55077095Y-51569656D01*
X55190363Y-51739174D01*
X55334526Y-51883337D01*
X55504044Y-51996605D01*
X55692402Y-52074626D01*
X55892361Y-52114400D01*
X56086370Y-52114400D01*
X56118495Y-52191956D01*
X56231763Y-52361474D01*
X56375926Y-52505637D01*
X56545444Y-52618905D01*
X56733802Y-52696926D01*
X56873701Y-52724753D01*
X56873702Y-54116569D01*
X56870025Y-54153901D01*
X56873702Y-54191234D01*
X56884699Y-54302887D01*
X56891536Y-54325425D01*
X56928155Y-54446147D01*
X56998727Y-54578177D01*
X57048071Y-54638302D01*
X57093701Y-54693902D01*
X57122699Y-54717700D01*
X60090100Y-57685102D01*
X60090100Y-57747239D01*
X60129874Y-57947198D01*
X60207895Y-58135556D01*
X60321163Y-58305074D01*
X60465326Y-58449237D01*
X60634844Y-58562505D01*
X60823202Y-58640526D01*
X61023161Y-58680300D01*
X61227039Y-58680300D01*
X61426998Y-58640526D01*
X61615356Y-58562505D01*
X61784874Y-58449237D01*
X61929037Y-58305074D01*
X62042305Y-58135556D01*
X62120326Y-57947198D01*
X62160100Y-57747239D01*
X62160100Y-57543361D01*
X62120326Y-57343402D01*
X62042305Y-57155044D01*
X61929037Y-56985526D01*
X61784874Y-56841363D01*
X61615356Y-56728095D01*
X61426998Y-56650074D01*
X61227039Y-56610300D01*
X61164902Y-56610300D01*
X58707063Y-54152461D01*
X61614100Y-54152461D01*
X61614100Y-54356339D01*
X61653874Y-54556298D01*
X61731895Y-54744656D01*
X61845163Y-54914174D01*
X61989326Y-55058337D01*
X62158844Y-55171605D01*
X62347202Y-55249626D01*
X62547161Y-55289400D01*
X62751039Y-55289400D01*
X62950998Y-55249626D01*
X63139356Y-55171605D01*
X63308874Y-55058337D01*
X63453037Y-54914174D01*
X63566305Y-54744656D01*
X63644326Y-54556298D01*
X63684100Y-54356339D01*
X63684100Y-54152461D01*
X63644326Y-53952502D01*
X63566305Y-53764144D01*
X63453037Y-53594626D01*
X63308874Y-53450463D01*
X63139356Y-53337195D01*
X62950998Y-53259174D01*
X62751039Y-53219400D01*
X62547161Y-53219400D01*
X62347202Y-53259174D01*
X62158844Y-53337195D01*
X61989326Y-53450463D01*
X61845163Y-53594626D01*
X61731895Y-53764144D01*
X61653874Y-53952502D01*
X61614100Y-54152461D01*
X58707063Y-54152461D01*
X58393701Y-53839100D01*
X58393701Y-52337023D01*
X58395588Y-52317861D01*
X58794700Y-52317861D01*
X58794700Y-52521739D01*
X58834474Y-52721698D01*
X58912495Y-52910056D01*
X59025763Y-53079574D01*
X59169926Y-53223737D01*
X59339444Y-53337005D01*
X59527802Y-53415026D01*
X59727761Y-53454800D01*
X59931639Y-53454800D01*
X60131598Y-53415026D01*
X60319956Y-53337005D01*
X60489474Y-53223737D01*
X60633637Y-53079574D01*
X60746905Y-52910056D01*
X60824926Y-52721698D01*
X60864700Y-52521739D01*
X60864700Y-52317861D01*
X60824926Y-52117902D01*
X60746905Y-51929544D01*
X60633637Y-51760026D01*
X60489474Y-51615863D01*
X60319956Y-51502595D01*
X60131598Y-51424574D01*
X59931639Y-51384800D01*
X59727761Y-51384800D01*
X59527802Y-51424574D01*
X59339444Y-51502595D01*
X59169926Y-51615863D01*
X59025763Y-51760026D01*
X58912495Y-51929544D01*
X58834474Y-52117902D01*
X58794700Y-52317861D01*
X58395588Y-52317861D01*
X58397377Y-52299700D01*
X58393701Y-52262377D01*
X58393701Y-52262368D01*
X58382704Y-52150715D01*
X58339247Y-52007454D01*
X58330237Y-51990597D01*
X58268675Y-51875424D01*
X58197500Y-51788698D01*
X58173702Y-51759700D01*
X58144705Y-51735903D01*
X58070700Y-51661898D01*
X58070700Y-51599761D01*
X58030926Y-51399802D01*
X57952905Y-51211444D01*
X57872936Y-51091761D01*
X61601400Y-51091761D01*
X61601400Y-51295639D01*
X61641174Y-51495598D01*
X61719195Y-51683956D01*
X61832463Y-51853474D01*
X61976626Y-51997637D01*
X62146144Y-52110905D01*
X62334502Y-52188926D01*
X62534461Y-52228700D01*
X62738339Y-52228700D01*
X62938298Y-52188926D01*
X63126656Y-52110905D01*
X63296174Y-51997637D01*
X63440337Y-51853474D01*
X63553605Y-51683956D01*
X63577565Y-51626111D01*
X63865523Y-51626111D01*
X63869200Y-51663443D01*
X63869199Y-56171776D01*
X63865523Y-56209099D01*
X63869199Y-56246421D01*
X63869199Y-56246431D01*
X63880196Y-56358084D01*
X63911505Y-56461298D01*
X63923653Y-56501345D01*
X63994225Y-56633375D01*
X64021336Y-56666409D01*
X64089198Y-56749100D01*
X64118201Y-56772902D01*
X64306500Y-56961201D01*
X64306500Y-57023339D01*
X64346274Y-57223298D01*
X64424295Y-57411656D01*
X64537563Y-57581174D01*
X64681726Y-57725337D01*
X64851244Y-57838605D01*
X65039602Y-57916626D01*
X65239561Y-57956400D01*
X65443439Y-57956400D01*
X65643398Y-57916626D01*
X65831756Y-57838605D01*
X66001274Y-57725337D01*
X66145437Y-57581174D01*
X66258705Y-57411656D01*
X66336726Y-57223298D01*
X66376500Y-57023339D01*
X66376500Y-56819461D01*
X66336726Y-56619502D01*
X66258705Y-56431144D01*
X66145437Y-56261626D01*
X66001274Y-56117463D01*
X65831756Y-56004195D01*
X65643398Y-55926174D01*
X65641081Y-55925713D01*
X65656098Y-55922726D01*
X65844456Y-55844705D01*
X66013974Y-55731437D01*
X66158137Y-55587274D01*
X66271405Y-55417756D01*
X66349426Y-55229398D01*
X66389200Y-55029439D01*
X66389200Y-54825561D01*
X66349426Y-54625602D01*
X66271405Y-54437244D01*
X66158137Y-54267726D01*
X66013974Y-54123563D01*
X65844456Y-54010295D01*
X65656098Y-53932274D01*
X65456139Y-53892500D01*
X65389199Y-53892500D01*
X65389199Y-52024937D01*
X65561837Y-51990597D01*
X65750195Y-51912576D01*
X65919713Y-51799308D01*
X66063876Y-51655145D01*
X66177144Y-51485627D01*
X66255165Y-51297269D01*
X66294939Y-51097310D01*
X66294939Y-51077763D01*
X66454997Y-51045926D01*
X66643355Y-50967905D01*
X66812873Y-50854637D01*
X66957036Y-50710474D01*
X67070304Y-50540956D01*
X67148325Y-50352598D01*
X67188099Y-50152639D01*
X67188099Y-49948761D01*
X67148325Y-49748802D01*
X67070304Y-49560444D01*
X66957036Y-49390926D01*
X66812873Y-49246763D01*
X66643355Y-49133495D01*
X66454997Y-49055474D01*
X66255038Y-49015700D01*
X66051160Y-49015700D01*
X65851201Y-49055474D01*
X65662843Y-49133495D01*
X65493325Y-49246763D01*
X65349162Y-49390926D01*
X65235894Y-49560444D01*
X65157873Y-49748802D01*
X65118099Y-49948761D01*
X65118099Y-49968308D01*
X64958041Y-50000145D01*
X64769683Y-50078166D01*
X64600165Y-50191434D01*
X64456002Y-50335597D01*
X64342734Y-50505115D01*
X64264713Y-50693473D01*
X64224939Y-50893432D01*
X64224939Y-50955570D01*
X64118197Y-51062312D01*
X64089199Y-51086110D01*
X64065401Y-51115108D01*
X64065400Y-51115109D01*
X63994225Y-51201835D01*
X63923653Y-51333865D01*
X63880197Y-51477126D01*
X63865523Y-51626111D01*
X63577565Y-51626111D01*
X63631626Y-51495598D01*
X63671400Y-51295639D01*
X63671400Y-51091761D01*
X63631626Y-50891802D01*
X63553605Y-50703444D01*
X63440337Y-50533926D01*
X63296174Y-50389763D01*
X63126656Y-50276495D01*
X62938298Y-50198474D01*
X62738339Y-50158700D01*
X62534461Y-50158700D01*
X62334502Y-50198474D01*
X62146144Y-50276495D01*
X61976626Y-50389763D01*
X61832463Y-50533926D01*
X61719195Y-50703444D01*
X61641174Y-50891802D01*
X61601400Y-51091761D01*
X57872936Y-51091761D01*
X57839637Y-51041926D01*
X57695474Y-50897763D01*
X57525956Y-50784495D01*
X57337598Y-50706474D01*
X57137639Y-50666700D01*
X56943630Y-50666700D01*
X56911505Y-50589144D01*
X56798237Y-50419626D01*
X56654074Y-50275463D01*
X56484556Y-50162195D01*
X56296198Y-50084174D01*
X56096239Y-50044400D01*
X56022100Y-50044400D01*
X56022100Y-49832839D01*
X56008210Y-49691807D01*
X55953316Y-49510846D01*
X55864173Y-49344072D01*
X55744207Y-49197893D01*
X55598028Y-49077927D01*
X55431254Y-48988784D01*
X55250293Y-48933890D01*
X55062100Y-48915355D01*
X54873908Y-48933890D01*
X54692947Y-48988784D01*
X54526173Y-49077927D01*
X54379994Y-49197893D01*
X54260028Y-49344072D01*
X54170885Y-49510846D01*
X54115990Y-49691807D01*
X54102100Y-49832838D01*
X53557096Y-49832838D01*
X53603891Y-49775819D01*
X53698837Y-49598187D01*
X53757305Y-49405445D01*
X53777047Y-49205000D01*
X53757305Y-49004555D01*
X53698837Y-48811813D01*
X53603891Y-48634181D01*
X53476115Y-48478485D01*
X53320419Y-48350709D01*
X53142787Y-48255763D01*
X52950045Y-48197295D01*
X52799828Y-48182500D01*
X51924372Y-48182500D01*
X51774155Y-48197295D01*
X51581413Y-48255763D01*
X51498100Y-48300295D01*
X51498100Y-42539178D01*
X51536283Y-42149755D01*
X51640006Y-41806210D01*
X51808476Y-41489362D01*
X52035287Y-41211265D01*
X52311795Y-40982518D01*
X52627459Y-40811840D01*
X52970276Y-40705720D01*
X53357700Y-40665000D01*
X55477965Y-40665000D01*
X55459895Y-40692044D01*
G04 #@! TA.AperFunction,Conductor*
D20*
G36*
X55459895Y-40692044D02*
G01*
X55381874Y-40880402D01*
X55342100Y-41080361D01*
X55342100Y-41284239D01*
X55381874Y-41484198D01*
X55459895Y-41672556D01*
X55573163Y-41842074D01*
X55717326Y-41986237D01*
X55886844Y-42099505D01*
X56075202Y-42177526D01*
X56275161Y-42217300D01*
X56479039Y-42217300D01*
X56678998Y-42177526D01*
X56867356Y-42099505D01*
X57036874Y-41986237D01*
X57181037Y-41842074D01*
X57268173Y-41711665D01*
X57349363Y-41833174D01*
X57493526Y-41977337D01*
X57663044Y-42090605D01*
X57851402Y-42168626D01*
X57901195Y-42178530D01*
X59694005Y-43971341D01*
X59721842Y-44005260D01*
X59857210Y-44116354D01*
X60011650Y-44198904D01*
X60077559Y-44218897D01*
X60179225Y-44249737D01*
X60212425Y-44253007D01*
X60309834Y-44262601D01*
X60309840Y-44262601D01*
X60353500Y-44266901D01*
X60397160Y-44262601D01*
X61020624Y-44262601D01*
X63413471Y-46655450D01*
X63441308Y-46689369D01*
X63576676Y-46800463D01*
X63731116Y-46883013D01*
X63825725Y-46911712D01*
X63898692Y-46933846D01*
X63915292Y-46935481D01*
X64029300Y-46946710D01*
X64029307Y-46946710D01*
X64072967Y-46951010D01*
X64116627Y-46946710D01*
X64916074Y-46946710D01*
X65147969Y-47178605D01*
X65157873Y-47228398D01*
X65235894Y-47416756D01*
X65349162Y-47586274D01*
X65493325Y-47730437D01*
X65662843Y-47843705D01*
X65851201Y-47921726D01*
X65900994Y-47931630D01*
X67268800Y-49299437D01*
X67268799Y-55382661D01*
X67264499Y-55426321D01*
X67268799Y-55469981D01*
X67268799Y-55469987D01*
X67281663Y-55600594D01*
X67325206Y-55744137D01*
X67332497Y-55768173D01*
X67343157Y-55788116D01*
X67415046Y-55922611D01*
X67526140Y-56057980D01*
X67560063Y-56085820D01*
X68231379Y-56757136D01*
X68259219Y-56791059D01*
X68394587Y-56902153D01*
X68461790Y-56938074D01*
X65659065Y-59740800D01*
X56018768Y-59740800D01*
X55976556Y-59712595D01*
X55788198Y-59634574D01*
X55588239Y-59594800D01*
X55384361Y-59594800D01*
X55184402Y-59634574D01*
X54996044Y-59712595D01*
X54826526Y-59825863D01*
X54682363Y-59970026D01*
X54569095Y-60139544D01*
X54491074Y-60327902D01*
X54451300Y-60527861D01*
X54451300Y-60731739D01*
X54491074Y-60931698D01*
X54569095Y-61120056D01*
X54682363Y-61289574D01*
X54826526Y-61433737D01*
X54996044Y-61547005D01*
X55184402Y-61625026D01*
X55384361Y-61664800D01*
X55588239Y-61664800D01*
X55788198Y-61625026D01*
X55976556Y-61547005D01*
X56018768Y-61518800D01*
X65983640Y-61518800D01*
X66027300Y-61523100D01*
X66070960Y-61518800D01*
X66070967Y-61518800D01*
X66201574Y-61505936D01*
X66369151Y-61455103D01*
X66523591Y-61372553D01*
X66658959Y-61261459D01*
X66686799Y-61227536D01*
X69862636Y-58051700D01*
X72645015Y-58051700D01*
X72622274Y-58074441D01*
X71462900Y-58074441D01*
X71339018Y-58086642D01*
X71219896Y-58122777D01*
X71110113Y-58181458D01*
X71013887Y-58260428D01*
X69908987Y-59365328D01*
X69830017Y-59461554D01*
X69771336Y-59571337D01*
X69735201Y-59690459D01*
X69723000Y-59814341D01*
X69723000Y-64745000D01*
X60933235Y-64745000D01*
X60951305Y-64717956D01*
X61029326Y-64529598D01*
X61069100Y-64329639D01*
X61069100Y-64125761D01*
X61029326Y-63925802D01*
X61008264Y-63874953D01*
X61170856Y-63807605D01*
X61340374Y-63694337D01*
X61484537Y-63550174D01*
X61597805Y-63380656D01*
X61675826Y-63192298D01*
X61715600Y-62992339D01*
X61715600Y-62788461D01*
X61675826Y-62588502D01*
X61597805Y-62400144D01*
X61484537Y-62230626D01*
X61340374Y-62086463D01*
X61170856Y-61973195D01*
X60982498Y-61895174D01*
X60782539Y-61855400D01*
X60578661Y-61855400D01*
X60378702Y-61895174D01*
X60190344Y-61973195D01*
X60020826Y-62086463D01*
X59876663Y-62230626D01*
X59763395Y-62400144D01*
X59685374Y-62588502D01*
X59645600Y-62788461D01*
X59645600Y-62992339D01*
X59685374Y-63192298D01*
X59706436Y-63243147D01*
X59543844Y-63310495D01*
X59374326Y-63423763D01*
X59230163Y-63567926D01*
X59116895Y-63737444D01*
X59038874Y-63925802D01*
X58999100Y-64125761D01*
X58999100Y-64329639D01*
X59038874Y-64529598D01*
X59116895Y-64717956D01*
X59134965Y-64745000D01*
X57273235Y-64745000D01*
X57291305Y-64717956D01*
X57369326Y-64529598D01*
X57409100Y-64329639D01*
X57409100Y-64125761D01*
X57369326Y-63925802D01*
X57291305Y-63737444D01*
X57178037Y-63567926D01*
X57033874Y-63423763D01*
X56864356Y-63310495D01*
X56675998Y-63232474D01*
X56476039Y-63192700D01*
X56272161Y-63192700D01*
X56072202Y-63232474D01*
X55883844Y-63310495D01*
X55714326Y-63423763D01*
X55570163Y-63567926D01*
X55456895Y-63737444D01*
X55378874Y-63925802D01*
X55339100Y-64125761D01*
X55339100Y-64329639D01*
X55378874Y-64529598D01*
X55456895Y-64717956D01*
X55474965Y-64745000D01*
X53372278Y-64745000D01*
X52982856Y-64706817D01*
X52639310Y-64603094D01*
X52322463Y-64434624D01*
X52044362Y-64207810D01*
X51815622Y-63931311D01*
X51644940Y-63615643D01*
X51538820Y-63272824D01*
X51498100Y-62885400D01*
X51498100Y-57109705D01*
X51581413Y-57154237D01*
X51774155Y-57212705D01*
X51924372Y-57227500D01*
X52799828Y-57227500D01*
X52950045Y-57212705D01*
X53142787Y-57154237D01*
X53320419Y-57059291D01*
X53476115Y-56931515D01*
X53603891Y-56775819D01*
X53698837Y-56598187D01*
X53757305Y-56405445D01*
X53777047Y-56205000D01*
X53757305Y-56004555D01*
X53698837Y-55811813D01*
X53603891Y-55634181D01*
X53476115Y-55478485D01*
X53320419Y-55350709D01*
X53142787Y-55255763D01*
X52950045Y-55197295D01*
X52799828Y-55182500D01*
X51924372Y-55182500D01*
X51774155Y-55197295D01*
X51581413Y-55255763D01*
X51498100Y-55300295D01*
X51498100Y-54832838D01*
X54102100Y-54832838D01*
X54102100Y-55577161D01*
X54115990Y-55718192D01*
X54170884Y-55899153D01*
X54260027Y-56065928D01*
X54379993Y-56212107D01*
X54526172Y-56332073D01*
X54692946Y-56421216D01*
X54873907Y-56476110D01*
X55062100Y-56494645D01*
X55250292Y-56476110D01*
X55431253Y-56421216D01*
X55598028Y-56332073D01*
X55744207Y-56212107D01*
X55864173Y-56065928D01*
X55953316Y-55899154D01*
X56008210Y-55718193D01*
X56022100Y-55577162D01*
X56022100Y-54832839D01*
X56008210Y-54691807D01*
X55953316Y-54510846D01*
X55864173Y-54344072D01*
X55744207Y-54197893D01*
X55598028Y-54077927D01*
X55431254Y-53988784D01*
X55250293Y-53933890D01*
X55062100Y-53915355D01*
X54873908Y-53933890D01*
X54692947Y-53988784D01*
X54526173Y-54077927D01*
X54379994Y-54197893D01*
X54260028Y-54344072D01*
X54170885Y-54510846D01*
X54115990Y-54691807D01*
X54102100Y-54832838D01*
X51498100Y-54832838D01*
X51498100Y-50109705D01*
X51581413Y-50154237D01*
X51774155Y-50212705D01*
X51924372Y-50227500D01*
X52799828Y-50227500D01*
X52950045Y-50212705D01*
X53142787Y-50154237D01*
X53320419Y-50059291D01*
X53476115Y-49931515D01*
X53557096Y-49832838D01*
X54102100Y-49832838D01*
X54102100Y-50577161D01*
X54115990Y-50718192D01*
X54170884Y-50899153D01*
X54260027Y-51065928D01*
X54379993Y-51212107D01*
X54526172Y-51332073D01*
X54692946Y-51421216D01*
X54873907Y-51476110D01*
X55045340Y-51492994D01*
X55077095Y-51569656D01*
X55190363Y-51739174D01*
X55334526Y-51883337D01*
X55504044Y-51996605D01*
X55692402Y-52074626D01*
X55892361Y-52114400D01*
X56086370Y-52114400D01*
X56118495Y-52191956D01*
X56231763Y-52361474D01*
X56375926Y-52505637D01*
X56545444Y-52618905D01*
X56733802Y-52696926D01*
X56873701Y-52724753D01*
X56873702Y-54116569D01*
X56870025Y-54153901D01*
X56873702Y-54191234D01*
X56884699Y-54302887D01*
X56891536Y-54325425D01*
X56928155Y-54446147D01*
X56998727Y-54578177D01*
X57048071Y-54638302D01*
X57093701Y-54693902D01*
X57122699Y-54717700D01*
X60090100Y-57685102D01*
X60090100Y-57747239D01*
X60129874Y-57947198D01*
X60207895Y-58135556D01*
X60321163Y-58305074D01*
X60465326Y-58449237D01*
X60634844Y-58562505D01*
X60823202Y-58640526D01*
X61023161Y-58680300D01*
X61227039Y-58680300D01*
X61426998Y-58640526D01*
X61615356Y-58562505D01*
X61784874Y-58449237D01*
X61929037Y-58305074D01*
X62042305Y-58135556D01*
X62120326Y-57947198D01*
X62160100Y-57747239D01*
X62160100Y-57543361D01*
X62120326Y-57343402D01*
X62042305Y-57155044D01*
X61929037Y-56985526D01*
X61784874Y-56841363D01*
X61615356Y-56728095D01*
X61426998Y-56650074D01*
X61227039Y-56610300D01*
X61164902Y-56610300D01*
X58707063Y-54152461D01*
X61614100Y-54152461D01*
X61614100Y-54356339D01*
X61653874Y-54556298D01*
X61731895Y-54744656D01*
X61845163Y-54914174D01*
X61989326Y-55058337D01*
X62158844Y-55171605D01*
X62347202Y-55249626D01*
X62547161Y-55289400D01*
X62751039Y-55289400D01*
X62950998Y-55249626D01*
X63139356Y-55171605D01*
X63308874Y-55058337D01*
X63453037Y-54914174D01*
X63566305Y-54744656D01*
X63644326Y-54556298D01*
X63684100Y-54356339D01*
X63684100Y-54152461D01*
X63644326Y-53952502D01*
X63566305Y-53764144D01*
X63453037Y-53594626D01*
X63308874Y-53450463D01*
X63139356Y-53337195D01*
X62950998Y-53259174D01*
X62751039Y-53219400D01*
X62547161Y-53219400D01*
X62347202Y-53259174D01*
X62158844Y-53337195D01*
X61989326Y-53450463D01*
X61845163Y-53594626D01*
X61731895Y-53764144D01*
X61653874Y-53952502D01*
X61614100Y-54152461D01*
X58707063Y-54152461D01*
X58393701Y-53839100D01*
X58393701Y-52337023D01*
X58395588Y-52317861D01*
X58794700Y-52317861D01*
X58794700Y-52521739D01*
X58834474Y-52721698D01*
X58912495Y-52910056D01*
X59025763Y-53079574D01*
X59169926Y-53223737D01*
X59339444Y-53337005D01*
X59527802Y-53415026D01*
X59727761Y-53454800D01*
X59931639Y-53454800D01*
X60131598Y-53415026D01*
X60319956Y-53337005D01*
X60489474Y-53223737D01*
X60633637Y-53079574D01*
X60746905Y-52910056D01*
X60824926Y-52721698D01*
X60864700Y-52521739D01*
X60864700Y-52317861D01*
X60824926Y-52117902D01*
X60746905Y-51929544D01*
X60633637Y-51760026D01*
X60489474Y-51615863D01*
X60319956Y-51502595D01*
X60131598Y-51424574D01*
X59931639Y-51384800D01*
X59727761Y-51384800D01*
X59527802Y-51424574D01*
X59339444Y-51502595D01*
X59169926Y-51615863D01*
X59025763Y-51760026D01*
X58912495Y-51929544D01*
X58834474Y-52117902D01*
X58794700Y-52317861D01*
X58395588Y-52317861D01*
X58397377Y-52299700D01*
X58393701Y-52262377D01*
X58393701Y-52262368D01*
X58382704Y-52150715D01*
X58339247Y-52007454D01*
X58330237Y-51990597D01*
X58268675Y-51875424D01*
X58197500Y-51788698D01*
X58173702Y-51759700D01*
X58144705Y-51735903D01*
X58070700Y-51661898D01*
X58070700Y-51599761D01*
X58030926Y-51399802D01*
X57952905Y-51211444D01*
X57872936Y-51091761D01*
X61601400Y-51091761D01*
X61601400Y-51295639D01*
X61641174Y-51495598D01*
X61719195Y-51683956D01*
X61832463Y-51853474D01*
X61976626Y-51997637D01*
X62146144Y-52110905D01*
X62334502Y-52188926D01*
X62534461Y-52228700D01*
X62738339Y-52228700D01*
X62938298Y-52188926D01*
X63126656Y-52110905D01*
X63296174Y-51997637D01*
X63440337Y-51853474D01*
X63553605Y-51683956D01*
X63577565Y-51626111D01*
X63865523Y-51626111D01*
X63869200Y-51663443D01*
X63869199Y-56171776D01*
X63865523Y-56209099D01*
X63869199Y-56246421D01*
X63869199Y-56246431D01*
X63880196Y-56358084D01*
X63911505Y-56461298D01*
X63923653Y-56501345D01*
X63994225Y-56633375D01*
X64021336Y-56666409D01*
X64089198Y-56749100D01*
X64118201Y-56772902D01*
X64306500Y-56961201D01*
X64306500Y-57023339D01*
X64346274Y-57223298D01*
X64424295Y-57411656D01*
X64537563Y-57581174D01*
X64681726Y-57725337D01*
X64851244Y-57838605D01*
X65039602Y-57916626D01*
X65239561Y-57956400D01*
X65443439Y-57956400D01*
X65643398Y-57916626D01*
X65831756Y-57838605D01*
X66001274Y-57725337D01*
X66145437Y-57581174D01*
X66258705Y-57411656D01*
X66336726Y-57223298D01*
X66376500Y-57023339D01*
X66376500Y-56819461D01*
X66336726Y-56619502D01*
X66258705Y-56431144D01*
X66145437Y-56261626D01*
X66001274Y-56117463D01*
X65831756Y-56004195D01*
X65643398Y-55926174D01*
X65641081Y-55925713D01*
X65656098Y-55922726D01*
X65844456Y-55844705D01*
X66013974Y-55731437D01*
X66158137Y-55587274D01*
X66271405Y-55417756D01*
X66349426Y-55229398D01*
X66389200Y-55029439D01*
X66389200Y-54825561D01*
X66349426Y-54625602D01*
X66271405Y-54437244D01*
X66158137Y-54267726D01*
X66013974Y-54123563D01*
X65844456Y-54010295D01*
X65656098Y-53932274D01*
X65456139Y-53892500D01*
X65389199Y-53892500D01*
X65389199Y-52024937D01*
X65561837Y-51990597D01*
X65750195Y-51912576D01*
X65919713Y-51799308D01*
X66063876Y-51655145D01*
X66177144Y-51485627D01*
X66255165Y-51297269D01*
X66294939Y-51097310D01*
X66294939Y-51077763D01*
X66454997Y-51045926D01*
X66643355Y-50967905D01*
X66812873Y-50854637D01*
X66957036Y-50710474D01*
X67070304Y-50540956D01*
X67148325Y-50352598D01*
X67188099Y-50152639D01*
X67188099Y-49948761D01*
X67148325Y-49748802D01*
X67070304Y-49560444D01*
X66957036Y-49390926D01*
X66812873Y-49246763D01*
X66643355Y-49133495D01*
X66454997Y-49055474D01*
X66255038Y-49015700D01*
X66051160Y-49015700D01*
X65851201Y-49055474D01*
X65662843Y-49133495D01*
X65493325Y-49246763D01*
X65349162Y-49390926D01*
X65235894Y-49560444D01*
X65157873Y-49748802D01*
X65118099Y-49948761D01*
X65118099Y-49968308D01*
X64958041Y-50000145D01*
X64769683Y-50078166D01*
X64600165Y-50191434D01*
X64456002Y-50335597D01*
X64342734Y-50505115D01*
X64264713Y-50693473D01*
X64224939Y-50893432D01*
X64224939Y-50955570D01*
X64118197Y-51062312D01*
X64089199Y-51086110D01*
X64065401Y-51115108D01*
X64065400Y-51115109D01*
X63994225Y-51201835D01*
X63923653Y-51333865D01*
X63880197Y-51477126D01*
X63865523Y-51626111D01*
X63577565Y-51626111D01*
X63631626Y-51495598D01*
X63671400Y-51295639D01*
X63671400Y-51091761D01*
X63631626Y-50891802D01*
X63553605Y-50703444D01*
X63440337Y-50533926D01*
X63296174Y-50389763D01*
X63126656Y-50276495D01*
X62938298Y-50198474D01*
X62738339Y-50158700D01*
X62534461Y-50158700D01*
X62334502Y-50198474D01*
X62146144Y-50276495D01*
X61976626Y-50389763D01*
X61832463Y-50533926D01*
X61719195Y-50703444D01*
X61641174Y-50891802D01*
X61601400Y-51091761D01*
X57872936Y-51091761D01*
X57839637Y-51041926D01*
X57695474Y-50897763D01*
X57525956Y-50784495D01*
X57337598Y-50706474D01*
X57137639Y-50666700D01*
X56943630Y-50666700D01*
X56911505Y-50589144D01*
X56798237Y-50419626D01*
X56654074Y-50275463D01*
X56484556Y-50162195D01*
X56296198Y-50084174D01*
X56096239Y-50044400D01*
X56022100Y-50044400D01*
X56022100Y-49832839D01*
X56008210Y-49691807D01*
X55953316Y-49510846D01*
X55864173Y-49344072D01*
X55744207Y-49197893D01*
X55598028Y-49077927D01*
X55431254Y-48988784D01*
X55250293Y-48933890D01*
X55062100Y-48915355D01*
X54873908Y-48933890D01*
X54692947Y-48988784D01*
X54526173Y-49077927D01*
X54379994Y-49197893D01*
X54260028Y-49344072D01*
X54170885Y-49510846D01*
X54115990Y-49691807D01*
X54102100Y-49832838D01*
X53557096Y-49832838D01*
X53603891Y-49775819D01*
X53698837Y-49598187D01*
X53757305Y-49405445D01*
X53777047Y-49205000D01*
X53757305Y-49004555D01*
X53698837Y-48811813D01*
X53603891Y-48634181D01*
X53476115Y-48478485D01*
X53320419Y-48350709D01*
X53142787Y-48255763D01*
X52950045Y-48197295D01*
X52799828Y-48182500D01*
X51924372Y-48182500D01*
X51774155Y-48197295D01*
X51581413Y-48255763D01*
X51498100Y-48300295D01*
X51498100Y-42539178D01*
X51536283Y-42149755D01*
X51640006Y-41806210D01*
X51808476Y-41489362D01*
X52035287Y-41211265D01*
X52311795Y-40982518D01*
X52627459Y-40811840D01*
X52970276Y-40705720D01*
X53357700Y-40665000D01*
X55477965Y-40665000D01*
X55459895Y-40692044D01*
G37*
G04 #@! TD.AperFunction*
D19*
X65947263Y-43675926D02*
X65833995Y-43845444D01*
X65755974Y-44033802D01*
X65716200Y-44233761D01*
X65716200Y-44437639D01*
X65755974Y-44637598D01*
X65789568Y-44718700D01*
X64627602Y-44718700D01*
X64183800Y-44274899D01*
X64183800Y-44226611D01*
X64227737Y-44182674D01*
X64341005Y-44013156D01*
X64419026Y-43824798D01*
X64458800Y-43624839D01*
X64458800Y-43562702D01*
X64464832Y-43556670D01*
X66066519Y-43556670D01*
X65947263Y-43675926D01*
G04 #@! TA.AperFunction,Conductor*
D20*
G36*
X65947263Y-43675926D02*
G01*
X65833995Y-43845444D01*
X65755974Y-44033802D01*
X65716200Y-44233761D01*
X65716200Y-44437639D01*
X65755974Y-44637598D01*
X65789568Y-44718700D01*
X64627602Y-44718700D01*
X64183800Y-44274899D01*
X64183800Y-44226611D01*
X64227737Y-44182674D01*
X64341005Y-44013156D01*
X64419026Y-43824798D01*
X64458800Y-43624839D01*
X64458800Y-43562702D01*
X64464832Y-43556670D01*
X66066519Y-43556670D01*
X65947263Y-43675926D01*
G37*
G04 #@! TD.AperFunction*
D19*
X70307826Y-42598537D02*
X70477344Y-42711805D01*
X70520795Y-42729803D01*
X69674899Y-43575700D01*
X67454911Y-43575700D01*
X67435881Y-43556670D01*
X68132110Y-43556670D01*
X68169432Y-43560346D01*
X68206754Y-43556670D01*
X68206765Y-43556670D01*
X68318418Y-43545673D01*
X68461679Y-43502216D01*
X68593708Y-43431644D01*
X68709433Y-43336671D01*
X68733236Y-43307668D01*
X69486304Y-42554600D01*
X70263889Y-42554600D01*
X70307826Y-42598537D01*
G04 #@! TA.AperFunction,Conductor*
D20*
G36*
X70307826Y-42598537D02*
G01*
X70477344Y-42711805D01*
X70520795Y-42729803D01*
X69674899Y-43575700D01*
X67454911Y-43575700D01*
X67435881Y-43556670D01*
X68132110Y-43556670D01*
X68169432Y-43560346D01*
X68206754Y-43556670D01*
X68206765Y-43556670D01*
X68318418Y-43545673D01*
X68461679Y-43502216D01*
X68593708Y-43431644D01*
X68709433Y-43336671D01*
X68733236Y-43307668D01*
X69486304Y-42554600D01*
X70263889Y-42554600D01*
X70307826Y-42598537D01*
G37*
G04 #@! TD.AperFunction*
D19*
X78028800Y-64745000D02*
X70485000Y-64745000D01*
X70485000Y-60246232D01*
X70658100Y-60246232D01*
X70658100Y-60469808D01*
X70701717Y-60689087D01*
X70787276Y-60895644D01*
X70911488Y-61081540D01*
X71069580Y-61239632D01*
X71255476Y-61363844D01*
X71462033Y-61449403D01*
X71681312Y-61493020D01*
X71904888Y-61493020D01*
X72124167Y-61449403D01*
X72330724Y-61363844D01*
X72428100Y-61298779D01*
X72525476Y-61363844D01*
X72732033Y-61449403D01*
X72951312Y-61493020D01*
X73174888Y-61493020D01*
X73394167Y-61449403D01*
X73600724Y-61363844D01*
X73698100Y-61298779D01*
X73795476Y-61363844D01*
X74002033Y-61449403D01*
X74221312Y-61493020D01*
X74444888Y-61493020D01*
X74664167Y-61449403D01*
X74775874Y-61403132D01*
X74858920Y-61447522D01*
X74978618Y-61483832D01*
X75103100Y-61496092D01*
X75317350Y-61493020D01*
X75476100Y-61334270D01*
X75476100Y-60485020D01*
X75730100Y-60485020D01*
X75730100Y-61334270D01*
X75888850Y-61493020D01*
X76103100Y-61496092D01*
X76227582Y-61483832D01*
X76347280Y-61447522D01*
X76457594Y-61388557D01*
X76554285Y-61309205D01*
X76633637Y-61212514D01*
X76692602Y-61102200D01*
X76728912Y-60982502D01*
X76741172Y-60858020D01*
X76738100Y-60643770D01*
X76579350Y-60485020D01*
X75730100Y-60485020D01*
X75476100Y-60485020D01*
X75465074Y-60485020D01*
X75468100Y-60469808D01*
X75468100Y-60246232D01*
X75465074Y-60231020D01*
X75476100Y-60231020D01*
X75476100Y-59381770D01*
X75730100Y-59381770D01*
X75730100Y-60231020D01*
X76579350Y-60231020D01*
X76738100Y-60072270D01*
X76741172Y-59858020D01*
X76728912Y-59733538D01*
X76692602Y-59613840D01*
X76633637Y-59503526D01*
X76554285Y-59406835D01*
X76457594Y-59327483D01*
X76347280Y-59268518D01*
X76227582Y-59232208D01*
X76103100Y-59219948D01*
X75888850Y-59223020D01*
X75730100Y-59381770D01*
X75476100Y-59381770D01*
X75317350Y-59223020D01*
X75103100Y-59219948D01*
X74978618Y-59232208D01*
X74858920Y-59268518D01*
X74775874Y-59312908D01*
X74664167Y-59266637D01*
X74444888Y-59223020D01*
X74221312Y-59223020D01*
X74002033Y-59266637D01*
X73795476Y-59352196D01*
X73698100Y-59417261D01*
X73600724Y-59352196D01*
X73394167Y-59266637D01*
X73174888Y-59223020D01*
X72951312Y-59223020D01*
X72732033Y-59266637D01*
X72525476Y-59352196D01*
X72428100Y-59417261D01*
X72330724Y-59352196D01*
X72124167Y-59266637D01*
X71904888Y-59223020D01*
X71681312Y-59223020D01*
X71462033Y-59266637D01*
X71255476Y-59352196D01*
X71069580Y-59476408D01*
X70911488Y-59634500D01*
X70787276Y-59820396D01*
X70701717Y-60026953D01*
X70658100Y-60246232D01*
X70485000Y-60246232D01*
X70485000Y-59866947D01*
X71515506Y-58836441D01*
X72885300Y-58836441D01*
X72910076Y-58834001D01*
X72933901Y-58826774D01*
X72955857Y-58815038D01*
X72975103Y-58799244D01*
X73433206Y-58341141D01*
X78028800Y-58341141D01*
X78028800Y-64745000D01*
G04 #@! TA.AperFunction,Conductor*
D20*
G36*
X78028800Y-64745000D02*
G01*
X70485000Y-64745000D01*
X70485000Y-60246232D01*
X70658100Y-60246232D01*
X70658100Y-60469808D01*
X70701717Y-60689087D01*
X70787276Y-60895644D01*
X70911488Y-61081540D01*
X71069580Y-61239632D01*
X71255476Y-61363844D01*
X71462033Y-61449403D01*
X71681312Y-61493020D01*
X71904888Y-61493020D01*
X72124167Y-61449403D01*
X72330724Y-61363844D01*
X72428100Y-61298779D01*
X72525476Y-61363844D01*
X72732033Y-61449403D01*
X72951312Y-61493020D01*
X73174888Y-61493020D01*
X73394167Y-61449403D01*
X73600724Y-61363844D01*
X73698100Y-61298779D01*
X73795476Y-61363844D01*
X74002033Y-61449403D01*
X74221312Y-61493020D01*
X74444888Y-61493020D01*
X74664167Y-61449403D01*
X74775874Y-61403132D01*
X74858920Y-61447522D01*
X74978618Y-61483832D01*
X75103100Y-61496092D01*
X75317350Y-61493020D01*
X75476100Y-61334270D01*
X75476100Y-60485020D01*
X75730100Y-60485020D01*
X75730100Y-61334270D01*
X75888850Y-61493020D01*
X76103100Y-61496092D01*
X76227582Y-61483832D01*
X76347280Y-61447522D01*
X76457594Y-61388557D01*
X76554285Y-61309205D01*
X76633637Y-61212514D01*
X76692602Y-61102200D01*
X76728912Y-60982502D01*
X76741172Y-60858020D01*
X76738100Y-60643770D01*
X76579350Y-60485020D01*
X75730100Y-60485020D01*
X75476100Y-60485020D01*
X75465074Y-60485020D01*
X75468100Y-60469808D01*
X75468100Y-60246232D01*
X75465074Y-60231020D01*
X75476100Y-60231020D01*
X75476100Y-59381770D01*
X75730100Y-59381770D01*
X75730100Y-60231020D01*
X76579350Y-60231020D01*
X76738100Y-60072270D01*
X76741172Y-59858020D01*
X76728912Y-59733538D01*
X76692602Y-59613840D01*
X76633637Y-59503526D01*
X76554285Y-59406835D01*
X76457594Y-59327483D01*
X76347280Y-59268518D01*
X76227582Y-59232208D01*
X76103100Y-59219948D01*
X75888850Y-59223020D01*
X75730100Y-59381770D01*
X75476100Y-59381770D01*
X75317350Y-59223020D01*
X75103100Y-59219948D01*
X74978618Y-59232208D01*
X74858920Y-59268518D01*
X74775874Y-59312908D01*
X74664167Y-59266637D01*
X74444888Y-59223020D01*
X74221312Y-59223020D01*
X74002033Y-59266637D01*
X73795476Y-59352196D01*
X73698100Y-59417261D01*
X73600724Y-59352196D01*
X73394167Y-59266637D01*
X73174888Y-59223020D01*
X72951312Y-59223020D01*
X72732033Y-59266637D01*
X72525476Y-59352196D01*
X72428100Y-59417261D01*
X72330724Y-59352196D01*
X72124167Y-59266637D01*
X71904888Y-59223020D01*
X71681312Y-59223020D01*
X71462033Y-59266637D01*
X71255476Y-59352196D01*
X71069580Y-59476408D01*
X70911488Y-59634500D01*
X70787276Y-59820396D01*
X70701717Y-60026953D01*
X70658100Y-60246232D01*
X70485000Y-60246232D01*
X70485000Y-59866947D01*
X71515506Y-58836441D01*
X72885300Y-58836441D01*
X72910076Y-58834001D01*
X72933901Y-58826774D01*
X72955857Y-58815038D01*
X72975103Y-58799244D01*
X73433206Y-58341141D01*
X78028800Y-58341141D01*
X78028800Y-64745000D01*
G37*
G04 #@! TD.AperFunction*
M02*
