G04 #@! TF.GenerationSoftware,KiCad,Pcbnew,(5.1.10)-1*
G04 #@! TF.CreationDate,2021-11-16T23:48:59-08:00*
G04 #@! TF.ProjectId,DigitalFadingLED,44696769-7461-46c4-9661-64696e674c45,rev?*
G04 #@! TF.SameCoordinates,Original*
G04 #@! TF.FileFunction,Paste,Bot*
G04 #@! TF.FilePolarity,Positive*
%FSLAX46Y46*%
G04 Gerber Fmt 4.6, Leading zero omitted, Abs format (unit mm)*
G04 Created by KiCad (PCBNEW (5.1.10)-1) date 2021-11-16 23:48:59*
%MOMM*%
%LPD*%
G01*
G04 APERTURE LIST*
%ADD10C,0.100000*%
%ADD11R,0.800000X0.750000*%
%ADD12R,0.750000X0.800000*%
%ADD13R,2.030000X1.650000*%
%ADD14R,0.500000X0.900000*%
%ADD15R,1.000000X0.600000*%
%ADD16R,1.100000X0.600000*%
%ADD17R,0.900000X0.500000*%
G04 APERTURE END LIST*
D10*
G36*
X75773700Y-57076400D02*
G01*
X75773700Y-58076400D01*
X75323700Y-57626400D01*
X74873700Y-58076400D01*
X74873700Y-57076400D01*
X75773700Y-57076400D01*
G37*
G36*
X75323700Y-57776400D02*
G01*
X75773700Y-58226400D01*
X75773700Y-59076400D01*
X74873700Y-59076400D01*
X74873700Y-58226400D01*
X75323700Y-57776400D01*
G37*
G36*
X65967800Y-50718300D02*
G01*
X66967800Y-50718300D01*
X66517800Y-51168300D01*
X66967800Y-51618300D01*
X65967800Y-51618300D01*
X65967800Y-50718300D01*
G37*
G36*
X66667800Y-51168300D02*
G01*
X67117800Y-50718300D01*
X67967800Y-50718300D01*
X67967800Y-51618300D01*
X67117800Y-51618300D01*
X66667800Y-51168300D01*
G37*
G36*
X65966400Y-54629900D02*
G01*
X66966400Y-54629900D01*
X66516400Y-55079900D01*
X66966400Y-55529900D01*
X65966400Y-55529900D01*
X65966400Y-54629900D01*
G37*
G36*
X66666400Y-55079900D02*
G01*
X67116400Y-54629900D01*
X67966400Y-54629900D01*
X67966400Y-55529900D01*
X67116400Y-55529900D01*
X66666400Y-55079900D01*
G37*
G36*
X63608800Y-53959700D02*
G01*
X63608800Y-52959700D01*
X64058800Y-53409700D01*
X64508800Y-52959700D01*
X64508800Y-53959700D01*
X63608800Y-53959700D01*
G37*
G36*
X64058800Y-53259700D02*
G01*
X63608800Y-52809700D01*
X63608800Y-51959700D01*
X64508800Y-51959700D01*
X64508800Y-52809700D01*
X64058800Y-53259700D01*
G37*
G36*
X65966400Y-52013700D02*
G01*
X66966400Y-52013700D01*
X66516400Y-52463700D01*
X66966400Y-52913700D01*
X65966400Y-52913700D01*
X65966400Y-52013700D01*
G37*
G36*
X66666400Y-52463700D02*
G01*
X67116400Y-52013700D01*
X67966400Y-52013700D01*
X67966400Y-52913700D01*
X67116400Y-52913700D01*
X66666400Y-52463700D01*
G37*
G36*
X65966400Y-53334500D02*
G01*
X66966400Y-53334500D01*
X66516400Y-53784500D01*
X66966400Y-54234500D01*
X65966400Y-54234500D01*
X65966400Y-53334500D01*
G37*
G36*
X66666400Y-53784500D02*
G01*
X67116400Y-53334500D01*
X67966400Y-53334500D01*
X67966400Y-54234500D01*
X67116400Y-54234500D01*
X66666400Y-53784500D01*
G37*
D11*
X61342400Y-53378100D03*
X59842400Y-53378100D03*
X59841700Y-54762400D03*
X61341700Y-54762400D03*
X55627400Y-48247300D03*
X54127400Y-48247300D03*
X60960000Y-59728100D03*
X62460000Y-59728100D03*
X58891300Y-42418000D03*
X57391300Y-42418000D03*
D12*
X77597000Y-50318800D03*
X77597000Y-48818800D03*
X76225400Y-50318100D03*
X76225400Y-48818100D03*
D11*
X69202300Y-57365900D03*
X67702300Y-57365900D03*
X73926700Y-58699400D03*
X72426700Y-58699400D03*
X72428100Y-57302400D03*
X73928100Y-57302400D03*
X57377900Y-62750700D03*
X58877900Y-62750700D03*
D12*
X58432700Y-53366800D03*
X58432700Y-51866800D03*
D13*
X52324000Y-51137700D03*
X52324000Y-54297700D03*
D14*
X54024400Y-57251600D03*
X55524400Y-57251600D03*
X84658200Y-53555900D03*
X86158200Y-53555900D03*
X86158200Y-51904900D03*
X84658200Y-51904900D03*
X86157500Y-50253900D03*
X84657500Y-50253900D03*
X58928000Y-43891200D03*
X57428000Y-43891200D03*
X73393300Y-52412900D03*
X74893300Y-52412900D03*
X58789000Y-61277500D03*
X57289000Y-61277500D03*
X84658200Y-55219600D03*
X86158200Y-55219600D03*
D15*
X56908700Y-58214300D03*
X56908700Y-57264300D03*
X56908700Y-59164300D03*
X59508700Y-59164300D03*
X59508700Y-57264300D03*
X80632300Y-49288700D03*
X80632300Y-48338700D03*
X80632300Y-47388700D03*
X83232300Y-47388700D03*
X83232300Y-48338700D03*
X83232300Y-49288700D03*
X80632300Y-58000900D03*
X83232300Y-58000900D03*
X80632300Y-57050900D03*
X80632300Y-56100900D03*
X83232300Y-57050900D03*
X83232300Y-56100900D03*
D16*
X65532000Y-44335700D03*
X65532000Y-43385700D03*
X68332000Y-42435700D03*
X65532000Y-42435700D03*
X68332000Y-43385700D03*
X68332000Y-44335700D03*
D14*
X54000400Y-46774100D03*
X55500400Y-46774100D03*
D11*
X55486300Y-59728100D03*
X53986300Y-59728100D03*
D17*
X70967600Y-43546900D03*
X70967600Y-45046900D03*
X72529700Y-45035600D03*
X72529700Y-43535600D03*
M02*
