M48
; DRILL file {KiCad (5.1.10)-1} date 11/16/21 23:49:04
; FORMAT={-:-/ absolute / metric / decimal}
; #@! TF.CreationDate,2021-11-16T23:49:04-08:00
; #@! TF.GenerationSoftware,Kicad,Pcbnew,(5.1.10)-1
; #@! TF.FileFunction,Plated,1,4,PTH
FMAT,2
METRIC
T1C0.400
T2C0.500
T3C0.550
T4C0.600
T5C0.650
T6C2.200
%
G90
G05
T1
X51.867Y-58.61
X51.905Y-60.3
X52.807Y-45.999
X53.988Y-58.56
X55.448Y-45.174
X55.486Y-60.63
X55.651Y-58.522
X55.994Y-51.079
X56.109Y-43.713
X56.121Y-61.557
X56.172Y-54.369
X56.451Y-49.746
X56.731Y-45.136
X56.909Y-53.023
X57.036Y-51.702
X57.658Y-47.612
X58.141Y-45.212
X58.153Y-41.173
X59.83Y-52.42
X60.02Y-45.174
X60.528Y-50.97
X60.681Y-62.89
X60.744Y-42.52
X60.82Y-55.74
X60.985Y-52.477
X61.125Y-57.645
X61.644Y-51.07
X61.925Y-45.771
X62.166Y-41.008
X62.37Y-64.402
X62.636Y-51.194
X62.649Y-54.254
X63.424Y-43.523
X63.576Y-59.728
X64.262Y-47.688
X64.45Y-43.522
X64.567Y-48.997
X65.26Y-50.995
X65.341Y-56.921
X65.354Y-54.927
X65.443Y-64.427
X66.153Y-46.926
X66.153Y-50.051
X66.751Y-44.336
X67.818Y-56.477
X68.313Y-41.58
X68.466Y-64.44
X69.012Y-55.016
X69.228Y-56.159
X69.774Y-43.315
X70.409Y-54.28
X70.778Y-51.022
X70.877Y-53.396
X70.968Y-41.795
X71.628Y-50.495
X71.666Y-54.94
X72.441Y-56.21
X72.487Y-51.007
X72.53Y-41.796
X73.328Y-50.015
X74.714Y-55.677
X74.879Y-50.038
X74.892Y-51.038
X77.394Y-40.97
X77.673Y-54.496
X77.775Y-53.467
X78.435Y-52.667
X78.664Y-46.736
X78.715Y-50.33
X79.527Y-48.349
X79.629Y-58.039
X80.632Y-46.482
X81.064Y-64.364
X81.89Y-49.187
X81.928Y-58.014
X82.144Y-56.578
X83.414Y-52.222
X83.465Y-51.224
X83.553Y-40.97
X84.468Y-48.92
X87.135Y-50.267
X87.135Y-51.905
X87.198Y-53.556
X87.909Y-45.415
X87.909Y-60.287
X87.922Y-55.588
X87.935Y-48.171
T4
X56.374Y-64.228
X56.377Y-41.182
X60.034Y-64.228
X60.037Y-41.182
T5
X69.888Y-46.736
X71.158Y-46.736
X71.793Y-60.358
X72.428Y-46.736
X73.063Y-60.358
X73.698Y-46.736
X74.333Y-60.358
X74.968Y-46.736
X75.603Y-60.358
X76.238Y-46.736
X77.508Y-46.736
T6
X53.34Y-42.507
X53.34Y-62.903
X86.449Y-42.507
X86.449Y-62.903
T2
X52.687Y-49.205G85X52.037Y-49.205
G05
X52.687Y-56.205G85X52.037Y-56.205
G05
T3
X55.062Y-50.055G85X55.062Y-50.355
G05
X55.062Y-55.055G85X55.062Y-55.355
G05
T0
M30
