G04 #@! TF.GenerationSoftware,KiCad,Pcbnew,(5.1.10)-1*
G04 #@! TF.CreationDate,2021-11-16T23:48:59-08:00*
G04 #@! TF.ProjectId,DigitalFadingLED,44696769-7461-46c4-9661-64696e674c45,rev?*
G04 #@! TF.SameCoordinates,Original*
G04 #@! TF.FileFunction,Legend,Bot*
G04 #@! TF.FilePolarity,Positive*
%FSLAX46Y46*%
G04 Gerber Fmt 4.6, Leading zero omitted, Abs format (unit mm)*
G04 Created by KiCad (PCBNEW (5.1.10)-1) date 2021-11-16 23:48:59*
%MOMM*%
%LPD*%
G01*
G04 APERTURE LIST*
%ADD10C,0.010000*%
%ADD11C,0.120000*%
%ADD12C,0.150000*%
%ADD13C,0.500000*%
%ADD14C,1.000000*%
%ADD15R,1.000000X1.000000*%
%ADD16C,0.100000*%
%ADD17C,0.800000*%
%ADD18C,4.399999*%
%ADD19R,0.800000X0.750000*%
%ADD20R,0.750000X0.800000*%
%ADD21R,2.030000X1.650000*%
%ADD22R,0.500000X0.900000*%
%ADD23O,1.550000X0.775000*%
%ADD24O,0.650000X1.300000*%
%ADD25R,1.000000X0.600000*%
%ADD26R,1.100000X0.600000*%
%ADD27R,0.900000X0.500000*%
G04 APERTURE END LIST*
D10*
G36*
X80474235Y-43593895D02*
G01*
X80475543Y-43598122D01*
X80477189Y-43602520D01*
X80480030Y-43609875D01*
X80483382Y-43618833D01*
X80486159Y-43626454D01*
X80488788Y-43633381D01*
X80491160Y-43638911D01*
X80492802Y-43641951D01*
X80492916Y-43642085D01*
X80493132Y-43641268D01*
X80492188Y-43637472D01*
X80490274Y-43631385D01*
X80488813Y-43627131D01*
X80484544Y-43615364D01*
X80480735Y-43605536D01*
X80477581Y-43598109D01*
X80475277Y-43593545D01*
X80474136Y-43592262D01*
X80474235Y-43593895D01*
G37*
X80474235Y-43593895D02*
X80475543Y-43598122D01*
X80477189Y-43602520D01*
X80480030Y-43609875D01*
X80483382Y-43618833D01*
X80486159Y-43626454D01*
X80488788Y-43633381D01*
X80491160Y-43638911D01*
X80492802Y-43641951D01*
X80492916Y-43642085D01*
X80493132Y-43641268D01*
X80492188Y-43637472D01*
X80490274Y-43631385D01*
X80488813Y-43627131D01*
X80484544Y-43615364D01*
X80480735Y-43605536D01*
X80477581Y-43598109D01*
X80475277Y-43593545D01*
X80474136Y-43592262D01*
X80474235Y-43593895D01*
G36*
X76325046Y-40359360D02*
G01*
X76325046Y-40359372D01*
X76325865Y-40361321D01*
X76328190Y-40366371D01*
X76331824Y-40374107D01*
X76336571Y-40384114D01*
X76342234Y-40395975D01*
X76348615Y-40409276D01*
X76353597Y-40419619D01*
X76398719Y-40514451D01*
X76444232Y-40612646D01*
X76489910Y-40713708D01*
X76535530Y-40817139D01*
X76580868Y-40922445D01*
X76585385Y-40933077D01*
X76596431Y-40959187D01*
X76606185Y-40982441D01*
X76614933Y-41003557D01*
X76622963Y-41023256D01*
X76630560Y-41042255D01*
X76638010Y-41061273D01*
X76645600Y-41081030D01*
X76653617Y-41102244D01*
X76662346Y-41125634D01*
X76665931Y-41135300D01*
X76675578Y-41160501D01*
X76685820Y-41185526D01*
X76696891Y-41210861D01*
X76709022Y-41236996D01*
X76722447Y-41264416D01*
X76737397Y-41293611D01*
X76754105Y-41325067D01*
X76772122Y-41358039D01*
X76820078Y-41440929D01*
X76871616Y-41522629D01*
X76926513Y-41602827D01*
X76984543Y-41681210D01*
X77045481Y-41757465D01*
X77109103Y-41831280D01*
X77126949Y-41851011D01*
X77136666Y-41861792D01*
X77144036Y-41870366D01*
X77149478Y-41877282D01*
X77153412Y-41883093D01*
X77156257Y-41888350D01*
X77157469Y-41891103D01*
X77165849Y-41907771D01*
X77176417Y-41921722D01*
X77189678Y-41933490D01*
X77206140Y-41943611D01*
X77208184Y-41944654D01*
X77213348Y-41947452D01*
X77218579Y-41950796D01*
X77224335Y-41955062D01*
X77231078Y-41960628D01*
X77239264Y-41967870D01*
X77249355Y-41977166D01*
X77260120Y-41987294D01*
X77271194Y-41997625D01*
X77282364Y-42007774D01*
X77293009Y-42017198D01*
X77302512Y-42025354D01*
X77310254Y-42031700D01*
X77314219Y-42034722D01*
X77321670Y-42040511D01*
X77330854Y-42048269D01*
X77340801Y-42057143D01*
X77350539Y-42066278D01*
X77354436Y-42070090D01*
X77363502Y-42078817D01*
X77372916Y-42087408D01*
X77381801Y-42095097D01*
X77389283Y-42101113D01*
X77392168Y-42103215D01*
X77398974Y-42107995D01*
X77407917Y-42114392D01*
X77418001Y-42121686D01*
X77428230Y-42129159D01*
X77431900Y-42131861D01*
X77457349Y-42150299D01*
X77482050Y-42167519D01*
X77505150Y-42182932D01*
X77515235Y-42189400D01*
X77534560Y-42201884D01*
X77551315Y-42213277D01*
X77565233Y-42223388D01*
X77576045Y-42232026D01*
X77579761Y-42235322D01*
X77590858Y-42245596D01*
X77583671Y-42246802D01*
X77574662Y-42248260D01*
X77562388Y-42250170D01*
X77547454Y-42252441D01*
X77530464Y-42254987D01*
X77512023Y-42257718D01*
X77492738Y-42260546D01*
X77473212Y-42263383D01*
X77454050Y-42266140D01*
X77435859Y-42268729D01*
X77419241Y-42271061D01*
X77404804Y-42273048D01*
X77395753Y-42274262D01*
X77359447Y-42278920D01*
X77326153Y-42282896D01*
X77295052Y-42286258D01*
X77265321Y-42289071D01*
X77236139Y-42291404D01*
X77206685Y-42293323D01*
X77176136Y-42294896D01*
X77143672Y-42296189D01*
X77117330Y-42297023D01*
X77096177Y-42297674D01*
X77078224Y-42298334D01*
X77062768Y-42299052D01*
X77049101Y-42299874D01*
X77036519Y-42300847D01*
X77024315Y-42302019D01*
X77011783Y-42303437D01*
X77001077Y-42304775D01*
X76907409Y-42316294D01*
X76816557Y-42326281D01*
X76727761Y-42334783D01*
X76640265Y-42341851D01*
X76553309Y-42347534D01*
X76466137Y-42351880D01*
X76377989Y-42354940D01*
X76288108Y-42356762D01*
X76195736Y-42357395D01*
X76190230Y-42357396D01*
X76121736Y-42357107D01*
X76056279Y-42356233D01*
X75993024Y-42354742D01*
X75931141Y-42352602D01*
X75869796Y-42349780D01*
X75808157Y-42346242D01*
X75745391Y-42341957D01*
X75692000Y-42337822D01*
X75651107Y-42334329D01*
X75609165Y-42330425D01*
X75566517Y-42326157D01*
X75523509Y-42321570D01*
X75480485Y-42316711D01*
X75437792Y-42311624D01*
X75395773Y-42306357D01*
X75354775Y-42300954D01*
X75315141Y-42295463D01*
X75277218Y-42289927D01*
X75241350Y-42284394D01*
X75207882Y-42278910D01*
X75177159Y-42273519D01*
X75149526Y-42268269D01*
X75125329Y-42263205D01*
X75117815Y-42261503D01*
X75084258Y-42253978D01*
X75049914Y-42246745D01*
X75015885Y-42240021D01*
X74983274Y-42234022D01*
X74953182Y-42228965D01*
X74950515Y-42228545D01*
X74936510Y-42226307D01*
X74921866Y-42223887D01*
X74907755Y-42221485D01*
X74895345Y-42219299D01*
X74887015Y-42217761D01*
X74874496Y-42215612D01*
X74864594Y-42214420D01*
X74857783Y-42214238D01*
X74856050Y-42214455D01*
X74849508Y-42215816D01*
X74858981Y-42222519D01*
X74869886Y-42230378D01*
X74883218Y-42240219D01*
X74898363Y-42251572D01*
X74914703Y-42263967D01*
X74931624Y-42276935D01*
X74948509Y-42290005D01*
X74964743Y-42302708D01*
X74979710Y-42314575D01*
X74980800Y-42315447D01*
X75058515Y-42379891D01*
X75133897Y-42446985D01*
X75207171Y-42516951D01*
X75278567Y-42590012D01*
X75348311Y-42666391D01*
X75396989Y-42722800D01*
X75416709Y-42745679D01*
X75438857Y-42770479D01*
X75462865Y-42796609D01*
X75488167Y-42823478D01*
X75514197Y-42850498D01*
X75540387Y-42877076D01*
X75566171Y-42902623D01*
X75590982Y-42926548D01*
X75607007Y-42941589D01*
X75681840Y-43008772D01*
X75757337Y-43072233D01*
X75833471Y-43131954D01*
X75910217Y-43187920D01*
X75987545Y-43240112D01*
X76065430Y-43288513D01*
X76143844Y-43333107D01*
X76222760Y-43373876D01*
X76302151Y-43410803D01*
X76381990Y-43443871D01*
X76431600Y-43462391D01*
X76470991Y-43475997D01*
X76512406Y-43489401D01*
X76554694Y-43502260D01*
X76596698Y-43514232D01*
X76637267Y-43524975D01*
X76665992Y-43532003D01*
X76677653Y-43534910D01*
X76691985Y-43538746D01*
X76707948Y-43543217D01*
X76724502Y-43548028D01*
X76740607Y-43552887D01*
X76748053Y-43555206D01*
X76837211Y-43581920D01*
X76925329Y-43605468D01*
X77013000Y-43625958D01*
X77100817Y-43643499D01*
X77189371Y-43658201D01*
X77279255Y-43670170D01*
X77371062Y-43679518D01*
X77460230Y-43686046D01*
X77477968Y-43686941D01*
X77498918Y-43687713D01*
X77522386Y-43688356D01*
X77547678Y-43688864D01*
X77574101Y-43689231D01*
X77600960Y-43689451D01*
X77627561Y-43689519D01*
X77653212Y-43689428D01*
X77677217Y-43689174D01*
X77698883Y-43688749D01*
X77716184Y-43688201D01*
X77804324Y-43683575D01*
X77889976Y-43676711D01*
X77973906Y-43667534D01*
X78056879Y-43655971D01*
X78069746Y-43653953D01*
X78109884Y-43647566D01*
X78132729Y-43652019D01*
X78176669Y-43662128D01*
X78220515Y-43675210D01*
X78263664Y-43691003D01*
X78305510Y-43709248D01*
X78345448Y-43729685D01*
X78382871Y-43752051D01*
X78411964Y-43772172D01*
X78425532Y-43782230D01*
X78421434Y-43788358D01*
X78413240Y-43803504D01*
X78407377Y-43820425D01*
X78404296Y-43837650D01*
X78403938Y-43845281D01*
X78403559Y-43851771D01*
X78402282Y-43858979D01*
X78399895Y-43867783D01*
X78396189Y-43879056D01*
X78394990Y-43882482D01*
X78375613Y-43942134D01*
X78358679Y-44004273D01*
X78344298Y-44068251D01*
X78332578Y-44133419D01*
X78323631Y-44199130D01*
X78317565Y-44264736D01*
X78314490Y-44329589D01*
X78314109Y-44360123D01*
X78315869Y-44430861D01*
X78321195Y-44502431D01*
X78329992Y-44574298D01*
X78342166Y-44645923D01*
X78357622Y-44716768D01*
X78376268Y-44786297D01*
X78398008Y-44853971D01*
X78403039Y-44868123D01*
X78407624Y-44880765D01*
X78411740Y-44891940D01*
X78415572Y-44901996D01*
X78419306Y-44911280D01*
X78423127Y-44920141D01*
X78427219Y-44928924D01*
X78431767Y-44937977D01*
X78436957Y-44947648D01*
X78442973Y-44958284D01*
X78450001Y-44970232D01*
X78458225Y-44983839D01*
X78467830Y-44999452D01*
X78479002Y-45017420D01*
X78491925Y-45038089D01*
X78502954Y-45055693D01*
X78529143Y-45097515D01*
X78553340Y-45136225D01*
X78575654Y-45172005D01*
X78596193Y-45205037D01*
X78615065Y-45235504D01*
X78632380Y-45263589D01*
X78648245Y-45289473D01*
X78662769Y-45313341D01*
X78676061Y-45335373D01*
X78688230Y-45355753D01*
X78699383Y-45374663D01*
X78709629Y-45392285D01*
X78719078Y-45408803D01*
X78727836Y-45424399D01*
X78736014Y-45439254D01*
X78743718Y-45453553D01*
X78751059Y-45467477D01*
X78758144Y-45481209D01*
X78765082Y-45494931D01*
X78770131Y-45505077D01*
X78780433Y-45526122D01*
X78789275Y-45544725D01*
X78797086Y-45561868D01*
X78804294Y-45578529D01*
X78811329Y-45595690D01*
X78818618Y-45614330D01*
X78823402Y-45626925D01*
X78842555Y-45682573D01*
X78859089Y-45740631D01*
X78872918Y-45800532D01*
X78883954Y-45861707D01*
X78892109Y-45923588D01*
X78897294Y-45985608D01*
X78899421Y-46047198D01*
X78898403Y-46107791D01*
X78898291Y-46110280D01*
X78897591Y-46125550D01*
X78896875Y-46141271D01*
X78896188Y-46156458D01*
X78895573Y-46170125D01*
X78895077Y-46181289D01*
X78894914Y-46185009D01*
X78895164Y-46223324D01*
X78899269Y-46261488D01*
X78907237Y-46299516D01*
X78919074Y-46337422D01*
X78934786Y-46375221D01*
X78954379Y-46412929D01*
X78977860Y-46450560D01*
X79005235Y-46488129D01*
X79036510Y-46525650D01*
X79042014Y-46531803D01*
X79084416Y-46577592D01*
X79125994Y-46620079D01*
X79167204Y-46659654D01*
X79208498Y-46696707D01*
X79250332Y-46731628D01*
X79293160Y-46764808D01*
X79337437Y-46796637D01*
X79383617Y-46827505D01*
X79394538Y-46834499D01*
X79409393Y-46844003D01*
X79423046Y-46852898D01*
X79436079Y-46861588D01*
X79449073Y-46870477D01*
X79462607Y-46879971D01*
X79477264Y-46890473D01*
X79493623Y-46902388D01*
X79512265Y-46916120D01*
X79520498Y-46922217D01*
X79540942Y-46937383D01*
X79558561Y-46950473D01*
X79573675Y-46961729D01*
X79586603Y-46971394D01*
X79597667Y-46979711D01*
X79607186Y-46986922D01*
X79615479Y-46993270D01*
X79622869Y-46998997D01*
X79629673Y-47004345D01*
X79636214Y-47009559D01*
X79642810Y-47014879D01*
X79643275Y-47015256D01*
X79657211Y-47026545D01*
X79668496Y-47035650D01*
X79677505Y-47042863D01*
X79684616Y-47048471D01*
X79690204Y-47052764D01*
X79694645Y-47056031D01*
X79698314Y-47058562D01*
X79701587Y-47060646D01*
X79704461Y-47062353D01*
X79711221Y-47066118D01*
X79715090Y-47067831D01*
X79716433Y-47067600D01*
X79715721Y-47065712D01*
X79713524Y-47062636D01*
X79709178Y-47057098D01*
X79703092Y-47049591D01*
X79695675Y-47040605D01*
X79687337Y-47030634D01*
X79678485Y-47020169D01*
X79669531Y-47009703D01*
X79660882Y-46999726D01*
X79660065Y-46998793D01*
X79650344Y-46987978D01*
X79638400Y-46975160D01*
X79624812Y-46960921D01*
X79610157Y-46945843D01*
X79595012Y-46930509D01*
X79579954Y-46915503D01*
X79565561Y-46901405D01*
X79552410Y-46888800D01*
X79541078Y-46878270D01*
X79537169Y-46874755D01*
X79524112Y-46862735D01*
X79508986Y-46848070D01*
X79492162Y-46831165D01*
X79474010Y-46812427D01*
X79454902Y-46792262D01*
X79435209Y-46771077D01*
X79415301Y-46749278D01*
X79395550Y-46727272D01*
X79376327Y-46705464D01*
X79358002Y-46684262D01*
X79340946Y-46664071D01*
X79325531Y-46645299D01*
X79312127Y-46628351D01*
X79311519Y-46627562D01*
X79277685Y-46580866D01*
X79245532Y-46530957D01*
X79215252Y-46478236D01*
X79187040Y-46423104D01*
X79161089Y-46365961D01*
X79137593Y-46307209D01*
X79116745Y-46247248D01*
X79098870Y-46186970D01*
X79095371Y-46173839D01*
X79091849Y-46160229D01*
X79088445Y-46146721D01*
X79085300Y-46133900D01*
X79082554Y-46122350D01*
X79080347Y-46112654D01*
X79078820Y-46105397D01*
X79078114Y-46101161D01*
X79078083Y-46100575D01*
X79078690Y-46101294D01*
X79080294Y-46105098D01*
X79082652Y-46111370D01*
X79085519Y-46119490D01*
X79085544Y-46119562D01*
X79101346Y-46160340D01*
X79119881Y-46198591D01*
X79141298Y-46234513D01*
X79165746Y-46268303D01*
X79193375Y-46300157D01*
X79224334Y-46330274D01*
X79258774Y-46358851D01*
X79277307Y-46372597D01*
X79294470Y-46384459D01*
X79312228Y-46395855D01*
X79331228Y-46407159D01*
X79352117Y-46418747D01*
X79375544Y-46430994D01*
X79395515Y-46441007D01*
X79459303Y-46474432D01*
X79523150Y-46511714D01*
X79586984Y-46552806D01*
X79650733Y-46597657D01*
X79714325Y-46646221D01*
X79777690Y-46698449D01*
X79780264Y-46700652D01*
X79794421Y-46712753D01*
X79809983Y-46725994D01*
X79826059Y-46739622D01*
X79841760Y-46752884D01*
X79856193Y-46765025D01*
X79867369Y-46774374D01*
X79880570Y-46785418D01*
X79892263Y-46795310D01*
X79903026Y-46804564D01*
X79913437Y-46813692D01*
X79924073Y-46823211D01*
X79935510Y-46833633D01*
X79948327Y-46845472D01*
X79963100Y-46859244D01*
X79971395Y-46867009D01*
X79982611Y-46877399D01*
X79993716Y-46887461D01*
X80004328Y-46896872D01*
X80014067Y-46905308D01*
X80022552Y-46912444D01*
X80029404Y-46917957D01*
X80034240Y-46921522D01*
X80036681Y-46922814D01*
X80036856Y-46922765D01*
X80036121Y-46920843D01*
X80033127Y-46916255D01*
X80028131Y-46909324D01*
X80021392Y-46900372D01*
X80013167Y-46889721D01*
X80003715Y-46877694D01*
X79993294Y-46864613D01*
X79982161Y-46850802D01*
X79970574Y-46836582D01*
X79958793Y-46822277D01*
X79947074Y-46808208D01*
X79935676Y-46794698D01*
X79924856Y-46782070D01*
X79917952Y-46774141D01*
X79902077Y-46756326D01*
X79883388Y-46735857D01*
X79861880Y-46712731D01*
X79837552Y-46686944D01*
X79810399Y-46658494D01*
X79780420Y-46627377D01*
X79747610Y-46593590D01*
X79711968Y-46557131D01*
X79673489Y-46517995D01*
X79635034Y-46479070D01*
X79623649Y-46467563D01*
X79613171Y-46456943D01*
X79603433Y-46447017D01*
X79594267Y-46437594D01*
X79585507Y-46428479D01*
X79576985Y-46419482D01*
X79568534Y-46410409D01*
X79559986Y-46401069D01*
X79551174Y-46391268D01*
X79541932Y-46380815D01*
X79532091Y-46369517D01*
X79521485Y-46357182D01*
X79509947Y-46343617D01*
X79497308Y-46328630D01*
X79483402Y-46312029D01*
X79468062Y-46293620D01*
X79451120Y-46273213D01*
X79432409Y-46250613D01*
X79411762Y-46225630D01*
X79389012Y-46198070D01*
X79363991Y-46167742D01*
X79356482Y-46158639D01*
X79340124Y-46137722D01*
X79322576Y-46113203D01*
X79309780Y-46093999D01*
X79077861Y-46093999D01*
X79077502Y-46096533D01*
X79076835Y-46096563D01*
X79076368Y-46093948D01*
X79076680Y-46092819D01*
X79077548Y-46092079D01*
X79077861Y-46093999D01*
X79309780Y-46093999D01*
X79304681Y-46086347D01*
X79076061Y-46086347D01*
X79075084Y-46087323D01*
X79074107Y-46086347D01*
X79075084Y-46085370D01*
X79076061Y-46086347D01*
X79304681Y-46086347D01*
X79303903Y-46085180D01*
X79284172Y-46053750D01*
X79274939Y-46038477D01*
X79234778Y-45968217D01*
X79198228Y-45897837D01*
X79165318Y-45827419D01*
X79136077Y-45757047D01*
X79110534Y-45686804D01*
X79088717Y-45616773D01*
X79070655Y-45547037D01*
X79056376Y-45477679D01*
X79045911Y-45408783D01*
X79040920Y-45361470D01*
X79040298Y-45352771D01*
X79039650Y-45341046D01*
X79039012Y-45327178D01*
X79038424Y-45312048D01*
X79037924Y-45296538D01*
X79037677Y-45287223D01*
X79037889Y-45215958D01*
X79041900Y-45144265D01*
X79049665Y-45072412D01*
X79061138Y-45000666D01*
X79076272Y-44929293D01*
X79095022Y-44858560D01*
X79117343Y-44788734D01*
X79129251Y-44755777D01*
X79137193Y-44736073D01*
X79147197Y-44713678D01*
X79159019Y-44689056D01*
X79172416Y-44662669D01*
X79187141Y-44634981D01*
X79202951Y-44606456D01*
X79219602Y-44577555D01*
X79236848Y-44548743D01*
X79248321Y-44530188D01*
X79259031Y-44513282D01*
X79269026Y-44497965D01*
X79278704Y-44483709D01*
X79288463Y-44469986D01*
X79298701Y-44456270D01*
X79309815Y-44442033D01*
X79322204Y-44426747D01*
X79336265Y-44409885D01*
X79352397Y-44390920D01*
X79360572Y-44381402D01*
X79370150Y-44370279D01*
X79381660Y-44356914D01*
X79394485Y-44342024D01*
X79408006Y-44326326D01*
X79421606Y-44310538D01*
X79434665Y-44295379D01*
X79440510Y-44288594D01*
X79463535Y-44261740D01*
X79484199Y-44237353D01*
X79502816Y-44215050D01*
X79519697Y-44194449D01*
X79535158Y-44175167D01*
X79549509Y-44156820D01*
X79563065Y-44139027D01*
X79566436Y-44134527D01*
X79595267Y-44094856D01*
X79621050Y-44057075D01*
X79643937Y-44020834D01*
X79664081Y-43985783D01*
X79681635Y-43951572D01*
X79696753Y-43917851D01*
X79709586Y-43884271D01*
X79720290Y-43850481D01*
X79729015Y-43816131D01*
X79735916Y-43780873D01*
X79741146Y-43744354D01*
X79742532Y-43731962D01*
X79743489Y-43719802D01*
X79744196Y-43704638D01*
X79744652Y-43687366D01*
X79744858Y-43668884D01*
X79744812Y-43650087D01*
X79744517Y-43631870D01*
X79743970Y-43615131D01*
X79743173Y-43600765D01*
X79742532Y-43593239D01*
X79734268Y-43531508D01*
X79722126Y-43470185D01*
X79706120Y-43409337D01*
X79695257Y-43374845D01*
X79691139Y-43362986D01*
X79685943Y-43348750D01*
X79680013Y-43333013D01*
X79673690Y-43316651D01*
X79667316Y-43300541D01*
X79661235Y-43285559D01*
X79655788Y-43272580D01*
X79651624Y-43263146D01*
X79648511Y-43255892D01*
X79646313Y-43249855D01*
X79645363Y-43245992D01*
X79645406Y-43245275D01*
X79647496Y-43243653D01*
X79652467Y-43241060D01*
X79659536Y-43237876D01*
X79666476Y-43235042D01*
X79702906Y-43222599D01*
X79740497Y-43213194D01*
X79778505Y-43206954D01*
X79816185Y-43204008D01*
X79846353Y-43204141D01*
X79864567Y-43205305D01*
X79883014Y-43207142D01*
X79901038Y-43209540D01*
X79917985Y-43212383D01*
X79933200Y-43215558D01*
X79946029Y-43218952D01*
X79955817Y-43222451D01*
X79958223Y-43223586D01*
X79964813Y-43226506D01*
X79972802Y-43229425D01*
X79976805Y-43230666D01*
X79981898Y-43232361D01*
X79986286Y-43234600D01*
X79990787Y-43237996D01*
X79996221Y-43243163D01*
X80003056Y-43250339D01*
X80024291Y-43271836D01*
X80046880Y-43292361D01*
X80070062Y-43311295D01*
X80093077Y-43328020D01*
X80115164Y-43341917D01*
X80116850Y-43342878D01*
X80125955Y-43347885D01*
X80135382Y-43352757D01*
X80145589Y-43357694D01*
X80157033Y-43362897D01*
X80170172Y-43368566D01*
X80185465Y-43374903D01*
X80203368Y-43382109D01*
X80224340Y-43390384D01*
X80231761Y-43393286D01*
X80256346Y-43403032D01*
X80277647Y-43411821D01*
X80296108Y-43419863D01*
X80312176Y-43427366D01*
X80326295Y-43434540D01*
X80338911Y-43441593D01*
X80350469Y-43448734D01*
X80351923Y-43449683D01*
X80376492Y-43467197D01*
X80398303Y-43485799D01*
X80417940Y-43506121D01*
X80435986Y-43528794D01*
X80453024Y-43554451D01*
X80460672Y-43567406D01*
X80465295Y-43575420D01*
X80469134Y-43581907D01*
X80471832Y-43586276D01*
X80473032Y-43587936D01*
X80473061Y-43587904D01*
X80472315Y-43585543D01*
X80470232Y-43580152D01*
X80467044Y-43572280D01*
X80462982Y-43562476D01*
X80458278Y-43551289D01*
X80453165Y-43539267D01*
X80447875Y-43526959D01*
X80442639Y-43514914D01*
X80437689Y-43503681D01*
X80433849Y-43495114D01*
X80400413Y-43425291D01*
X80363647Y-43356019D01*
X80323897Y-43287848D01*
X80281508Y-43221330D01*
X80236828Y-43157016D01*
X80190200Y-43095457D01*
X80159873Y-43058210D01*
X80140499Y-43035088D01*
X80138580Y-43020727D01*
X80137655Y-43010262D01*
X80138111Y-43000875D01*
X80139605Y-42992071D01*
X80144844Y-42957549D01*
X80146616Y-42922276D01*
X80144972Y-42886881D01*
X80139960Y-42851993D01*
X80131631Y-42818240D01*
X80124026Y-42796070D01*
X80109101Y-42762721D01*
X80090930Y-42731455D01*
X80069685Y-42702457D01*
X80045539Y-42675916D01*
X80018663Y-42652018D01*
X79989229Y-42630951D01*
X79957410Y-42612901D01*
X79954315Y-42611372D01*
X79926773Y-42599168D01*
X79899621Y-42589772D01*
X79871851Y-42582927D01*
X79842453Y-42578376D01*
X79816651Y-42576187D01*
X79803991Y-42575445D01*
X79790665Y-42574654D01*
X79778089Y-42573899D01*
X79767678Y-42573264D01*
X79765769Y-42573146D01*
X79736343Y-42572919D01*
X79705295Y-42575657D01*
X79673349Y-42581202D01*
X79641230Y-42589394D01*
X79609662Y-42600073D01*
X79579368Y-42613080D01*
X79575177Y-42615124D01*
X79549764Y-42628851D01*
X79528053Y-42643044D01*
X79509851Y-42657837D01*
X79500364Y-42667239D01*
X79491751Y-42677189D01*
X79483987Y-42687777D01*
X79476614Y-42699756D01*
X79469176Y-42713877D01*
X79461214Y-42730894D01*
X79459914Y-42733815D01*
X79450634Y-42754170D01*
X79442138Y-42771278D01*
X79434062Y-42785627D01*
X79426039Y-42797705D01*
X79417705Y-42808001D01*
X79408693Y-42817002D01*
X79398639Y-42825195D01*
X79387177Y-42833069D01*
X79384095Y-42835016D01*
X79370115Y-42843724D01*
X79355461Y-42842069D01*
X79345679Y-42840498D01*
X79335064Y-42838087D01*
X79327374Y-42835827D01*
X79321222Y-42833562D01*
X79316401Y-42831174D01*
X79312002Y-42827978D01*
X79307117Y-42823290D01*
X79300836Y-42816424D01*
X79299245Y-42814631D01*
X79270516Y-42779565D01*
X79244971Y-42742991D01*
X79222695Y-42705136D01*
X79203775Y-42666228D01*
X79188297Y-42626493D01*
X79176345Y-42586158D01*
X79168007Y-42545450D01*
X79163368Y-42504596D01*
X79162513Y-42463822D01*
X79162877Y-42454147D01*
X79163601Y-42440723D01*
X79164444Y-42428089D01*
X79165476Y-42415603D01*
X79166767Y-42402625D01*
X79168386Y-42388512D01*
X79170405Y-42372624D01*
X79172892Y-42354319D01*
X79175919Y-42332956D01*
X79176756Y-42327147D01*
X79180341Y-42301919D01*
X79183314Y-42279998D01*
X79185726Y-42260839D01*
X79187629Y-42243897D01*
X79189073Y-42228628D01*
X79190111Y-42214486D01*
X79190794Y-42200928D01*
X79191173Y-42187410D01*
X79191299Y-42173385D01*
X79191300Y-42173204D01*
X79191119Y-42152647D01*
X79190454Y-42134779D01*
X79189189Y-42118399D01*
X79187211Y-42102304D01*
X79184406Y-42085295D01*
X79181487Y-42070216D01*
X79170534Y-42025249D01*
X79156155Y-41980901D01*
X79138549Y-41937440D01*
X79117918Y-41895134D01*
X79094464Y-41854251D01*
X79068387Y-41815060D01*
X79039889Y-41777829D01*
X79009170Y-41742826D01*
X78976432Y-41710318D01*
X78941876Y-41680575D01*
X78905703Y-41653865D01*
X78868114Y-41630455D01*
X78840939Y-41616112D01*
X78819591Y-41606064D01*
X78800103Y-41597811D01*
X78781165Y-41590861D01*
X78761470Y-41584721D01*
X78747149Y-41580803D01*
X78733958Y-41577482D01*
X78721019Y-41574512D01*
X78707926Y-41571839D01*
X78694273Y-41569412D01*
X78679652Y-41567178D01*
X78663660Y-41565085D01*
X78645888Y-41563081D01*
X78625931Y-41561114D01*
X78603384Y-41559131D01*
X78577839Y-41557080D01*
X78548890Y-41554909D01*
X78541684Y-41554386D01*
X78513171Y-41552292D01*
X78488091Y-41550355D01*
X78465976Y-41548505D01*
X78446357Y-41546670D01*
X78428768Y-41544781D01*
X78412739Y-41542767D01*
X78397803Y-41540557D01*
X78383492Y-41538082D01*
X78369337Y-41535269D01*
X78354871Y-41532050D01*
X78339626Y-41528353D01*
X78323133Y-41524108D01*
X78304924Y-41519244D01*
X78300563Y-41518063D01*
X78276672Y-41511376D01*
X78249591Y-41503436D01*
X78219780Y-41494391D01*
X78187696Y-41484393D01*
X78153796Y-41473591D01*
X78118538Y-41462135D01*
X78082382Y-41450176D01*
X78045783Y-41437864D01*
X78009200Y-41425348D01*
X77973092Y-41412779D01*
X77937915Y-41400306D01*
X77904730Y-41388301D01*
X77820021Y-41355759D01*
X77734038Y-41319648D01*
X77646905Y-41280048D01*
X77558748Y-41237041D01*
X77469692Y-41190707D01*
X77379862Y-41141125D01*
X77289381Y-41088376D01*
X77198376Y-41032540D01*
X77106972Y-40973699D01*
X77015292Y-40911931D01*
X76923461Y-40847317D01*
X76831606Y-40779939D01*
X76739850Y-40709875D01*
X76648318Y-40637206D01*
X76557136Y-40562013D01*
X76466428Y-40484375D01*
X76379875Y-40407587D01*
X76365812Y-40394894D01*
X76354377Y-40384585D01*
X76345299Y-40376421D01*
X76338308Y-40370164D01*
X76333134Y-40365577D01*
X76329506Y-40362421D01*
X76327154Y-40360460D01*
X76325807Y-40359454D01*
X76325194Y-40359167D01*
X76325046Y-40359360D01*
G37*
X76325046Y-40359360D02*
X76325046Y-40359372D01*
X76325865Y-40361321D01*
X76328190Y-40366371D01*
X76331824Y-40374107D01*
X76336571Y-40384114D01*
X76342234Y-40395975D01*
X76348615Y-40409276D01*
X76353597Y-40419619D01*
X76398719Y-40514451D01*
X76444232Y-40612646D01*
X76489910Y-40713708D01*
X76535530Y-40817139D01*
X76580868Y-40922445D01*
X76585385Y-40933077D01*
X76596431Y-40959187D01*
X76606185Y-40982441D01*
X76614933Y-41003557D01*
X76622963Y-41023256D01*
X76630560Y-41042255D01*
X76638010Y-41061273D01*
X76645600Y-41081030D01*
X76653617Y-41102244D01*
X76662346Y-41125634D01*
X76665931Y-41135300D01*
X76675578Y-41160501D01*
X76685820Y-41185526D01*
X76696891Y-41210861D01*
X76709022Y-41236996D01*
X76722447Y-41264416D01*
X76737397Y-41293611D01*
X76754105Y-41325067D01*
X76772122Y-41358039D01*
X76820078Y-41440929D01*
X76871616Y-41522629D01*
X76926513Y-41602827D01*
X76984543Y-41681210D01*
X77045481Y-41757465D01*
X77109103Y-41831280D01*
X77126949Y-41851011D01*
X77136666Y-41861792D01*
X77144036Y-41870366D01*
X77149478Y-41877282D01*
X77153412Y-41883093D01*
X77156257Y-41888350D01*
X77157469Y-41891103D01*
X77165849Y-41907771D01*
X77176417Y-41921722D01*
X77189678Y-41933490D01*
X77206140Y-41943611D01*
X77208184Y-41944654D01*
X77213348Y-41947452D01*
X77218579Y-41950796D01*
X77224335Y-41955062D01*
X77231078Y-41960628D01*
X77239264Y-41967870D01*
X77249355Y-41977166D01*
X77260120Y-41987294D01*
X77271194Y-41997625D01*
X77282364Y-42007774D01*
X77293009Y-42017198D01*
X77302512Y-42025354D01*
X77310254Y-42031700D01*
X77314219Y-42034722D01*
X77321670Y-42040511D01*
X77330854Y-42048269D01*
X77340801Y-42057143D01*
X77350539Y-42066278D01*
X77354436Y-42070090D01*
X77363502Y-42078817D01*
X77372916Y-42087408D01*
X77381801Y-42095097D01*
X77389283Y-42101113D01*
X77392168Y-42103215D01*
X77398974Y-42107995D01*
X77407917Y-42114392D01*
X77418001Y-42121686D01*
X77428230Y-42129159D01*
X77431900Y-42131861D01*
X77457349Y-42150299D01*
X77482050Y-42167519D01*
X77505150Y-42182932D01*
X77515235Y-42189400D01*
X77534560Y-42201884D01*
X77551315Y-42213277D01*
X77565233Y-42223388D01*
X77576045Y-42232026D01*
X77579761Y-42235322D01*
X77590858Y-42245596D01*
X77583671Y-42246802D01*
X77574662Y-42248260D01*
X77562388Y-42250170D01*
X77547454Y-42252441D01*
X77530464Y-42254987D01*
X77512023Y-42257718D01*
X77492738Y-42260546D01*
X77473212Y-42263383D01*
X77454050Y-42266140D01*
X77435859Y-42268729D01*
X77419241Y-42271061D01*
X77404804Y-42273048D01*
X77395753Y-42274262D01*
X77359447Y-42278920D01*
X77326153Y-42282896D01*
X77295052Y-42286258D01*
X77265321Y-42289071D01*
X77236139Y-42291404D01*
X77206685Y-42293323D01*
X77176136Y-42294896D01*
X77143672Y-42296189D01*
X77117330Y-42297023D01*
X77096177Y-42297674D01*
X77078224Y-42298334D01*
X77062768Y-42299052D01*
X77049101Y-42299874D01*
X77036519Y-42300847D01*
X77024315Y-42302019D01*
X77011783Y-42303437D01*
X77001077Y-42304775D01*
X76907409Y-42316294D01*
X76816557Y-42326281D01*
X76727761Y-42334783D01*
X76640265Y-42341851D01*
X76553309Y-42347534D01*
X76466137Y-42351880D01*
X76377989Y-42354940D01*
X76288108Y-42356762D01*
X76195736Y-42357395D01*
X76190230Y-42357396D01*
X76121736Y-42357107D01*
X76056279Y-42356233D01*
X75993024Y-42354742D01*
X75931141Y-42352602D01*
X75869796Y-42349780D01*
X75808157Y-42346242D01*
X75745391Y-42341957D01*
X75692000Y-42337822D01*
X75651107Y-42334329D01*
X75609165Y-42330425D01*
X75566517Y-42326157D01*
X75523509Y-42321570D01*
X75480485Y-42316711D01*
X75437792Y-42311624D01*
X75395773Y-42306357D01*
X75354775Y-42300954D01*
X75315141Y-42295463D01*
X75277218Y-42289927D01*
X75241350Y-42284394D01*
X75207882Y-42278910D01*
X75177159Y-42273519D01*
X75149526Y-42268269D01*
X75125329Y-42263205D01*
X75117815Y-42261503D01*
X75084258Y-42253978D01*
X75049914Y-42246745D01*
X75015885Y-42240021D01*
X74983274Y-42234022D01*
X74953182Y-42228965D01*
X74950515Y-42228545D01*
X74936510Y-42226307D01*
X74921866Y-42223887D01*
X74907755Y-42221485D01*
X74895345Y-42219299D01*
X74887015Y-42217761D01*
X74874496Y-42215612D01*
X74864594Y-42214420D01*
X74857783Y-42214238D01*
X74856050Y-42214455D01*
X74849508Y-42215816D01*
X74858981Y-42222519D01*
X74869886Y-42230378D01*
X74883218Y-42240219D01*
X74898363Y-42251572D01*
X74914703Y-42263967D01*
X74931624Y-42276935D01*
X74948509Y-42290005D01*
X74964743Y-42302708D01*
X74979710Y-42314575D01*
X74980800Y-42315447D01*
X75058515Y-42379891D01*
X75133897Y-42446985D01*
X75207171Y-42516951D01*
X75278567Y-42590012D01*
X75348311Y-42666391D01*
X75396989Y-42722800D01*
X75416709Y-42745679D01*
X75438857Y-42770479D01*
X75462865Y-42796609D01*
X75488167Y-42823478D01*
X75514197Y-42850498D01*
X75540387Y-42877076D01*
X75566171Y-42902623D01*
X75590982Y-42926548D01*
X75607007Y-42941589D01*
X75681840Y-43008772D01*
X75757337Y-43072233D01*
X75833471Y-43131954D01*
X75910217Y-43187920D01*
X75987545Y-43240112D01*
X76065430Y-43288513D01*
X76143844Y-43333107D01*
X76222760Y-43373876D01*
X76302151Y-43410803D01*
X76381990Y-43443871D01*
X76431600Y-43462391D01*
X76470991Y-43475997D01*
X76512406Y-43489401D01*
X76554694Y-43502260D01*
X76596698Y-43514232D01*
X76637267Y-43524975D01*
X76665992Y-43532003D01*
X76677653Y-43534910D01*
X76691985Y-43538746D01*
X76707948Y-43543217D01*
X76724502Y-43548028D01*
X76740607Y-43552887D01*
X76748053Y-43555206D01*
X76837211Y-43581920D01*
X76925329Y-43605468D01*
X77013000Y-43625958D01*
X77100817Y-43643499D01*
X77189371Y-43658201D01*
X77279255Y-43670170D01*
X77371062Y-43679518D01*
X77460230Y-43686046D01*
X77477968Y-43686941D01*
X77498918Y-43687713D01*
X77522386Y-43688356D01*
X77547678Y-43688864D01*
X77574101Y-43689231D01*
X77600960Y-43689451D01*
X77627561Y-43689519D01*
X77653212Y-43689428D01*
X77677217Y-43689174D01*
X77698883Y-43688749D01*
X77716184Y-43688201D01*
X77804324Y-43683575D01*
X77889976Y-43676711D01*
X77973906Y-43667534D01*
X78056879Y-43655971D01*
X78069746Y-43653953D01*
X78109884Y-43647566D01*
X78132729Y-43652019D01*
X78176669Y-43662128D01*
X78220515Y-43675210D01*
X78263664Y-43691003D01*
X78305510Y-43709248D01*
X78345448Y-43729685D01*
X78382871Y-43752051D01*
X78411964Y-43772172D01*
X78425532Y-43782230D01*
X78421434Y-43788358D01*
X78413240Y-43803504D01*
X78407377Y-43820425D01*
X78404296Y-43837650D01*
X78403938Y-43845281D01*
X78403559Y-43851771D01*
X78402282Y-43858979D01*
X78399895Y-43867783D01*
X78396189Y-43879056D01*
X78394990Y-43882482D01*
X78375613Y-43942134D01*
X78358679Y-44004273D01*
X78344298Y-44068251D01*
X78332578Y-44133419D01*
X78323631Y-44199130D01*
X78317565Y-44264736D01*
X78314490Y-44329589D01*
X78314109Y-44360123D01*
X78315869Y-44430861D01*
X78321195Y-44502431D01*
X78329992Y-44574298D01*
X78342166Y-44645923D01*
X78357622Y-44716768D01*
X78376268Y-44786297D01*
X78398008Y-44853971D01*
X78403039Y-44868123D01*
X78407624Y-44880765D01*
X78411740Y-44891940D01*
X78415572Y-44901996D01*
X78419306Y-44911280D01*
X78423127Y-44920141D01*
X78427219Y-44928924D01*
X78431767Y-44937977D01*
X78436957Y-44947648D01*
X78442973Y-44958284D01*
X78450001Y-44970232D01*
X78458225Y-44983839D01*
X78467830Y-44999452D01*
X78479002Y-45017420D01*
X78491925Y-45038089D01*
X78502954Y-45055693D01*
X78529143Y-45097515D01*
X78553340Y-45136225D01*
X78575654Y-45172005D01*
X78596193Y-45205037D01*
X78615065Y-45235504D01*
X78632380Y-45263589D01*
X78648245Y-45289473D01*
X78662769Y-45313341D01*
X78676061Y-45335373D01*
X78688230Y-45355753D01*
X78699383Y-45374663D01*
X78709629Y-45392285D01*
X78719078Y-45408803D01*
X78727836Y-45424399D01*
X78736014Y-45439254D01*
X78743718Y-45453553D01*
X78751059Y-45467477D01*
X78758144Y-45481209D01*
X78765082Y-45494931D01*
X78770131Y-45505077D01*
X78780433Y-45526122D01*
X78789275Y-45544725D01*
X78797086Y-45561868D01*
X78804294Y-45578529D01*
X78811329Y-45595690D01*
X78818618Y-45614330D01*
X78823402Y-45626925D01*
X78842555Y-45682573D01*
X78859089Y-45740631D01*
X78872918Y-45800532D01*
X78883954Y-45861707D01*
X78892109Y-45923588D01*
X78897294Y-45985608D01*
X78899421Y-46047198D01*
X78898403Y-46107791D01*
X78898291Y-46110280D01*
X78897591Y-46125550D01*
X78896875Y-46141271D01*
X78896188Y-46156458D01*
X78895573Y-46170125D01*
X78895077Y-46181289D01*
X78894914Y-46185009D01*
X78895164Y-46223324D01*
X78899269Y-46261488D01*
X78907237Y-46299516D01*
X78919074Y-46337422D01*
X78934786Y-46375221D01*
X78954379Y-46412929D01*
X78977860Y-46450560D01*
X79005235Y-46488129D01*
X79036510Y-46525650D01*
X79042014Y-46531803D01*
X79084416Y-46577592D01*
X79125994Y-46620079D01*
X79167204Y-46659654D01*
X79208498Y-46696707D01*
X79250332Y-46731628D01*
X79293160Y-46764808D01*
X79337437Y-46796637D01*
X79383617Y-46827505D01*
X79394538Y-46834499D01*
X79409393Y-46844003D01*
X79423046Y-46852898D01*
X79436079Y-46861588D01*
X79449073Y-46870477D01*
X79462607Y-46879971D01*
X79477264Y-46890473D01*
X79493623Y-46902388D01*
X79512265Y-46916120D01*
X79520498Y-46922217D01*
X79540942Y-46937383D01*
X79558561Y-46950473D01*
X79573675Y-46961729D01*
X79586603Y-46971394D01*
X79597667Y-46979711D01*
X79607186Y-46986922D01*
X79615479Y-46993270D01*
X79622869Y-46998997D01*
X79629673Y-47004345D01*
X79636214Y-47009559D01*
X79642810Y-47014879D01*
X79643275Y-47015256D01*
X79657211Y-47026545D01*
X79668496Y-47035650D01*
X79677505Y-47042863D01*
X79684616Y-47048471D01*
X79690204Y-47052764D01*
X79694645Y-47056031D01*
X79698314Y-47058562D01*
X79701587Y-47060646D01*
X79704461Y-47062353D01*
X79711221Y-47066118D01*
X79715090Y-47067831D01*
X79716433Y-47067600D01*
X79715721Y-47065712D01*
X79713524Y-47062636D01*
X79709178Y-47057098D01*
X79703092Y-47049591D01*
X79695675Y-47040605D01*
X79687337Y-47030634D01*
X79678485Y-47020169D01*
X79669531Y-47009703D01*
X79660882Y-46999726D01*
X79660065Y-46998793D01*
X79650344Y-46987978D01*
X79638400Y-46975160D01*
X79624812Y-46960921D01*
X79610157Y-46945843D01*
X79595012Y-46930509D01*
X79579954Y-46915503D01*
X79565561Y-46901405D01*
X79552410Y-46888800D01*
X79541078Y-46878270D01*
X79537169Y-46874755D01*
X79524112Y-46862735D01*
X79508986Y-46848070D01*
X79492162Y-46831165D01*
X79474010Y-46812427D01*
X79454902Y-46792262D01*
X79435209Y-46771077D01*
X79415301Y-46749278D01*
X79395550Y-46727272D01*
X79376327Y-46705464D01*
X79358002Y-46684262D01*
X79340946Y-46664071D01*
X79325531Y-46645299D01*
X79312127Y-46628351D01*
X79311519Y-46627562D01*
X79277685Y-46580866D01*
X79245532Y-46530957D01*
X79215252Y-46478236D01*
X79187040Y-46423104D01*
X79161089Y-46365961D01*
X79137593Y-46307209D01*
X79116745Y-46247248D01*
X79098870Y-46186970D01*
X79095371Y-46173839D01*
X79091849Y-46160229D01*
X79088445Y-46146721D01*
X79085300Y-46133900D01*
X79082554Y-46122350D01*
X79080347Y-46112654D01*
X79078820Y-46105397D01*
X79078114Y-46101161D01*
X79078083Y-46100575D01*
X79078690Y-46101294D01*
X79080294Y-46105098D01*
X79082652Y-46111370D01*
X79085519Y-46119490D01*
X79085544Y-46119562D01*
X79101346Y-46160340D01*
X79119881Y-46198591D01*
X79141298Y-46234513D01*
X79165746Y-46268303D01*
X79193375Y-46300157D01*
X79224334Y-46330274D01*
X79258774Y-46358851D01*
X79277307Y-46372597D01*
X79294470Y-46384459D01*
X79312228Y-46395855D01*
X79331228Y-46407159D01*
X79352117Y-46418747D01*
X79375544Y-46430994D01*
X79395515Y-46441007D01*
X79459303Y-46474432D01*
X79523150Y-46511714D01*
X79586984Y-46552806D01*
X79650733Y-46597657D01*
X79714325Y-46646221D01*
X79777690Y-46698449D01*
X79780264Y-46700652D01*
X79794421Y-46712753D01*
X79809983Y-46725994D01*
X79826059Y-46739622D01*
X79841760Y-46752884D01*
X79856193Y-46765025D01*
X79867369Y-46774374D01*
X79880570Y-46785418D01*
X79892263Y-46795310D01*
X79903026Y-46804564D01*
X79913437Y-46813692D01*
X79924073Y-46823211D01*
X79935510Y-46833633D01*
X79948327Y-46845472D01*
X79963100Y-46859244D01*
X79971395Y-46867009D01*
X79982611Y-46877399D01*
X79993716Y-46887461D01*
X80004328Y-46896872D01*
X80014067Y-46905308D01*
X80022552Y-46912444D01*
X80029404Y-46917957D01*
X80034240Y-46921522D01*
X80036681Y-46922814D01*
X80036856Y-46922765D01*
X80036121Y-46920843D01*
X80033127Y-46916255D01*
X80028131Y-46909324D01*
X80021392Y-46900372D01*
X80013167Y-46889721D01*
X80003715Y-46877694D01*
X79993294Y-46864613D01*
X79982161Y-46850802D01*
X79970574Y-46836582D01*
X79958793Y-46822277D01*
X79947074Y-46808208D01*
X79935676Y-46794698D01*
X79924856Y-46782070D01*
X79917952Y-46774141D01*
X79902077Y-46756326D01*
X79883388Y-46735857D01*
X79861880Y-46712731D01*
X79837552Y-46686944D01*
X79810399Y-46658494D01*
X79780420Y-46627377D01*
X79747610Y-46593590D01*
X79711968Y-46557131D01*
X79673489Y-46517995D01*
X79635034Y-46479070D01*
X79623649Y-46467563D01*
X79613171Y-46456943D01*
X79603433Y-46447017D01*
X79594267Y-46437594D01*
X79585507Y-46428479D01*
X79576985Y-46419482D01*
X79568534Y-46410409D01*
X79559986Y-46401069D01*
X79551174Y-46391268D01*
X79541932Y-46380815D01*
X79532091Y-46369517D01*
X79521485Y-46357182D01*
X79509947Y-46343617D01*
X79497308Y-46328630D01*
X79483402Y-46312029D01*
X79468062Y-46293620D01*
X79451120Y-46273213D01*
X79432409Y-46250613D01*
X79411762Y-46225630D01*
X79389012Y-46198070D01*
X79363991Y-46167742D01*
X79356482Y-46158639D01*
X79340124Y-46137722D01*
X79322576Y-46113203D01*
X79309780Y-46093999D01*
X79077861Y-46093999D01*
X79077502Y-46096533D01*
X79076835Y-46096563D01*
X79076368Y-46093948D01*
X79076680Y-46092819D01*
X79077548Y-46092079D01*
X79077861Y-46093999D01*
X79309780Y-46093999D01*
X79304681Y-46086347D01*
X79076061Y-46086347D01*
X79075084Y-46087323D01*
X79074107Y-46086347D01*
X79075084Y-46085370D01*
X79076061Y-46086347D01*
X79304681Y-46086347D01*
X79303903Y-46085180D01*
X79284172Y-46053750D01*
X79274939Y-46038477D01*
X79234778Y-45968217D01*
X79198228Y-45897837D01*
X79165318Y-45827419D01*
X79136077Y-45757047D01*
X79110534Y-45686804D01*
X79088717Y-45616773D01*
X79070655Y-45547037D01*
X79056376Y-45477679D01*
X79045911Y-45408783D01*
X79040920Y-45361470D01*
X79040298Y-45352771D01*
X79039650Y-45341046D01*
X79039012Y-45327178D01*
X79038424Y-45312048D01*
X79037924Y-45296538D01*
X79037677Y-45287223D01*
X79037889Y-45215958D01*
X79041900Y-45144265D01*
X79049665Y-45072412D01*
X79061138Y-45000666D01*
X79076272Y-44929293D01*
X79095022Y-44858560D01*
X79117343Y-44788734D01*
X79129251Y-44755777D01*
X79137193Y-44736073D01*
X79147197Y-44713678D01*
X79159019Y-44689056D01*
X79172416Y-44662669D01*
X79187141Y-44634981D01*
X79202951Y-44606456D01*
X79219602Y-44577555D01*
X79236848Y-44548743D01*
X79248321Y-44530188D01*
X79259031Y-44513282D01*
X79269026Y-44497965D01*
X79278704Y-44483709D01*
X79288463Y-44469986D01*
X79298701Y-44456270D01*
X79309815Y-44442033D01*
X79322204Y-44426747D01*
X79336265Y-44409885D01*
X79352397Y-44390920D01*
X79360572Y-44381402D01*
X79370150Y-44370279D01*
X79381660Y-44356914D01*
X79394485Y-44342024D01*
X79408006Y-44326326D01*
X79421606Y-44310538D01*
X79434665Y-44295379D01*
X79440510Y-44288594D01*
X79463535Y-44261740D01*
X79484199Y-44237353D01*
X79502816Y-44215050D01*
X79519697Y-44194449D01*
X79535158Y-44175167D01*
X79549509Y-44156820D01*
X79563065Y-44139027D01*
X79566436Y-44134527D01*
X79595267Y-44094856D01*
X79621050Y-44057075D01*
X79643937Y-44020834D01*
X79664081Y-43985783D01*
X79681635Y-43951572D01*
X79696753Y-43917851D01*
X79709586Y-43884271D01*
X79720290Y-43850481D01*
X79729015Y-43816131D01*
X79735916Y-43780873D01*
X79741146Y-43744354D01*
X79742532Y-43731962D01*
X79743489Y-43719802D01*
X79744196Y-43704638D01*
X79744652Y-43687366D01*
X79744858Y-43668884D01*
X79744812Y-43650087D01*
X79744517Y-43631870D01*
X79743970Y-43615131D01*
X79743173Y-43600765D01*
X79742532Y-43593239D01*
X79734268Y-43531508D01*
X79722126Y-43470185D01*
X79706120Y-43409337D01*
X79695257Y-43374845D01*
X79691139Y-43362986D01*
X79685943Y-43348750D01*
X79680013Y-43333013D01*
X79673690Y-43316651D01*
X79667316Y-43300541D01*
X79661235Y-43285559D01*
X79655788Y-43272580D01*
X79651624Y-43263146D01*
X79648511Y-43255892D01*
X79646313Y-43249855D01*
X79645363Y-43245992D01*
X79645406Y-43245275D01*
X79647496Y-43243653D01*
X79652467Y-43241060D01*
X79659536Y-43237876D01*
X79666476Y-43235042D01*
X79702906Y-43222599D01*
X79740497Y-43213194D01*
X79778505Y-43206954D01*
X79816185Y-43204008D01*
X79846353Y-43204141D01*
X79864567Y-43205305D01*
X79883014Y-43207142D01*
X79901038Y-43209540D01*
X79917985Y-43212383D01*
X79933200Y-43215558D01*
X79946029Y-43218952D01*
X79955817Y-43222451D01*
X79958223Y-43223586D01*
X79964813Y-43226506D01*
X79972802Y-43229425D01*
X79976805Y-43230666D01*
X79981898Y-43232361D01*
X79986286Y-43234600D01*
X79990787Y-43237996D01*
X79996221Y-43243163D01*
X80003056Y-43250339D01*
X80024291Y-43271836D01*
X80046880Y-43292361D01*
X80070062Y-43311295D01*
X80093077Y-43328020D01*
X80115164Y-43341917D01*
X80116850Y-43342878D01*
X80125955Y-43347885D01*
X80135382Y-43352757D01*
X80145589Y-43357694D01*
X80157033Y-43362897D01*
X80170172Y-43368566D01*
X80185465Y-43374903D01*
X80203368Y-43382109D01*
X80224340Y-43390384D01*
X80231761Y-43393286D01*
X80256346Y-43403032D01*
X80277647Y-43411821D01*
X80296108Y-43419863D01*
X80312176Y-43427366D01*
X80326295Y-43434540D01*
X80338911Y-43441593D01*
X80350469Y-43448734D01*
X80351923Y-43449683D01*
X80376492Y-43467197D01*
X80398303Y-43485799D01*
X80417940Y-43506121D01*
X80435986Y-43528794D01*
X80453024Y-43554451D01*
X80460672Y-43567406D01*
X80465295Y-43575420D01*
X80469134Y-43581907D01*
X80471832Y-43586276D01*
X80473032Y-43587936D01*
X80473061Y-43587904D01*
X80472315Y-43585543D01*
X80470232Y-43580152D01*
X80467044Y-43572280D01*
X80462982Y-43562476D01*
X80458278Y-43551289D01*
X80453165Y-43539267D01*
X80447875Y-43526959D01*
X80442639Y-43514914D01*
X80437689Y-43503681D01*
X80433849Y-43495114D01*
X80400413Y-43425291D01*
X80363647Y-43356019D01*
X80323897Y-43287848D01*
X80281508Y-43221330D01*
X80236828Y-43157016D01*
X80190200Y-43095457D01*
X80159873Y-43058210D01*
X80140499Y-43035088D01*
X80138580Y-43020727D01*
X80137655Y-43010262D01*
X80138111Y-43000875D01*
X80139605Y-42992071D01*
X80144844Y-42957549D01*
X80146616Y-42922276D01*
X80144972Y-42886881D01*
X80139960Y-42851993D01*
X80131631Y-42818240D01*
X80124026Y-42796070D01*
X80109101Y-42762721D01*
X80090930Y-42731455D01*
X80069685Y-42702457D01*
X80045539Y-42675916D01*
X80018663Y-42652018D01*
X79989229Y-42630951D01*
X79957410Y-42612901D01*
X79954315Y-42611372D01*
X79926773Y-42599168D01*
X79899621Y-42589772D01*
X79871851Y-42582927D01*
X79842453Y-42578376D01*
X79816651Y-42576187D01*
X79803991Y-42575445D01*
X79790665Y-42574654D01*
X79778089Y-42573899D01*
X79767678Y-42573264D01*
X79765769Y-42573146D01*
X79736343Y-42572919D01*
X79705295Y-42575657D01*
X79673349Y-42581202D01*
X79641230Y-42589394D01*
X79609662Y-42600073D01*
X79579368Y-42613080D01*
X79575177Y-42615124D01*
X79549764Y-42628851D01*
X79528053Y-42643044D01*
X79509851Y-42657837D01*
X79500364Y-42667239D01*
X79491751Y-42677189D01*
X79483987Y-42687777D01*
X79476614Y-42699756D01*
X79469176Y-42713877D01*
X79461214Y-42730894D01*
X79459914Y-42733815D01*
X79450634Y-42754170D01*
X79442138Y-42771278D01*
X79434062Y-42785627D01*
X79426039Y-42797705D01*
X79417705Y-42808001D01*
X79408693Y-42817002D01*
X79398639Y-42825195D01*
X79387177Y-42833069D01*
X79384095Y-42835016D01*
X79370115Y-42843724D01*
X79355461Y-42842069D01*
X79345679Y-42840498D01*
X79335064Y-42838087D01*
X79327374Y-42835827D01*
X79321222Y-42833562D01*
X79316401Y-42831174D01*
X79312002Y-42827978D01*
X79307117Y-42823290D01*
X79300836Y-42816424D01*
X79299245Y-42814631D01*
X79270516Y-42779565D01*
X79244971Y-42742991D01*
X79222695Y-42705136D01*
X79203775Y-42666228D01*
X79188297Y-42626493D01*
X79176345Y-42586158D01*
X79168007Y-42545450D01*
X79163368Y-42504596D01*
X79162513Y-42463822D01*
X79162877Y-42454147D01*
X79163601Y-42440723D01*
X79164444Y-42428089D01*
X79165476Y-42415603D01*
X79166767Y-42402625D01*
X79168386Y-42388512D01*
X79170405Y-42372624D01*
X79172892Y-42354319D01*
X79175919Y-42332956D01*
X79176756Y-42327147D01*
X79180341Y-42301919D01*
X79183314Y-42279998D01*
X79185726Y-42260839D01*
X79187629Y-42243897D01*
X79189073Y-42228628D01*
X79190111Y-42214486D01*
X79190794Y-42200928D01*
X79191173Y-42187410D01*
X79191299Y-42173385D01*
X79191300Y-42173204D01*
X79191119Y-42152647D01*
X79190454Y-42134779D01*
X79189189Y-42118399D01*
X79187211Y-42102304D01*
X79184406Y-42085295D01*
X79181487Y-42070216D01*
X79170534Y-42025249D01*
X79156155Y-41980901D01*
X79138549Y-41937440D01*
X79117918Y-41895134D01*
X79094464Y-41854251D01*
X79068387Y-41815060D01*
X79039889Y-41777829D01*
X79009170Y-41742826D01*
X78976432Y-41710318D01*
X78941876Y-41680575D01*
X78905703Y-41653865D01*
X78868114Y-41630455D01*
X78840939Y-41616112D01*
X78819591Y-41606064D01*
X78800103Y-41597811D01*
X78781165Y-41590861D01*
X78761470Y-41584721D01*
X78747149Y-41580803D01*
X78733958Y-41577482D01*
X78721019Y-41574512D01*
X78707926Y-41571839D01*
X78694273Y-41569412D01*
X78679652Y-41567178D01*
X78663660Y-41565085D01*
X78645888Y-41563081D01*
X78625931Y-41561114D01*
X78603384Y-41559131D01*
X78577839Y-41557080D01*
X78548890Y-41554909D01*
X78541684Y-41554386D01*
X78513171Y-41552292D01*
X78488091Y-41550355D01*
X78465976Y-41548505D01*
X78446357Y-41546670D01*
X78428768Y-41544781D01*
X78412739Y-41542767D01*
X78397803Y-41540557D01*
X78383492Y-41538082D01*
X78369337Y-41535269D01*
X78354871Y-41532050D01*
X78339626Y-41528353D01*
X78323133Y-41524108D01*
X78304924Y-41519244D01*
X78300563Y-41518063D01*
X78276672Y-41511376D01*
X78249591Y-41503436D01*
X78219780Y-41494391D01*
X78187696Y-41484393D01*
X78153796Y-41473591D01*
X78118538Y-41462135D01*
X78082382Y-41450176D01*
X78045783Y-41437864D01*
X78009200Y-41425348D01*
X77973092Y-41412779D01*
X77937915Y-41400306D01*
X77904730Y-41388301D01*
X77820021Y-41355759D01*
X77734038Y-41319648D01*
X77646905Y-41280048D01*
X77558748Y-41237041D01*
X77469692Y-41190707D01*
X77379862Y-41141125D01*
X77289381Y-41088376D01*
X77198376Y-41032540D01*
X77106972Y-40973699D01*
X77015292Y-40911931D01*
X76923461Y-40847317D01*
X76831606Y-40779939D01*
X76739850Y-40709875D01*
X76648318Y-40637206D01*
X76557136Y-40562013D01*
X76466428Y-40484375D01*
X76379875Y-40407587D01*
X76365812Y-40394894D01*
X76354377Y-40384585D01*
X76345299Y-40376421D01*
X76338308Y-40370164D01*
X76333134Y-40365577D01*
X76329506Y-40362421D01*
X76327154Y-40360460D01*
X76325807Y-40359454D01*
X76325194Y-40359167D01*
X76325046Y-40359360D01*
D11*
X74773700Y-59176400D02*
X75873700Y-59176400D01*
X74773700Y-56976400D02*
X75873700Y-56976400D01*
X74773700Y-59176400D02*
X74773700Y-56976400D01*
X75873700Y-59176400D02*
X75873700Y-56976400D01*
X68067800Y-51718300D02*
X68067800Y-50618300D01*
X65867800Y-51718300D02*
X65867800Y-50618300D01*
X68067800Y-51718300D02*
X65867800Y-51718300D01*
X68067800Y-50618300D02*
X65867800Y-50618300D01*
X68066400Y-55629900D02*
X68066400Y-54529900D01*
X65866400Y-55629900D02*
X65866400Y-54529900D01*
X68066400Y-55629900D02*
X65866400Y-55629900D01*
X68066400Y-54529900D02*
X65866400Y-54529900D01*
X64608800Y-51859700D02*
X63508800Y-51859700D01*
X64608800Y-54059700D02*
X63508800Y-54059700D01*
X64608800Y-51859700D02*
X64608800Y-54059700D01*
X63508800Y-51859700D02*
X63508800Y-54059700D01*
X68066400Y-53013700D02*
X68066400Y-51913700D01*
X65866400Y-53013700D02*
X65866400Y-51913700D01*
X68066400Y-53013700D02*
X65866400Y-53013700D01*
X68066400Y-51913700D02*
X65866400Y-51913700D01*
X68066400Y-54334500D02*
X68066400Y-53234500D01*
X65866400Y-54334500D02*
X65866400Y-53234500D01*
X68066400Y-54334500D02*
X65866400Y-54334500D01*
X68066400Y-53234500D02*
X65866400Y-53234500D01*
X60942400Y-52778100D02*
X60242400Y-52778100D01*
X60242400Y-53978100D02*
X60942400Y-53978100D01*
X60241700Y-55362400D02*
X60941700Y-55362400D01*
X60941700Y-54162400D02*
X60241700Y-54162400D01*
X55227400Y-47647300D02*
X54527400Y-47647300D01*
X54527400Y-48847300D02*
X55227400Y-48847300D01*
X61360000Y-60328100D02*
X62060000Y-60328100D01*
X62060000Y-59128100D02*
X61360000Y-59128100D01*
X58491300Y-41818000D02*
X57791300Y-41818000D01*
X57791300Y-43018000D02*
X58491300Y-43018000D01*
X78197000Y-49918800D02*
X78197000Y-49218800D01*
X76997000Y-49218800D02*
X76997000Y-49918800D01*
X76825400Y-49918100D02*
X76825400Y-49218100D01*
X75625400Y-49218100D02*
X75625400Y-49918100D01*
X68802300Y-56765900D02*
X68102300Y-56765900D01*
X68102300Y-57965900D02*
X68802300Y-57965900D01*
X73526700Y-58099400D02*
X72826700Y-58099400D01*
X72826700Y-59299400D02*
X73526700Y-59299400D01*
X72828100Y-57902400D02*
X73528100Y-57902400D01*
X73528100Y-56702400D02*
X72828100Y-56702400D01*
X57777900Y-63350700D02*
X58477900Y-63350700D01*
X58477900Y-62150700D02*
X57777900Y-62150700D01*
X59032700Y-52966800D02*
X59032700Y-52266800D01*
X57832700Y-52266800D02*
X57832700Y-52966800D01*
X53394000Y-53717700D02*
X53394000Y-51717700D01*
X51254000Y-51717700D02*
X51254000Y-53717700D01*
X55274400Y-56571600D02*
X54274400Y-56571600D01*
X54274400Y-57931600D02*
X55274400Y-57931600D01*
X85908200Y-52875900D02*
X84908200Y-52875900D01*
X84908200Y-54235900D02*
X85908200Y-54235900D01*
X84908200Y-52584900D02*
X85908200Y-52584900D01*
X85908200Y-51224900D02*
X84908200Y-51224900D01*
X84907500Y-50933900D02*
X85907500Y-50933900D01*
X85907500Y-49573900D02*
X84907500Y-49573900D01*
X57678000Y-44571200D02*
X58678000Y-44571200D01*
X58678000Y-43211200D02*
X57678000Y-43211200D01*
X74643300Y-51732900D02*
X73643300Y-51732900D01*
X73643300Y-53092900D02*
X74643300Y-53092900D01*
X57539000Y-61957500D02*
X58539000Y-61957500D01*
X58539000Y-60597500D02*
X57539000Y-60597500D01*
X85908200Y-54539600D02*
X84908200Y-54539600D01*
X84908200Y-55899600D02*
X85908200Y-55899600D01*
D12*
X57408700Y-56864300D02*
X57408700Y-56684300D01*
X57408700Y-56684300D02*
X59018700Y-56684300D01*
X59018700Y-56684300D02*
X59018700Y-56864300D01*
X57408700Y-59564300D02*
X57588700Y-59744300D01*
X57588700Y-59744300D02*
X59008700Y-59734300D01*
X59008700Y-59734300D02*
X59008700Y-59564300D01*
X59008700Y-58664300D02*
X59008700Y-57774300D01*
D13*
X56908700Y-59804300D02*
G75*
G03*
X56908700Y-59804300I0J0D01*
G01*
X80632300Y-49948700D02*
G75*
G03*
X80632300Y-49948700I0J0D01*
G01*
D12*
X81132300Y-49688700D02*
X81342300Y-49898700D01*
X81342300Y-49898700D02*
X82732300Y-49898700D01*
X82732300Y-49898700D02*
X82732300Y-49698700D01*
X81132300Y-46968700D02*
X81132300Y-46788700D01*
X81132300Y-46788700D02*
X82742300Y-46788700D01*
X82742300Y-46788700D02*
X82742300Y-46968700D01*
D13*
X80682300Y-58690900D02*
G75*
G03*
X80682300Y-58690900I0J0D01*
G01*
D12*
X81132300Y-58410900D02*
X81292300Y-58570900D01*
X81292300Y-58570900D02*
X82732300Y-58570900D01*
X82732300Y-58570900D02*
X82732300Y-58420900D01*
X81132300Y-55700900D02*
X81132300Y-55500900D01*
X81132300Y-55500900D02*
X82732300Y-55500900D01*
X82732300Y-55500900D02*
X82732300Y-55700900D01*
X66092000Y-44745700D02*
X66182000Y-44835700D01*
X66182000Y-44835700D02*
X67782000Y-44835700D01*
X67782000Y-44835700D02*
X67782000Y-44745700D01*
X66082000Y-42025700D02*
X66082000Y-41895700D01*
X66082000Y-41895700D02*
X67792000Y-41895700D01*
X67792000Y-41895700D02*
X67792000Y-42015700D01*
D13*
X65532000Y-44975700D02*
G75*
G03*
X65532000Y-44975700I0J0D01*
G01*
D11*
X54250400Y-47454100D02*
X55250400Y-47454100D01*
X55250400Y-46094100D02*
X54250400Y-46094100D01*
X54386300Y-60328100D02*
X55086300Y-60328100D01*
X55086300Y-59128100D02*
X54386300Y-59128100D01*
X71647600Y-44796900D02*
X71647600Y-43796900D01*
X70287600Y-43796900D02*
X70287600Y-44796900D01*
X71849700Y-43785600D02*
X71849700Y-44785600D01*
X73209700Y-44785600D02*
X73209700Y-43785600D01*
D12*
X76071480Y-57319966D02*
X76785766Y-57319966D01*
X76928623Y-57272347D01*
X77023861Y-57177109D01*
X77071480Y-57034252D01*
X77071480Y-56939014D01*
X77071480Y-57796157D02*
X76071480Y-57796157D01*
X76071480Y-58177109D01*
X76119100Y-58272347D01*
X76166719Y-58319966D01*
X76261957Y-58367585D01*
X76404814Y-58367585D01*
X76500052Y-58319966D01*
X76547671Y-58272347D01*
X76595290Y-58177109D01*
X76595290Y-57796157D01*
X76071480Y-59224728D02*
X76071480Y-59034252D01*
X76119100Y-58939014D01*
X76166719Y-58891395D01*
X76309576Y-58796157D01*
X76500052Y-58748538D01*
X76881004Y-58748538D01*
X76976242Y-58796157D01*
X77023861Y-58843776D01*
X77071480Y-58939014D01*
X77071480Y-59129490D01*
X77023861Y-59224728D01*
X76976242Y-59272347D01*
X76881004Y-59319966D01*
X76642909Y-59319966D01*
X76547671Y-59272347D01*
X76500052Y-59224728D01*
X76452433Y-59129490D01*
X76452433Y-58939014D01*
X76500052Y-58843776D01*
X76547671Y-58796157D01*
X76642909Y-58748538D01*
X70518233Y-50760380D02*
X70518233Y-51474666D01*
X70565852Y-51617523D01*
X70661090Y-51712761D01*
X70803947Y-51760380D01*
X70899185Y-51760380D01*
X70042042Y-51760380D02*
X70042042Y-50760380D01*
X69661090Y-50760380D01*
X69565852Y-50808000D01*
X69518233Y-50855619D01*
X69470614Y-50950857D01*
X69470614Y-51093714D01*
X69518233Y-51188952D01*
X69565852Y-51236571D01*
X69661090Y-51284190D01*
X70042042Y-51284190D01*
X68518233Y-51760380D02*
X69089661Y-51760380D01*
X68803947Y-51760380D02*
X68803947Y-50760380D01*
X68899185Y-50903238D01*
X68994423Y-50998476D01*
X69089661Y-51046095D01*
X70302333Y-54557680D02*
X70302333Y-55271966D01*
X70349952Y-55414823D01*
X70445190Y-55510061D01*
X70588047Y-55557680D01*
X70683285Y-55557680D01*
X69826142Y-55557680D02*
X69826142Y-54557680D01*
X69445190Y-54557680D01*
X69349952Y-54605300D01*
X69302333Y-54652919D01*
X69254714Y-54748157D01*
X69254714Y-54891014D01*
X69302333Y-54986252D01*
X69349952Y-55033871D01*
X69445190Y-55081490D01*
X69826142Y-55081490D01*
X68873761Y-54652919D02*
X68826142Y-54605300D01*
X68730904Y-54557680D01*
X68492809Y-54557680D01*
X68397571Y-54605300D01*
X68349952Y-54652919D01*
X68302333Y-54748157D01*
X68302333Y-54843395D01*
X68349952Y-54986252D01*
X68921380Y-55557680D01*
X68302333Y-55557680D01*
X63638180Y-49572966D02*
X64352466Y-49572966D01*
X64495323Y-49525347D01*
X64590561Y-49430109D01*
X64638180Y-49287252D01*
X64638180Y-49192014D01*
X64638180Y-50049157D02*
X63638180Y-50049157D01*
X63638180Y-50430109D01*
X63685800Y-50525347D01*
X63733419Y-50572966D01*
X63828657Y-50620585D01*
X63971514Y-50620585D01*
X64066752Y-50572966D01*
X64114371Y-50525347D01*
X64161990Y-50430109D01*
X64161990Y-50049157D01*
X63638180Y-50953919D02*
X63638180Y-51572966D01*
X64019133Y-51239633D01*
X64019133Y-51382490D01*
X64066752Y-51477728D01*
X64114371Y-51525347D01*
X64209609Y-51572966D01*
X64447704Y-51572966D01*
X64542942Y-51525347D01*
X64590561Y-51477728D01*
X64638180Y-51382490D01*
X64638180Y-51096776D01*
X64590561Y-51001538D01*
X64542942Y-50953919D01*
X70530933Y-52055780D02*
X70530933Y-52770066D01*
X70578552Y-52912923D01*
X70673790Y-53008161D01*
X70816647Y-53055780D01*
X70911885Y-53055780D01*
X70054742Y-53055780D02*
X70054742Y-52055780D01*
X69673790Y-52055780D01*
X69578552Y-52103400D01*
X69530933Y-52151019D01*
X69483314Y-52246257D01*
X69483314Y-52389114D01*
X69530933Y-52484352D01*
X69578552Y-52531971D01*
X69673790Y-52579590D01*
X70054742Y-52579590D01*
X68626171Y-52389114D02*
X68626171Y-53055780D01*
X68864266Y-52008161D02*
X69102361Y-52722447D01*
X68483314Y-52722447D01*
X70276933Y-53325780D02*
X70276933Y-54040066D01*
X70324552Y-54182923D01*
X70419790Y-54278161D01*
X70562647Y-54325780D01*
X70657885Y-54325780D01*
X69800742Y-54325780D02*
X69800742Y-53325780D01*
X69419790Y-53325780D01*
X69324552Y-53373400D01*
X69276933Y-53421019D01*
X69229314Y-53516257D01*
X69229314Y-53659114D01*
X69276933Y-53754352D01*
X69324552Y-53801971D01*
X69419790Y-53849590D01*
X69800742Y-53849590D01*
X68324552Y-53325780D02*
X68800742Y-53325780D01*
X68848361Y-53801971D01*
X68800742Y-53754352D01*
X68705504Y-53706733D01*
X68467409Y-53706733D01*
X68372171Y-53754352D01*
X68324552Y-53801971D01*
X68276933Y-53897209D01*
X68276933Y-54135304D01*
X68324552Y-54230542D01*
X68372171Y-54278161D01*
X68467409Y-54325780D01*
X68705504Y-54325780D01*
X68800742Y-54278161D01*
X68848361Y-54230542D01*
X61171057Y-51944542D02*
X61218676Y-51992161D01*
X61361533Y-52039780D01*
X61456771Y-52039780D01*
X61599628Y-51992161D01*
X61694866Y-51896923D01*
X61742485Y-51801685D01*
X61790104Y-51611209D01*
X61790104Y-51468352D01*
X61742485Y-51277876D01*
X61694866Y-51182638D01*
X61599628Y-51087400D01*
X61456771Y-51039780D01*
X61361533Y-51039780D01*
X61218676Y-51087400D01*
X61171057Y-51135019D01*
X60218676Y-52039780D02*
X60790104Y-52039780D01*
X60504390Y-52039780D02*
X60504390Y-51039780D01*
X60599628Y-51182638D01*
X60694866Y-51277876D01*
X60790104Y-51325495D01*
X59361533Y-51373114D02*
X59361533Y-52039780D01*
X59599628Y-50992161D02*
X59837723Y-51706447D01*
X59218676Y-51706447D01*
X61386957Y-56719742D02*
X61434576Y-56767361D01*
X61577433Y-56814980D01*
X61672671Y-56814980D01*
X61815528Y-56767361D01*
X61910766Y-56672123D01*
X61958385Y-56576885D01*
X62006004Y-56386409D01*
X62006004Y-56243552D01*
X61958385Y-56053076D01*
X61910766Y-55957838D01*
X61815528Y-55862600D01*
X61672671Y-55814980D01*
X61577433Y-55814980D01*
X61434576Y-55862600D01*
X61386957Y-55910219D01*
X60434576Y-56814980D02*
X61006004Y-56814980D01*
X60720290Y-56814980D02*
X60720290Y-55814980D01*
X60815528Y-55957838D01*
X60910766Y-56053076D01*
X61006004Y-56100695D01*
X60101242Y-55814980D02*
X59482195Y-55814980D01*
X59815528Y-56195933D01*
X59672671Y-56195933D01*
X59577433Y-56243552D01*
X59529814Y-56291171D01*
X59482195Y-56386409D01*
X59482195Y-56624504D01*
X59529814Y-56719742D01*
X59577433Y-56767361D01*
X59672671Y-56814980D01*
X59958385Y-56814980D01*
X60053623Y-56767361D01*
X60101242Y-56719742D01*
X57303966Y-48655242D02*
X57351585Y-48702861D01*
X57494442Y-48750480D01*
X57589680Y-48750480D01*
X57732538Y-48702861D01*
X57827776Y-48607623D01*
X57875395Y-48512385D01*
X57923014Y-48321909D01*
X57923014Y-48179052D01*
X57875395Y-47988576D01*
X57827776Y-47893338D01*
X57732538Y-47798100D01*
X57589680Y-47750480D01*
X57494442Y-47750480D01*
X57351585Y-47798100D01*
X57303966Y-47845719D01*
X56351585Y-48750480D02*
X56923014Y-48750480D01*
X56637300Y-48750480D02*
X56637300Y-47750480D01*
X56732538Y-47893338D01*
X56827776Y-47988576D01*
X56923014Y-48036195D01*
X64213466Y-60059842D02*
X64261085Y-60107461D01*
X64403942Y-60155080D01*
X64499180Y-60155080D01*
X64642038Y-60107461D01*
X64737276Y-60012223D01*
X64784895Y-59916985D01*
X64832514Y-59726509D01*
X64832514Y-59583652D01*
X64784895Y-59393176D01*
X64737276Y-59297938D01*
X64642038Y-59202700D01*
X64499180Y-59155080D01*
X64403942Y-59155080D01*
X64261085Y-59202700D01*
X64213466Y-59250319D01*
X63880133Y-59155080D02*
X63261085Y-59155080D01*
X63594419Y-59536033D01*
X63451561Y-59536033D01*
X63356323Y-59583652D01*
X63308704Y-59631271D01*
X63261085Y-59726509D01*
X63261085Y-59964604D01*
X63308704Y-60059842D01*
X63356323Y-60107461D01*
X63451561Y-60155080D01*
X63737276Y-60155080D01*
X63832514Y-60107461D01*
X63880133Y-60059842D01*
X58332666Y-41555942D02*
X58380285Y-41603561D01*
X58523142Y-41651180D01*
X58618380Y-41651180D01*
X58761238Y-41603561D01*
X58856476Y-41508323D01*
X58904095Y-41413085D01*
X58951714Y-41222609D01*
X58951714Y-41079752D01*
X58904095Y-40889276D01*
X58856476Y-40794038D01*
X58761238Y-40698800D01*
X58618380Y-40651180D01*
X58523142Y-40651180D01*
X58380285Y-40698800D01*
X58332666Y-40746419D01*
X57475523Y-40984514D02*
X57475523Y-41651180D01*
X57713619Y-40603561D02*
X57951714Y-41317847D01*
X57332666Y-41317847D01*
X77941442Y-51738933D02*
X77989061Y-51691314D01*
X78036680Y-51548457D01*
X78036680Y-51453219D01*
X77989061Y-51310361D01*
X77893823Y-51215123D01*
X77798585Y-51167504D01*
X77608109Y-51119885D01*
X77465252Y-51119885D01*
X77274776Y-51167504D01*
X77179538Y-51215123D01*
X77084300Y-51310361D01*
X77036680Y-51453219D01*
X77036680Y-51548457D01*
X77084300Y-51691314D01*
X77131919Y-51738933D01*
X77036680Y-52643695D02*
X77036680Y-52167504D01*
X77512871Y-52119885D01*
X77465252Y-52167504D01*
X77417633Y-52262742D01*
X77417633Y-52500838D01*
X77465252Y-52596076D01*
X77512871Y-52643695D01*
X77608109Y-52691314D01*
X77846204Y-52691314D01*
X77941442Y-52643695D01*
X77989061Y-52596076D01*
X78036680Y-52500838D01*
X78036680Y-52262742D01*
X77989061Y-52167504D01*
X77941442Y-52119885D01*
X76607942Y-51801733D02*
X76655561Y-51754114D01*
X76703180Y-51611257D01*
X76703180Y-51516019D01*
X76655561Y-51373161D01*
X76560323Y-51277923D01*
X76465085Y-51230304D01*
X76274609Y-51182685D01*
X76131752Y-51182685D01*
X75941276Y-51230304D01*
X75846038Y-51277923D01*
X75750800Y-51373161D01*
X75703180Y-51516019D01*
X75703180Y-51611257D01*
X75750800Y-51754114D01*
X75798419Y-51801733D01*
X75703180Y-52658876D02*
X75703180Y-52468400D01*
X75750800Y-52373161D01*
X75798419Y-52325542D01*
X75941276Y-52230304D01*
X76131752Y-52182685D01*
X76512704Y-52182685D01*
X76607942Y-52230304D01*
X76655561Y-52277923D01*
X76703180Y-52373161D01*
X76703180Y-52563638D01*
X76655561Y-52658876D01*
X76607942Y-52706495D01*
X76512704Y-52754114D01*
X76274609Y-52754114D01*
X76179371Y-52706495D01*
X76131752Y-52658876D01*
X76084133Y-52563638D01*
X76084133Y-52373161D01*
X76131752Y-52277923D01*
X76179371Y-52230304D01*
X76274609Y-52182685D01*
X68695866Y-59145442D02*
X68743485Y-59193061D01*
X68886342Y-59240680D01*
X68981580Y-59240680D01*
X69124438Y-59193061D01*
X69219676Y-59097823D01*
X69267295Y-59002585D01*
X69314914Y-58812109D01*
X69314914Y-58669252D01*
X69267295Y-58478776D01*
X69219676Y-58383538D01*
X69124438Y-58288300D01*
X68981580Y-58240680D01*
X68886342Y-58240680D01*
X68743485Y-58288300D01*
X68695866Y-58335919D01*
X68362533Y-58240680D02*
X67695866Y-58240680D01*
X68124438Y-59240680D01*
X71032666Y-59120042D02*
X71080285Y-59167661D01*
X71223142Y-59215280D01*
X71318380Y-59215280D01*
X71461238Y-59167661D01*
X71556476Y-59072423D01*
X71604095Y-58977185D01*
X71651714Y-58786709D01*
X71651714Y-58643852D01*
X71604095Y-58453376D01*
X71556476Y-58358138D01*
X71461238Y-58262900D01*
X71318380Y-58215280D01*
X71223142Y-58215280D01*
X71080285Y-58262900D01*
X71032666Y-58310519D01*
X70461238Y-58643852D02*
X70556476Y-58596233D01*
X70604095Y-58548614D01*
X70651714Y-58453376D01*
X70651714Y-58405757D01*
X70604095Y-58310519D01*
X70556476Y-58262900D01*
X70461238Y-58215280D01*
X70270761Y-58215280D01*
X70175523Y-58262900D01*
X70127904Y-58310519D01*
X70080285Y-58405757D01*
X70080285Y-58453376D01*
X70127904Y-58548614D01*
X70175523Y-58596233D01*
X70270761Y-58643852D01*
X70461238Y-58643852D01*
X70556476Y-58691471D01*
X70604095Y-58739090D01*
X70651714Y-58834328D01*
X70651714Y-59024804D01*
X70604095Y-59120042D01*
X70556476Y-59167661D01*
X70461238Y-59215280D01*
X70270761Y-59215280D01*
X70175523Y-59167661D01*
X70127904Y-59120042D01*
X70080285Y-59024804D01*
X70080285Y-58834328D01*
X70127904Y-58739090D01*
X70175523Y-58691471D01*
X70270761Y-58643852D01*
X70994566Y-57697642D02*
X71042185Y-57745261D01*
X71185042Y-57792880D01*
X71280280Y-57792880D01*
X71423138Y-57745261D01*
X71518376Y-57650023D01*
X71565995Y-57554785D01*
X71613614Y-57364309D01*
X71613614Y-57221452D01*
X71565995Y-57030976D01*
X71518376Y-56935738D01*
X71423138Y-56840500D01*
X71280280Y-56792880D01*
X71185042Y-56792880D01*
X71042185Y-56840500D01*
X70994566Y-56888119D01*
X70518376Y-57792880D02*
X70327900Y-57792880D01*
X70232661Y-57745261D01*
X70185042Y-57697642D01*
X70089804Y-57554785D01*
X70042185Y-57364309D01*
X70042185Y-56983357D01*
X70089804Y-56888119D01*
X70137423Y-56840500D01*
X70232661Y-56792880D01*
X70423138Y-56792880D01*
X70518376Y-56840500D01*
X70565995Y-56888119D01*
X70613614Y-56983357D01*
X70613614Y-57221452D01*
X70565995Y-57316690D01*
X70518376Y-57364309D01*
X70423138Y-57411928D01*
X70232661Y-57411928D01*
X70137423Y-57364309D01*
X70089804Y-57316690D01*
X70042185Y-57221452D01*
X58821557Y-64365142D02*
X58869176Y-64412761D01*
X59012033Y-64460380D01*
X59107271Y-64460380D01*
X59250128Y-64412761D01*
X59345366Y-64317523D01*
X59392985Y-64222285D01*
X59440604Y-64031809D01*
X59440604Y-63888952D01*
X59392985Y-63698476D01*
X59345366Y-63603238D01*
X59250128Y-63508000D01*
X59107271Y-63460380D01*
X59012033Y-63460380D01*
X58869176Y-63508000D01*
X58821557Y-63555619D01*
X57869176Y-64460380D02*
X58440604Y-64460380D01*
X58154890Y-64460380D02*
X58154890Y-63460380D01*
X58250128Y-63603238D01*
X58345366Y-63698476D01*
X58440604Y-63746095D01*
X57250128Y-63460380D02*
X57154890Y-63460380D01*
X57059652Y-63508000D01*
X57012033Y-63555619D01*
X56964414Y-63650857D01*
X56916795Y-63841333D01*
X56916795Y-64079428D01*
X56964414Y-64269904D01*
X57012033Y-64365142D01*
X57059652Y-64412761D01*
X57154890Y-64460380D01*
X57250128Y-64460380D01*
X57345366Y-64412761D01*
X57392985Y-64365142D01*
X57440604Y-64269904D01*
X57488223Y-64079428D01*
X57488223Y-63841333D01*
X57440604Y-63650857D01*
X57392985Y-63555619D01*
X57345366Y-63508000D01*
X57250128Y-63460380D01*
X57469042Y-51871642D02*
X57516661Y-51824023D01*
X57564280Y-51681166D01*
X57564280Y-51585928D01*
X57516661Y-51443071D01*
X57421423Y-51347833D01*
X57326185Y-51300214D01*
X57135709Y-51252595D01*
X56992852Y-51252595D01*
X56802376Y-51300214D01*
X56707138Y-51347833D01*
X56611900Y-51443071D01*
X56564280Y-51585928D01*
X56564280Y-51681166D01*
X56611900Y-51824023D01*
X56659519Y-51871642D01*
X57564280Y-52824023D02*
X57564280Y-52252595D01*
X57564280Y-52538309D02*
X56564280Y-52538309D01*
X56707138Y-52443071D01*
X56802376Y-52347833D01*
X56849995Y-52252595D01*
X56564280Y-53728785D02*
X56564280Y-53252595D01*
X57040471Y-53204976D01*
X56992852Y-53252595D01*
X56945233Y-53347833D01*
X56945233Y-53585928D01*
X56992852Y-53681166D01*
X57040471Y-53728785D01*
X57135709Y-53776404D01*
X57373804Y-53776404D01*
X57469042Y-53728785D01*
X57516661Y-53681166D01*
X57564280Y-53585928D01*
X57564280Y-53347833D01*
X57516661Y-53252595D01*
X57469042Y-53204976D01*
X54452571Y-52434366D02*
X54452571Y-52101033D01*
X54976380Y-52101033D02*
X53976380Y-52101033D01*
X53976380Y-52577223D01*
X54976380Y-53481985D02*
X54976380Y-52910557D01*
X54976380Y-53196271D02*
X53976380Y-53196271D01*
X54119238Y-53101033D01*
X54214476Y-53005795D01*
X54262095Y-52910557D01*
X54757533Y-58640671D02*
X55090866Y-58640671D01*
X55090866Y-59164480D02*
X55090866Y-58164480D01*
X54614676Y-58164480D01*
X53900390Y-58640671D02*
X53757533Y-58688290D01*
X53709914Y-58735909D01*
X53662295Y-58831147D01*
X53662295Y-58974004D01*
X53709914Y-59069242D01*
X53757533Y-59116861D01*
X53852771Y-59164480D01*
X54233723Y-59164480D01*
X54233723Y-58164480D01*
X53900390Y-58164480D01*
X53805152Y-58212100D01*
X53757533Y-58259719D01*
X53709914Y-58354957D01*
X53709914Y-58450195D01*
X53757533Y-58545433D01*
X53805152Y-58593052D01*
X53900390Y-58640671D01*
X54233723Y-58640671D01*
X52709914Y-59164480D02*
X53281342Y-59164480D01*
X52995628Y-59164480D02*
X52995628Y-58164480D01*
X53090866Y-58307338D01*
X53186104Y-58402576D01*
X53281342Y-58450195D01*
X87809366Y-54020980D02*
X88142700Y-53544790D01*
X88380795Y-54020980D02*
X88380795Y-53020980D01*
X87999842Y-53020980D01*
X87904604Y-53068600D01*
X87856985Y-53116219D01*
X87809366Y-53211457D01*
X87809366Y-53354314D01*
X87856985Y-53449552D01*
X87904604Y-53497171D01*
X87999842Y-53544790D01*
X88380795Y-53544790D01*
X86952223Y-53020980D02*
X87142700Y-53020980D01*
X87237938Y-53068600D01*
X87285557Y-53116219D01*
X87380795Y-53259076D01*
X87428414Y-53449552D01*
X87428414Y-53830504D01*
X87380795Y-53925742D01*
X87333176Y-53973361D01*
X87237938Y-54020980D01*
X87047461Y-54020980D01*
X86952223Y-53973361D01*
X86904604Y-53925742D01*
X86856985Y-53830504D01*
X86856985Y-53592409D01*
X86904604Y-53497171D01*
X86952223Y-53449552D01*
X87047461Y-53401933D01*
X87237938Y-53401933D01*
X87333176Y-53449552D01*
X87380795Y-53497171D01*
X87428414Y-53592409D01*
X87822066Y-52471580D02*
X88155400Y-51995390D01*
X88393495Y-52471580D02*
X88393495Y-51471580D01*
X88012542Y-51471580D01*
X87917304Y-51519200D01*
X87869685Y-51566819D01*
X87822066Y-51662057D01*
X87822066Y-51804914D01*
X87869685Y-51900152D01*
X87917304Y-51947771D01*
X88012542Y-51995390D01*
X88393495Y-51995390D01*
X87488733Y-51471580D02*
X86822066Y-51471580D01*
X87250638Y-52471580D01*
X87809366Y-50731680D02*
X88142700Y-50255490D01*
X88380795Y-50731680D02*
X88380795Y-49731680D01*
X87999842Y-49731680D01*
X87904604Y-49779300D01*
X87856985Y-49826919D01*
X87809366Y-49922157D01*
X87809366Y-50065014D01*
X87856985Y-50160252D01*
X87904604Y-50207871D01*
X87999842Y-50255490D01*
X88380795Y-50255490D01*
X87237938Y-50160252D02*
X87333176Y-50112633D01*
X87380795Y-50065014D01*
X87428414Y-49969776D01*
X87428414Y-49922157D01*
X87380795Y-49826919D01*
X87333176Y-49779300D01*
X87237938Y-49731680D01*
X87047461Y-49731680D01*
X86952223Y-49779300D01*
X86904604Y-49826919D01*
X86856985Y-49922157D01*
X86856985Y-49969776D01*
X86904604Y-50065014D01*
X86952223Y-50112633D01*
X87047461Y-50160252D01*
X87237938Y-50160252D01*
X87333176Y-50207871D01*
X87380795Y-50255490D01*
X87428414Y-50350728D01*
X87428414Y-50541204D01*
X87380795Y-50636442D01*
X87333176Y-50684061D01*
X87237938Y-50731680D01*
X87047461Y-50731680D01*
X86952223Y-50684061D01*
X86904604Y-50636442D01*
X86856985Y-50541204D01*
X86856985Y-50350728D01*
X86904604Y-50255490D01*
X86952223Y-50207871D01*
X87047461Y-50160252D01*
X58344666Y-45793580D02*
X58678000Y-45317390D01*
X58916095Y-45793580D02*
X58916095Y-44793580D01*
X58535142Y-44793580D01*
X58439904Y-44841200D01*
X58392285Y-44888819D01*
X58344666Y-44984057D01*
X58344666Y-45126914D01*
X58392285Y-45222152D01*
X58439904Y-45269771D01*
X58535142Y-45317390D01*
X58916095Y-45317390D01*
X57868476Y-45793580D02*
X57678000Y-45793580D01*
X57582761Y-45745961D01*
X57535142Y-45698342D01*
X57439904Y-45555485D01*
X57392285Y-45365009D01*
X57392285Y-44984057D01*
X57439904Y-44888819D01*
X57487523Y-44841200D01*
X57582761Y-44793580D01*
X57773238Y-44793580D01*
X57868476Y-44841200D01*
X57916095Y-44888819D01*
X57963714Y-44984057D01*
X57963714Y-45222152D01*
X57916095Y-45317390D01*
X57868476Y-45365009D01*
X57773238Y-45412628D01*
X57582761Y-45412628D01*
X57487523Y-45365009D01*
X57439904Y-45317390D01*
X57392285Y-45222152D01*
X74786157Y-54315280D02*
X75119490Y-53839090D01*
X75357585Y-54315280D02*
X75357585Y-53315280D01*
X74976633Y-53315280D01*
X74881395Y-53362900D01*
X74833776Y-53410519D01*
X74786157Y-53505757D01*
X74786157Y-53648614D01*
X74833776Y-53743852D01*
X74881395Y-53791471D01*
X74976633Y-53839090D01*
X75357585Y-53839090D01*
X73833776Y-54315280D02*
X74405204Y-54315280D01*
X74119490Y-54315280D02*
X74119490Y-53315280D01*
X74214728Y-53458138D01*
X74309966Y-53553376D01*
X74405204Y-53600995D01*
X73214728Y-53315280D02*
X73119490Y-53315280D01*
X73024252Y-53362900D01*
X72976633Y-53410519D01*
X72929014Y-53505757D01*
X72881395Y-53696233D01*
X72881395Y-53934328D01*
X72929014Y-54124804D01*
X72976633Y-54220042D01*
X73024252Y-54267661D01*
X73119490Y-54315280D01*
X73214728Y-54315280D01*
X73309966Y-54267661D01*
X73357585Y-54220042D01*
X73405204Y-54124804D01*
X73452823Y-53934328D01*
X73452823Y-53696233D01*
X73405204Y-53505757D01*
X73357585Y-53410519D01*
X73309966Y-53362900D01*
X73214728Y-53315280D01*
X61310757Y-61844180D02*
X61644090Y-61367990D01*
X61882185Y-61844180D02*
X61882185Y-60844180D01*
X61501233Y-60844180D01*
X61405995Y-60891800D01*
X61358376Y-60939419D01*
X61310757Y-61034657D01*
X61310757Y-61177514D01*
X61358376Y-61272752D01*
X61405995Y-61320371D01*
X61501233Y-61367990D01*
X61882185Y-61367990D01*
X60358376Y-61844180D02*
X60929804Y-61844180D01*
X60644090Y-61844180D02*
X60644090Y-60844180D01*
X60739328Y-60987038D01*
X60834566Y-61082276D01*
X60929804Y-61129895D01*
X59405995Y-61844180D02*
X59977423Y-61844180D01*
X59691709Y-61844180D02*
X59691709Y-60844180D01*
X59786947Y-60987038D01*
X59882185Y-61082276D01*
X59977423Y-61129895D01*
X86113857Y-57132480D02*
X86447190Y-56656290D01*
X86685285Y-57132480D02*
X86685285Y-56132480D01*
X86304333Y-56132480D01*
X86209095Y-56180100D01*
X86161476Y-56227719D01*
X86113857Y-56322957D01*
X86113857Y-56465814D01*
X86161476Y-56561052D01*
X86209095Y-56608671D01*
X86304333Y-56656290D01*
X86685285Y-56656290D01*
X85161476Y-57132480D02*
X85732904Y-57132480D01*
X85447190Y-57132480D02*
X85447190Y-56132480D01*
X85542428Y-56275338D01*
X85637666Y-56370576D01*
X85732904Y-56418195D01*
X84780523Y-56227719D02*
X84732904Y-56180100D01*
X84637666Y-56132480D01*
X84399571Y-56132480D01*
X84304333Y-56180100D01*
X84256714Y-56227719D01*
X84209095Y-56322957D01*
X84209095Y-56418195D01*
X84256714Y-56561052D01*
X84828142Y-57132480D01*
X84209095Y-57132480D01*
X58788204Y-55167280D02*
X58788204Y-55976804D01*
X58740585Y-56072042D01*
X58692966Y-56119661D01*
X58597728Y-56167280D01*
X58407252Y-56167280D01*
X58312014Y-56119661D01*
X58264395Y-56072042D01*
X58216776Y-55976804D01*
X58216776Y-55167280D01*
X57216776Y-56167280D02*
X57788204Y-56167280D01*
X57502490Y-56167280D02*
X57502490Y-55167280D01*
X57597728Y-55310138D01*
X57692966Y-55405376D01*
X57788204Y-55452995D01*
X82764204Y-44561080D02*
X82764204Y-45370604D01*
X82716585Y-45465842D01*
X82668966Y-45513461D01*
X82573728Y-45561080D01*
X82383252Y-45561080D01*
X82288014Y-45513461D01*
X82240395Y-45465842D01*
X82192776Y-45370604D01*
X82192776Y-44561080D01*
X81811823Y-44561080D02*
X81192776Y-44561080D01*
X81526109Y-44942033D01*
X81383252Y-44942033D01*
X81288014Y-44989652D01*
X81240395Y-45037271D01*
X81192776Y-45132509D01*
X81192776Y-45370604D01*
X81240395Y-45465842D01*
X81288014Y-45513461D01*
X81383252Y-45561080D01*
X81668966Y-45561080D01*
X81764204Y-45513461D01*
X81811823Y-45465842D01*
X82715004Y-58951880D02*
X82715004Y-59761404D01*
X82667385Y-59856642D01*
X82619766Y-59904261D01*
X82524528Y-59951880D01*
X82334052Y-59951880D01*
X82238814Y-59904261D01*
X82191195Y-59856642D01*
X82143576Y-59761404D01*
X82143576Y-58951880D01*
X81238814Y-59285214D02*
X81238814Y-59951880D01*
X81476909Y-58904261D02*
X81715004Y-59618547D01*
X81095957Y-59618547D01*
X67678204Y-40663880D02*
X67678204Y-41473404D01*
X67630585Y-41568642D01*
X67582966Y-41616261D01*
X67487728Y-41663880D01*
X67297252Y-41663880D01*
X67202014Y-41616261D01*
X67154395Y-41568642D01*
X67106776Y-41473404D01*
X67106776Y-40663880D01*
X66202014Y-40663880D02*
X66392490Y-40663880D01*
X66487728Y-40711500D01*
X66535347Y-40759119D01*
X66630585Y-40901976D01*
X66678204Y-41092452D01*
X66678204Y-41473404D01*
X66630585Y-41568642D01*
X66582966Y-41616261D01*
X66487728Y-41663880D01*
X66297252Y-41663880D01*
X66202014Y-41616261D01*
X66154395Y-41568642D01*
X66106776Y-41473404D01*
X66106776Y-41235309D01*
X66154395Y-41140071D01*
X66202014Y-41092452D01*
X66297252Y-41044833D01*
X66487728Y-41044833D01*
X66582966Y-41092452D01*
X66630585Y-41140071D01*
X66678204Y-41235309D01*
X58211933Y-46689971D02*
X58545266Y-46689971D01*
X58545266Y-47213780D02*
X58545266Y-46213780D01*
X58069076Y-46213780D01*
X57354790Y-46689971D02*
X57211933Y-46737590D01*
X57164314Y-46785209D01*
X57116695Y-46880447D01*
X57116695Y-47023304D01*
X57164314Y-47118542D01*
X57211933Y-47166161D01*
X57307171Y-47213780D01*
X57688123Y-47213780D01*
X57688123Y-46213780D01*
X57354790Y-46213780D01*
X57259552Y-46261400D01*
X57211933Y-46309019D01*
X57164314Y-46404257D01*
X57164314Y-46499495D01*
X57211933Y-46594733D01*
X57259552Y-46642352D01*
X57354790Y-46689971D01*
X57688123Y-46689971D01*
X56735742Y-46309019D02*
X56688123Y-46261400D01*
X56592885Y-46213780D01*
X56354790Y-46213780D01*
X56259552Y-46261400D01*
X56211933Y-46309019D01*
X56164314Y-46404257D01*
X56164314Y-46499495D01*
X56211933Y-46642352D01*
X56783361Y-47213780D01*
X56164314Y-47213780D01*
X52566166Y-60123342D02*
X52613785Y-60170961D01*
X52756642Y-60218580D01*
X52851880Y-60218580D01*
X52994738Y-60170961D01*
X53089976Y-60075723D01*
X53137595Y-59980485D01*
X53185214Y-59790009D01*
X53185214Y-59647152D01*
X53137595Y-59456676D01*
X53089976Y-59361438D01*
X52994738Y-59266200D01*
X52851880Y-59218580D01*
X52756642Y-59218580D01*
X52613785Y-59266200D01*
X52566166Y-59313819D01*
X52185214Y-59313819D02*
X52137595Y-59266200D01*
X52042357Y-59218580D01*
X51804261Y-59218580D01*
X51709023Y-59266200D01*
X51661404Y-59313819D01*
X51613785Y-59409057D01*
X51613785Y-59504295D01*
X51661404Y-59647152D01*
X52232833Y-60218580D01*
X51613785Y-60218580D01*
X71483480Y-41102042D02*
X71007290Y-40768709D01*
X71483480Y-40530614D02*
X70483480Y-40530614D01*
X70483480Y-40911566D01*
X70531100Y-41006804D01*
X70578719Y-41054423D01*
X70673957Y-41102042D01*
X70816814Y-41102042D01*
X70912052Y-41054423D01*
X70959671Y-41006804D01*
X71007290Y-40911566D01*
X71007290Y-40530614D01*
X71483480Y-42054423D02*
X71483480Y-41482995D01*
X71483480Y-41768709D02*
X70483480Y-41768709D01*
X70626338Y-41673471D01*
X70721576Y-41578233D01*
X70769195Y-41482995D01*
X70483480Y-42387757D02*
X70483480Y-43054423D01*
X71483480Y-42625852D01*
X73032880Y-41114742D02*
X72556690Y-40781409D01*
X73032880Y-40543314D02*
X72032880Y-40543314D01*
X72032880Y-40924266D01*
X72080500Y-41019504D01*
X72128119Y-41067123D01*
X72223357Y-41114742D01*
X72366214Y-41114742D01*
X72461452Y-41067123D01*
X72509071Y-41019504D01*
X72556690Y-40924266D01*
X72556690Y-40543314D01*
X73032880Y-42067123D02*
X73032880Y-41495695D01*
X73032880Y-41781409D02*
X72032880Y-41781409D01*
X72175738Y-41686171D01*
X72270976Y-41590933D01*
X72318595Y-41495695D01*
X72461452Y-42638552D02*
X72413833Y-42543314D01*
X72366214Y-42495695D01*
X72270976Y-42448076D01*
X72223357Y-42448076D01*
X72128119Y-42495695D01*
X72080500Y-42543314D01*
X72032880Y-42638552D01*
X72032880Y-42829028D01*
X72080500Y-42924266D01*
X72128119Y-42971885D01*
X72223357Y-43019504D01*
X72270976Y-43019504D01*
X72366214Y-42971885D01*
X72413833Y-42924266D01*
X72461452Y-42829028D01*
X72461452Y-42638552D01*
X72509071Y-42543314D01*
X72556690Y-42495695D01*
X72651928Y-42448076D01*
X72842404Y-42448076D01*
X72937642Y-42495695D01*
X72985261Y-42543314D01*
X73032880Y-42638552D01*
X73032880Y-42829028D01*
X72985261Y-42924266D01*
X72937642Y-42971885D01*
X72842404Y-43019504D01*
X72651928Y-43019504D01*
X72556690Y-42971885D01*
X72509071Y-42924266D01*
X72461452Y-42829028D01*
%LPC*%
D14*
X71793100Y-60358020D03*
X73063100Y-60358020D03*
X74333100Y-60358020D03*
D15*
X75603100Y-60358020D03*
D16*
G36*
X75773700Y-57076400D02*
G01*
X75773700Y-58076400D01*
X75323700Y-57626400D01*
X74873700Y-58076400D01*
X74873700Y-57076400D01*
X75773700Y-57076400D01*
G37*
G36*
X75323700Y-57776400D02*
G01*
X75773700Y-58226400D01*
X75773700Y-59076400D01*
X74873700Y-59076400D01*
X74873700Y-58226400D01*
X75323700Y-57776400D01*
G37*
G36*
X65967800Y-50718300D02*
G01*
X66967800Y-50718300D01*
X66517800Y-51168300D01*
X66967800Y-51618300D01*
X65967800Y-51618300D01*
X65967800Y-50718300D01*
G37*
G36*
X66667800Y-51168300D02*
G01*
X67117800Y-50718300D01*
X67967800Y-50718300D01*
X67967800Y-51618300D01*
X67117800Y-51618300D01*
X66667800Y-51168300D01*
G37*
G36*
X65966400Y-54629900D02*
G01*
X66966400Y-54629900D01*
X66516400Y-55079900D01*
X66966400Y-55529900D01*
X65966400Y-55529900D01*
X65966400Y-54629900D01*
G37*
G36*
X66666400Y-55079900D02*
G01*
X67116400Y-54629900D01*
X67966400Y-54629900D01*
X67966400Y-55529900D01*
X67116400Y-55529900D01*
X66666400Y-55079900D01*
G37*
G36*
X63608800Y-53959700D02*
G01*
X63608800Y-52959700D01*
X64058800Y-53409700D01*
X64508800Y-52959700D01*
X64508800Y-53959700D01*
X63608800Y-53959700D01*
G37*
G36*
X64058800Y-53259700D02*
G01*
X63608800Y-52809700D01*
X63608800Y-51959700D01*
X64508800Y-51959700D01*
X64508800Y-52809700D01*
X64058800Y-53259700D01*
G37*
G36*
X65966400Y-52013700D02*
G01*
X66966400Y-52013700D01*
X66516400Y-52463700D01*
X66966400Y-52913700D01*
X65966400Y-52913700D01*
X65966400Y-52013700D01*
G37*
G36*
X66666400Y-52463700D02*
G01*
X67116400Y-52013700D01*
X67966400Y-52013700D01*
X67966400Y-52913700D01*
X67116400Y-52913700D01*
X66666400Y-52463700D01*
G37*
G36*
X65966400Y-53334500D02*
G01*
X66966400Y-53334500D01*
X66516400Y-53784500D01*
X66966400Y-54234500D01*
X65966400Y-54234500D01*
X65966400Y-53334500D01*
G37*
G36*
X66666400Y-53784500D02*
G01*
X67116400Y-53334500D01*
X67966400Y-53334500D01*
X67966400Y-54234500D01*
X67116400Y-54234500D01*
X66666400Y-53784500D01*
G37*
D17*
X60037100Y-41182300D03*
X56377100Y-41182300D03*
X56374100Y-64227700D03*
X60034100Y-64227700D03*
D18*
X86448900Y-42506900D03*
X86448900Y-62903100D03*
X53340000Y-62903100D03*
X53340000Y-42506900D03*
D19*
X61342400Y-53378100D03*
X59842400Y-53378100D03*
X59841700Y-54762400D03*
X61341700Y-54762400D03*
X55627400Y-48247300D03*
X54127400Y-48247300D03*
X60960000Y-59728100D03*
X62460000Y-59728100D03*
X58891300Y-42418000D03*
X57391300Y-42418000D03*
D20*
X77597000Y-50318800D03*
X77597000Y-48818800D03*
X76225400Y-50318100D03*
X76225400Y-48818100D03*
D19*
X69202300Y-57365900D03*
X67702300Y-57365900D03*
X73926700Y-58699400D03*
X72426700Y-58699400D03*
X72428100Y-57302400D03*
X73928100Y-57302400D03*
X57377900Y-62750700D03*
X58877900Y-62750700D03*
D20*
X58432700Y-53366800D03*
X58432700Y-51866800D03*
D21*
X52324000Y-51137700D03*
X52324000Y-54297700D03*
D22*
X54024400Y-57251600D03*
X55524400Y-57251600D03*
D23*
X52362100Y-56205000D03*
X52362100Y-49205000D03*
D24*
X55062100Y-55205000D03*
X55062100Y-50205000D03*
D22*
X84658200Y-53555900D03*
X86158200Y-53555900D03*
X86158200Y-51904900D03*
X84658200Y-51904900D03*
X86157500Y-50253900D03*
X84657500Y-50253900D03*
X58928000Y-43891200D03*
X57428000Y-43891200D03*
X73393300Y-52412900D03*
X74893300Y-52412900D03*
X58789000Y-61277500D03*
X57289000Y-61277500D03*
X84658200Y-55219600D03*
X86158200Y-55219600D03*
D25*
X56908700Y-58214300D03*
X56908700Y-57264300D03*
X56908700Y-59164300D03*
X59508700Y-59164300D03*
X59508700Y-57264300D03*
X80632300Y-49288700D03*
X80632300Y-48338700D03*
X80632300Y-47388700D03*
X83232300Y-47388700D03*
X83232300Y-48338700D03*
X83232300Y-49288700D03*
X80632300Y-58000900D03*
X83232300Y-58000900D03*
X80632300Y-57050900D03*
X80632300Y-56100900D03*
X83232300Y-57050900D03*
X83232300Y-56100900D03*
D26*
X65532000Y-44335700D03*
X65532000Y-43385700D03*
X68332000Y-42435700D03*
X65532000Y-42435700D03*
X68332000Y-43385700D03*
X68332000Y-44335700D03*
D22*
X54000400Y-46774100D03*
X55500400Y-46774100D03*
D19*
X55486300Y-59728100D03*
X53986300Y-59728100D03*
D15*
X69888100Y-46736000D03*
D14*
X71158100Y-46736000D03*
X72428100Y-46736000D03*
X73698100Y-46736000D03*
X74968100Y-46736000D03*
X76238100Y-46736000D03*
X77508100Y-46736000D03*
D27*
X70967600Y-43546900D03*
X70967600Y-45046900D03*
X72529700Y-45035600D03*
X72529700Y-43535600D03*
M02*
