G04 #@! TF.GenerationSoftware,KiCad,Pcbnew,(5.1.10)-1*
G04 #@! TF.CreationDate,2021-11-16T23:48:59-08:00*
G04 #@! TF.ProjectId,DigitalFadingLED,44696769-7461-46c4-9661-64696e674c45,rev?*
G04 #@! TF.SameCoordinates,Original*
G04 #@! TF.FileFunction,Soldermask,Top*
G04 #@! TF.FilePolarity,Negative*
%FSLAX46Y46*%
G04 Gerber Fmt 4.6, Leading zero omitted, Abs format (unit mm)*
G04 Created by KiCad (PCBNEW (5.1.10)-1) date 2021-11-16 23:48:59*
%MOMM*%
%LPD*%
G01*
G04 APERTURE LIST*
%ADD10C,0.000100*%
%ADD11R,2.799999X2.100000*%
%ADD12R,1.900000X0.600000*%
%ADD13C,1.000000*%
%ADD14R,1.000000X1.000000*%
%ADD15C,0.100000*%
%ADD16C,0.800000*%
%ADD17R,0.700000X1.100000*%
%ADD18R,1.400000X1.100000*%
%ADD19C,4.399999*%
%ADD20R,0.800000X0.750000*%
%ADD21R,0.800000X0.800000*%
%ADD22O,1.550000X0.775000*%
%ADD23R,1.550000X1.500000*%
%ADD24O,0.650000X1.300000*%
%ADD25R,1.350000X0.400000*%
%ADD26R,0.500000X0.900000*%
%ADD27R,0.900000X0.500000*%
%ADD28R,1.200000X0.500000*%
%ADD29R,0.500000X1.200000*%
%ADD30R,1.500000X0.450000*%
G04 APERTURE END LIST*
D10*
G36*
X51487100Y-56305000D02*
G01*
X51487100Y-54905000D01*
X53237100Y-54905000D01*
X53237100Y-56305000D01*
X53236415Y-56331168D01*
X53234361Y-56357264D01*
X53230944Y-56383217D01*
X53226174Y-56408956D01*
X53220063Y-56434410D01*
X53212628Y-56459508D01*
X53203890Y-56484184D01*
X53193873Y-56508368D01*
X53182603Y-56531995D01*
X53170113Y-56555000D01*
X53156435Y-56577320D01*
X53141608Y-56598893D01*
X53125673Y-56619660D01*
X53108672Y-56639565D01*
X53090653Y-56658553D01*
X53071665Y-56676572D01*
X53051760Y-56693573D01*
X53030993Y-56709508D01*
X53009420Y-56724335D01*
X52987100Y-56738013D01*
X52964095Y-56750503D01*
X52940468Y-56761773D01*
X52916284Y-56771790D01*
X52891608Y-56780528D01*
X52866510Y-56787963D01*
X52841056Y-56794074D01*
X52815317Y-56798844D01*
X52789364Y-56802261D01*
X52763268Y-56804315D01*
X52737100Y-56805000D01*
X51987100Y-56805000D01*
X51960932Y-56804315D01*
X51934836Y-56802261D01*
X51908883Y-56798844D01*
X51883144Y-56794074D01*
X51857690Y-56787963D01*
X51832592Y-56780528D01*
X51807916Y-56771790D01*
X51783732Y-56761773D01*
X51760105Y-56750503D01*
X51737100Y-56738013D01*
X51714780Y-56724335D01*
X51693207Y-56709508D01*
X51672440Y-56693573D01*
X51652535Y-56676572D01*
X51633547Y-56658553D01*
X51615528Y-56639565D01*
X51598527Y-56619660D01*
X51582592Y-56598893D01*
X51567765Y-56577320D01*
X51554087Y-56555000D01*
X51541597Y-56531995D01*
X51530327Y-56508368D01*
X51520310Y-56484184D01*
X51511572Y-56459508D01*
X51504137Y-56434410D01*
X51498026Y-56408956D01*
X51493256Y-56383217D01*
X51489839Y-56357264D01*
X51487785Y-56331168D01*
X51487100Y-56305000D01*
G37*
X51487100Y-56305000D02*
X51487100Y-54905000D01*
X53237100Y-54905000D01*
X53237100Y-56305000D01*
X53236415Y-56331168D01*
X53234361Y-56357264D01*
X53230944Y-56383217D01*
X53226174Y-56408956D01*
X53220063Y-56434410D01*
X53212628Y-56459508D01*
X53203890Y-56484184D01*
X53193873Y-56508368D01*
X53182603Y-56531995D01*
X53170113Y-56555000D01*
X53156435Y-56577320D01*
X53141608Y-56598893D01*
X53125673Y-56619660D01*
X53108672Y-56639565D01*
X53090653Y-56658553D01*
X53071665Y-56676572D01*
X53051760Y-56693573D01*
X53030993Y-56709508D01*
X53009420Y-56724335D01*
X52987100Y-56738013D01*
X52964095Y-56750503D01*
X52940468Y-56761773D01*
X52916284Y-56771790D01*
X52891608Y-56780528D01*
X52866510Y-56787963D01*
X52841056Y-56794074D01*
X52815317Y-56798844D01*
X52789364Y-56802261D01*
X52763268Y-56804315D01*
X52737100Y-56805000D01*
X51987100Y-56805000D01*
X51960932Y-56804315D01*
X51934836Y-56802261D01*
X51908883Y-56798844D01*
X51883144Y-56794074D01*
X51857690Y-56787963D01*
X51832592Y-56780528D01*
X51807916Y-56771790D01*
X51783732Y-56761773D01*
X51760105Y-56750503D01*
X51737100Y-56738013D01*
X51714780Y-56724335D01*
X51693207Y-56709508D01*
X51672440Y-56693573D01*
X51652535Y-56676572D01*
X51633547Y-56658553D01*
X51615528Y-56639565D01*
X51598527Y-56619660D01*
X51582592Y-56598893D01*
X51567765Y-56577320D01*
X51554087Y-56555000D01*
X51541597Y-56531995D01*
X51530327Y-56508368D01*
X51520310Y-56484184D01*
X51511572Y-56459508D01*
X51504137Y-56434410D01*
X51498026Y-56408956D01*
X51493256Y-56383217D01*
X51489839Y-56357264D01*
X51487785Y-56331168D01*
X51487100Y-56305000D01*
G36*
X53237100Y-49105000D02*
G01*
X53237100Y-50505000D01*
X51487100Y-50505000D01*
X51487100Y-49105000D01*
X51487785Y-49078832D01*
X51489839Y-49052736D01*
X51493256Y-49026783D01*
X51498026Y-49001044D01*
X51504137Y-48975590D01*
X51511572Y-48950492D01*
X51520310Y-48925816D01*
X51530327Y-48901632D01*
X51541597Y-48878005D01*
X51554087Y-48855000D01*
X51567765Y-48832680D01*
X51582592Y-48811107D01*
X51598527Y-48790340D01*
X51615528Y-48770435D01*
X51633547Y-48751447D01*
X51652535Y-48733428D01*
X51672440Y-48716427D01*
X51693207Y-48700492D01*
X51714780Y-48685665D01*
X51737100Y-48671987D01*
X51760105Y-48659497D01*
X51783732Y-48648227D01*
X51807916Y-48638210D01*
X51832592Y-48629472D01*
X51857690Y-48622037D01*
X51883144Y-48615926D01*
X51908883Y-48611156D01*
X51934836Y-48607739D01*
X51960932Y-48605685D01*
X51987100Y-48605000D01*
X52737100Y-48605000D01*
X52763268Y-48605685D01*
X52789364Y-48607739D01*
X52815317Y-48611156D01*
X52841056Y-48615926D01*
X52866510Y-48622037D01*
X52891608Y-48629472D01*
X52916284Y-48638210D01*
X52940468Y-48648227D01*
X52964095Y-48659497D01*
X52987100Y-48671987D01*
X53009420Y-48685665D01*
X53030993Y-48700492D01*
X53051760Y-48716427D01*
X53071665Y-48733428D01*
X53090653Y-48751447D01*
X53108672Y-48770435D01*
X53125673Y-48790340D01*
X53141608Y-48811107D01*
X53156435Y-48832680D01*
X53170113Y-48855000D01*
X53182603Y-48878005D01*
X53193873Y-48901632D01*
X53203890Y-48925816D01*
X53212628Y-48950492D01*
X53220063Y-48975590D01*
X53226174Y-49001044D01*
X53230944Y-49026783D01*
X53234361Y-49052736D01*
X53236415Y-49078832D01*
X53237100Y-49105000D01*
G37*
X53237100Y-49105000D02*
X53237100Y-50505000D01*
X51487100Y-50505000D01*
X51487100Y-49105000D01*
X51487785Y-49078832D01*
X51489839Y-49052736D01*
X51493256Y-49026783D01*
X51498026Y-49001044D01*
X51504137Y-48975590D01*
X51511572Y-48950492D01*
X51520310Y-48925816D01*
X51530327Y-48901632D01*
X51541597Y-48878005D01*
X51554087Y-48855000D01*
X51567765Y-48832680D01*
X51582592Y-48811107D01*
X51598527Y-48790340D01*
X51615528Y-48770435D01*
X51633547Y-48751447D01*
X51652535Y-48733428D01*
X51672440Y-48716427D01*
X51693207Y-48700492D01*
X51714780Y-48685665D01*
X51737100Y-48671987D01*
X51760105Y-48659497D01*
X51783732Y-48648227D01*
X51807916Y-48638210D01*
X51832592Y-48629472D01*
X51857690Y-48622037D01*
X51883144Y-48615926D01*
X51908883Y-48611156D01*
X51934836Y-48607739D01*
X51960932Y-48605685D01*
X51987100Y-48605000D01*
X52737100Y-48605000D01*
X52763268Y-48605685D01*
X52789364Y-48607739D01*
X52815317Y-48611156D01*
X52841056Y-48615926D01*
X52866510Y-48622037D01*
X52891608Y-48629472D01*
X52916284Y-48638210D01*
X52940468Y-48648227D01*
X52964095Y-48659497D01*
X52987100Y-48671987D01*
X53009420Y-48685665D01*
X53030993Y-48700492D01*
X53051760Y-48716427D01*
X53071665Y-48733428D01*
X53090653Y-48751447D01*
X53108672Y-48770435D01*
X53125673Y-48790340D01*
X53141608Y-48811107D01*
X53156435Y-48832680D01*
X53170113Y-48855000D01*
X53182603Y-48878005D01*
X53193873Y-48901632D01*
X53203890Y-48925816D01*
X53212628Y-48950492D01*
X53220063Y-48975590D01*
X53226174Y-49001044D01*
X53230944Y-49026783D01*
X53234361Y-49052736D01*
X53236415Y-49078832D01*
X53237100Y-49105000D01*
D11*
X84239600Y-47049000D03*
X84239600Y-58349000D03*
D12*
X81889600Y-55199000D03*
X81889600Y-50199000D03*
X81889600Y-51199000D03*
X81889600Y-52199000D03*
X81889600Y-53199000D03*
X81889600Y-54199000D03*
D13*
X71793100Y-60358020D03*
X73063100Y-60358020D03*
X74333100Y-60358020D03*
D14*
X75603100Y-60358020D03*
D15*
G36*
X60537100Y-41587300D02*
G01*
X60002100Y-41587300D01*
X60002100Y-41585304D01*
X59978408Y-41582971D01*
X59939908Y-41575313D01*
X59902344Y-41563918D01*
X59866078Y-41548896D01*
X59831459Y-41530391D01*
X59798820Y-41508583D01*
X59768476Y-41483680D01*
X59740720Y-41455924D01*
X59715817Y-41425580D01*
X59694009Y-41392941D01*
X59675504Y-41358322D01*
X59660482Y-41322056D01*
X59649087Y-41284492D01*
X59641429Y-41245992D01*
X59637582Y-41206927D01*
X59637582Y-41187300D01*
X59637100Y-41187300D01*
X59637100Y-40887300D01*
X59387100Y-40887300D01*
X59387100Y-40237300D01*
X60537100Y-40237300D01*
X60537100Y-41587300D01*
G37*
G36*
X57027100Y-40887300D02*
G01*
X56777100Y-40887300D01*
X56777100Y-41187300D01*
X56776618Y-41187300D01*
X56776618Y-41206927D01*
X56772771Y-41245992D01*
X56765113Y-41284492D01*
X56753718Y-41322056D01*
X56738696Y-41358322D01*
X56720191Y-41392941D01*
X56698383Y-41425580D01*
X56673480Y-41455924D01*
X56645724Y-41483680D01*
X56615380Y-41508583D01*
X56582741Y-41530391D01*
X56548122Y-41548896D01*
X56511856Y-41563918D01*
X56474292Y-41575313D01*
X56435792Y-41582971D01*
X56412100Y-41585304D01*
X56412100Y-41587300D01*
X55877100Y-41587300D01*
X55877100Y-40237300D01*
X57027100Y-40237300D01*
X57027100Y-40887300D01*
G37*
D16*
X60037100Y-41182300D03*
X56377100Y-41182300D03*
D17*
X59607100Y-42532300D03*
D18*
X58207100Y-42682300D03*
D17*
X56807100Y-42532300D03*
D15*
G36*
X55874100Y-63822700D02*
G01*
X56409100Y-63822700D01*
X56409100Y-63824696D01*
X56432792Y-63827029D01*
X56471292Y-63834687D01*
X56508856Y-63846082D01*
X56545122Y-63861104D01*
X56579741Y-63879609D01*
X56612380Y-63901417D01*
X56642724Y-63926320D01*
X56670480Y-63954076D01*
X56695383Y-63984420D01*
X56717191Y-64017059D01*
X56735696Y-64051678D01*
X56750718Y-64087944D01*
X56762113Y-64125508D01*
X56769771Y-64164008D01*
X56773618Y-64203073D01*
X56773618Y-64222700D01*
X56774100Y-64222700D01*
X56774100Y-64522700D01*
X57024100Y-64522700D01*
X57024100Y-65172700D01*
X55874100Y-65172700D01*
X55874100Y-63822700D01*
G37*
G36*
X59384100Y-64522700D02*
G01*
X59634100Y-64522700D01*
X59634100Y-64222700D01*
X59634582Y-64222700D01*
X59634582Y-64203073D01*
X59638429Y-64164008D01*
X59646087Y-64125508D01*
X59657482Y-64087944D01*
X59672504Y-64051678D01*
X59691009Y-64017059D01*
X59712817Y-63984420D01*
X59737720Y-63954076D01*
X59765476Y-63926320D01*
X59795820Y-63901417D01*
X59828459Y-63879609D01*
X59863078Y-63861104D01*
X59899344Y-63846082D01*
X59936908Y-63834687D01*
X59975408Y-63827029D01*
X59999100Y-63824696D01*
X59999100Y-63822700D01*
X60534100Y-63822700D01*
X60534100Y-65172700D01*
X59384100Y-65172700D01*
X59384100Y-64522700D01*
G37*
D16*
X56374100Y-64227700D03*
X60034100Y-64227700D03*
D17*
X56804100Y-62877700D03*
D18*
X58204100Y-62727700D03*
D17*
X59604100Y-62877700D03*
D19*
X86448900Y-42506900D03*
X86448900Y-62903100D03*
X53340000Y-62903100D03*
X53340000Y-42506900D03*
D20*
X61683200Y-47688500D03*
X63183200Y-47688500D03*
X60286900Y-47688500D03*
X58786900Y-47688500D03*
D21*
X62725300Y-56946800D03*
X62725300Y-58546800D03*
X59563000Y-58572200D03*
X59563000Y-56972200D03*
D22*
X52362100Y-56205000D03*
D23*
X52362100Y-53705000D03*
X52362100Y-51705000D03*
D22*
X52362100Y-49205000D03*
D24*
X55062100Y-55205000D03*
X55062100Y-50205000D03*
D25*
X55062100Y-54005000D03*
X55062100Y-53355000D03*
X55062100Y-52705000D03*
X55062100Y-52055000D03*
X55062100Y-51405000D03*
D26*
X60299600Y-49149000D03*
X58799600Y-49149000D03*
X63183900Y-49161700D03*
X61683900Y-49161700D03*
D27*
X64185800Y-56818400D03*
X64185800Y-58318400D03*
X58077100Y-58319100D03*
X58077100Y-56819100D03*
D28*
X67803100Y-50265100D03*
X67803100Y-51065100D03*
X67803100Y-51865100D03*
X67803100Y-52665100D03*
X67803100Y-53465100D03*
X67803100Y-54265100D03*
X67803100Y-55065100D03*
X67803100Y-55865100D03*
D29*
X69253100Y-48815100D03*
X70053100Y-48815100D03*
X70853100Y-48815100D03*
X71653100Y-48815100D03*
X72453100Y-48815100D03*
X73253100Y-48815100D03*
X74053100Y-48815100D03*
X74853100Y-48815100D03*
X74853100Y-57315100D03*
X74053100Y-57315100D03*
X73253100Y-57315100D03*
X72453100Y-57315100D03*
X71653100Y-57315100D03*
X70853100Y-57315100D03*
X70053100Y-57315100D03*
X69253100Y-57315100D03*
D28*
X76303100Y-53465100D03*
X76303100Y-50265100D03*
X76303100Y-51865100D03*
X76303100Y-52665100D03*
X76303100Y-51065100D03*
X76303100Y-55865100D03*
X76303100Y-55065100D03*
X76303100Y-54265100D03*
D30*
X64058800Y-54914800D03*
X64058800Y-54264800D03*
X64058800Y-53614800D03*
X64058800Y-52964800D03*
X64058800Y-52314800D03*
X64058800Y-51664800D03*
X64058800Y-51014800D03*
X64058800Y-50374800D03*
X58258800Y-50374800D03*
X58258800Y-51034800D03*
X58258800Y-51694800D03*
X58258800Y-52354800D03*
X58258800Y-53004800D03*
X58258800Y-53654800D03*
X58258800Y-54314800D03*
X58258800Y-54964800D03*
D14*
X69888100Y-46736000D03*
D13*
X71158100Y-46736000D03*
X72428100Y-46736000D03*
X73698100Y-46736000D03*
X74968100Y-46736000D03*
X76238100Y-46736000D03*
X77508100Y-46736000D03*
M02*
