G04 #@! TF.GenerationSoftware,KiCad,Pcbnew,(5.1.10)-1*
G04 #@! TF.CreationDate,2021-11-16T23:48:59-08:00*
G04 #@! TF.ProjectId,DigitalFadingLED,44696769-7461-46c4-9661-64696e674c45,rev?*
G04 #@! TF.SameCoordinates,Original*
G04 #@! TF.FileFunction,Copper,L2,Inr*
G04 #@! TF.FilePolarity,Positive*
%FSLAX46Y46*%
G04 Gerber Fmt 4.6, Leading zero omitted, Abs format (unit mm)*
G04 Created by KiCad (PCBNEW (5.1.10)-1) date 2021-11-16 23:48:59*
%MOMM*%
%LPD*%
G01*
G04 APERTURE LIST*
G04 #@! TA.AperFunction,ComponentPad*
%ADD10C,1.000000*%
G04 #@! TD*
G04 #@! TA.AperFunction,ComponentPad*
%ADD11R,1.000000X1.000000*%
G04 #@! TD*
G04 #@! TA.AperFunction,ComponentPad*
%ADD12C,0.800000*%
G04 #@! TD*
G04 #@! TA.AperFunction,ComponentPad*
%ADD13C,4.399999*%
G04 #@! TD*
G04 #@! TA.AperFunction,ComponentPad*
%ADD14O,1.550000X0.775000*%
G04 #@! TD*
G04 #@! TA.AperFunction,ComponentPad*
%ADD15O,0.650000X1.300000*%
G04 #@! TD*
G04 #@! TA.AperFunction,ViaPad*
%ADD16C,0.800000*%
G04 #@! TD*
G04 #@! TA.AperFunction,Conductor*
%ADD17C,0.254000*%
G04 #@! TD*
G04 #@! TA.AperFunction,Conductor*
%ADD18C,0.100000*%
G04 #@! TD*
G04 APERTURE END LIST*
D10*
X71793100Y-60358020D03*
X73063100Y-60358020D03*
X74333100Y-60358020D03*
D11*
X75603100Y-60358020D03*
D12*
X60037100Y-41182300D03*
X56377100Y-41182300D03*
X56374100Y-64227700D03*
X60034100Y-64227700D03*
D13*
X86448900Y-42506900D03*
X86448900Y-62903100D03*
X53340000Y-62903100D03*
X53340000Y-42506900D03*
D14*
X52362100Y-56205000D03*
X52362100Y-49205000D03*
D15*
X55062100Y-55205000D03*
X55062100Y-50205000D03*
D11*
X69888100Y-46736000D03*
D10*
X71158100Y-46736000D03*
X72428100Y-46736000D03*
X73698100Y-46736000D03*
X74968100Y-46736000D03*
X76238100Y-46736000D03*
X77508100Y-46736000D03*
D16*
X57658000Y-47612300D03*
X64262000Y-47688500D03*
X56172100Y-54368700D03*
X56908700Y-53022500D03*
X60985246Y-52476554D03*
X60820300Y-55740300D03*
X61644092Y-51069902D03*
X56451500Y-49745900D03*
X60528200Y-50969800D03*
X67818000Y-56476900D03*
X55651400Y-58521600D03*
X53987700Y-58559700D03*
X63576200Y-59728100D03*
X56121300Y-61556900D03*
X56108600Y-43713400D03*
X52806600Y-45999400D03*
X84467700Y-48920400D03*
X79629000Y-58039000D03*
X79527400Y-48348900D03*
X78714600Y-50330100D03*
X74892356Y-51037915D03*
X78663800Y-46736000D03*
X64450334Y-43521671D03*
X68313300Y-41579800D03*
X69773800Y-43314771D03*
X74714100Y-55676800D03*
X83553300Y-40970200D03*
X77393800Y-40970200D03*
X62166500Y-41008300D03*
X55448200Y-45173900D03*
X58140600Y-45212000D03*
X61925200Y-45770800D03*
X60020200Y-45173900D03*
X56730900Y-45135800D03*
X64566800Y-48996600D03*
X51866800Y-58610500D03*
X51904900Y-60299600D03*
X62369700Y-64401700D03*
X65443100Y-64427100D03*
X68465700Y-64439800D03*
X81064100Y-64363600D03*
X87909400Y-60286900D03*
X87922100Y-55587900D03*
X87934800Y-48171100D03*
X87909400Y-45415200D03*
X55994300Y-51079400D03*
X59829700Y-52419800D03*
X55486300Y-60629800D03*
X82143600Y-56578500D03*
X69227700Y-56159400D03*
X72440800Y-56210200D03*
X74879200Y-50038000D03*
X58153300Y-41173400D03*
X66153099Y-46926500D03*
X60744100Y-42519600D03*
X71666100Y-54940200D03*
X60680600Y-62890400D03*
X57035700Y-51701700D03*
X61125100Y-57645300D03*
X87134700Y-51904900D03*
X87134700Y-50266600D03*
X83413600Y-52222400D03*
X81927700Y-58013600D03*
X83464814Y-51223710D03*
X81889600Y-49187100D03*
X87198200Y-53555900D03*
X73328100Y-50015092D03*
X66153099Y-50050700D03*
X65354200Y-54927500D03*
X72487103Y-51007006D03*
X62636400Y-51193700D03*
X62649100Y-54254400D03*
X71628000Y-50495200D03*
X70778096Y-51022140D03*
X69011800Y-55016400D03*
X77673200Y-54495700D03*
X65259939Y-50995371D03*
X65341500Y-56921400D03*
X70408800Y-54279800D03*
X63423800Y-43522900D03*
X70967600Y-41794600D03*
X70876688Y-53396011D03*
X66751200Y-44335700D03*
X72529700Y-41795700D03*
X77774800Y-53467000D03*
X80632300Y-46482000D03*
X78435200Y-52666900D03*
D17*
X55459895Y-40692044D02*
X55381874Y-40880402D01*
X55342100Y-41080361D01*
X55342100Y-41284239D01*
X55381874Y-41484198D01*
X55459895Y-41672556D01*
X55573163Y-41842074D01*
X55717326Y-41986237D01*
X55886844Y-42099505D01*
X56075202Y-42177526D01*
X56275161Y-42217300D01*
X56479039Y-42217300D01*
X56678998Y-42177526D01*
X56867356Y-42099505D01*
X57036874Y-41986237D01*
X57181037Y-41842074D01*
X57268173Y-41711665D01*
X57349363Y-41833174D01*
X57493526Y-41977337D01*
X57663044Y-42090605D01*
X57851402Y-42168626D01*
X58051361Y-42208400D01*
X58255239Y-42208400D01*
X58455198Y-42168626D01*
X58643556Y-42090605D01*
X58813074Y-41977337D01*
X58957237Y-41833174D01*
X59070505Y-41663656D01*
X59093357Y-41608487D01*
X59119895Y-41672556D01*
X59233163Y-41842074D01*
X59377326Y-41986237D01*
X59546844Y-42099505D01*
X59735202Y-42177526D01*
X59763208Y-42183097D01*
X59748874Y-42217702D01*
X59709100Y-42417661D01*
X59709100Y-42621539D01*
X59748874Y-42821498D01*
X59826895Y-43009856D01*
X59940163Y-43179374D01*
X60084326Y-43323537D01*
X60253844Y-43436805D01*
X60442202Y-43514826D01*
X60642161Y-43554600D01*
X60846039Y-43554600D01*
X61045998Y-43514826D01*
X61234356Y-43436805D01*
X61258068Y-43420961D01*
X62388800Y-43420961D01*
X62388800Y-43624839D01*
X62428574Y-43824798D01*
X62506595Y-44013156D01*
X62619863Y-44182674D01*
X62764026Y-44326837D01*
X62933544Y-44440105D01*
X63121902Y-44518126D01*
X63321861Y-44557900D01*
X63525739Y-44557900D01*
X63725698Y-44518126D01*
X63914056Y-44440105D01*
X64083574Y-44326837D01*
X64176650Y-44233761D01*
X65716200Y-44233761D01*
X65716200Y-44437639D01*
X65755974Y-44637598D01*
X65833995Y-44825956D01*
X65947263Y-44995474D01*
X66091426Y-45139637D01*
X66260944Y-45252905D01*
X66449302Y-45330926D01*
X66649261Y-45370700D01*
X66853139Y-45370700D01*
X67053098Y-45330926D01*
X67241456Y-45252905D01*
X67410974Y-45139637D01*
X67555137Y-44995474D01*
X67668405Y-44825956D01*
X67746426Y-44637598D01*
X67786200Y-44437639D01*
X67786200Y-44233761D01*
X67746426Y-44033802D01*
X67668405Y-43845444D01*
X67555137Y-43675926D01*
X67410974Y-43531763D01*
X67241456Y-43418495D01*
X67053098Y-43340474D01*
X66853139Y-43300700D01*
X66649261Y-43300700D01*
X66449302Y-43340474D01*
X66260944Y-43418495D01*
X66091426Y-43531763D01*
X65947263Y-43675926D01*
X65833995Y-43845444D01*
X65755974Y-44033802D01*
X65716200Y-44233761D01*
X64176650Y-44233761D01*
X64227737Y-44182674D01*
X64341005Y-44013156D01*
X64419026Y-43824798D01*
X64458800Y-43624839D01*
X64458800Y-43420961D01*
X64419026Y-43221002D01*
X64341005Y-43032644D01*
X64227737Y-42863126D01*
X64083574Y-42718963D01*
X63914056Y-42605695D01*
X63725698Y-42527674D01*
X63525739Y-42487900D01*
X63321861Y-42487900D01*
X63121902Y-42527674D01*
X62933544Y-42605695D01*
X62764026Y-42718963D01*
X62619863Y-42863126D01*
X62506595Y-43032644D01*
X62428574Y-43221002D01*
X62388800Y-43420961D01*
X61258068Y-43420961D01*
X61403874Y-43323537D01*
X61548037Y-43179374D01*
X61661305Y-43009856D01*
X61739326Y-42821498D01*
X61779100Y-42621539D01*
X61779100Y-42417661D01*
X61739326Y-42217702D01*
X61661305Y-42029344D01*
X61548037Y-41859826D01*
X61403874Y-41715663D01*
X61369449Y-41692661D01*
X69932600Y-41692661D01*
X69932600Y-41896539D01*
X69972374Y-42096498D01*
X70050395Y-42284856D01*
X70163663Y-42454374D01*
X70307826Y-42598537D01*
X70477344Y-42711805D01*
X70665702Y-42789826D01*
X70865661Y-42829600D01*
X71069539Y-42829600D01*
X71269498Y-42789826D01*
X71457856Y-42711805D01*
X71627374Y-42598537D01*
X71748100Y-42477811D01*
X71869926Y-42599637D01*
X72039444Y-42712905D01*
X72227802Y-42790926D01*
X72427761Y-42830700D01*
X72631639Y-42830700D01*
X72831598Y-42790926D01*
X73019956Y-42712905D01*
X73189474Y-42599637D01*
X73333637Y-42455474D01*
X73446905Y-42285956D01*
X73524926Y-42097598D01*
X73564700Y-41897639D01*
X73564700Y-41693761D01*
X73524926Y-41493802D01*
X73446905Y-41305444D01*
X73333637Y-41135926D01*
X73189474Y-40991763D01*
X73019956Y-40878495D01*
X72831598Y-40800474D01*
X72631639Y-40760700D01*
X72427761Y-40760700D01*
X72227802Y-40800474D01*
X72039444Y-40878495D01*
X71869926Y-40991763D01*
X71749200Y-41112489D01*
X71627374Y-40990663D01*
X71457856Y-40877395D01*
X71269498Y-40799374D01*
X71069539Y-40759600D01*
X70865661Y-40759600D01*
X70665702Y-40799374D01*
X70477344Y-40877395D01*
X70307826Y-40990663D01*
X70163663Y-41134826D01*
X70050395Y-41304344D01*
X69972374Y-41492702D01*
X69932600Y-41692661D01*
X61369449Y-41692661D01*
X61234356Y-41602395D01*
X61045998Y-41524374D01*
X61017992Y-41518803D01*
X61032326Y-41484198D01*
X61072100Y-41284239D01*
X61072100Y-41080361D01*
X61032326Y-40880402D01*
X60954305Y-40692044D01*
X60936235Y-40665000D01*
X86403922Y-40665000D01*
X86793345Y-40703183D01*
X87136890Y-40806906D01*
X87453738Y-40975376D01*
X87731835Y-41202187D01*
X87960582Y-41478695D01*
X88131260Y-41794359D01*
X88237380Y-42137176D01*
X88278100Y-42524600D01*
X88278101Y-62870812D01*
X88239917Y-63260244D01*
X88136194Y-63603790D01*
X87967724Y-63920637D01*
X87740910Y-64198738D01*
X87464411Y-64427478D01*
X87148743Y-64598160D01*
X86805924Y-64704280D01*
X86418500Y-64745000D01*
X78790800Y-64745000D01*
X78790800Y-58222944D01*
X78778599Y-58099062D01*
X78742464Y-57979940D01*
X78705968Y-57911661D01*
X80892700Y-57911661D01*
X80892700Y-58115539D01*
X80932474Y-58315498D01*
X81010495Y-58503856D01*
X81123763Y-58673374D01*
X81267926Y-58817537D01*
X81437444Y-58930805D01*
X81625802Y-59008826D01*
X81825761Y-59048600D01*
X82029639Y-59048600D01*
X82229598Y-59008826D01*
X82417956Y-58930805D01*
X82587474Y-58817537D01*
X82731637Y-58673374D01*
X82844905Y-58503856D01*
X82922926Y-58315498D01*
X82962700Y-58115539D01*
X82962700Y-57911661D01*
X82922926Y-57711702D01*
X82844905Y-57523344D01*
X82766996Y-57406744D01*
X82803374Y-57382437D01*
X82947537Y-57238274D01*
X83060805Y-57068756D01*
X83138826Y-56880398D01*
X83178600Y-56680439D01*
X83178600Y-56476561D01*
X83138826Y-56276602D01*
X83060805Y-56088244D01*
X82947537Y-55918726D01*
X82803374Y-55774563D01*
X82633856Y-55661295D01*
X82445498Y-55583274D01*
X82245539Y-55543500D01*
X82041661Y-55543500D01*
X81841702Y-55583274D01*
X81653344Y-55661295D01*
X81483826Y-55774563D01*
X81339663Y-55918726D01*
X81226395Y-56088244D01*
X81148374Y-56276602D01*
X81108600Y-56476561D01*
X81108600Y-56680439D01*
X81148374Y-56880398D01*
X81226395Y-57068756D01*
X81304304Y-57185356D01*
X81267926Y-57209663D01*
X81123763Y-57353826D01*
X81010495Y-57523344D01*
X80932474Y-57711702D01*
X80892700Y-57911661D01*
X78705968Y-57911661D01*
X78683783Y-57870157D01*
X78604813Y-57773931D01*
X78508587Y-57694961D01*
X78398804Y-57636280D01*
X78279682Y-57600145D01*
X78155800Y-57587944D01*
X73380600Y-57587944D01*
X73256718Y-57600145D01*
X73137596Y-57636280D01*
X73027813Y-57694961D01*
X72931587Y-57773931D01*
X72622274Y-58083244D01*
X71462900Y-58083244D01*
X71339018Y-58095445D01*
X71219896Y-58131580D01*
X71110113Y-58190261D01*
X71013887Y-58269231D01*
X69908987Y-59374131D01*
X69830017Y-59470357D01*
X69771336Y-59580140D01*
X69735201Y-59699262D01*
X69723000Y-59823144D01*
X69723000Y-64745000D01*
X60933235Y-64745000D01*
X60951305Y-64717956D01*
X61029326Y-64529598D01*
X61069100Y-64329639D01*
X61069100Y-64125761D01*
X61029326Y-63925802D01*
X61008264Y-63874953D01*
X61170856Y-63807605D01*
X61340374Y-63694337D01*
X61484537Y-63550174D01*
X61597805Y-63380656D01*
X61675826Y-63192298D01*
X61715600Y-62992339D01*
X61715600Y-62788461D01*
X61675826Y-62588502D01*
X61597805Y-62400144D01*
X61484537Y-62230626D01*
X61340374Y-62086463D01*
X61170856Y-61973195D01*
X60982498Y-61895174D01*
X60782539Y-61855400D01*
X60578661Y-61855400D01*
X60378702Y-61895174D01*
X60190344Y-61973195D01*
X60020826Y-62086463D01*
X59876663Y-62230626D01*
X59763395Y-62400144D01*
X59685374Y-62588502D01*
X59645600Y-62788461D01*
X59645600Y-62992339D01*
X59685374Y-63192298D01*
X59706436Y-63243147D01*
X59543844Y-63310495D01*
X59374326Y-63423763D01*
X59230163Y-63567926D01*
X59116895Y-63737444D01*
X59038874Y-63925802D01*
X58999100Y-64125761D01*
X58999100Y-64329639D01*
X59038874Y-64529598D01*
X59116895Y-64717956D01*
X59134965Y-64745000D01*
X57273235Y-64745000D01*
X57291305Y-64717956D01*
X57369326Y-64529598D01*
X57409100Y-64329639D01*
X57409100Y-64125761D01*
X57369326Y-63925802D01*
X57291305Y-63737444D01*
X57178037Y-63567926D01*
X57033874Y-63423763D01*
X56864356Y-63310495D01*
X56675998Y-63232474D01*
X56476039Y-63192700D01*
X56272161Y-63192700D01*
X56072202Y-63232474D01*
X55883844Y-63310495D01*
X55714326Y-63423763D01*
X55570163Y-63567926D01*
X55456895Y-63737444D01*
X55378874Y-63925802D01*
X55339100Y-64125761D01*
X55339100Y-64329639D01*
X55378874Y-64529598D01*
X55456895Y-64717956D01*
X55474965Y-64745000D01*
X53372278Y-64745000D01*
X52982856Y-64706817D01*
X52639310Y-64603094D01*
X52322463Y-64434624D01*
X52044362Y-64207810D01*
X51815622Y-63931311D01*
X51644940Y-63615643D01*
X51538820Y-63272824D01*
X51498100Y-62885400D01*
X51498100Y-60527861D01*
X54451300Y-60527861D01*
X54451300Y-60731739D01*
X54491074Y-60931698D01*
X54569095Y-61120056D01*
X54682363Y-61289574D01*
X54826526Y-61433737D01*
X54996044Y-61547005D01*
X55184402Y-61625026D01*
X55384361Y-61664800D01*
X55588239Y-61664800D01*
X55788198Y-61625026D01*
X55976556Y-61547005D01*
X56146074Y-61433737D01*
X56290237Y-61289574D01*
X56403505Y-61120056D01*
X56481526Y-60931698D01*
X56521300Y-60731739D01*
X56521300Y-60527861D01*
X56481526Y-60327902D01*
X56403505Y-60139544D01*
X56290237Y-59970026D01*
X56146074Y-59825863D01*
X55976556Y-59712595D01*
X55788198Y-59634574D01*
X55588239Y-59594800D01*
X55384361Y-59594800D01*
X55184402Y-59634574D01*
X54996044Y-59712595D01*
X54826526Y-59825863D01*
X54682363Y-59970026D01*
X54569095Y-60139544D01*
X54491074Y-60327902D01*
X54451300Y-60527861D01*
X51498100Y-60527861D01*
X51498100Y-57543361D01*
X60090100Y-57543361D01*
X60090100Y-57747239D01*
X60129874Y-57947198D01*
X60207895Y-58135556D01*
X60321163Y-58305074D01*
X60465326Y-58449237D01*
X60634844Y-58562505D01*
X60823202Y-58640526D01*
X61023161Y-58680300D01*
X61227039Y-58680300D01*
X61426998Y-58640526D01*
X61615356Y-58562505D01*
X61784874Y-58449237D01*
X61929037Y-58305074D01*
X62042305Y-58135556D01*
X62120326Y-57947198D01*
X62160100Y-57747239D01*
X62160100Y-57543361D01*
X62120326Y-57343402D01*
X62042305Y-57155044D01*
X61929037Y-56985526D01*
X61784874Y-56841363D01*
X61752096Y-56819461D01*
X64306500Y-56819461D01*
X64306500Y-57023339D01*
X64346274Y-57223298D01*
X64424295Y-57411656D01*
X64537563Y-57581174D01*
X64681726Y-57725337D01*
X64851244Y-57838605D01*
X65039602Y-57916626D01*
X65239561Y-57956400D01*
X65443439Y-57956400D01*
X65643398Y-57916626D01*
X65831756Y-57838605D01*
X66001274Y-57725337D01*
X66145437Y-57581174D01*
X66258705Y-57411656D01*
X66336726Y-57223298D01*
X66376500Y-57023339D01*
X66376500Y-56819461D01*
X66336726Y-56619502D01*
X66258705Y-56431144D01*
X66145437Y-56261626D01*
X66001274Y-56117463D01*
X65831756Y-56004195D01*
X65643398Y-55926174D01*
X65641081Y-55925713D01*
X65656098Y-55922726D01*
X65844456Y-55844705D01*
X66013974Y-55731437D01*
X66158137Y-55587274D01*
X66271405Y-55417756D01*
X66349426Y-55229398D01*
X66389200Y-55029439D01*
X66389200Y-54914461D01*
X67976800Y-54914461D01*
X67976800Y-55118339D01*
X68016574Y-55318298D01*
X68094595Y-55506656D01*
X68207863Y-55676174D01*
X68278376Y-55746687D01*
X68232474Y-55857502D01*
X68192700Y-56057461D01*
X68192700Y-56261339D01*
X68232474Y-56461298D01*
X68310495Y-56649656D01*
X68423763Y-56819174D01*
X68567926Y-56963337D01*
X68737444Y-57076605D01*
X68925802Y-57154626D01*
X69125761Y-57194400D01*
X69329639Y-57194400D01*
X69529598Y-57154626D01*
X69717956Y-57076605D01*
X69887474Y-56963337D01*
X70031637Y-56819174D01*
X70144905Y-56649656D01*
X70222926Y-56461298D01*
X70262700Y-56261339D01*
X70262700Y-56057461D01*
X70222926Y-55857502D01*
X70144905Y-55669144D01*
X70031637Y-55499626D01*
X69961124Y-55429113D01*
X70007026Y-55318298D01*
X70022581Y-55240099D01*
X70106902Y-55275026D01*
X70306861Y-55314800D01*
X70510739Y-55314800D01*
X70686507Y-55279838D01*
X70748895Y-55430456D01*
X70862163Y-55599974D01*
X71006326Y-55744137D01*
X71175844Y-55857405D01*
X71364202Y-55935426D01*
X71437287Y-55949963D01*
X71405800Y-56108261D01*
X71405800Y-56312139D01*
X71445574Y-56512098D01*
X71523595Y-56700456D01*
X71636863Y-56869974D01*
X71781026Y-57014137D01*
X71950544Y-57127405D01*
X72138902Y-57205426D01*
X72338861Y-57245200D01*
X72542739Y-57245200D01*
X72742698Y-57205426D01*
X72931056Y-57127405D01*
X73100574Y-57014137D01*
X73244737Y-56869974D01*
X73358005Y-56700456D01*
X73436026Y-56512098D01*
X73475800Y-56312139D01*
X73475800Y-56108261D01*
X73436026Y-55908302D01*
X73358005Y-55719944D01*
X73244737Y-55550426D01*
X73100574Y-55406263D01*
X72931056Y-55292995D01*
X72742698Y-55214974D01*
X72669613Y-55200437D01*
X72701100Y-55042139D01*
X72701100Y-54838261D01*
X72661326Y-54638302D01*
X72583305Y-54449944D01*
X72545765Y-54393761D01*
X76638200Y-54393761D01*
X76638200Y-54597639D01*
X76677974Y-54797598D01*
X76755995Y-54985956D01*
X76869263Y-55155474D01*
X77013426Y-55299637D01*
X77182944Y-55412905D01*
X77371302Y-55490926D01*
X77571261Y-55530700D01*
X77775139Y-55530700D01*
X77975098Y-55490926D01*
X78163456Y-55412905D01*
X78332974Y-55299637D01*
X78477137Y-55155474D01*
X78590405Y-54985956D01*
X78668426Y-54797598D01*
X78708200Y-54597639D01*
X78708200Y-54393761D01*
X78668426Y-54193802D01*
X78616964Y-54069563D01*
X78692005Y-53957256D01*
X78770026Y-53768898D01*
X78796128Y-53637675D01*
X78925456Y-53584105D01*
X79094974Y-53470837D01*
X79239137Y-53326674D01*
X79352405Y-53157156D01*
X79430426Y-52968798D01*
X79470200Y-52768839D01*
X79470200Y-52564961D01*
X79430426Y-52365002D01*
X79352405Y-52176644D01*
X79314865Y-52120461D01*
X82378600Y-52120461D01*
X82378600Y-52324339D01*
X82418374Y-52524298D01*
X82496395Y-52712656D01*
X82609663Y-52882174D01*
X82753826Y-53026337D01*
X82923344Y-53139605D01*
X83111702Y-53217626D01*
X83311661Y-53257400D01*
X83515539Y-53257400D01*
X83715498Y-53217626D01*
X83903856Y-53139605D01*
X84073374Y-53026337D01*
X84217537Y-52882174D01*
X84330805Y-52712656D01*
X84408826Y-52524298D01*
X84448600Y-52324339D01*
X84448600Y-52120461D01*
X84408826Y-51920502D01*
X84345756Y-51768238D01*
X84382019Y-51713966D01*
X84460040Y-51525608D01*
X84499814Y-51325649D01*
X84499814Y-51121771D01*
X84460040Y-50921812D01*
X84382019Y-50733454D01*
X84268751Y-50563936D01*
X84124588Y-50419773D01*
X83955070Y-50306505D01*
X83766712Y-50228484D01*
X83566753Y-50188710D01*
X83362875Y-50188710D01*
X83162916Y-50228484D01*
X82974558Y-50306505D01*
X82805040Y-50419773D01*
X82660877Y-50563936D01*
X82547609Y-50733454D01*
X82469588Y-50921812D01*
X82429814Y-51121771D01*
X82429814Y-51325649D01*
X82469588Y-51525608D01*
X82532658Y-51677872D01*
X82496395Y-51732144D01*
X82418374Y-51920502D01*
X82378600Y-52120461D01*
X79314865Y-52120461D01*
X79239137Y-52007126D01*
X79094974Y-51862963D01*
X78925456Y-51749695D01*
X78737098Y-51671674D01*
X78537139Y-51631900D01*
X78333261Y-51631900D01*
X78133302Y-51671674D01*
X77944944Y-51749695D01*
X77775426Y-51862963D01*
X77631263Y-52007126D01*
X77517995Y-52176644D01*
X77439974Y-52365002D01*
X77413872Y-52496225D01*
X77284544Y-52549795D01*
X77115026Y-52663063D01*
X76970863Y-52807226D01*
X76857595Y-52976744D01*
X76779574Y-53165102D01*
X76739800Y-53365061D01*
X76739800Y-53568939D01*
X76779574Y-53768898D01*
X76831036Y-53893137D01*
X76755995Y-54005444D01*
X76677974Y-54193802D01*
X76638200Y-54393761D01*
X72545765Y-54393761D01*
X72470037Y-54280426D01*
X72325874Y-54136263D01*
X72156356Y-54022995D01*
X71967998Y-53944974D01*
X71779693Y-53907518D01*
X71793893Y-53886267D01*
X71871914Y-53697909D01*
X71911688Y-53497950D01*
X71911688Y-53294072D01*
X71871914Y-53094113D01*
X71793893Y-52905755D01*
X71680625Y-52736237D01*
X71536462Y-52592074D01*
X71366944Y-52478806D01*
X71178586Y-52400785D01*
X70978627Y-52361011D01*
X70774749Y-52361011D01*
X70574790Y-52400785D01*
X70386432Y-52478806D01*
X70216914Y-52592074D01*
X70072751Y-52736237D01*
X69959483Y-52905755D01*
X69881462Y-53094113D01*
X69841688Y-53294072D01*
X69841688Y-53413948D01*
X69749026Y-53475863D01*
X69604863Y-53620026D01*
X69491595Y-53789544D01*
X69413574Y-53977902D01*
X69398019Y-54056101D01*
X69313698Y-54021174D01*
X69113739Y-53981400D01*
X68909861Y-53981400D01*
X68709902Y-54021174D01*
X68521544Y-54099195D01*
X68352026Y-54212463D01*
X68207863Y-54356626D01*
X68094595Y-54526144D01*
X68016574Y-54714502D01*
X67976800Y-54914461D01*
X66389200Y-54914461D01*
X66389200Y-54825561D01*
X66349426Y-54625602D01*
X66271405Y-54437244D01*
X66158137Y-54267726D01*
X66013974Y-54123563D01*
X65844456Y-54010295D01*
X65656098Y-53932274D01*
X65456139Y-53892500D01*
X65252261Y-53892500D01*
X65052302Y-53932274D01*
X64863944Y-54010295D01*
X64694426Y-54123563D01*
X64550263Y-54267726D01*
X64436995Y-54437244D01*
X64358974Y-54625602D01*
X64319200Y-54825561D01*
X64319200Y-55029439D01*
X64358974Y-55229398D01*
X64436995Y-55417756D01*
X64550263Y-55587274D01*
X64694426Y-55731437D01*
X64863944Y-55844705D01*
X65052302Y-55922726D01*
X65054619Y-55923187D01*
X65039602Y-55926174D01*
X64851244Y-56004195D01*
X64681726Y-56117463D01*
X64537563Y-56261626D01*
X64424295Y-56431144D01*
X64346274Y-56619502D01*
X64306500Y-56819461D01*
X61752096Y-56819461D01*
X61615356Y-56728095D01*
X61426998Y-56650074D01*
X61227039Y-56610300D01*
X61023161Y-56610300D01*
X60823202Y-56650074D01*
X60634844Y-56728095D01*
X60465326Y-56841363D01*
X60321163Y-56985526D01*
X60207895Y-57155044D01*
X60129874Y-57343402D01*
X60090100Y-57543361D01*
X51498100Y-57543361D01*
X51498100Y-57109705D01*
X51581413Y-57154237D01*
X51774155Y-57212705D01*
X51924372Y-57227500D01*
X52799828Y-57227500D01*
X52950045Y-57212705D01*
X53142787Y-57154237D01*
X53320419Y-57059291D01*
X53476115Y-56931515D01*
X53603891Y-56775819D01*
X53698837Y-56598187D01*
X53757305Y-56405445D01*
X53777047Y-56205000D01*
X53757305Y-56004555D01*
X53698837Y-55811813D01*
X53603891Y-55634181D01*
X53476115Y-55478485D01*
X53320419Y-55350709D01*
X53142787Y-55255763D01*
X52950045Y-55197295D01*
X52799828Y-55182500D01*
X51924372Y-55182500D01*
X51774155Y-55197295D01*
X51581413Y-55255763D01*
X51498100Y-55300295D01*
X51498100Y-54832838D01*
X54102100Y-54832838D01*
X54102100Y-55577161D01*
X54115990Y-55718192D01*
X54170884Y-55899153D01*
X54260027Y-56065928D01*
X54379993Y-56212107D01*
X54526172Y-56332073D01*
X54692946Y-56421216D01*
X54873907Y-56476110D01*
X55062100Y-56494645D01*
X55250292Y-56476110D01*
X55431253Y-56421216D01*
X55598028Y-56332073D01*
X55744207Y-56212107D01*
X55864173Y-56065928D01*
X55953316Y-55899154D01*
X56008210Y-55718193D01*
X56022100Y-55577162D01*
X56022100Y-54832839D01*
X56008210Y-54691807D01*
X55953316Y-54510846D01*
X55864173Y-54344072D01*
X55744207Y-54197893D01*
X55688848Y-54152461D01*
X61614100Y-54152461D01*
X61614100Y-54356339D01*
X61653874Y-54556298D01*
X61731895Y-54744656D01*
X61845163Y-54914174D01*
X61989326Y-55058337D01*
X62158844Y-55171605D01*
X62347202Y-55249626D01*
X62547161Y-55289400D01*
X62751039Y-55289400D01*
X62950998Y-55249626D01*
X63139356Y-55171605D01*
X63308874Y-55058337D01*
X63453037Y-54914174D01*
X63566305Y-54744656D01*
X63644326Y-54556298D01*
X63684100Y-54356339D01*
X63684100Y-54152461D01*
X63644326Y-53952502D01*
X63566305Y-53764144D01*
X63453037Y-53594626D01*
X63308874Y-53450463D01*
X63139356Y-53337195D01*
X62950998Y-53259174D01*
X62751039Y-53219400D01*
X62547161Y-53219400D01*
X62347202Y-53259174D01*
X62158844Y-53337195D01*
X61989326Y-53450463D01*
X61845163Y-53594626D01*
X61731895Y-53764144D01*
X61653874Y-53952502D01*
X61614100Y-54152461D01*
X55688848Y-54152461D01*
X55598028Y-54077927D01*
X55431254Y-53988784D01*
X55250293Y-53933890D01*
X55062100Y-53915355D01*
X54873908Y-53933890D01*
X54692947Y-53988784D01*
X54526173Y-54077927D01*
X54379994Y-54197893D01*
X54260028Y-54344072D01*
X54170885Y-54510846D01*
X54115990Y-54691807D01*
X54102100Y-54832838D01*
X51498100Y-54832838D01*
X51498100Y-50109705D01*
X51581413Y-50154237D01*
X51774155Y-50212705D01*
X51924372Y-50227500D01*
X52799828Y-50227500D01*
X52950045Y-50212705D01*
X53142787Y-50154237D01*
X53320419Y-50059291D01*
X53476115Y-49931515D01*
X53557096Y-49832838D01*
X54102100Y-49832838D01*
X54102100Y-50577161D01*
X54115990Y-50718192D01*
X54170884Y-50899153D01*
X54260027Y-51065928D01*
X54379993Y-51212107D01*
X54526172Y-51332073D01*
X54692946Y-51421216D01*
X54873907Y-51476110D01*
X55045340Y-51492994D01*
X55077095Y-51569656D01*
X55190363Y-51739174D01*
X55334526Y-51883337D01*
X55504044Y-51996605D01*
X55692402Y-52074626D01*
X55892361Y-52114400D01*
X56086370Y-52114400D01*
X56118495Y-52191956D01*
X56231763Y-52361474D01*
X56375926Y-52505637D01*
X56545444Y-52618905D01*
X56733802Y-52696926D01*
X56933761Y-52736700D01*
X57137639Y-52736700D01*
X57337598Y-52696926D01*
X57525956Y-52618905D01*
X57695474Y-52505637D01*
X57839637Y-52361474D01*
X57868778Y-52317861D01*
X58794700Y-52317861D01*
X58794700Y-52521739D01*
X58834474Y-52721698D01*
X58912495Y-52910056D01*
X59025763Y-53079574D01*
X59169926Y-53223737D01*
X59339444Y-53337005D01*
X59527802Y-53415026D01*
X59727761Y-53454800D01*
X59931639Y-53454800D01*
X60131598Y-53415026D01*
X60319956Y-53337005D01*
X60489474Y-53223737D01*
X60633637Y-53079574D01*
X60746905Y-52910056D01*
X60824926Y-52721698D01*
X60864700Y-52521739D01*
X60864700Y-52317861D01*
X60824926Y-52117902D01*
X60746905Y-51929544D01*
X60633637Y-51760026D01*
X60489474Y-51615863D01*
X60319956Y-51502595D01*
X60131598Y-51424574D01*
X59931639Y-51384800D01*
X59727761Y-51384800D01*
X59527802Y-51424574D01*
X59339444Y-51502595D01*
X59169926Y-51615863D01*
X59025763Y-51760026D01*
X58912495Y-51929544D01*
X58834474Y-52117902D01*
X58794700Y-52317861D01*
X57868778Y-52317861D01*
X57952905Y-52191956D01*
X58030926Y-52003598D01*
X58070700Y-51803639D01*
X58070700Y-51599761D01*
X58030926Y-51399802D01*
X57952905Y-51211444D01*
X57872936Y-51091761D01*
X61601400Y-51091761D01*
X61601400Y-51295639D01*
X61641174Y-51495598D01*
X61719195Y-51683956D01*
X61832463Y-51853474D01*
X61976626Y-51997637D01*
X62146144Y-52110905D01*
X62334502Y-52188926D01*
X62534461Y-52228700D01*
X62738339Y-52228700D01*
X62938298Y-52188926D01*
X63126656Y-52110905D01*
X63296174Y-51997637D01*
X63440337Y-51853474D01*
X63553605Y-51683956D01*
X63631626Y-51495598D01*
X63671400Y-51295639D01*
X63671400Y-51091761D01*
X63631951Y-50893432D01*
X64224939Y-50893432D01*
X64224939Y-51097310D01*
X64264713Y-51297269D01*
X64342734Y-51485627D01*
X64456002Y-51655145D01*
X64600165Y-51799308D01*
X64769683Y-51912576D01*
X64958041Y-51990597D01*
X65158000Y-52030371D01*
X65361878Y-52030371D01*
X65561837Y-51990597D01*
X65750195Y-51912576D01*
X65919713Y-51799308D01*
X66063876Y-51655145D01*
X66177144Y-51485627D01*
X66255165Y-51297269D01*
X66294939Y-51097310D01*
X66294939Y-51077763D01*
X66454997Y-51045926D01*
X66643355Y-50967905D01*
X66714749Y-50920201D01*
X69743096Y-50920201D01*
X69743096Y-51124079D01*
X69782870Y-51324038D01*
X69860891Y-51512396D01*
X69974159Y-51681914D01*
X70118322Y-51826077D01*
X70287840Y-51939345D01*
X70476198Y-52017366D01*
X70676157Y-52057140D01*
X70880035Y-52057140D01*
X71079994Y-52017366D01*
X71268352Y-51939345D01*
X71437870Y-51826077D01*
X71582033Y-51681914D01*
X71637656Y-51598669D01*
X71683166Y-51666780D01*
X71827329Y-51810943D01*
X71996847Y-51924211D01*
X72185205Y-52002232D01*
X72385164Y-52042006D01*
X72589042Y-52042006D01*
X72789001Y-52002232D01*
X72977359Y-51924211D01*
X73146877Y-51810943D01*
X73291040Y-51666780D01*
X73404308Y-51497262D01*
X73482329Y-51308904D01*
X73522103Y-51108945D01*
X73522103Y-51031779D01*
X73629998Y-51010318D01*
X73818356Y-50932297D01*
X73987874Y-50819029D01*
X74092196Y-50714707D01*
X74219426Y-50841937D01*
X74388944Y-50955205D01*
X74577302Y-51033226D01*
X74777261Y-51073000D01*
X74981139Y-51073000D01*
X75181098Y-51033226D01*
X75369456Y-50955205D01*
X75538974Y-50841937D01*
X75683137Y-50697774D01*
X75796405Y-50528256D01*
X75874426Y-50339898D01*
X75914200Y-50139939D01*
X75914200Y-49936061D01*
X75874426Y-49736102D01*
X75796405Y-49547744D01*
X75683137Y-49378226D01*
X75538974Y-49234063D01*
X75369456Y-49120795D01*
X75283429Y-49085161D01*
X80854600Y-49085161D01*
X80854600Y-49289039D01*
X80894374Y-49488998D01*
X80972395Y-49677356D01*
X81085663Y-49846874D01*
X81229826Y-49991037D01*
X81399344Y-50104305D01*
X81587702Y-50182326D01*
X81787661Y-50222100D01*
X81991539Y-50222100D01*
X82191498Y-50182326D01*
X82234144Y-50164661D01*
X86099700Y-50164661D01*
X86099700Y-50368539D01*
X86139474Y-50568498D01*
X86217495Y-50756856D01*
X86330763Y-50926374D01*
X86474926Y-51070537D01*
X86497694Y-51085750D01*
X86474926Y-51100963D01*
X86330763Y-51245126D01*
X86217495Y-51414644D01*
X86139474Y-51603002D01*
X86099700Y-51802961D01*
X86099700Y-52006839D01*
X86139474Y-52206798D01*
X86217495Y-52395156D01*
X86330763Y-52564674D01*
X86474926Y-52708837D01*
X86538947Y-52751615D01*
X86538426Y-52751963D01*
X86394263Y-52896126D01*
X86280995Y-53065644D01*
X86202974Y-53254002D01*
X86163200Y-53453961D01*
X86163200Y-53657839D01*
X86202974Y-53857798D01*
X86280995Y-54046156D01*
X86394263Y-54215674D01*
X86538426Y-54359837D01*
X86707944Y-54473105D01*
X86896302Y-54551126D01*
X87096261Y-54590900D01*
X87300139Y-54590900D01*
X87500098Y-54551126D01*
X87688456Y-54473105D01*
X87857974Y-54359837D01*
X88002137Y-54215674D01*
X88115405Y-54046156D01*
X88193426Y-53857798D01*
X88233200Y-53657839D01*
X88233200Y-53453961D01*
X88193426Y-53254002D01*
X88115405Y-53065644D01*
X88002137Y-52896126D01*
X87857974Y-52751963D01*
X87793953Y-52709185D01*
X87794474Y-52708837D01*
X87938637Y-52564674D01*
X88051905Y-52395156D01*
X88129926Y-52206798D01*
X88169700Y-52006839D01*
X88169700Y-51802961D01*
X88129926Y-51603002D01*
X88051905Y-51414644D01*
X87938637Y-51245126D01*
X87794474Y-51100963D01*
X87771706Y-51085750D01*
X87794474Y-51070537D01*
X87938637Y-50926374D01*
X88051905Y-50756856D01*
X88129926Y-50568498D01*
X88169700Y-50368539D01*
X88169700Y-50164661D01*
X88129926Y-49964702D01*
X88051905Y-49776344D01*
X87938637Y-49606826D01*
X87794474Y-49462663D01*
X87624956Y-49349395D01*
X87436598Y-49271374D01*
X87236639Y-49231600D01*
X87032761Y-49231600D01*
X86832802Y-49271374D01*
X86644444Y-49349395D01*
X86474926Y-49462663D01*
X86330763Y-49606826D01*
X86217495Y-49776344D01*
X86139474Y-49964702D01*
X86099700Y-50164661D01*
X82234144Y-50164661D01*
X82379856Y-50104305D01*
X82549374Y-49991037D01*
X82693537Y-49846874D01*
X82806805Y-49677356D01*
X82884826Y-49488998D01*
X82924600Y-49289039D01*
X82924600Y-49085161D01*
X82884826Y-48885202D01*
X82806805Y-48696844D01*
X82693537Y-48527326D01*
X82549374Y-48383163D01*
X82379856Y-48269895D01*
X82191498Y-48191874D01*
X81991539Y-48152100D01*
X81787661Y-48152100D01*
X81587702Y-48191874D01*
X81399344Y-48269895D01*
X81229826Y-48383163D01*
X81085663Y-48527326D01*
X80972395Y-48696844D01*
X80894374Y-48885202D01*
X80854600Y-49085161D01*
X75283429Y-49085161D01*
X75181098Y-49042774D01*
X74981139Y-49003000D01*
X74777261Y-49003000D01*
X74577302Y-49042774D01*
X74388944Y-49120795D01*
X74219426Y-49234063D01*
X74115104Y-49338385D01*
X73987874Y-49211155D01*
X73818356Y-49097887D01*
X73629998Y-49019866D01*
X73430039Y-48980092D01*
X73226161Y-48980092D01*
X73026202Y-49019866D01*
X72837844Y-49097887D01*
X72668326Y-49211155D01*
X72524163Y-49355318D01*
X72410895Y-49524836D01*
X72332874Y-49713194D01*
X72329030Y-49732519D01*
X72287774Y-49691263D01*
X72118256Y-49577995D01*
X71929898Y-49499974D01*
X71729939Y-49460200D01*
X71526061Y-49460200D01*
X71326102Y-49499974D01*
X71137744Y-49577995D01*
X70968226Y-49691263D01*
X70824063Y-49835426D01*
X70722691Y-49987140D01*
X70676157Y-49987140D01*
X70476198Y-50026914D01*
X70287840Y-50104935D01*
X70118322Y-50218203D01*
X69974159Y-50362366D01*
X69860891Y-50531884D01*
X69782870Y-50720242D01*
X69743096Y-50920201D01*
X66714749Y-50920201D01*
X66812873Y-50854637D01*
X66957036Y-50710474D01*
X67070304Y-50540956D01*
X67148325Y-50352598D01*
X67188099Y-50152639D01*
X67188099Y-49948761D01*
X67148325Y-49748802D01*
X67070304Y-49560444D01*
X66957036Y-49390926D01*
X66812873Y-49246763D01*
X66643355Y-49133495D01*
X66454997Y-49055474D01*
X66255038Y-49015700D01*
X66051160Y-49015700D01*
X65851201Y-49055474D01*
X65662843Y-49133495D01*
X65493325Y-49246763D01*
X65349162Y-49390926D01*
X65235894Y-49560444D01*
X65157873Y-49748802D01*
X65118099Y-49948761D01*
X65118099Y-49968308D01*
X64958041Y-50000145D01*
X64769683Y-50078166D01*
X64600165Y-50191434D01*
X64456002Y-50335597D01*
X64342734Y-50505115D01*
X64264713Y-50693473D01*
X64224939Y-50893432D01*
X63631951Y-50893432D01*
X63631626Y-50891802D01*
X63553605Y-50703444D01*
X63440337Y-50533926D01*
X63296174Y-50389763D01*
X63126656Y-50276495D01*
X62938298Y-50198474D01*
X62738339Y-50158700D01*
X62534461Y-50158700D01*
X62334502Y-50198474D01*
X62146144Y-50276495D01*
X61976626Y-50389763D01*
X61832463Y-50533926D01*
X61719195Y-50703444D01*
X61641174Y-50891802D01*
X61601400Y-51091761D01*
X57872936Y-51091761D01*
X57839637Y-51041926D01*
X57695474Y-50897763D01*
X57525956Y-50784495D01*
X57337598Y-50706474D01*
X57137639Y-50666700D01*
X56943630Y-50666700D01*
X56911505Y-50589144D01*
X56798237Y-50419626D01*
X56654074Y-50275463D01*
X56484556Y-50162195D01*
X56296198Y-50084174D01*
X56096239Y-50044400D01*
X56022100Y-50044400D01*
X56022100Y-49832839D01*
X56008210Y-49691807D01*
X55953316Y-49510846D01*
X55864173Y-49344072D01*
X55744207Y-49197893D01*
X55598028Y-49077927D01*
X55431254Y-48988784D01*
X55250293Y-48933890D01*
X55062100Y-48915355D01*
X54873908Y-48933890D01*
X54692947Y-48988784D01*
X54526173Y-49077927D01*
X54379994Y-49197893D01*
X54260028Y-49344072D01*
X54170885Y-49510846D01*
X54115990Y-49691807D01*
X54102100Y-49832838D01*
X53557096Y-49832838D01*
X53603891Y-49775819D01*
X53698837Y-49598187D01*
X53757305Y-49405445D01*
X53777047Y-49205000D01*
X53757305Y-49004555D01*
X53698837Y-48811813D01*
X53603891Y-48634181D01*
X53476115Y-48478485D01*
X53320419Y-48350709D01*
X53142787Y-48255763D01*
X52950045Y-48197295D01*
X52799828Y-48182500D01*
X51924372Y-48182500D01*
X51774155Y-48197295D01*
X51581413Y-48255763D01*
X51498100Y-48300295D01*
X51498100Y-46824561D01*
X65118099Y-46824561D01*
X65118099Y-47028439D01*
X65157873Y-47228398D01*
X65235894Y-47416756D01*
X65349162Y-47586274D01*
X65493325Y-47730437D01*
X65662843Y-47843705D01*
X65851201Y-47921726D01*
X66051160Y-47961500D01*
X66255038Y-47961500D01*
X66454997Y-47921726D01*
X66643355Y-47843705D01*
X66812873Y-47730437D01*
X66957036Y-47586274D01*
X67070304Y-47416756D01*
X67148325Y-47228398D01*
X67188099Y-47028439D01*
X67188099Y-46824561D01*
X67148325Y-46624602D01*
X67070304Y-46436244D01*
X66957036Y-46266726D01*
X66926310Y-46236000D01*
X68750028Y-46236000D01*
X68750028Y-47236000D01*
X68762288Y-47360482D01*
X68798598Y-47480180D01*
X68857563Y-47590494D01*
X68936915Y-47687185D01*
X69033606Y-47766537D01*
X69143920Y-47825502D01*
X69263618Y-47861812D01*
X69388100Y-47874072D01*
X70388100Y-47874072D01*
X70512582Y-47861812D01*
X70632280Y-47825502D01*
X70715326Y-47781112D01*
X70827033Y-47827383D01*
X71046312Y-47871000D01*
X71269888Y-47871000D01*
X71489167Y-47827383D01*
X71695724Y-47741824D01*
X71793100Y-47676759D01*
X71890476Y-47741824D01*
X72097033Y-47827383D01*
X72316312Y-47871000D01*
X72539888Y-47871000D01*
X72759167Y-47827383D01*
X72965724Y-47741824D01*
X73063100Y-47676759D01*
X73160476Y-47741824D01*
X73367033Y-47827383D01*
X73586312Y-47871000D01*
X73809888Y-47871000D01*
X74029167Y-47827383D01*
X74235724Y-47741824D01*
X74333100Y-47676759D01*
X74430476Y-47741824D01*
X74637033Y-47827383D01*
X74856312Y-47871000D01*
X75079888Y-47871000D01*
X75299167Y-47827383D01*
X75505724Y-47741824D01*
X75603100Y-47676759D01*
X75700476Y-47741824D01*
X75907033Y-47827383D01*
X76126312Y-47871000D01*
X76349888Y-47871000D01*
X76569167Y-47827383D01*
X76775724Y-47741824D01*
X76930030Y-47638720D01*
X76944650Y-47727588D01*
X77148926Y-47818458D01*
X77367005Y-47867731D01*
X77590506Y-47873511D01*
X77810840Y-47835577D01*
X78019540Y-47755387D01*
X78071550Y-47727588D01*
X78106661Y-47514166D01*
X77508100Y-46915605D01*
X77493958Y-46929748D01*
X77373100Y-46808890D01*
X77373100Y-46736000D01*
X77687705Y-46736000D01*
X78286266Y-47334561D01*
X78499688Y-47299450D01*
X78590558Y-47095174D01*
X78639831Y-46877095D01*
X78645611Y-46653594D01*
X78607677Y-46433260D01*
X78587237Y-46380061D01*
X79597300Y-46380061D01*
X79597300Y-46583939D01*
X79637074Y-46783898D01*
X79715095Y-46972256D01*
X79828363Y-47141774D01*
X79972526Y-47285937D01*
X80142044Y-47399205D01*
X80330402Y-47477226D01*
X80530361Y-47517000D01*
X80734239Y-47517000D01*
X80934198Y-47477226D01*
X81122556Y-47399205D01*
X81292074Y-47285937D01*
X81436237Y-47141774D01*
X81549505Y-46972256D01*
X81627526Y-46783898D01*
X81667300Y-46583939D01*
X81667300Y-46380061D01*
X81627526Y-46180102D01*
X81549505Y-45991744D01*
X81436237Y-45822226D01*
X81292074Y-45678063D01*
X81122556Y-45564795D01*
X80934198Y-45486774D01*
X80734239Y-45447000D01*
X80530361Y-45447000D01*
X80330402Y-45486774D01*
X80142044Y-45564795D01*
X79972526Y-45678063D01*
X79828363Y-45822226D01*
X79715095Y-45991744D01*
X79637074Y-46180102D01*
X79597300Y-46380061D01*
X78587237Y-46380061D01*
X78527487Y-46224560D01*
X78499688Y-46172550D01*
X78286266Y-46137439D01*
X77687705Y-46736000D01*
X77373100Y-46736000D01*
X77373100Y-46663110D01*
X77493958Y-46542253D01*
X77508100Y-46556395D01*
X78106661Y-45957834D01*
X78071550Y-45744412D01*
X77867274Y-45653542D01*
X77649195Y-45604269D01*
X77425694Y-45598489D01*
X77205360Y-45636423D01*
X76996660Y-45716613D01*
X76944650Y-45744412D01*
X76930030Y-45833280D01*
X76775724Y-45730176D01*
X76569167Y-45644617D01*
X76349888Y-45601000D01*
X76126312Y-45601000D01*
X75907033Y-45644617D01*
X75700476Y-45730176D01*
X75603100Y-45795241D01*
X75505724Y-45730176D01*
X75299167Y-45644617D01*
X75079888Y-45601000D01*
X74856312Y-45601000D01*
X74637033Y-45644617D01*
X74430476Y-45730176D01*
X74333100Y-45795241D01*
X74235724Y-45730176D01*
X74029167Y-45644617D01*
X73809888Y-45601000D01*
X73586312Y-45601000D01*
X73367033Y-45644617D01*
X73160476Y-45730176D01*
X73063100Y-45795241D01*
X72965724Y-45730176D01*
X72759167Y-45644617D01*
X72539888Y-45601000D01*
X72316312Y-45601000D01*
X72097033Y-45644617D01*
X71890476Y-45730176D01*
X71793100Y-45795241D01*
X71695724Y-45730176D01*
X71489167Y-45644617D01*
X71269888Y-45601000D01*
X71046312Y-45601000D01*
X70827033Y-45644617D01*
X70715326Y-45690888D01*
X70632280Y-45646498D01*
X70512582Y-45610188D01*
X70388100Y-45597928D01*
X69388100Y-45597928D01*
X69263618Y-45610188D01*
X69143920Y-45646498D01*
X69033606Y-45705463D01*
X68936915Y-45784815D01*
X68857563Y-45881506D01*
X68798598Y-45991820D01*
X68762288Y-46111518D01*
X68750028Y-46236000D01*
X66926310Y-46236000D01*
X66812873Y-46122563D01*
X66643355Y-46009295D01*
X66454997Y-45931274D01*
X66255038Y-45891500D01*
X66051160Y-45891500D01*
X65851201Y-45931274D01*
X65662843Y-46009295D01*
X65493325Y-46122563D01*
X65349162Y-46266726D01*
X65235894Y-46436244D01*
X65157873Y-46624602D01*
X65118099Y-46824561D01*
X51498100Y-46824561D01*
X51498100Y-42539178D01*
X51536283Y-42149755D01*
X51640006Y-41806210D01*
X51808476Y-41489362D01*
X52035287Y-41211265D01*
X52311795Y-40982518D01*
X52627459Y-40811840D01*
X52970276Y-40705720D01*
X53357700Y-40665000D01*
X55477965Y-40665000D01*
X55459895Y-40692044D01*
G04 #@! TA.AperFunction,Conductor*
D18*
G36*
X55459895Y-40692044D02*
G01*
X55381874Y-40880402D01*
X55342100Y-41080361D01*
X55342100Y-41284239D01*
X55381874Y-41484198D01*
X55459895Y-41672556D01*
X55573163Y-41842074D01*
X55717326Y-41986237D01*
X55886844Y-42099505D01*
X56075202Y-42177526D01*
X56275161Y-42217300D01*
X56479039Y-42217300D01*
X56678998Y-42177526D01*
X56867356Y-42099505D01*
X57036874Y-41986237D01*
X57181037Y-41842074D01*
X57268173Y-41711665D01*
X57349363Y-41833174D01*
X57493526Y-41977337D01*
X57663044Y-42090605D01*
X57851402Y-42168626D01*
X58051361Y-42208400D01*
X58255239Y-42208400D01*
X58455198Y-42168626D01*
X58643556Y-42090605D01*
X58813074Y-41977337D01*
X58957237Y-41833174D01*
X59070505Y-41663656D01*
X59093357Y-41608487D01*
X59119895Y-41672556D01*
X59233163Y-41842074D01*
X59377326Y-41986237D01*
X59546844Y-42099505D01*
X59735202Y-42177526D01*
X59763208Y-42183097D01*
X59748874Y-42217702D01*
X59709100Y-42417661D01*
X59709100Y-42621539D01*
X59748874Y-42821498D01*
X59826895Y-43009856D01*
X59940163Y-43179374D01*
X60084326Y-43323537D01*
X60253844Y-43436805D01*
X60442202Y-43514826D01*
X60642161Y-43554600D01*
X60846039Y-43554600D01*
X61045998Y-43514826D01*
X61234356Y-43436805D01*
X61258068Y-43420961D01*
X62388800Y-43420961D01*
X62388800Y-43624839D01*
X62428574Y-43824798D01*
X62506595Y-44013156D01*
X62619863Y-44182674D01*
X62764026Y-44326837D01*
X62933544Y-44440105D01*
X63121902Y-44518126D01*
X63321861Y-44557900D01*
X63525739Y-44557900D01*
X63725698Y-44518126D01*
X63914056Y-44440105D01*
X64083574Y-44326837D01*
X64176650Y-44233761D01*
X65716200Y-44233761D01*
X65716200Y-44437639D01*
X65755974Y-44637598D01*
X65833995Y-44825956D01*
X65947263Y-44995474D01*
X66091426Y-45139637D01*
X66260944Y-45252905D01*
X66449302Y-45330926D01*
X66649261Y-45370700D01*
X66853139Y-45370700D01*
X67053098Y-45330926D01*
X67241456Y-45252905D01*
X67410974Y-45139637D01*
X67555137Y-44995474D01*
X67668405Y-44825956D01*
X67746426Y-44637598D01*
X67786200Y-44437639D01*
X67786200Y-44233761D01*
X67746426Y-44033802D01*
X67668405Y-43845444D01*
X67555137Y-43675926D01*
X67410974Y-43531763D01*
X67241456Y-43418495D01*
X67053098Y-43340474D01*
X66853139Y-43300700D01*
X66649261Y-43300700D01*
X66449302Y-43340474D01*
X66260944Y-43418495D01*
X66091426Y-43531763D01*
X65947263Y-43675926D01*
X65833995Y-43845444D01*
X65755974Y-44033802D01*
X65716200Y-44233761D01*
X64176650Y-44233761D01*
X64227737Y-44182674D01*
X64341005Y-44013156D01*
X64419026Y-43824798D01*
X64458800Y-43624839D01*
X64458800Y-43420961D01*
X64419026Y-43221002D01*
X64341005Y-43032644D01*
X64227737Y-42863126D01*
X64083574Y-42718963D01*
X63914056Y-42605695D01*
X63725698Y-42527674D01*
X63525739Y-42487900D01*
X63321861Y-42487900D01*
X63121902Y-42527674D01*
X62933544Y-42605695D01*
X62764026Y-42718963D01*
X62619863Y-42863126D01*
X62506595Y-43032644D01*
X62428574Y-43221002D01*
X62388800Y-43420961D01*
X61258068Y-43420961D01*
X61403874Y-43323537D01*
X61548037Y-43179374D01*
X61661305Y-43009856D01*
X61739326Y-42821498D01*
X61779100Y-42621539D01*
X61779100Y-42417661D01*
X61739326Y-42217702D01*
X61661305Y-42029344D01*
X61548037Y-41859826D01*
X61403874Y-41715663D01*
X61369449Y-41692661D01*
X69932600Y-41692661D01*
X69932600Y-41896539D01*
X69972374Y-42096498D01*
X70050395Y-42284856D01*
X70163663Y-42454374D01*
X70307826Y-42598537D01*
X70477344Y-42711805D01*
X70665702Y-42789826D01*
X70865661Y-42829600D01*
X71069539Y-42829600D01*
X71269498Y-42789826D01*
X71457856Y-42711805D01*
X71627374Y-42598537D01*
X71748100Y-42477811D01*
X71869926Y-42599637D01*
X72039444Y-42712905D01*
X72227802Y-42790926D01*
X72427761Y-42830700D01*
X72631639Y-42830700D01*
X72831598Y-42790926D01*
X73019956Y-42712905D01*
X73189474Y-42599637D01*
X73333637Y-42455474D01*
X73446905Y-42285956D01*
X73524926Y-42097598D01*
X73564700Y-41897639D01*
X73564700Y-41693761D01*
X73524926Y-41493802D01*
X73446905Y-41305444D01*
X73333637Y-41135926D01*
X73189474Y-40991763D01*
X73019956Y-40878495D01*
X72831598Y-40800474D01*
X72631639Y-40760700D01*
X72427761Y-40760700D01*
X72227802Y-40800474D01*
X72039444Y-40878495D01*
X71869926Y-40991763D01*
X71749200Y-41112489D01*
X71627374Y-40990663D01*
X71457856Y-40877395D01*
X71269498Y-40799374D01*
X71069539Y-40759600D01*
X70865661Y-40759600D01*
X70665702Y-40799374D01*
X70477344Y-40877395D01*
X70307826Y-40990663D01*
X70163663Y-41134826D01*
X70050395Y-41304344D01*
X69972374Y-41492702D01*
X69932600Y-41692661D01*
X61369449Y-41692661D01*
X61234356Y-41602395D01*
X61045998Y-41524374D01*
X61017992Y-41518803D01*
X61032326Y-41484198D01*
X61072100Y-41284239D01*
X61072100Y-41080361D01*
X61032326Y-40880402D01*
X60954305Y-40692044D01*
X60936235Y-40665000D01*
X86403922Y-40665000D01*
X86793345Y-40703183D01*
X87136890Y-40806906D01*
X87453738Y-40975376D01*
X87731835Y-41202187D01*
X87960582Y-41478695D01*
X88131260Y-41794359D01*
X88237380Y-42137176D01*
X88278100Y-42524600D01*
X88278101Y-62870812D01*
X88239917Y-63260244D01*
X88136194Y-63603790D01*
X87967724Y-63920637D01*
X87740910Y-64198738D01*
X87464411Y-64427478D01*
X87148743Y-64598160D01*
X86805924Y-64704280D01*
X86418500Y-64745000D01*
X78790800Y-64745000D01*
X78790800Y-58222944D01*
X78778599Y-58099062D01*
X78742464Y-57979940D01*
X78705968Y-57911661D01*
X80892700Y-57911661D01*
X80892700Y-58115539D01*
X80932474Y-58315498D01*
X81010495Y-58503856D01*
X81123763Y-58673374D01*
X81267926Y-58817537D01*
X81437444Y-58930805D01*
X81625802Y-59008826D01*
X81825761Y-59048600D01*
X82029639Y-59048600D01*
X82229598Y-59008826D01*
X82417956Y-58930805D01*
X82587474Y-58817537D01*
X82731637Y-58673374D01*
X82844905Y-58503856D01*
X82922926Y-58315498D01*
X82962700Y-58115539D01*
X82962700Y-57911661D01*
X82922926Y-57711702D01*
X82844905Y-57523344D01*
X82766996Y-57406744D01*
X82803374Y-57382437D01*
X82947537Y-57238274D01*
X83060805Y-57068756D01*
X83138826Y-56880398D01*
X83178600Y-56680439D01*
X83178600Y-56476561D01*
X83138826Y-56276602D01*
X83060805Y-56088244D01*
X82947537Y-55918726D01*
X82803374Y-55774563D01*
X82633856Y-55661295D01*
X82445498Y-55583274D01*
X82245539Y-55543500D01*
X82041661Y-55543500D01*
X81841702Y-55583274D01*
X81653344Y-55661295D01*
X81483826Y-55774563D01*
X81339663Y-55918726D01*
X81226395Y-56088244D01*
X81148374Y-56276602D01*
X81108600Y-56476561D01*
X81108600Y-56680439D01*
X81148374Y-56880398D01*
X81226395Y-57068756D01*
X81304304Y-57185356D01*
X81267926Y-57209663D01*
X81123763Y-57353826D01*
X81010495Y-57523344D01*
X80932474Y-57711702D01*
X80892700Y-57911661D01*
X78705968Y-57911661D01*
X78683783Y-57870157D01*
X78604813Y-57773931D01*
X78508587Y-57694961D01*
X78398804Y-57636280D01*
X78279682Y-57600145D01*
X78155800Y-57587944D01*
X73380600Y-57587944D01*
X73256718Y-57600145D01*
X73137596Y-57636280D01*
X73027813Y-57694961D01*
X72931587Y-57773931D01*
X72622274Y-58083244D01*
X71462900Y-58083244D01*
X71339018Y-58095445D01*
X71219896Y-58131580D01*
X71110113Y-58190261D01*
X71013887Y-58269231D01*
X69908987Y-59374131D01*
X69830017Y-59470357D01*
X69771336Y-59580140D01*
X69735201Y-59699262D01*
X69723000Y-59823144D01*
X69723000Y-64745000D01*
X60933235Y-64745000D01*
X60951305Y-64717956D01*
X61029326Y-64529598D01*
X61069100Y-64329639D01*
X61069100Y-64125761D01*
X61029326Y-63925802D01*
X61008264Y-63874953D01*
X61170856Y-63807605D01*
X61340374Y-63694337D01*
X61484537Y-63550174D01*
X61597805Y-63380656D01*
X61675826Y-63192298D01*
X61715600Y-62992339D01*
X61715600Y-62788461D01*
X61675826Y-62588502D01*
X61597805Y-62400144D01*
X61484537Y-62230626D01*
X61340374Y-62086463D01*
X61170856Y-61973195D01*
X60982498Y-61895174D01*
X60782539Y-61855400D01*
X60578661Y-61855400D01*
X60378702Y-61895174D01*
X60190344Y-61973195D01*
X60020826Y-62086463D01*
X59876663Y-62230626D01*
X59763395Y-62400144D01*
X59685374Y-62588502D01*
X59645600Y-62788461D01*
X59645600Y-62992339D01*
X59685374Y-63192298D01*
X59706436Y-63243147D01*
X59543844Y-63310495D01*
X59374326Y-63423763D01*
X59230163Y-63567926D01*
X59116895Y-63737444D01*
X59038874Y-63925802D01*
X58999100Y-64125761D01*
X58999100Y-64329639D01*
X59038874Y-64529598D01*
X59116895Y-64717956D01*
X59134965Y-64745000D01*
X57273235Y-64745000D01*
X57291305Y-64717956D01*
X57369326Y-64529598D01*
X57409100Y-64329639D01*
X57409100Y-64125761D01*
X57369326Y-63925802D01*
X57291305Y-63737444D01*
X57178037Y-63567926D01*
X57033874Y-63423763D01*
X56864356Y-63310495D01*
X56675998Y-63232474D01*
X56476039Y-63192700D01*
X56272161Y-63192700D01*
X56072202Y-63232474D01*
X55883844Y-63310495D01*
X55714326Y-63423763D01*
X55570163Y-63567926D01*
X55456895Y-63737444D01*
X55378874Y-63925802D01*
X55339100Y-64125761D01*
X55339100Y-64329639D01*
X55378874Y-64529598D01*
X55456895Y-64717956D01*
X55474965Y-64745000D01*
X53372278Y-64745000D01*
X52982856Y-64706817D01*
X52639310Y-64603094D01*
X52322463Y-64434624D01*
X52044362Y-64207810D01*
X51815622Y-63931311D01*
X51644940Y-63615643D01*
X51538820Y-63272824D01*
X51498100Y-62885400D01*
X51498100Y-60527861D01*
X54451300Y-60527861D01*
X54451300Y-60731739D01*
X54491074Y-60931698D01*
X54569095Y-61120056D01*
X54682363Y-61289574D01*
X54826526Y-61433737D01*
X54996044Y-61547005D01*
X55184402Y-61625026D01*
X55384361Y-61664800D01*
X55588239Y-61664800D01*
X55788198Y-61625026D01*
X55976556Y-61547005D01*
X56146074Y-61433737D01*
X56290237Y-61289574D01*
X56403505Y-61120056D01*
X56481526Y-60931698D01*
X56521300Y-60731739D01*
X56521300Y-60527861D01*
X56481526Y-60327902D01*
X56403505Y-60139544D01*
X56290237Y-59970026D01*
X56146074Y-59825863D01*
X55976556Y-59712595D01*
X55788198Y-59634574D01*
X55588239Y-59594800D01*
X55384361Y-59594800D01*
X55184402Y-59634574D01*
X54996044Y-59712595D01*
X54826526Y-59825863D01*
X54682363Y-59970026D01*
X54569095Y-60139544D01*
X54491074Y-60327902D01*
X54451300Y-60527861D01*
X51498100Y-60527861D01*
X51498100Y-57543361D01*
X60090100Y-57543361D01*
X60090100Y-57747239D01*
X60129874Y-57947198D01*
X60207895Y-58135556D01*
X60321163Y-58305074D01*
X60465326Y-58449237D01*
X60634844Y-58562505D01*
X60823202Y-58640526D01*
X61023161Y-58680300D01*
X61227039Y-58680300D01*
X61426998Y-58640526D01*
X61615356Y-58562505D01*
X61784874Y-58449237D01*
X61929037Y-58305074D01*
X62042305Y-58135556D01*
X62120326Y-57947198D01*
X62160100Y-57747239D01*
X62160100Y-57543361D01*
X62120326Y-57343402D01*
X62042305Y-57155044D01*
X61929037Y-56985526D01*
X61784874Y-56841363D01*
X61752096Y-56819461D01*
X64306500Y-56819461D01*
X64306500Y-57023339D01*
X64346274Y-57223298D01*
X64424295Y-57411656D01*
X64537563Y-57581174D01*
X64681726Y-57725337D01*
X64851244Y-57838605D01*
X65039602Y-57916626D01*
X65239561Y-57956400D01*
X65443439Y-57956400D01*
X65643398Y-57916626D01*
X65831756Y-57838605D01*
X66001274Y-57725337D01*
X66145437Y-57581174D01*
X66258705Y-57411656D01*
X66336726Y-57223298D01*
X66376500Y-57023339D01*
X66376500Y-56819461D01*
X66336726Y-56619502D01*
X66258705Y-56431144D01*
X66145437Y-56261626D01*
X66001274Y-56117463D01*
X65831756Y-56004195D01*
X65643398Y-55926174D01*
X65641081Y-55925713D01*
X65656098Y-55922726D01*
X65844456Y-55844705D01*
X66013974Y-55731437D01*
X66158137Y-55587274D01*
X66271405Y-55417756D01*
X66349426Y-55229398D01*
X66389200Y-55029439D01*
X66389200Y-54914461D01*
X67976800Y-54914461D01*
X67976800Y-55118339D01*
X68016574Y-55318298D01*
X68094595Y-55506656D01*
X68207863Y-55676174D01*
X68278376Y-55746687D01*
X68232474Y-55857502D01*
X68192700Y-56057461D01*
X68192700Y-56261339D01*
X68232474Y-56461298D01*
X68310495Y-56649656D01*
X68423763Y-56819174D01*
X68567926Y-56963337D01*
X68737444Y-57076605D01*
X68925802Y-57154626D01*
X69125761Y-57194400D01*
X69329639Y-57194400D01*
X69529598Y-57154626D01*
X69717956Y-57076605D01*
X69887474Y-56963337D01*
X70031637Y-56819174D01*
X70144905Y-56649656D01*
X70222926Y-56461298D01*
X70262700Y-56261339D01*
X70262700Y-56057461D01*
X70222926Y-55857502D01*
X70144905Y-55669144D01*
X70031637Y-55499626D01*
X69961124Y-55429113D01*
X70007026Y-55318298D01*
X70022581Y-55240099D01*
X70106902Y-55275026D01*
X70306861Y-55314800D01*
X70510739Y-55314800D01*
X70686507Y-55279838D01*
X70748895Y-55430456D01*
X70862163Y-55599974D01*
X71006326Y-55744137D01*
X71175844Y-55857405D01*
X71364202Y-55935426D01*
X71437287Y-55949963D01*
X71405800Y-56108261D01*
X71405800Y-56312139D01*
X71445574Y-56512098D01*
X71523595Y-56700456D01*
X71636863Y-56869974D01*
X71781026Y-57014137D01*
X71950544Y-57127405D01*
X72138902Y-57205426D01*
X72338861Y-57245200D01*
X72542739Y-57245200D01*
X72742698Y-57205426D01*
X72931056Y-57127405D01*
X73100574Y-57014137D01*
X73244737Y-56869974D01*
X73358005Y-56700456D01*
X73436026Y-56512098D01*
X73475800Y-56312139D01*
X73475800Y-56108261D01*
X73436026Y-55908302D01*
X73358005Y-55719944D01*
X73244737Y-55550426D01*
X73100574Y-55406263D01*
X72931056Y-55292995D01*
X72742698Y-55214974D01*
X72669613Y-55200437D01*
X72701100Y-55042139D01*
X72701100Y-54838261D01*
X72661326Y-54638302D01*
X72583305Y-54449944D01*
X72545765Y-54393761D01*
X76638200Y-54393761D01*
X76638200Y-54597639D01*
X76677974Y-54797598D01*
X76755995Y-54985956D01*
X76869263Y-55155474D01*
X77013426Y-55299637D01*
X77182944Y-55412905D01*
X77371302Y-55490926D01*
X77571261Y-55530700D01*
X77775139Y-55530700D01*
X77975098Y-55490926D01*
X78163456Y-55412905D01*
X78332974Y-55299637D01*
X78477137Y-55155474D01*
X78590405Y-54985956D01*
X78668426Y-54797598D01*
X78708200Y-54597639D01*
X78708200Y-54393761D01*
X78668426Y-54193802D01*
X78616964Y-54069563D01*
X78692005Y-53957256D01*
X78770026Y-53768898D01*
X78796128Y-53637675D01*
X78925456Y-53584105D01*
X79094974Y-53470837D01*
X79239137Y-53326674D01*
X79352405Y-53157156D01*
X79430426Y-52968798D01*
X79470200Y-52768839D01*
X79470200Y-52564961D01*
X79430426Y-52365002D01*
X79352405Y-52176644D01*
X79314865Y-52120461D01*
X82378600Y-52120461D01*
X82378600Y-52324339D01*
X82418374Y-52524298D01*
X82496395Y-52712656D01*
X82609663Y-52882174D01*
X82753826Y-53026337D01*
X82923344Y-53139605D01*
X83111702Y-53217626D01*
X83311661Y-53257400D01*
X83515539Y-53257400D01*
X83715498Y-53217626D01*
X83903856Y-53139605D01*
X84073374Y-53026337D01*
X84217537Y-52882174D01*
X84330805Y-52712656D01*
X84408826Y-52524298D01*
X84448600Y-52324339D01*
X84448600Y-52120461D01*
X84408826Y-51920502D01*
X84345756Y-51768238D01*
X84382019Y-51713966D01*
X84460040Y-51525608D01*
X84499814Y-51325649D01*
X84499814Y-51121771D01*
X84460040Y-50921812D01*
X84382019Y-50733454D01*
X84268751Y-50563936D01*
X84124588Y-50419773D01*
X83955070Y-50306505D01*
X83766712Y-50228484D01*
X83566753Y-50188710D01*
X83362875Y-50188710D01*
X83162916Y-50228484D01*
X82974558Y-50306505D01*
X82805040Y-50419773D01*
X82660877Y-50563936D01*
X82547609Y-50733454D01*
X82469588Y-50921812D01*
X82429814Y-51121771D01*
X82429814Y-51325649D01*
X82469588Y-51525608D01*
X82532658Y-51677872D01*
X82496395Y-51732144D01*
X82418374Y-51920502D01*
X82378600Y-52120461D01*
X79314865Y-52120461D01*
X79239137Y-52007126D01*
X79094974Y-51862963D01*
X78925456Y-51749695D01*
X78737098Y-51671674D01*
X78537139Y-51631900D01*
X78333261Y-51631900D01*
X78133302Y-51671674D01*
X77944944Y-51749695D01*
X77775426Y-51862963D01*
X77631263Y-52007126D01*
X77517995Y-52176644D01*
X77439974Y-52365002D01*
X77413872Y-52496225D01*
X77284544Y-52549795D01*
X77115026Y-52663063D01*
X76970863Y-52807226D01*
X76857595Y-52976744D01*
X76779574Y-53165102D01*
X76739800Y-53365061D01*
X76739800Y-53568939D01*
X76779574Y-53768898D01*
X76831036Y-53893137D01*
X76755995Y-54005444D01*
X76677974Y-54193802D01*
X76638200Y-54393761D01*
X72545765Y-54393761D01*
X72470037Y-54280426D01*
X72325874Y-54136263D01*
X72156356Y-54022995D01*
X71967998Y-53944974D01*
X71779693Y-53907518D01*
X71793893Y-53886267D01*
X71871914Y-53697909D01*
X71911688Y-53497950D01*
X71911688Y-53294072D01*
X71871914Y-53094113D01*
X71793893Y-52905755D01*
X71680625Y-52736237D01*
X71536462Y-52592074D01*
X71366944Y-52478806D01*
X71178586Y-52400785D01*
X70978627Y-52361011D01*
X70774749Y-52361011D01*
X70574790Y-52400785D01*
X70386432Y-52478806D01*
X70216914Y-52592074D01*
X70072751Y-52736237D01*
X69959483Y-52905755D01*
X69881462Y-53094113D01*
X69841688Y-53294072D01*
X69841688Y-53413948D01*
X69749026Y-53475863D01*
X69604863Y-53620026D01*
X69491595Y-53789544D01*
X69413574Y-53977902D01*
X69398019Y-54056101D01*
X69313698Y-54021174D01*
X69113739Y-53981400D01*
X68909861Y-53981400D01*
X68709902Y-54021174D01*
X68521544Y-54099195D01*
X68352026Y-54212463D01*
X68207863Y-54356626D01*
X68094595Y-54526144D01*
X68016574Y-54714502D01*
X67976800Y-54914461D01*
X66389200Y-54914461D01*
X66389200Y-54825561D01*
X66349426Y-54625602D01*
X66271405Y-54437244D01*
X66158137Y-54267726D01*
X66013974Y-54123563D01*
X65844456Y-54010295D01*
X65656098Y-53932274D01*
X65456139Y-53892500D01*
X65252261Y-53892500D01*
X65052302Y-53932274D01*
X64863944Y-54010295D01*
X64694426Y-54123563D01*
X64550263Y-54267726D01*
X64436995Y-54437244D01*
X64358974Y-54625602D01*
X64319200Y-54825561D01*
X64319200Y-55029439D01*
X64358974Y-55229398D01*
X64436995Y-55417756D01*
X64550263Y-55587274D01*
X64694426Y-55731437D01*
X64863944Y-55844705D01*
X65052302Y-55922726D01*
X65054619Y-55923187D01*
X65039602Y-55926174D01*
X64851244Y-56004195D01*
X64681726Y-56117463D01*
X64537563Y-56261626D01*
X64424295Y-56431144D01*
X64346274Y-56619502D01*
X64306500Y-56819461D01*
X61752096Y-56819461D01*
X61615356Y-56728095D01*
X61426998Y-56650074D01*
X61227039Y-56610300D01*
X61023161Y-56610300D01*
X60823202Y-56650074D01*
X60634844Y-56728095D01*
X60465326Y-56841363D01*
X60321163Y-56985526D01*
X60207895Y-57155044D01*
X60129874Y-57343402D01*
X60090100Y-57543361D01*
X51498100Y-57543361D01*
X51498100Y-57109705D01*
X51581413Y-57154237D01*
X51774155Y-57212705D01*
X51924372Y-57227500D01*
X52799828Y-57227500D01*
X52950045Y-57212705D01*
X53142787Y-57154237D01*
X53320419Y-57059291D01*
X53476115Y-56931515D01*
X53603891Y-56775819D01*
X53698837Y-56598187D01*
X53757305Y-56405445D01*
X53777047Y-56205000D01*
X53757305Y-56004555D01*
X53698837Y-55811813D01*
X53603891Y-55634181D01*
X53476115Y-55478485D01*
X53320419Y-55350709D01*
X53142787Y-55255763D01*
X52950045Y-55197295D01*
X52799828Y-55182500D01*
X51924372Y-55182500D01*
X51774155Y-55197295D01*
X51581413Y-55255763D01*
X51498100Y-55300295D01*
X51498100Y-54832838D01*
X54102100Y-54832838D01*
X54102100Y-55577161D01*
X54115990Y-55718192D01*
X54170884Y-55899153D01*
X54260027Y-56065928D01*
X54379993Y-56212107D01*
X54526172Y-56332073D01*
X54692946Y-56421216D01*
X54873907Y-56476110D01*
X55062100Y-56494645D01*
X55250292Y-56476110D01*
X55431253Y-56421216D01*
X55598028Y-56332073D01*
X55744207Y-56212107D01*
X55864173Y-56065928D01*
X55953316Y-55899154D01*
X56008210Y-55718193D01*
X56022100Y-55577162D01*
X56022100Y-54832839D01*
X56008210Y-54691807D01*
X55953316Y-54510846D01*
X55864173Y-54344072D01*
X55744207Y-54197893D01*
X55688848Y-54152461D01*
X61614100Y-54152461D01*
X61614100Y-54356339D01*
X61653874Y-54556298D01*
X61731895Y-54744656D01*
X61845163Y-54914174D01*
X61989326Y-55058337D01*
X62158844Y-55171605D01*
X62347202Y-55249626D01*
X62547161Y-55289400D01*
X62751039Y-55289400D01*
X62950998Y-55249626D01*
X63139356Y-55171605D01*
X63308874Y-55058337D01*
X63453037Y-54914174D01*
X63566305Y-54744656D01*
X63644326Y-54556298D01*
X63684100Y-54356339D01*
X63684100Y-54152461D01*
X63644326Y-53952502D01*
X63566305Y-53764144D01*
X63453037Y-53594626D01*
X63308874Y-53450463D01*
X63139356Y-53337195D01*
X62950998Y-53259174D01*
X62751039Y-53219400D01*
X62547161Y-53219400D01*
X62347202Y-53259174D01*
X62158844Y-53337195D01*
X61989326Y-53450463D01*
X61845163Y-53594626D01*
X61731895Y-53764144D01*
X61653874Y-53952502D01*
X61614100Y-54152461D01*
X55688848Y-54152461D01*
X55598028Y-54077927D01*
X55431254Y-53988784D01*
X55250293Y-53933890D01*
X55062100Y-53915355D01*
X54873908Y-53933890D01*
X54692947Y-53988784D01*
X54526173Y-54077927D01*
X54379994Y-54197893D01*
X54260028Y-54344072D01*
X54170885Y-54510846D01*
X54115990Y-54691807D01*
X54102100Y-54832838D01*
X51498100Y-54832838D01*
X51498100Y-50109705D01*
X51581413Y-50154237D01*
X51774155Y-50212705D01*
X51924372Y-50227500D01*
X52799828Y-50227500D01*
X52950045Y-50212705D01*
X53142787Y-50154237D01*
X53320419Y-50059291D01*
X53476115Y-49931515D01*
X53557096Y-49832838D01*
X54102100Y-49832838D01*
X54102100Y-50577161D01*
X54115990Y-50718192D01*
X54170884Y-50899153D01*
X54260027Y-51065928D01*
X54379993Y-51212107D01*
X54526172Y-51332073D01*
X54692946Y-51421216D01*
X54873907Y-51476110D01*
X55045340Y-51492994D01*
X55077095Y-51569656D01*
X55190363Y-51739174D01*
X55334526Y-51883337D01*
X55504044Y-51996605D01*
X55692402Y-52074626D01*
X55892361Y-52114400D01*
X56086370Y-52114400D01*
X56118495Y-52191956D01*
X56231763Y-52361474D01*
X56375926Y-52505637D01*
X56545444Y-52618905D01*
X56733802Y-52696926D01*
X56933761Y-52736700D01*
X57137639Y-52736700D01*
X57337598Y-52696926D01*
X57525956Y-52618905D01*
X57695474Y-52505637D01*
X57839637Y-52361474D01*
X57868778Y-52317861D01*
X58794700Y-52317861D01*
X58794700Y-52521739D01*
X58834474Y-52721698D01*
X58912495Y-52910056D01*
X59025763Y-53079574D01*
X59169926Y-53223737D01*
X59339444Y-53337005D01*
X59527802Y-53415026D01*
X59727761Y-53454800D01*
X59931639Y-53454800D01*
X60131598Y-53415026D01*
X60319956Y-53337005D01*
X60489474Y-53223737D01*
X60633637Y-53079574D01*
X60746905Y-52910056D01*
X60824926Y-52721698D01*
X60864700Y-52521739D01*
X60864700Y-52317861D01*
X60824926Y-52117902D01*
X60746905Y-51929544D01*
X60633637Y-51760026D01*
X60489474Y-51615863D01*
X60319956Y-51502595D01*
X60131598Y-51424574D01*
X59931639Y-51384800D01*
X59727761Y-51384800D01*
X59527802Y-51424574D01*
X59339444Y-51502595D01*
X59169926Y-51615863D01*
X59025763Y-51760026D01*
X58912495Y-51929544D01*
X58834474Y-52117902D01*
X58794700Y-52317861D01*
X57868778Y-52317861D01*
X57952905Y-52191956D01*
X58030926Y-52003598D01*
X58070700Y-51803639D01*
X58070700Y-51599761D01*
X58030926Y-51399802D01*
X57952905Y-51211444D01*
X57872936Y-51091761D01*
X61601400Y-51091761D01*
X61601400Y-51295639D01*
X61641174Y-51495598D01*
X61719195Y-51683956D01*
X61832463Y-51853474D01*
X61976626Y-51997637D01*
X62146144Y-52110905D01*
X62334502Y-52188926D01*
X62534461Y-52228700D01*
X62738339Y-52228700D01*
X62938298Y-52188926D01*
X63126656Y-52110905D01*
X63296174Y-51997637D01*
X63440337Y-51853474D01*
X63553605Y-51683956D01*
X63631626Y-51495598D01*
X63671400Y-51295639D01*
X63671400Y-51091761D01*
X63631951Y-50893432D01*
X64224939Y-50893432D01*
X64224939Y-51097310D01*
X64264713Y-51297269D01*
X64342734Y-51485627D01*
X64456002Y-51655145D01*
X64600165Y-51799308D01*
X64769683Y-51912576D01*
X64958041Y-51990597D01*
X65158000Y-52030371D01*
X65361878Y-52030371D01*
X65561837Y-51990597D01*
X65750195Y-51912576D01*
X65919713Y-51799308D01*
X66063876Y-51655145D01*
X66177144Y-51485627D01*
X66255165Y-51297269D01*
X66294939Y-51097310D01*
X66294939Y-51077763D01*
X66454997Y-51045926D01*
X66643355Y-50967905D01*
X66714749Y-50920201D01*
X69743096Y-50920201D01*
X69743096Y-51124079D01*
X69782870Y-51324038D01*
X69860891Y-51512396D01*
X69974159Y-51681914D01*
X70118322Y-51826077D01*
X70287840Y-51939345D01*
X70476198Y-52017366D01*
X70676157Y-52057140D01*
X70880035Y-52057140D01*
X71079994Y-52017366D01*
X71268352Y-51939345D01*
X71437870Y-51826077D01*
X71582033Y-51681914D01*
X71637656Y-51598669D01*
X71683166Y-51666780D01*
X71827329Y-51810943D01*
X71996847Y-51924211D01*
X72185205Y-52002232D01*
X72385164Y-52042006D01*
X72589042Y-52042006D01*
X72789001Y-52002232D01*
X72977359Y-51924211D01*
X73146877Y-51810943D01*
X73291040Y-51666780D01*
X73404308Y-51497262D01*
X73482329Y-51308904D01*
X73522103Y-51108945D01*
X73522103Y-51031779D01*
X73629998Y-51010318D01*
X73818356Y-50932297D01*
X73987874Y-50819029D01*
X74092196Y-50714707D01*
X74219426Y-50841937D01*
X74388944Y-50955205D01*
X74577302Y-51033226D01*
X74777261Y-51073000D01*
X74981139Y-51073000D01*
X75181098Y-51033226D01*
X75369456Y-50955205D01*
X75538974Y-50841937D01*
X75683137Y-50697774D01*
X75796405Y-50528256D01*
X75874426Y-50339898D01*
X75914200Y-50139939D01*
X75914200Y-49936061D01*
X75874426Y-49736102D01*
X75796405Y-49547744D01*
X75683137Y-49378226D01*
X75538974Y-49234063D01*
X75369456Y-49120795D01*
X75283429Y-49085161D01*
X80854600Y-49085161D01*
X80854600Y-49289039D01*
X80894374Y-49488998D01*
X80972395Y-49677356D01*
X81085663Y-49846874D01*
X81229826Y-49991037D01*
X81399344Y-50104305D01*
X81587702Y-50182326D01*
X81787661Y-50222100D01*
X81991539Y-50222100D01*
X82191498Y-50182326D01*
X82234144Y-50164661D01*
X86099700Y-50164661D01*
X86099700Y-50368539D01*
X86139474Y-50568498D01*
X86217495Y-50756856D01*
X86330763Y-50926374D01*
X86474926Y-51070537D01*
X86497694Y-51085750D01*
X86474926Y-51100963D01*
X86330763Y-51245126D01*
X86217495Y-51414644D01*
X86139474Y-51603002D01*
X86099700Y-51802961D01*
X86099700Y-52006839D01*
X86139474Y-52206798D01*
X86217495Y-52395156D01*
X86330763Y-52564674D01*
X86474926Y-52708837D01*
X86538947Y-52751615D01*
X86538426Y-52751963D01*
X86394263Y-52896126D01*
X86280995Y-53065644D01*
X86202974Y-53254002D01*
X86163200Y-53453961D01*
X86163200Y-53657839D01*
X86202974Y-53857798D01*
X86280995Y-54046156D01*
X86394263Y-54215674D01*
X86538426Y-54359837D01*
X86707944Y-54473105D01*
X86896302Y-54551126D01*
X87096261Y-54590900D01*
X87300139Y-54590900D01*
X87500098Y-54551126D01*
X87688456Y-54473105D01*
X87857974Y-54359837D01*
X88002137Y-54215674D01*
X88115405Y-54046156D01*
X88193426Y-53857798D01*
X88233200Y-53657839D01*
X88233200Y-53453961D01*
X88193426Y-53254002D01*
X88115405Y-53065644D01*
X88002137Y-52896126D01*
X87857974Y-52751963D01*
X87793953Y-52709185D01*
X87794474Y-52708837D01*
X87938637Y-52564674D01*
X88051905Y-52395156D01*
X88129926Y-52206798D01*
X88169700Y-52006839D01*
X88169700Y-51802961D01*
X88129926Y-51603002D01*
X88051905Y-51414644D01*
X87938637Y-51245126D01*
X87794474Y-51100963D01*
X87771706Y-51085750D01*
X87794474Y-51070537D01*
X87938637Y-50926374D01*
X88051905Y-50756856D01*
X88129926Y-50568498D01*
X88169700Y-50368539D01*
X88169700Y-50164661D01*
X88129926Y-49964702D01*
X88051905Y-49776344D01*
X87938637Y-49606826D01*
X87794474Y-49462663D01*
X87624956Y-49349395D01*
X87436598Y-49271374D01*
X87236639Y-49231600D01*
X87032761Y-49231600D01*
X86832802Y-49271374D01*
X86644444Y-49349395D01*
X86474926Y-49462663D01*
X86330763Y-49606826D01*
X86217495Y-49776344D01*
X86139474Y-49964702D01*
X86099700Y-50164661D01*
X82234144Y-50164661D01*
X82379856Y-50104305D01*
X82549374Y-49991037D01*
X82693537Y-49846874D01*
X82806805Y-49677356D01*
X82884826Y-49488998D01*
X82924600Y-49289039D01*
X82924600Y-49085161D01*
X82884826Y-48885202D01*
X82806805Y-48696844D01*
X82693537Y-48527326D01*
X82549374Y-48383163D01*
X82379856Y-48269895D01*
X82191498Y-48191874D01*
X81991539Y-48152100D01*
X81787661Y-48152100D01*
X81587702Y-48191874D01*
X81399344Y-48269895D01*
X81229826Y-48383163D01*
X81085663Y-48527326D01*
X80972395Y-48696844D01*
X80894374Y-48885202D01*
X80854600Y-49085161D01*
X75283429Y-49085161D01*
X75181098Y-49042774D01*
X74981139Y-49003000D01*
X74777261Y-49003000D01*
X74577302Y-49042774D01*
X74388944Y-49120795D01*
X74219426Y-49234063D01*
X74115104Y-49338385D01*
X73987874Y-49211155D01*
X73818356Y-49097887D01*
X73629998Y-49019866D01*
X73430039Y-48980092D01*
X73226161Y-48980092D01*
X73026202Y-49019866D01*
X72837844Y-49097887D01*
X72668326Y-49211155D01*
X72524163Y-49355318D01*
X72410895Y-49524836D01*
X72332874Y-49713194D01*
X72329030Y-49732519D01*
X72287774Y-49691263D01*
X72118256Y-49577995D01*
X71929898Y-49499974D01*
X71729939Y-49460200D01*
X71526061Y-49460200D01*
X71326102Y-49499974D01*
X71137744Y-49577995D01*
X70968226Y-49691263D01*
X70824063Y-49835426D01*
X70722691Y-49987140D01*
X70676157Y-49987140D01*
X70476198Y-50026914D01*
X70287840Y-50104935D01*
X70118322Y-50218203D01*
X69974159Y-50362366D01*
X69860891Y-50531884D01*
X69782870Y-50720242D01*
X69743096Y-50920201D01*
X66714749Y-50920201D01*
X66812873Y-50854637D01*
X66957036Y-50710474D01*
X67070304Y-50540956D01*
X67148325Y-50352598D01*
X67188099Y-50152639D01*
X67188099Y-49948761D01*
X67148325Y-49748802D01*
X67070304Y-49560444D01*
X66957036Y-49390926D01*
X66812873Y-49246763D01*
X66643355Y-49133495D01*
X66454997Y-49055474D01*
X66255038Y-49015700D01*
X66051160Y-49015700D01*
X65851201Y-49055474D01*
X65662843Y-49133495D01*
X65493325Y-49246763D01*
X65349162Y-49390926D01*
X65235894Y-49560444D01*
X65157873Y-49748802D01*
X65118099Y-49948761D01*
X65118099Y-49968308D01*
X64958041Y-50000145D01*
X64769683Y-50078166D01*
X64600165Y-50191434D01*
X64456002Y-50335597D01*
X64342734Y-50505115D01*
X64264713Y-50693473D01*
X64224939Y-50893432D01*
X63631951Y-50893432D01*
X63631626Y-50891802D01*
X63553605Y-50703444D01*
X63440337Y-50533926D01*
X63296174Y-50389763D01*
X63126656Y-50276495D01*
X62938298Y-50198474D01*
X62738339Y-50158700D01*
X62534461Y-50158700D01*
X62334502Y-50198474D01*
X62146144Y-50276495D01*
X61976626Y-50389763D01*
X61832463Y-50533926D01*
X61719195Y-50703444D01*
X61641174Y-50891802D01*
X61601400Y-51091761D01*
X57872936Y-51091761D01*
X57839637Y-51041926D01*
X57695474Y-50897763D01*
X57525956Y-50784495D01*
X57337598Y-50706474D01*
X57137639Y-50666700D01*
X56943630Y-50666700D01*
X56911505Y-50589144D01*
X56798237Y-50419626D01*
X56654074Y-50275463D01*
X56484556Y-50162195D01*
X56296198Y-50084174D01*
X56096239Y-50044400D01*
X56022100Y-50044400D01*
X56022100Y-49832839D01*
X56008210Y-49691807D01*
X55953316Y-49510846D01*
X55864173Y-49344072D01*
X55744207Y-49197893D01*
X55598028Y-49077927D01*
X55431254Y-48988784D01*
X55250293Y-48933890D01*
X55062100Y-48915355D01*
X54873908Y-48933890D01*
X54692947Y-48988784D01*
X54526173Y-49077927D01*
X54379994Y-49197893D01*
X54260028Y-49344072D01*
X54170885Y-49510846D01*
X54115990Y-49691807D01*
X54102100Y-49832838D01*
X53557096Y-49832838D01*
X53603891Y-49775819D01*
X53698837Y-49598187D01*
X53757305Y-49405445D01*
X53777047Y-49205000D01*
X53757305Y-49004555D01*
X53698837Y-48811813D01*
X53603891Y-48634181D01*
X53476115Y-48478485D01*
X53320419Y-48350709D01*
X53142787Y-48255763D01*
X52950045Y-48197295D01*
X52799828Y-48182500D01*
X51924372Y-48182500D01*
X51774155Y-48197295D01*
X51581413Y-48255763D01*
X51498100Y-48300295D01*
X51498100Y-46824561D01*
X65118099Y-46824561D01*
X65118099Y-47028439D01*
X65157873Y-47228398D01*
X65235894Y-47416756D01*
X65349162Y-47586274D01*
X65493325Y-47730437D01*
X65662843Y-47843705D01*
X65851201Y-47921726D01*
X66051160Y-47961500D01*
X66255038Y-47961500D01*
X66454997Y-47921726D01*
X66643355Y-47843705D01*
X66812873Y-47730437D01*
X66957036Y-47586274D01*
X67070304Y-47416756D01*
X67148325Y-47228398D01*
X67188099Y-47028439D01*
X67188099Y-46824561D01*
X67148325Y-46624602D01*
X67070304Y-46436244D01*
X66957036Y-46266726D01*
X66926310Y-46236000D01*
X68750028Y-46236000D01*
X68750028Y-47236000D01*
X68762288Y-47360482D01*
X68798598Y-47480180D01*
X68857563Y-47590494D01*
X68936915Y-47687185D01*
X69033606Y-47766537D01*
X69143920Y-47825502D01*
X69263618Y-47861812D01*
X69388100Y-47874072D01*
X70388100Y-47874072D01*
X70512582Y-47861812D01*
X70632280Y-47825502D01*
X70715326Y-47781112D01*
X70827033Y-47827383D01*
X71046312Y-47871000D01*
X71269888Y-47871000D01*
X71489167Y-47827383D01*
X71695724Y-47741824D01*
X71793100Y-47676759D01*
X71890476Y-47741824D01*
X72097033Y-47827383D01*
X72316312Y-47871000D01*
X72539888Y-47871000D01*
X72759167Y-47827383D01*
X72965724Y-47741824D01*
X73063100Y-47676759D01*
X73160476Y-47741824D01*
X73367033Y-47827383D01*
X73586312Y-47871000D01*
X73809888Y-47871000D01*
X74029167Y-47827383D01*
X74235724Y-47741824D01*
X74333100Y-47676759D01*
X74430476Y-47741824D01*
X74637033Y-47827383D01*
X74856312Y-47871000D01*
X75079888Y-47871000D01*
X75299167Y-47827383D01*
X75505724Y-47741824D01*
X75603100Y-47676759D01*
X75700476Y-47741824D01*
X75907033Y-47827383D01*
X76126312Y-47871000D01*
X76349888Y-47871000D01*
X76569167Y-47827383D01*
X76775724Y-47741824D01*
X76930030Y-47638720D01*
X76944650Y-47727588D01*
X77148926Y-47818458D01*
X77367005Y-47867731D01*
X77590506Y-47873511D01*
X77810840Y-47835577D01*
X78019540Y-47755387D01*
X78071550Y-47727588D01*
X78106661Y-47514166D01*
X77508100Y-46915605D01*
X77493958Y-46929748D01*
X77373100Y-46808890D01*
X77373100Y-46736000D01*
X77687705Y-46736000D01*
X78286266Y-47334561D01*
X78499688Y-47299450D01*
X78590558Y-47095174D01*
X78639831Y-46877095D01*
X78645611Y-46653594D01*
X78607677Y-46433260D01*
X78587237Y-46380061D01*
X79597300Y-46380061D01*
X79597300Y-46583939D01*
X79637074Y-46783898D01*
X79715095Y-46972256D01*
X79828363Y-47141774D01*
X79972526Y-47285937D01*
X80142044Y-47399205D01*
X80330402Y-47477226D01*
X80530361Y-47517000D01*
X80734239Y-47517000D01*
X80934198Y-47477226D01*
X81122556Y-47399205D01*
X81292074Y-47285937D01*
X81436237Y-47141774D01*
X81549505Y-46972256D01*
X81627526Y-46783898D01*
X81667300Y-46583939D01*
X81667300Y-46380061D01*
X81627526Y-46180102D01*
X81549505Y-45991744D01*
X81436237Y-45822226D01*
X81292074Y-45678063D01*
X81122556Y-45564795D01*
X80934198Y-45486774D01*
X80734239Y-45447000D01*
X80530361Y-45447000D01*
X80330402Y-45486774D01*
X80142044Y-45564795D01*
X79972526Y-45678063D01*
X79828363Y-45822226D01*
X79715095Y-45991744D01*
X79637074Y-46180102D01*
X79597300Y-46380061D01*
X78587237Y-46380061D01*
X78527487Y-46224560D01*
X78499688Y-46172550D01*
X78286266Y-46137439D01*
X77687705Y-46736000D01*
X77373100Y-46736000D01*
X77373100Y-46663110D01*
X77493958Y-46542253D01*
X77508100Y-46556395D01*
X78106661Y-45957834D01*
X78071550Y-45744412D01*
X77867274Y-45653542D01*
X77649195Y-45604269D01*
X77425694Y-45598489D01*
X77205360Y-45636423D01*
X76996660Y-45716613D01*
X76944650Y-45744412D01*
X76930030Y-45833280D01*
X76775724Y-45730176D01*
X76569167Y-45644617D01*
X76349888Y-45601000D01*
X76126312Y-45601000D01*
X75907033Y-45644617D01*
X75700476Y-45730176D01*
X75603100Y-45795241D01*
X75505724Y-45730176D01*
X75299167Y-45644617D01*
X75079888Y-45601000D01*
X74856312Y-45601000D01*
X74637033Y-45644617D01*
X74430476Y-45730176D01*
X74333100Y-45795241D01*
X74235724Y-45730176D01*
X74029167Y-45644617D01*
X73809888Y-45601000D01*
X73586312Y-45601000D01*
X73367033Y-45644617D01*
X73160476Y-45730176D01*
X73063100Y-45795241D01*
X72965724Y-45730176D01*
X72759167Y-45644617D01*
X72539888Y-45601000D01*
X72316312Y-45601000D01*
X72097033Y-45644617D01*
X71890476Y-45730176D01*
X71793100Y-45795241D01*
X71695724Y-45730176D01*
X71489167Y-45644617D01*
X71269888Y-45601000D01*
X71046312Y-45601000D01*
X70827033Y-45644617D01*
X70715326Y-45690888D01*
X70632280Y-45646498D01*
X70512582Y-45610188D01*
X70388100Y-45597928D01*
X69388100Y-45597928D01*
X69263618Y-45610188D01*
X69143920Y-45646498D01*
X69033606Y-45705463D01*
X68936915Y-45784815D01*
X68857563Y-45881506D01*
X68798598Y-45991820D01*
X68762288Y-46111518D01*
X68750028Y-46236000D01*
X66926310Y-46236000D01*
X66812873Y-46122563D01*
X66643355Y-46009295D01*
X66454997Y-45931274D01*
X66255038Y-45891500D01*
X66051160Y-45891500D01*
X65851201Y-45931274D01*
X65662843Y-46009295D01*
X65493325Y-46122563D01*
X65349162Y-46266726D01*
X65235894Y-46436244D01*
X65157873Y-46624602D01*
X65118099Y-46824561D01*
X51498100Y-46824561D01*
X51498100Y-42539178D01*
X51536283Y-42149755D01*
X51640006Y-41806210D01*
X51808476Y-41489362D01*
X52035287Y-41211265D01*
X52311795Y-40982518D01*
X52627459Y-40811840D01*
X52970276Y-40705720D01*
X53357700Y-40665000D01*
X55477965Y-40665000D01*
X55459895Y-40692044D01*
G37*
G04 #@! TD.AperFunction*
D17*
X78028800Y-64745000D02*
X70485000Y-64745000D01*
X70485000Y-60246232D01*
X70658100Y-60246232D01*
X70658100Y-60469808D01*
X70701717Y-60689087D01*
X70787276Y-60895644D01*
X70911488Y-61081540D01*
X71069580Y-61239632D01*
X71255476Y-61363844D01*
X71462033Y-61449403D01*
X71681312Y-61493020D01*
X71904888Y-61493020D01*
X72124167Y-61449403D01*
X72330724Y-61363844D01*
X72428100Y-61298779D01*
X72525476Y-61363844D01*
X72732033Y-61449403D01*
X72951312Y-61493020D01*
X73174888Y-61493020D01*
X73394167Y-61449403D01*
X73600724Y-61363844D01*
X73698100Y-61298779D01*
X73795476Y-61363844D01*
X74002033Y-61449403D01*
X74221312Y-61493020D01*
X74444888Y-61493020D01*
X74664167Y-61449403D01*
X74775874Y-61403132D01*
X74858920Y-61447522D01*
X74978618Y-61483832D01*
X75103100Y-61496092D01*
X75317350Y-61493020D01*
X75476100Y-61334270D01*
X75476100Y-60485020D01*
X75730100Y-60485020D01*
X75730100Y-61334270D01*
X75888850Y-61493020D01*
X76103100Y-61496092D01*
X76227582Y-61483832D01*
X76347280Y-61447522D01*
X76457594Y-61388557D01*
X76554285Y-61309205D01*
X76633637Y-61212514D01*
X76692602Y-61102200D01*
X76728912Y-60982502D01*
X76741172Y-60858020D01*
X76738100Y-60643770D01*
X76579350Y-60485020D01*
X75730100Y-60485020D01*
X75476100Y-60485020D01*
X75465074Y-60485020D01*
X75468100Y-60469808D01*
X75468100Y-60246232D01*
X75465074Y-60231020D01*
X75476100Y-60231020D01*
X75476100Y-59381770D01*
X75730100Y-59381770D01*
X75730100Y-60231020D01*
X76579350Y-60231020D01*
X76738100Y-60072270D01*
X76741172Y-59858020D01*
X76728912Y-59733538D01*
X76692602Y-59613840D01*
X76633637Y-59503526D01*
X76554285Y-59406835D01*
X76457594Y-59327483D01*
X76347280Y-59268518D01*
X76227582Y-59232208D01*
X76103100Y-59219948D01*
X75888850Y-59223020D01*
X75730100Y-59381770D01*
X75476100Y-59381770D01*
X75317350Y-59223020D01*
X75103100Y-59219948D01*
X74978618Y-59232208D01*
X74858920Y-59268518D01*
X74775874Y-59312908D01*
X74664167Y-59266637D01*
X74444888Y-59223020D01*
X74221312Y-59223020D01*
X74002033Y-59266637D01*
X73795476Y-59352196D01*
X73698100Y-59417261D01*
X73600724Y-59352196D01*
X73394167Y-59266637D01*
X73174888Y-59223020D01*
X72951312Y-59223020D01*
X72732033Y-59266637D01*
X72525476Y-59352196D01*
X72428100Y-59417261D01*
X72330724Y-59352196D01*
X72124167Y-59266637D01*
X71904888Y-59223020D01*
X71681312Y-59223020D01*
X71462033Y-59266637D01*
X71255476Y-59352196D01*
X71069580Y-59476408D01*
X70911488Y-59634500D01*
X70787276Y-59820396D01*
X70701717Y-60026953D01*
X70658100Y-60246232D01*
X70485000Y-60246232D01*
X70485000Y-59875750D01*
X71515506Y-58845244D01*
X72885300Y-58845244D01*
X72910076Y-58842804D01*
X72933901Y-58835577D01*
X72955857Y-58823841D01*
X72975103Y-58808047D01*
X73433206Y-58349944D01*
X78028800Y-58349944D01*
X78028800Y-64745000D01*
G04 #@! TA.AperFunction,Conductor*
D18*
G36*
X78028800Y-64745000D02*
G01*
X70485000Y-64745000D01*
X70485000Y-60246232D01*
X70658100Y-60246232D01*
X70658100Y-60469808D01*
X70701717Y-60689087D01*
X70787276Y-60895644D01*
X70911488Y-61081540D01*
X71069580Y-61239632D01*
X71255476Y-61363844D01*
X71462033Y-61449403D01*
X71681312Y-61493020D01*
X71904888Y-61493020D01*
X72124167Y-61449403D01*
X72330724Y-61363844D01*
X72428100Y-61298779D01*
X72525476Y-61363844D01*
X72732033Y-61449403D01*
X72951312Y-61493020D01*
X73174888Y-61493020D01*
X73394167Y-61449403D01*
X73600724Y-61363844D01*
X73698100Y-61298779D01*
X73795476Y-61363844D01*
X74002033Y-61449403D01*
X74221312Y-61493020D01*
X74444888Y-61493020D01*
X74664167Y-61449403D01*
X74775874Y-61403132D01*
X74858920Y-61447522D01*
X74978618Y-61483832D01*
X75103100Y-61496092D01*
X75317350Y-61493020D01*
X75476100Y-61334270D01*
X75476100Y-60485020D01*
X75730100Y-60485020D01*
X75730100Y-61334270D01*
X75888850Y-61493020D01*
X76103100Y-61496092D01*
X76227582Y-61483832D01*
X76347280Y-61447522D01*
X76457594Y-61388557D01*
X76554285Y-61309205D01*
X76633637Y-61212514D01*
X76692602Y-61102200D01*
X76728912Y-60982502D01*
X76741172Y-60858020D01*
X76738100Y-60643770D01*
X76579350Y-60485020D01*
X75730100Y-60485020D01*
X75476100Y-60485020D01*
X75465074Y-60485020D01*
X75468100Y-60469808D01*
X75468100Y-60246232D01*
X75465074Y-60231020D01*
X75476100Y-60231020D01*
X75476100Y-59381770D01*
X75730100Y-59381770D01*
X75730100Y-60231020D01*
X76579350Y-60231020D01*
X76738100Y-60072270D01*
X76741172Y-59858020D01*
X76728912Y-59733538D01*
X76692602Y-59613840D01*
X76633637Y-59503526D01*
X76554285Y-59406835D01*
X76457594Y-59327483D01*
X76347280Y-59268518D01*
X76227582Y-59232208D01*
X76103100Y-59219948D01*
X75888850Y-59223020D01*
X75730100Y-59381770D01*
X75476100Y-59381770D01*
X75317350Y-59223020D01*
X75103100Y-59219948D01*
X74978618Y-59232208D01*
X74858920Y-59268518D01*
X74775874Y-59312908D01*
X74664167Y-59266637D01*
X74444888Y-59223020D01*
X74221312Y-59223020D01*
X74002033Y-59266637D01*
X73795476Y-59352196D01*
X73698100Y-59417261D01*
X73600724Y-59352196D01*
X73394167Y-59266637D01*
X73174888Y-59223020D01*
X72951312Y-59223020D01*
X72732033Y-59266637D01*
X72525476Y-59352196D01*
X72428100Y-59417261D01*
X72330724Y-59352196D01*
X72124167Y-59266637D01*
X71904888Y-59223020D01*
X71681312Y-59223020D01*
X71462033Y-59266637D01*
X71255476Y-59352196D01*
X71069580Y-59476408D01*
X70911488Y-59634500D01*
X70787276Y-59820396D01*
X70701717Y-60026953D01*
X70658100Y-60246232D01*
X70485000Y-60246232D01*
X70485000Y-59875750D01*
X71515506Y-58845244D01*
X72885300Y-58845244D01*
X72910076Y-58842804D01*
X72933901Y-58835577D01*
X72955857Y-58823841D01*
X72975103Y-58808047D01*
X73433206Y-58349944D01*
X78028800Y-58349944D01*
X78028800Y-64745000D01*
G37*
G04 #@! TD.AperFunction*
M02*
